<svg xmlns="http://www.w3.org/2000/svg" viewBox="0 0 198.36 200"><defs><style>.cls-1{fill:#fff;}.cls-2{fill:none;}.cls-3{fill:#acbbbf;}.cls-4{fill:#231f20;}</style></defs><title>Asset 2</title><g id="Layer_2" data-name="Layer 2"><g id="ARTBOARD_1" data-name="ARTBOARD 1"><path class="cls-1" d="M98.85,2.53c1.46-.61,3.71.08,5.28,0,3.19-.15,7.07-1.79,8.88,2.1l.07.11A96.43,96.43,0,0,0,101.42,4c-1.71,0-3.42.06-5.13.14A7.94,7.94,0,0,1,98.85,2.53Z"/><path class="cls-1" d="M14.73,51.75c1.88-2.65,3.25-5,6.16-6.7l2.54-1.43a96.83,96.83,0,0,0-10.9,19.16c-.15-.28-.31-.56-.48-.86C9.87,58.11,12.6,54.76,14.73,51.75Z"/><path class="cls-1" d="M50.57,187.33c-2.87-1.66-4.79-2.9-6.44-5.9-.77-1.41-1.33-2.92-2-4.39,1.29,1,2.59,2,3.94,2.92a96.58,96.58,0,0,0,14.56,8.38C56.75,190.45,54.41,189.55,50.57,187.33Z"/><path class="cls-1" d="M195.91,131.75c-.22,1.56-1.37,3.18-1.83,4.7-1.13,3.76-.59,8.58-5.47,9.09a6.51,6.51,0,0,0-1.82.48,96.17,96.17,0,0,0,7.9-20C195.37,128,196.26,129.33,195.91,131.75Z"/><path class="cls-1" d="M142.5,185.19h0c-.58.23-1.16.45-1.73.64-1.49.51-4,.14-4.54,2.07a.24.24,0,0,0,.29.29c1.75-.34,3.6-.5,5.31-1l.72-.23c-.75,1.19-1.38,2.43-2.1,3.64-1.49,2.48-4.81,2.65-7.18,3.66-3.2,1.38-6.79,4.91-9.93,1.84a7.21,7.21,0,0,0-2.12-1.46,22.47,22.47,0,0,0,4.31-2.07.35.35,0,0,0-.18-.65c-2.18-.16-4.49.71-6.6,1.22a12.63,12.63,0,0,1-1.28.23l0-.12a94.11,94.11,0,0,1-101-52.56c.15-1.62-.94-3.11-1.61-4.58-.9-2-2.31-3.91-2.82-6a.37.37,0,0,0-.7,0c-.56,1.74.35,3.2,1.08,4.77a15.61,15.61,0,0,0-2.83-1c-3.82-1-3.6-10.44-4.36-13.75-1.1-4.83-5.13-7.92-.9-12.74A11.37,11.37,0,0,0,5.36,106c.16,1.08.4,2.16.63,3.18.5,2.2.66,4.59,1.9,6.53a.41.41,0,0,0,.71-.42c-.86-2-.42-4.47-.79-6.61a44.6,44.6,0,0,1-.37-4.48h.11c0-1.14-.07-2.31-.07-3.48A94.11,94.11,0,0,1,42.74,27.33a.78.78,0,0,0,.4,0,4.88,4.88,0,0,0,2-1.34,23.36,23.36,0,0,1,3.55-2.33,14.13,14.13,0,0,0,2.71-1.95c.84-.8,1.49-2.21,2.68-2.57a.4.4,0,0,0,0-.76c-2.23-.64-4.2,2-6,2.93l-.09.05a9.44,9.44,0,0,0,.76-3.71c.23-4.17,9.24-5.93,12.65-7.5,4.43-2,6.83-6.5,12.27-3.44a8.05,8.05,0,0,0,3.94,1.22l0,.11c-.88.26-1.67.53-2.26.7-1.45.42-3.77,1-4,2.77,0,.22.23.29.38.22A24,24,0,0,1,77,10.16c1.39-.24,2.78-.53,4.18-.8s2.28-.06,3.3-.93a.33.33,0,0,0,.12-.17A94.08,94.08,0,0,1,161,28l0-.05c.33.31.68.61,1,.94,1.78,1.76,3.07,3.8,5.14,5.27.24.17.53-.16.39-.4-.64-1-1.06-2.16-1.61-3.24a14.92,14.92,0,0,0-2.42-3,16.17,16.17,0,0,0,4.86-.35c3.35-.44,7.7,9,10.12,11.1,3.11,2.64,7,5.05,5.91,9.73-.58,2.47-.68,4.08.09,5.93a37.42,37.42,0,0,0-3.75-4.9c-.1-.1-.24,0-.18.15,1,2.17,1.91,4.37,3,6.5a22.78,22.78,0,0,0,2.66,4.53,94,94,0,0,1-43.7,125Z"/><path class="cls-2" d="M61.51,23.6a3.43,3.43,0,0,1,0,.71,4.8,4.8,0,0,1,.9-.73h0c.11-.26.21-.52.3-.79a5.67,5.67,0,0,0-1.56.39A.5.5,0,0,1,61.51,23.6Z"/><path class="cls-2" d="M63.49,28a7.81,7.81,0,0,0-.26.82l.66-.38A.86.86,0,0,1,63.49,28Z"/><path class="cls-2" d="M61.29,29.18c-.1.25-.2.5-.29.76l.4-.19A1.86,1.86,0,0,1,61.29,29.18Z"/><path class="cls-2" d="M64.6,23.33a.33.33,0,0,1,.17-.21,2.77,2.77,0,0,0-1.12-.34c0,.1,0,.19,0,.28A.59.59,0,0,1,64.6,23.33Z"/><path class="cls-2" d="M39.84,106.7a.36.36,0,0,1,0-.09l-.14.08-.19.15.05,0C39.68,106.82,39.76,106.75,39.84,106.7Z"/><path class="cls-2" d="M42.24,114.88a3.38,3.38,0,0,1-.72.1c.07.15.15.29.23.44A1.35,1.35,0,0,1,42.24,114.88Z"/><path class="cls-2" d="M60.08,28.19l.27-.48-.06,0c-.09.19-.17.39-.25.58Z"/><path class="cls-2" d="M65.75,26.94a.64.64,0,0,1-.07-.5A3.67,3.67,0,0,0,65.6,24a6.1,6.1,0,0,1-.25,3.37Z"/><path class="cls-2" d="M35.6,74.51a2.63,2.63,0,0,1-.39-.29l.3.43Z"/><path class="cls-2" d="M46,115.59l-.11.09a1.6,1.6,0,0,1-.57.25,2.88,2.88,0,0,0,1.26-.35A3.77,3.77,0,0,1,46,115.59Z"/><path class="cls-2" d="M51.1,29.88a.88.88,0,0,1,0-.17,4.13,4.13,0,0,0-.8,1l.09.38A4.1,4.1,0,0,1,51.1,29.88Z"/><path class="cls-2" d="M34.12,72.4v0A.06.06,0,0,0,34.12,72.4Z"/><path class="cls-2" d="M52.28,33a.71.71,0,0,1,0-.64v0a.82.82,0,0,1-.31-.33l-.15,0a2,2,0,0,1-.08.22s0,.05,0,.08a.66.66,0,0,1-.07.56A1.64,1.64,0,0,0,52.28,33Z"/><path class="cls-2" d="M54.38,32.47h0a.44.44,0,0,1-.15.18l.22,0A.83.83,0,0,1,54.38,32.47Z"/><path class="cls-2" d="M53.61,28.17c0-.19.1-.38.14-.57l-.49.34a.56.56,0,0,1-.1.29,2.54,2.54,0,0,0-.41,1.05l.37-.53C53.27,28.55,53.44,28.36,53.61,28.17Z"/><path class="cls-2" d="M57.67,25.27c-.6.33-1.2.67-1.78,1l-.54.32c0,.23,0,.47,0,.7a.39.39,0,0,1,.11.62l-.16.21c0,.15-.05.3-.07.45A4.36,4.36,0,0,1,55,30a16.58,16.58,0,0,1,1.12-1.78A14.58,14.58,0,0,0,57.67,25.27Z"/><path class="cls-2" d="M56.21,32.06c.43-.16.85-.32,1.27-.5A6.09,6.09,0,0,1,58,28.83,11.57,11.57,0,0,0,56.21,32.06Z"/><path class="cls-2" d="M59.17,26.39a4.84,4.84,0,0,0,1.07-2.62.58.58,0,0,1,0-.14,2.3,2.3,0,0,0-.33.21c-.26.21-.54.4-.83.59a.61.61,0,0,1,.09.2A3.38,3.38,0,0,1,59.17,26.39Z"/><path class="cls-2" d="M103.76,113.75l0,.07a.17.17,0,0,1,0-.07Z"/><path class="cls-2" d="M118.61,86.58l.23,0a13.2,13.2,0,0,1-4-2.57A6.74,6.74,0,0,0,118.61,86.58Z"/><polygon class="cls-2" points="111.58 139.3 111.58 139.31 111.59 139.31 111.58 139.3"/><path class="cls-2" d="M102,50.64c0-.09-.05-.17-.08-.25l-.41-.11h0a4.6,4.6,0,0,0-.06.52,3,3,0,0,1,.26-.16A.47.47,0,0,1,102,50.64Z"/><path class="cls-2" d="M99.73,56.32a3.33,3.33,0,0,1-1.37-.5,2.92,2.92,0,0,1-.49.19,1.72,1.72,0,0,1,.32.34Z"/><path class="cls-2" d="M98.85,53.13l0,0h0l0-.11a.5.5,0,0,1-.2.08l.07.05Z"/><path class="cls-2" d="M42.17,177c.63,1.47,1.19,3,2,4.39,1.65,3,3.57,4.24,6.44,5.9,3.84,2.22,6.18,3.12,10.1,1A96.58,96.58,0,0,1,46.11,180C44.76,179,43.46,178,42.17,177Z"/><path class="cls-2" d="M49.77,109.87l.27.18a7.12,7.12,0,0,0-.59-1.17.86.86,0,0,1,0,.16,2.31,2.31,0,0,1,.12.52Z"/><path class="cls-2" d="M12.53,62.78a96.83,96.83,0,0,1,10.9-19.16l-2.54,1.43c-2.91,1.67-4.28,4.05-6.16,6.7-2.13,3-4.86,6.36-2.68,10.17C12.22,62.22,12.38,62.5,12.53,62.78Z"/><path class="cls-2" d="M113.08,4.75,113,4.64c-1.81-3.89-5.69-2.25-8.88-2.1-1.57.07-3.82-.62-5.28,0a7.94,7.94,0,0,0-2.56,1.64C98,4.09,99.71,4,101.42,4A96.43,96.43,0,0,1,113.08,4.75Z"/><path class="cls-2" d="M102.61,111.85c.18.25.37.52.55.8l.32,0a3.08,3.08,0,0,0-.54-.9A2.19,2.19,0,0,1,102.61,111.85Z"/><path class="cls-2" d="M33.53,76.28a2,2,0,0,1-.45-.24c.08.11.14.22.22.32Z"/><path class="cls-2" d="M110.32,138.43l-.18.13c.1,0,.19-.05.29-.06Z"/><path class="cls-2" d="M102,118.16l-.22.13a1,1,0,0,0,1.35-.33l-.06-.15A1.48,1.48,0,0,1,102,118.16Z"/><path class="cls-2" d="M73.1,116.92a.61.61,0,0,1,.05.12,1.77,1.77,0,0,0,0-.2A.19.19,0,0,1,73.1,116.92Z"/><path class="cls-2" d="M111,140.91a7.27,7.27,0,0,0-2.17.24,1.37,1.37,0,0,0,.12,1,4.7,4.7,0,0,1,4.26-1,8.19,8.19,0,0,0-.91-1.13C112.46,140.66,111.53,140.91,111,140.91Z"/><path class="cls-2" d="M100.91,110.2a.69.69,0,0,1-.1.72h0c.37,0,.77-.08,1.16-.08A8.36,8.36,0,0,0,100.91,110.2Z"/><path class="cls-2" d="M102.5,115.17l0-.09h0a1.94,1.94,0,0,1,0,.24h.1Z"/><path class="cls-2" d="M113.73,142.56a1.46,1.46,0,0,1-.29,0,1.7,1.7,0,0,1,.6.35c0-.15-.08-.3-.13-.45Z"/><path class="cls-2" d="M149.32,131.54c.56-.07,1.09-.16,1.62-.27a15.63,15.63,0,0,1-1.66.12A.66.66,0,0,1,149.32,131.54Z"/><path class="cls-2" d="M152.83,117.73c-.18,2.18-.91,4.29-3,5.39a11.31,11.31,0,0,1-3.4,1.15l.11.12c1.21-.24,2.51,0,3.76-.16a6.17,6.17,0,0,0,3-3.57c0-.3.07-.62.12-.93,0-.07,0-.13,0-.19a.28.28,0,0,1,.06-.2l.06-.25a.5.5,0,0,1,.37-.38,8.22,8.22,0,0,0-1.18-1S152.84,117.71,152.83,117.73Z"/><path class="cls-2" d="M31.68,72.94c-.09-.13-.18-.25-.26-.39.12.37.26.74.4,1.09C31.77,73.4,31.72,73.17,31.68,72.94Z"/><path class="cls-2" d="M157,122.93a.64.64,0,0,1-.2-.23,19,19,0,0,0-1.84-3c.43,1.6.66,3.34-.07,4.69A14,14,0,0,0,157,122.93Z"/><path class="cls-2" d="M147.32,117.11l-.62.45a5.56,5.56,0,0,0,1.78-.4C148.09,117.13,147.71,117.11,147.32,117.11Z"/><path class="cls-2" d="M158,123a.5.5,0,0,1,0,.46,10.87,10.87,0,0,1-1.35,2,.56.56,0,0,1,.19.76c-.15.26-.32.51-.49.75.54-.23,1.07-.47,1.62-.75a.36.36,0,0,1,.48.48,6.16,6.16,0,0,1-1.14,1.68.76.76,0,0,0,0,.16,6.85,6.85,0,0,0,1.87-2.76.54.54,0,0,1,.27-.3,12.62,12.62,0,0,0-1.18-2.66A.67.67,0,0,1,158,123Z"/><path class="cls-2" d="M147.34,119.41l-.17,0a8.37,8.37,0,0,1-1.8.2s0,0,0,0a6.89,6.89,0,0,0,1.5-.14C147,119.52,147.2,119.47,147.34,119.41Z"/><path class="cls-2" d="M147.41,121.66a5.84,5.84,0,0,0,1-.22,5.35,5.35,0,0,0,3.55-3.84.44.44,0,0,1,.29-.3l-.68-.31a.53.53,0,0,1-.21.11,2.74,2.74,0,0,1-.28.05.31.31,0,0,1,0,.1c-.63,1.71-1.29,3.34-3.05,4.17Z"/><path class="cls-2" d="M140.55,121.64a13.24,13.24,0,0,0-.07,4.57.48.48,0,0,1,.31-.22,14.53,14.53,0,0,1,1.34-6.62c.11-.23.24-.48.38-.74A4.73,4.73,0,0,0,140.55,121.64Z"/><path class="cls-2" d="M144.37,130.82l.06.12a4.38,4.38,0,0,0,1.1.5l-1-.6A.43.43,0,0,1,144.37,130.82Z"/><path class="cls-2" d="M186.79,146a6.51,6.51,0,0,1,1.82-.48c4.88-.51,4.34-5.33,5.47-9.09.46-1.52,1.61-3.14,1.83-4.7.35-2.42-.54-3.79-1.22-5.68A96.17,96.17,0,0,1,186.79,146Z"/><path class="cls-2" d="M27.82,74.15a7.37,7.37,0,0,1-.95-3.09c-.08-.33-.15-.66-.2-1a6.61,6.61,0,0,0,1,3.83Z"/><path class="cls-2" d="M33.78,158.44c-.71-.87-1.41-1.79-2.05-2.75a16.21,16.21,0,0,0,2,2.87,6.42,6.42,0,0,1,.54.51,0,0,0,0,0,0,0l.53.38A6.61,6.61,0,0,1,33.78,158.44Z"/><path class="cls-2" d="M186.2,60.2a22.78,22.78,0,0,1-2.66-4.53c-1.09-2.13-2-4.33-3-6.5-.06-.12.08-.25.18-.15a37.42,37.42,0,0,1,3.75,4.9c-.77-1.85-.67-3.46-.09-5.93,1.1-4.68-2.8-7.09-5.91-9.73-2.42-2.07-6.77-11.54-10.12-11.1a16.17,16.17,0,0,1-4.86.35,14.92,14.92,0,0,1,2.42,3c.55,1.08,1,2.21,1.61,3.24.14.24-.15.57-.39.4-2.07-1.47-3.36-3.51-5.14-5.27-.32-.33-.67-.63-1-.94l0,.05A94.08,94.08,0,0,0,84.58,8.26a.33.33,0,0,1-.12.17c-1,.87-1.95.68-3.3.93s-2.79.56-4.18.8a24,24,0,0,0-5.18,1.56c-.15.07-.41,0-.38-.22.23-1.77,2.55-2.35,4-2.77.59-.17,1.38-.44,2.26-.7l0-.11A8.05,8.05,0,0,1,73.71,6.7c-5.44-3.06-7.84,1.4-12.27,3.44C58,11.71,49,13.47,48.79,17.64A9.44,9.44,0,0,1,48,21.35l.09-.05c1.79-.94,3.76-3.57,6-2.93a.4.4,0,0,1,0,.76c-1.19.36-1.84,1.77-2.68,2.57a14.13,14.13,0,0,1-2.71,1.95A23.36,23.36,0,0,0,45.17,26a4.88,4.88,0,0,1-2,1.34.78.78,0,0,1-.4,0A94.11,94.11,0,0,0,7.48,100.69c0,1.17,0,2.34.07,3.48H7.44a44.6,44.6,0,0,0,.37,4.48c.37,2.14-.07,4.59.79,6.61a.41.41,0,0,1-.71.42c-1.24-1.94-1.4-4.33-1.9-6.53-.23-1-.47-2.1-.63-3.18a11.37,11.37,0,0,1-1.08,1.42c-4.23,4.82-.2,7.91.9,12.74.76,3.31.54,12.71,4.36,13.75a15.61,15.61,0,0,1,2.83,1c-.73-1.57-1.64-3-1.08-4.77a.37.37,0,0,1,.7,0c.51,2.1,1.92,4.06,2.82,6,.67,1.47,1.76,3,1.61,4.58a94.11,94.11,0,0,0,101,52.56l0,.12a12.63,12.63,0,0,0,1.28-.23c2.11-.51,4.42-1.38,6.6-1.22a.35.35,0,0,1,.18.65,22.47,22.47,0,0,1-4.31,2.07,7.21,7.21,0,0,1,2.12,1.46c3.14,3.07,6.73-.46,9.93-1.84,2.37-1,5.69-1.18,7.18-3.66.72-1.21,1.35-2.45,2.1-3.64l-.72.23c-1.71.5-3.56.66-5.31,1a.24.24,0,0,1-.29-.29c.5-1.93,3-1.56,4.54-2.07.57-.19,1.15-.41,1.73-.64h0a94,94,0,0,0,43.7-125ZM168.86,45.87a5.81,5.81,0,0,1,5.36,1c2,1.34,2.78,3.74,4.66,5.19.46.36.06,1.14-.47.81-2.07-1.28-3.55-3.66-5.69-4.71-1.79-.88-4-1-5,1.17s.34,3.22.62,5.09c.07.46-.38,1-.85.66C164.06,52.87,165,47.15,168.86,45.87Zm-10.7,36.64c3.08-2.88,6.23.63,6.67,3.7,0,.35-.36.7-.66.38-.79-.86-1.06-2.19-1.93-3-1.62-1.42-3.46.65-3.8,2.05a7.83,7.83,0,0,0,.45,5.2c.76,1.56,1.82,3.51,3.32,4.47,2.4,1.54,1.23-4.54,1-5.54-.13-.52.48-1.11,1-.75,2.65,1.89,3.33,8.34-.62,9.23-3.11.71-5.67-4-6.64-6.25C155.6,89,155.62,84.88,158.16,82.51Zm-7.25-46.32c-.93,6.18-9.75,3.7-13.41,2.26C133.18,36.74,124.86,32,123.31,27c-.53-1.71-.35-3.76,1.47-4.71,3.47-1.82,5.37-.7,8.91.25a.47.47,0,0,1-.25.9,35.22,35.22,0,0,0-4.22-.64c-.54.24-1,.47-1.45.71a.65.65,0,0,1,.4.1,10.79,10.79,0,0,0,1.49,1c.23.1.06.43-.16.38-2.53-.52-.87-.14-.87-.09a8.43,8.43,0,0,0,.31,1.51,7.87,7.87,0,0,0,.49,1,2.93,2.93,0,0,1-.07-1.5c.14-.54.85-.35.91.12a5.67,5.67,0,0,0,1.94,3.21,8.34,8.34,0,0,1-2-3.87c-.06-.36.44-.64.63-.26a12.31,12.31,0,0,0,1.84,2.67.37.37,0,0,1,.64-.27,26.21,26.21,0,0,0,2.89,2.59c-.32-.34-.64-.67-.95-1a.42.42,0,0,1,.59-.6,39.26,39.26,0,0,0,3.45,2.72,6.14,6.14,0,0,0,.59.35c-.22-.2-.44-.4-.64-.55a13.06,13.06,0,0,1-2.61-2.48c-.23-.31.1-.73.44-.72a.55.55,0,0,1,1-.55,5.16,5.16,0,0,0,1.14,1.27c2.17,1.16,4.67,3.14,4.58,5.53a.93.93,0,0,1-.68.9c-4,1-8.42-1.08-11.71-3.22-2.65-1.72-4.52-4.17-4.33-7.46a.85.85,0,0,1,.15-.41c-2.32,1.47-2.58,3-.78,4.67a26.27,26.27,0,0,0,3.35,3c2.92,2.16,6.05,4.47,9.58,5.56,1.83.56,4,1.34,6,1.18,3.48-.29,3.53-4.3,1.49-6.48-2.26-2.4-4.86-3.88-7.62-5.57a.76.76,0,0,1,.58-1.39C143.78,25.66,151.65,31.28,150.91,36.19Zm-22,53.3c-5.56,1.17-13.26.59-17.57-3.75-2.38-2.41-4.34-8.89-.24-10.59.49-.2.82.36.76.76-.28,1.93-1,4.33-.09,6.26a4.05,4.05,0,0,1,.24-2.9c1.58-3.17,4.77-3.15,7.82-2.38a.38.38,0,0,1,0,.72c-.33.07-.72.12-1.13.18.19.72-1.4,1.31-1.51,1.88-.29,1.6,2.26,2.72,3.42,3.21,1.4.59,3,.33,4.37.9.3.12.49.62.1.8a6.77,6.77,0,0,1-1.39.44,6.89,6.89,0,0,0,3.94-.77.35.35,0,0,1,.55.43c-1,2-3.41,2.66-5.86,2.5,0,0,0,.07,0,.1a12,12,0,0,0,5.52-.37c1.71-.61,2.13-1.92,3.41-3a.38.38,0,0,1,.65.27,4,4,0,0,1-2.71,4.55A.49.49,0,0,1,128.93,89.49Zm-11.79,1.16a5.5,5.5,0,0,1-5-.85C111,89,109,87.46,109.58,85.87a.53.53,0,0,1,.64-.36c.66.23.9.69,1.37,1.18a8.33,8.33,0,0,0,1.9,1.6c1.18.65,2.51,1,3.75,1.58C117.62,90,117.44,90.54,117.14,90.65Zm6.65-71.56a.37.37,0,0,1,0,.74c-3.6.24-4.22,4.28-2.59,6.86a15.65,15.65,0,0,0,3.33,3.79c2,1.62,4.5,2.81,6.07,4.86.19.25-.12.56-.38.49-4.29-1.06-8.82-5.26-10.76-9.14C117.74,23.26,119.72,19,123.79,19.09Zm-2.23-1.69a0,0,0,1,1,0,.09A0,0,0,1,1,121.56,17.4ZM92.22,12.64c3.39-2.4,7.38-2.45,11.37-2.21,3.83.24,7.9,0,11.53,1.42.91.37,1.85.82,2.79,1.27a10,10,0,0,1,1.32.08.33.33,0,0,1,.1.58,16.63,16.63,0,0,0,3.15,1.1c2.54.55,5.1.67,7.68,1a66.34,66.34,0,0,1,11.83,3,.75.75,0,0,1-.39,1.44c-4.88-1-9.72-2.37-14.68-2.76a24.45,24.45,0,0,1-8.28-1.92c-.78-.34-1.54-.62-2.3-.88a11.37,11.37,0,0,1-3.46-.27c-3.33-.65-8.09-1.9-11,.57a.41.41,0,0,1-.59-.58,6.87,6.87,0,0,1,2.75-1.77l-.49,0c-3.92-.29-7.24.83-11,1.25C91.83,14,91.74,13,92.22,12.64Zm.2,31.52a.37.37,0,0,1,.62.36c-1.09,3.54-3.47,7.89-1.33,11.56a6.93,6.93,0,0,0,1.12,1.45A11.14,11.14,0,0,1,94.1,46.84c1.17-1.49,5.42-6,7.74-3.67a.28.28,0,0,1,0,.4c-.89.88-1.49.79-2.64,1.41a9.86,9.86,0,0,0-3.3,3.25,2,2,0,0,0-.11.2h0a3.78,3.78,0,0,1,.22-.33,7.69,7.69,0,0,1,4.37-3c1.81-.39,2.69.58,3.85,1.73.26.26-.09.74-.41.53a2.91,2.91,0,0,0-2-.5A3.83,3.83,0,0,1,103.79,49a.36.36,0,0,1-.48.49,4.44,4.44,0,0,1,.47,1.48c.23,1.68-.28,4-1.87,4.93a3.39,3.39,0,0,1-1.61.46,4,4,0,0,1,1.15.21.28.28,0,0,1,.12.45,5.83,5.83,0,0,1-7,.46,1.14,1.14,0,0,1-.11-.11c0,.17,0,.34-.05.51a.77.77,0,0,1-.43.58,10.2,10.2,0,0,0,5,1.64c.62-.58,1.17-.58,2.13-.93a7.24,7.24,0,0,0,4.11-4c1-2.44.52-4.47.07-6.89a3.2,3.2,0,0,1,0-2c.07-.31.59-.33.64,0,.61,3.54,2.4,7.83,0,11.22a14.52,14.52,0,0,1-1.46,1.79l.35-.14c.43-.21,1,.35.55.71-4,3.47-11.71,3.13-14.81-1.43C87.72,54.13,88.78,47.6,92.42,44.16Zm21.81,99.78a.32.32,0,0,1-.14.08c-.6.18-1.08-.25-1.68-.28a1.71,1.71,0,0,0-1.6.52.5.5,0,0,1-.86-.51,2.5,2.5,0,0,1,1.79-1.32,2.51,2.51,0,0,0-2.26.37.41.41,0,0,1-.55,0,.51.51,0,0,1-.8-.08,2.63,2.63,0,0,1-.43-1.38.45.45,0,0,1-.43-.39,3.57,3.57,0,0,1,1-2.63,4.48,4.48,0,0,1,.68-.58,2.71,2.71,0,0,0-1.68.75,5.64,5.64,0,0,0-.51,4.85c.24.53-.3,1.33-.9.9a3.18,3.18,0,0,1-1.12-3.09,10.59,10.59,0,0,1,.5-2.92H105a3.2,3.2,0,0,0-.62,1.42c-.21,1.22-.81,4.06.29,4.95.31.25,0,.8-.4.67a2.41,2.41,0,0,1-1.63-2.22,16.7,16.7,0,0,1,0-3.46,4.6,4.6,0,0,0-.57.95c-.85,1.92-1,4.11.79,5.54.41.32-.11.95-.54.7-2.48-1.48-2.77-4.33-1.75-6.88a9,9,0,0,1,.71-1.36,10.19,10.19,0,0,0-1.23.35c-.67,2.21-1.49,4.12-.36,6.45.58,1.21,1.2,2.81,2.41,3.51a.31.31,0,0,1-.07.56c-2.06.51-3.41-1.84-4.07-3.56a3.42,3.42,0,0,1-.2,1,.69.69,0,0,1-.74.47c1,1.7,2.47,2.95,3.61,4.8a.59.59,0,0,1-.5.87,4.32,4.32,0,0,1-1.57-.26.59.59,0,0,1-.68.49c-3.82-.84-7.57-5.82-6.43-9.86,1.22-4.36,5.38-7.6,9.81-8.37a21.06,21.06,0,0,1,5.93-.19,2.58,2.58,0,0,1,1,.15,9.62,9.62,0,0,1,5.68,2.93c3,3.53,3.87,8,.19,11.26a.5.5,0,0,1-.79-.6A8.22,8.22,0,0,0,114.23,143.94Zm-10.37-24c-3.23,1.55-7.55-2.45-6.83-5.75.16-.74,1.1-.57,1.33,0a11.88,11.88,0,0,0,1.65,2.55l0,0a.56.56,0,0,1-.24-.78,3.13,3.13,0,0,1-.61-1.54c-.09-.69,1-.78,1.18-.16a1.48,1.48,0,0,0,.38.62l.06-1.06a.51.51,0,0,1,.2-.38v0a3.34,3.34,0,0,0-2.14-1.07.62.62,0,0,1-.41-1l-.19,0a6.56,6.56,0,0,0-1.17-.06,3.48,3.48,0,0,1-.64.14c-.37,0-.48-.61-.32-.87a2.11,2.11,0,0,1,1.19-.9,7.55,7.55,0,0,1,1.58-.14l-.15-.05a5.16,5.16,0,0,0-3.26-.26c-1.4.57-.78,2.44.09,3.16.44.37-.12,1-.58.75a3.77,3.77,0,0,1-2-4c.28-1.56,2.49-2.19,3.82-2.07,2.88.26,7.55,1.91,8.51,5C106,114.13,106.47,118.71,103.86,120Zm-22.45-.54a4.4,4.4,0,0,1-2.24,2.17A2.2,2.2,0,0,1,77.65,123c-.78,1.21-2.94,1.23-4.07.48A6.38,6.38,0,0,1,71,119a8.91,8.91,0,0,1-.08-.94,2.66,2.66,0,0,1,.37-2.65,3.53,3.53,0,0,1,.92-1.42,4.66,4.66,0,0,1,3.28-1.44,12.3,12.3,0,0,1,3.31,1.16.43.43,0,0,1-.23.82,7.89,7.89,0,0,0-2.38-.14.6.6,0,0,1-.32.59c-.21.12-.53.18-.66.28.16-.12-.08.17-.1.22a3.15,3.15,0,0,0,.15,1.59A3.47,3.47,0,0,0,76,118.6a1.52,1.52,0,0,0,1.25.33c.29-.14.72.16.49.49s-.27.44-.43.63A4.57,4.57,0,0,0,80.81,119,.38.38,0,0,1,81.41,119.43Zm-48.63-2.61a.63.63,0,0,1-1.17.32,8.83,8.83,0,0,1-1.28-2.61,1,1,0,0,1-.41-.31c-2.68-3.48-1.2-10.83,2.07-13.57,4-3.36,8.77-5.44,13.84-3.79.29.09.36.6,0,.66a26.88,26.88,0,0,0-7.79,2,15.81,15.81,0,0,1,4.68-.35.4.4,0,0,1,0,.79c-4.3.57-9.56,2.81-10.5,7.52C31.57,110.78,32.87,113.64,32.78,116.82Zm1.68-4.21a10.29,10.29,0,0,1,1.2-4.5,6.71,6.71,0,0,1,4-4.17c5.49-2.31,12.76.65,13.3,7.15a10,10,0,0,1-2.49,6.85A6.45,6.45,0,0,0,53.26,115c1.57-3.35.55-7,.44-10.57a.2.2,0,0,1,.39-.06,22,22,0,0,1,1.74,9.2,18.36,18.36,0,0,0,.88-6.42.82.82,0,0,1,1.52-.42c4.86,9.34-7.56,17.83-15.95,15.26C38,120.68,34.16,117.53,34.46,112.61ZM54.59,84.26c-.2-3.35,2.22-7.64,6-7.24a.41.41,0,0,1,0,.81c-2.51.26-4.64,3.51-4.43,6a5.23,5.23,0,0,0,1.59,3.51c1,.81,1.92.56,3.07.63.26,0,.51.32.33.57C58.62,91.93,54.74,86.9,54.59,84.26Zm5.6-30.68c-1,2.31-2.28,4.83-5.13,4.19-.18,0-.12-.29,0-.31,2.56-.25,3.35-3.77,4.17-5.73a14.73,14.73,0,0,1,3.29-4.62c2.62-2.55,6.71-5.09,10.49-3.88a.52.52,0,0,1,0,1c-3.16.91-6,1-8.57,3.39A17.37,17.37,0,0,0,60.19,53.58ZM79.52,25.51c.46,1.78-.85,3.4-2.09,4.53a16.07,16.07,0,0,1-2.71,2c-.59.35-1.32.87-2,.65a.4.4,0,0,1-.24-.58c.27-.61,1.06-.86,1.61-1.18a17.39,17.39,0,0,0,2.23-1.5A6.77,6.77,0,0,0,79,25.51C79.07,25.26,79.46,25.28,79.52,25.51ZM56.85,23.75c2.48-1.38,5.33-4.31,8.36-2.54a4.58,4.58,0,0,1,2.25,3.27c.88-1.68,1.08-3.39-1.39-3.49a.07.07,0,0,1,0-.14c2.17-.58,2.89,1.4,2.91,3.27,0,2.56-2.91,4.88-4.86,6-3.69,2.14-11.35,7.21-15.25,3.33C45.2,29.82,54.84,24.88,56.85,23.75ZM39.8,38.11c2,.88,3.71,2,5.67,2.66a.8.8,0,0,1,.81-1.38l.17.06a.5.5,0,0,1,.21-.58,2.64,2.64,0,0,1,.29-.15c-2.76-.25-4.54-1.6-3.25-5.21a.37.37,0,0,1,.72,0c1.91,7.48,13.76,1.37,17.77-.83s11-4.9,12.12-9.7c0,0,.08-.05.09,0a5,5,0,0,1-1.12,4.36c2.72-1.81,6.11-4.15,2.6-5.73a22.21,22.21,0,0,0-6.11-1.49c-2.68-.38-6.13-1-8.85-.63-.13,0-.24-.17-.09-.24,3.06-1.41,7.38-.83,10.6-.28,2.44.41,5.15.7,6.94,2.59,3.42,3.61-5.17,7.26-7.24,8.15a.3.3,0,0,1-.41-.16,56.92,56.92,0,0,1-12,6.89,40.45,40.45,0,0,1-6.81,1.92c2.2-.15,4.71-.39,6.58-1.57.24-.15.43.2.21.36a15.76,15.76,0,0,1-2.33,1.47,9.88,9.88,0,0,0,1.27-.26c2.87-.81,5.15-2.61,7.89-3.7.23-.09.41.25.23.41a20,20,0,0,1-7.61,4.44l.07,0,.39-.13c2.91-1,6.16-2,8.67-3.89,1.88-1.4,3.37-3.16,5.17-4.63a.18.18,0,0,1,.26.26c-2,2.05-3.35,4.49-5.81,6.15a38.78,38.78,0,0,1-9.18,4.57C52,43.78,46,45.08,40.8,41.3a.88.88,0,0,1-.29-.38,10.26,10.26,0,0,1-1.66-1.58A.79.79,0,0,1,39.8,38.11ZM25.73,65.18a9.84,9.84,0,0,1,1.12-2c2-2.76,5.32-5.15,8.63-3.1a.11.11,0,0,1,0,.2,10.14,10.14,0,0,0-3.81.87.52.52,0,0,1-.45.7c-.4.06-.85.67-1.26,1.44a1.64,1.64,0,0,1,.55,0,.47.47,0,0,1,0,.94c-.21,0-.36.28-.47.69a.51.51,0,0,1,.24.91,4,4,0,0,0-.47.44c0,.26-.05.54-.07.81a1.83,1.83,0,0,1,.57-.8l.19-.43c.08-1,.29-2.14,1.19-2.24,0,0,0,0,.06,0l.05-.07c.31-.44,1-.06.73.42a14,14,0,0,0-1,2.08h.06c.65.14.46,1.06-.14,1.1a.53.53,0,0,0-.18,0c0,.84.1,1.7.15,2.55a.77.77,0,0,1,.13.2,10.17,10.17,0,0,1,.61-3.24.53.53,0,0,1,.75-.26l0,0c.42-.5,1.29.17.91.71a4.48,4.48,0,0,0-.26,3.85.66.66,0,0,1,.31.09,20.17,20.17,0,0,1,0-2.58.44.44,0,0,1,.88,0c0,.19,0,.38,0,.56a.62.62,0,0,1,.44,0s0-.09,0-.14a.53.53,0,0,1,.07-.26,5,5,0,0,1-.15-1.15.6.6,0,0,1,1.18-.14.67.67,0,0,1,.46.07.51.51,0,0,1,.6-.13.51.51,0,0,1,.56-.31c0-.07,0-.14,0-.2.08-.64,1.08-.92,1.23-.17a12.37,12.37,0,0,1-1.75,8.13c0,.1,0,.2-.07.31a7.27,7.27,0,0,1-1.2,2.41,5.25,5.25,0,0,1-.89.86,5.2,5.2,0,0,1-4.62,1.34c-2.46-.42-3.89-2.38-4.84-4.59C24.72,72.68,23.94,67.77,25.73,65.18ZM20.94,71c.29-.62,1.18-.27,1.2.32.09,2.24-.3,4.42.93,6.45a10.65,10.65,0,0,0,3.43,3.57c2.94,1.82,6.35,2.23,9.19-.14.22-.19.6,0,.42.32C30.67,89.61,17.14,78.92,20.94,71Zm-7.18,42.38c-.25-1.47.68-3.23.49-4.66-.31-2.37-1.58-4.3-2.26-6.52S12.78,97,13.48,95a.25.25,0,0,1,.49.13c-.72,3.16-1.53,6,.1,9.16a11.89,11.89,0,0,1,1.34,4.24c.44,3.29-.85,5.86,1,9,.49.82,3.85,4.82,3.85,1.76,0-1.06-.06-2.11-.12-3.16s0-2-.08-3c-1.32-1.81-1.91-1.89-1.76-.26.13.71.27,1.41.41,2.11a.55.55,0,0,1-.86.65c-1.74-1.73-.47-4.58.2-6.56a.52.52,0,0,1,.62-.35c4.26,1.06,4.89,15.1.87,14C15.91,121.77,14.31,116.57,13.76,113.35ZM29.5,157.43c-1-1.2-2.19-2.72-3.4-4.39-.75-.9-1.46-1.79-2.16-2.57-1.9-2.12-4.26-4.74-4.71-7.68-.5-3.31,1.12-10.46,5.81-7.47a.27.27,0,0,1-.14.49c-3.56.38-4.13,3.18-3.58,5.86.11-1.6.69-3.21,2.43-3.69,2.18-.6,2.51,1.26,3.79,2.48a.32.32,0,0,1-.38.5c-2.4-1.42-4.27.12-3.67,2.62a9.3,9.3,0,0,1,0-1.39c0-.48.82-.68.92-.12a24,24,0,0,0,1.29,4.71,9.26,9.26,0,0,1-.09-2.78c.07-.47.77-.66.9-.12A37.17,37.17,0,0,0,29.72,152c-.09-.23-.19-.47-.27-.71a.27.27,0,0,1,.19-.34,26.74,26.74,0,0,1-1.28-6.08c0-.17.23-.22.31-.08a24.67,24.67,0,0,1,1.62,3.55c1.05,1.5,1.47,3.37,2.71,4.81l.54.61c-1.34-1.75-2.57-3.82-2.66-5.87a.37.37,0,0,1,.68-.18c.56.95,1.11,1.88,1.71,2.79a.4.4,0,0,1,.26-.59,4.86,4.86,0,0,1-1.09-2.23c-.06-.41.51-.59.63-.18a6.5,6.5,0,0,0,2.37,2.78.34.34,0,0,1,.34.15s0,0,0,0c-1.44-2.06-3-4-4.55-6-.21-.29.2-.67.48-.49,4.26,2.87,12,10.73,10.37,16.65C40.28,167.24,31.51,159.93,29.5,157.43Zm18.8,4.08c-.34,3.3-4.81,8.73-8.33,5.49a.48.48,0,0,1-.12-.22c-2.12-.37-4.1-1.4-4.83-2.88-.21-.44.25-1,.72-.71,2.3,1.47,5.1,2.81,7.92,1.67,3.55-1.44.23-6.83-.72-8.65a82.74,82.74,0,0,0-8.79-13.3c-.1-.13,0-.37.2-.25a31.43,31.43,0,0,1,8.38,10.24c1.34,2.44,3,5.09,3.67,7.9a10.62,10.62,0,0,0,0-1.87,26.32,26.32,0,0,0-3.76-10.66c0-.06,0-.14.1-.08C45.58,151.74,48.8,156.66,48.3,161.51Zm.21-25.59c-.06-.28.33-.48.48-.2.85,1.52,1.45,3.23,2.39,4.69,1.56,2.4,3.68,3,6.27,3.81a15.52,15.52,0,0,1,7.57,5.08c.49.61-.32,1.48-.89.89a16,16,0,0,0-7-4.71,15.32,15.32,0,0,1-4.63-1.82C50.16,141.85,49.11,138.83,48.51,135.92Zm8,11.64a.25.25,0,0,1,.07-.48c1.87,0,2.81.75,4.22,1.88,3.18,2.54,7.22,2.61,10.89,3.9,1.31.46,3,1.27,4.39,1.21,4.09-.17-.33-5.07-.88-5.53-1.09-.9-2.63-2.17-4.11-2.4-2.68-.43.38,2.4,1.38,2.63s.51,1.52-.37,1.35c-1.43-.29-5.6-3.55-3-5.09,2.95-1.73,8.32,2.6,9.53,5.14,1.5,3.14.2,6.25-3.72,5.31a87.17,87.17,0,0,1-9.88-2.81C61.85,151.45,59.66,148.83,56.55,147.56Zm9.88,20.89c.27-2.44,2.16-5.55,4.9-5.55a.78.78,0,0,1,.73.61,3.62,3.62,0,0,1,3.61-.35c.07,0,0,.13,0,.14-3.47.08-5.26,3.86-5,6.91.45,1.22.69,2.6,1.87,3.24a4.34,4.34,0,0,0,3.24.2,7.65,7.65,0,0,1,.92-.31,9.75,9.75,0,0,0,3-1.92.35.35,0,0,1,.46,0,13.07,13.07,0,0,0,2.1-4c0-.14.28-.12.27,0-.26,3.61-1.78,7.23-5.23,8.9-2.63,1.28-5.43,1.47-7.85-.37A8.25,8.25,0,0,1,66.43,168.45Zm34,23.09c-2.78.19-5.26-.59-8-1-3.52-.6-7-.7-10.57-1.12-2.9-.34-8-1-10-3.68-1.67-2.3,1-3.27,3-3.55,3.4-.46,5.67.1,7.44,3.16a.77.77,0,0,1-.66,1.16c-1.51,0-3.06.33-4.09-.92a.23.23,0,0,1,.16-.38l2.5-.15a5.35,5.35,0,0,0-6.28-1.5c-2.52,1,1.41,3,1.77,3.19,3.4,1.49,7.45,1.22,11.07,1.58a56.11,56.11,0,0,1,13.63,3A.12.12,0,0,1,100.41,191.54Zm-10.57-3.18a0,0,0,1,1,0,.09A0,0,0,0,1,89.84,188.36ZM115,190.9a7.49,7.49,0,0,1-5.84-.84c-3.05-2-6.63-2.2-10.17-2.43-4.48-.29-9.52.34-13.05-2.9-.31-.29.09-.73.44-.56,4.8,2.35,10.95,1.53,16.16,2.1,4.51.49,8.13,2.72,12.46,3.87A.4.4,0,0,1,115,190.9Zm8.26-13.83c-1,3.59-7.21,4.2-10.18,3.39s-6.23-2.47-6.79-5.75a4.24,4.24,0,0,1,0-1.42,6,6,0,0,1,0-1.48,8.11,8.11,0,0,1,2.1-3.7,4.7,4.7,0,0,1,.66-.6c3-2.15,7.21-.58,10.24.72a1.11,1.11,0,0,1,.57.82,11.47,11.47,0,0,1,2.35,1.75.56.56,0,0,1-.67.87A12.62,12.62,0,0,0,115.4,170a1.32,1.32,0,0,0,.63.79.43.43,0,0,1-.42.74,2,2,0,0,1-.59-.49,2.16,2.16,0,0,1-2.17-.32,1.16,1.16,0,0,1-.26-.28l-.15.06a3.12,3.12,0,0,0,.46.39c.49.35,1,.76,1.46,1.08.33.22.83.74,1.21.81a.2.2,0,0,1,.05.37,3.6,3.6,0,0,1-.83.42,6.33,6.33,0,0,1-1.23,0,4.42,4.42,0,0,1-2.48-1.26,1.85,1.85,0,0,0,1,1.31,13.47,13.47,0,0,0,2.93,1.27.42.42,0,0,1,.38.4c1.58-.2,3.18-.47,4.64.16a.64.64,0,0,1,0,1.1,14.08,14.08,0,0,1-6.25,1.46,7.48,7.48,0,0,0,3.39.06c1.94-.46,3.69-2,5.7-1.67A.53.53,0,0,1,123.28,177.07ZM107.1,93c-2.94-3.32-5-11.47-.78-14.47.25-.17.47.16.37.38-2.6,5.92.16,13.75,6.59,15.84a25.35,25.35,0,0,0,7.36.84,36.71,36.71,0,0,1-4.71-2.89.38.38,0,0,1,.38-.66c2.73,1.39,5.94,2.85,9.06,3,.8,0,1.62,0,2.43,0l-.48-.09A19,19,0,0,1,123.17,93a.41.41,0,0,1,.2-.76c1.6.19,3.13.84,4.76.79,1.28,0,2.81-.56,3.81.41a.6.6,0,0,1,0,.83,2.76,2.76,0,0,1-1.65.72,6.55,6.55,0,0,1,1.82.49.57.57,0,0,1,0,1,10.06,10.06,0,0,1-4.65,1,.78.78,0,0,1-.55.52C120.56,99.72,111.53,98,107.1,93Zm55.22,36.17a8.18,8.18,0,0,1-.41,1.78c-1.89,5.15-6.65,7.7-11.62,9.28a.15.15,0,0,1-.14-.25c2.79-2.56,7.21-4.59,8.91-8.06a8.05,8.05,0,0,0,.73-4.52,6.49,6.49,0,0,1-2.09,3.46,7.84,7.84,0,0,1-2.87,1.39,4,4,0,0,1-.34.23,3.81,3.81,0,0,1-.29.57,15.74,15.74,0,0,0,3.82-2.41c.45-.37,1.22.12.86.66a12,12,0,0,1-13,5.05.4.4,0,0,1-.26,0l-.34-.16a12.56,12.56,0,0,1-5.32-3.23c-1.05-1.08-2.17-3.7-2.71-6.45.05,4.6,3.75,8.79,7.58,12.11.31.26,0,.78-.39.67a13,13,0,0,1-4.8-2.64c.1.21,0,.49-.31.41l-.07,0c1.12.79,2.32,1.4,3.48,2.24.38.28.44,1-.15,1.13-6.28,1.08-10.23-7.46-9.86-12.67.27-3.77,2.22-10.45,6.37-11.82.33-.23.67-.43,1-.63,3.17-2.57,7.18-4,11.16-3,6.43,1.73,11.5,7.67,12.93,14.14.72,3.27.89,6.53-.77,9.54-1.23,2.23-4.49,3.11-6.68,4-.51.2-.86-.65-.37-.9,2.54-1.32,5.38-2.68,5.91-5.86A13.6,13.6,0,0,0,162.32,129.16Zm-12.77,18.16c5.9.45,17.29-1.75,18.49-9.06a0,0,0,0,1,.07,0,9.19,9.19,0,0,1-1.61,5,.55.55,0,0,1,0,.31c-1.61,4.23-5.65,6.8-9.81,8.27-6.37,2.24-11.9,1-18-1.56a.22.22,0,0,1,.11-.43c7.13,1.08,13.63,1.31,19.43-1.37a24.42,24.42,0,0,1-7.41.85c-6.81-.27-18.94-3.82-19.64-12.25a.32.32,0,0,1,.54-.23C136.92,141.94,141.83,146.74,149.55,147.32Zm7,12.17a3.93,3.93,0,0,1-2.9,2.7c-.81.26-1.63.44-2.43.69-.61.19-1.09.48-1.72.26a.42.42,0,0,1-.29-.52c.43-1.1,2-1.27,3-1.56a10.62,10.62,0,0,0,3.82-1.86C156.3,159,156.68,159.18,156.58,159.49Zm11.6-5c-2.53,4.91-4.21,9.7-9.41,12.34-2,1-3.6,2.37-5.72,3.07-2.65.87-4.35-.43-7.3.9-3.57,1.62-6,5-9.71,6-1.68.45-2.92-.37-2.87-2a.18.18,0,0,1,.29-.12c2.41,2.74,5.76-2.15,7.57-3.39,2.15-1.48,5.26-3.47,8-3.43,3.91.06,9.55-2,12.26-5.26,2.3-2.76,3.7-6,6.13-8.67C167.81,153.52,168.42,154.05,168.18,154.52Zm1-18a.2.2,0,0,1-.39-.06c-.27-6.17,1.44-14.79-3.74-19.67-5.55-5.23-12.56-7.1-20.13-6.57-7.15.51-14.27,4.18-16.74,11.39-1.74,5.06-2.09,13,.94,17.7.22.34-.27.69-.55.42-4.79-4.6-4.14-14.1-2-19.83A19.22,19.22,0,0,1,142.06,108c7.65-.94,18.26-.13,23.17,6.87C169.08,120.38,171.9,130,169.17,136.51ZM178,72c-6.12,1.77-13-8-13.42-13.18a.21.21,0,0,1,.39-.11,36.6,36.6,0,0,0,5,7.63c2.38,2.49,4.76,3.31,8,4.06A.84.84,0,0,1,178,72Zm.18-6.11c-2.45.54-5.43-2.3-6.65-4.09a13.91,13.91,0,0,1-2.39-9.76.5.5,0,0,1,1,0c.29,1.42.43,2.87.73,4.26a2.68,2.68,0,0,1,.07-.27.25.25,0,0,1,.47,0,7.8,7.8,0,0,0,.51,1.5,4.81,4.81,0,0,1,0-.52.49.49,0,0,1,1-.13,10.64,10.64,0,0,0,1.51,2.71c-.18-.53-.33-1.06-.47-1.59-.09-.34.43-.59.58-.25A14.92,14.92,0,0,0,176,60.55a11.36,11.36,0,0,1-.8-2.52.65.65,0,0,1,1.06-.32l.61.85a.37.37,0,0,1,.59.17,8.85,8.85,0,0,0,.33.87l.15-.05a29,29,0,0,1-.89-3.74.36.36,0,0,1,.55-.32C180.06,57.11,182.29,65,178.14,65.9Zm9.27,50.5c-1.21-.7-1.22-2-1.38-3.2-.28-2.29-1.58-5.65-.88-8,.94-3.1,2.68-5.48,2.44-8.9A101.45,101.45,0,0,0,186,86.06c0-.19.24-.34.33-.14,2.83,6,4.11,11.87,1.49,18-1.15,2.7-.2,5.09.15,7.81.41,3.23,2.94,1.43,3.29-.85.22-1.39.72-5-.32-6.29a12,12,0,0,1-.53,1.09.7.7,0,0,1-1.28-.54c.11-.65.23-1.29.35-1.93a.93.93,0,0,1,.68-.89c.49-.08,1-.14,1.45-.19a1,1,0,0,1,.94.53,14,14,0,0,1,.27,10.57C192.16,115.14,189.64,117.71,187.41,116.4Z"/><path class="cls-2" d="M36.79,153a.08.08,0,0,0,0,0l0,0Z"/><path class="cls-3" d="M64.1,30.14c2-1.14,4.89-3.46,4.86-6,0-1.87-.74-3.85-2.91-3.27a.07.07,0,0,0,0,.14c2.47.1,2.27,1.81,1.39,3.49a4.58,4.58,0,0,0-2.25-3.27c-3-1.77-5.88,1.16-8.36,2.54-2,1.13-11.65,6.07-8,9.72C52.75,37.35,60.41,32.28,64.1,30.14ZM65.6,24a3.67,3.67,0,0,1,.08,2.44.64.64,0,0,0,.07.5l-.4.43A6.1,6.1,0,0,0,65.6,24Zm-1.95-1.22a2.77,2.77,0,0,1,1.12.34.33.33,0,0,0-.17.21.59.59,0,0,0-1-.27C63.61,23,63.64,22.88,63.65,22.78ZM63.49,28a.86.86,0,0,0,.4.44l-.66.38A7.81,7.81,0,0,1,63.49,28Zm-.75-5.22c-.09.27-.19.53-.3.79h0a4.8,4.8,0,0,0-.9.73,3.43,3.43,0,0,0,0-.71.5.5,0,0,0-.33-.42A5.67,5.67,0,0,1,62.74,22.79Zm-1.45,6.39a1.86,1.86,0,0,0,.11.57l-.4.19C61.09,29.68,61.19,29.43,61.29,29.18Zm-.94-1.47-.27.48,0,.07c.08-.19.16-.39.25-.58Zm-.41-3.87a2.3,2.3,0,0,1,.33-.21.58.58,0,0,0,0,.14,4.84,4.84,0,0,1-1.07,2.62,3.38,3.38,0,0,0,0-1.76.61.61,0,0,0-.09-.2C59.4,24.24,59.68,24.05,59.94,23.84Zm-2.46,7.72c-.42.18-.84.34-1.27.5A11.57,11.57,0,0,1,58,28.83,6.09,6.09,0,0,0,57.48,31.56Zm-2.24-3c0-.15,0-.3.07-.45l.16-.21a.39.39,0,0,0-.11-.62c0-.23,0-.47,0-.7l.54-.32c.58-.35,1.18-.69,1.78-1a14.58,14.58,0,0,1-1.58,3A16.58,16.58,0,0,0,55,30,4.36,4.36,0,0,0,55.24,28.59Zm-.86,3.88h0a.83.83,0,0,0,.07.13l-.22,0A.44.44,0,0,0,54.38,32.47Zm-1.22-4.24a.56.56,0,0,0,.1-.29l.49-.34c0,.19-.09.38-.14.57s-.34.38-.49.58l-.37.53A2.54,2.54,0,0,1,53.16,28.23ZM51.75,32.3s0,0,0-.08a2,2,0,0,0,.08-.22l.15,0a.82.82,0,0,0,.31.33v0a.71.71,0,0,0,0,.64,1.64,1.64,0,0,1-.6-.11A.66.66,0,0,0,51.75,32.3Zm-.63-2.59a.88.88,0,0,0,0,.17,4.1,4.1,0,0,0-.69,1.25l-.09-.38A4.13,4.13,0,0,1,51.12,29.71Z"/><path class="cls-3" d="M79,25.51a6.77,6.77,0,0,1-2.73,3.92,17.39,17.39,0,0,1-2.23,1.5c-.55.32-1.34.57-1.61,1.18a.4.4,0,0,0,.24.58c.7.22,1.43-.3,2-.65a16.07,16.07,0,0,0,2.71-2c1.24-1.13,2.55-2.75,2.09-4.53C79.46,25.28,79.07,25.26,79,25.51Z"/><path class="cls-3" d="M40.51,40.92a.88.88,0,0,0,.29.38C46,45.08,52,43.78,57.68,41.87a38.78,38.78,0,0,0,9.18-4.57c2.46-1.66,3.78-4.1,5.81-6.15a.18.18,0,0,0-.26-.26c-1.8,1.47-3.29,3.23-5.17,4.63-2.51,1.86-5.76,2.86-8.67,3.89l-.39.13-.07,0a20,20,0,0,0,7.61-4.44c.18-.16,0-.5-.23-.41-2.74,1.09-5,2.89-7.89,3.7a9.88,9.88,0,0,1-1.27.26,15.76,15.76,0,0,0,2.33-1.47c.22-.16,0-.51-.21-.36-1.87,1.18-4.38,1.42-6.58,1.57a40.45,40.45,0,0,0,6.81-1.92,56.92,56.92,0,0,0,12-6.89.3.3,0,0,0,.41.16c2.07-.89,10.66-4.54,7.24-8.15-1.79-1.89-4.5-2.18-6.94-2.59-3.22-.55-7.54-1.13-10.6.28-.15.07,0,.26.09.24,2.72-.41,6.17.25,8.85.63a22.21,22.21,0,0,1,6.11,1.49c3.51,1.58.12,3.92-2.6,5.73A5,5,0,0,0,74.4,23c0-.05-.08,0-.09,0-1.12,4.8-8.16,7.52-12.12,9.7S46.33,41,44.42,33.51a.37.37,0,0,0-.72,0c-1.29,3.61.49,5,3.25,5.21a2.64,2.64,0,0,0-.29.15.5.5,0,0,0-.21.58l-.17-.06a.8.8,0,0,0-.81,1.38c-2-.65-3.68-1.78-5.67-2.66a.79.79,0,0,0-.95,1.23A10.26,10.26,0,0,0,40.51,40.92Z"/><path class="cls-3" d="M77.27,176.31c3.45-1.67,5-5.29,5.23-8.9,0-.16-.23-.18-.27,0a13.07,13.07,0,0,1-2.1,4,.35.35,0,0,0-.46,0,9.75,9.75,0,0,1-3,1.92,7.65,7.65,0,0,0-.92.31,4.34,4.34,0,0,1-3.24-.2c-1.18-.64-1.42-2-1.87-3.24-.27-3.05,1.52-6.83,5-6.91.07,0,.11-.11,0-.14a3.62,3.62,0,0,0-3.61.35.78.78,0,0,0-.73-.61c-2.74,0-4.63,3.11-4.9,5.55a8.25,8.25,0,0,0,3,7.49C71.84,177.78,74.64,177.59,77.27,176.31Z"/><path class="cls-3" d="M42.28,122c8.39,2.57,20.81-5.92,15.95-15.26a.82.82,0,0,0-1.52.42,18.36,18.36,0,0,1-.88,6.42,22,22,0,0,0-1.74-9.2.2.2,0,0,0-.39.06c.11,3.54,1.13,7.22-.44,10.57a6.45,6.45,0,0,1-2.84,2.93,10,10,0,0,0,2.49-6.85c-.54-6.5-7.81-9.46-13.3-7.15a6.71,6.71,0,0,0-4,4.17,10.29,10.29,0,0,0-1.2,4.5C34.16,117.53,38,120.68,42.28,122Zm7.17-13.12a7.12,7.12,0,0,1,.59,1.17l-.27-.18-.21-.31a2.31,2.31,0,0,0-.12-.52A.86.86,0,0,0,49.45,108.88Zm-3.55,6.8.11-.09a3.77,3.77,0,0,0,.58,0,2.88,2.88,0,0,1-1.26.35A1.6,1.6,0,0,0,45.9,115.68Zm-3.66-.8a1.35,1.35,0,0,0-.49.54c-.08-.15-.16-.29-.23-.44A3.38,3.38,0,0,0,42.24,114.88Zm-2.5-8.19.14-.08a.36.36,0,0,0,0,.09c-.08,0-.16.12-.24.18l-.05,0Z"/><path class="cls-3" d="M42.72,100a.4.4,0,0,0,0-.79,15.81,15.81,0,0,0-4.68.35,26.88,26.88,0,0,1,7.79-2c.36-.06.29-.57,0-.66-5.07-1.65-9.84.43-13.84,3.79-3.27,2.74-4.75,10.09-2.07,13.57a1,1,0,0,0,.41.31,8.83,8.83,0,0,0,1.28,2.61.63.63,0,0,0,1.17-.32c.09-3.18-1.21-6-.56-9.3C33.16,102.81,38.42,100.57,42.72,100Z"/><path class="cls-3" d="M156.35,139.05c-.49.25-.14,1.1.37.9,2.19-.88,5.45-1.76,6.68-4,1.66-3,1.49-6.27.77-9.54-1.43-6.47-6.5-12.41-12.93-14.14-4-1.08-8,.4-11.16,3-.34.2-.68.4-1,.63-4.15,1.37-6.1,8.05-6.37,11.82-.37,5.21,3.58,13.75,9.86,12.67.59-.1.53-.85.15-1.13-1.16-.84-2.36-1.45-3.48-2.24l.07,0c.27.08.41-.2.31-.41a13,13,0,0,0,4.8,2.64c.37.11.7-.41.39-.67-3.83-3.32-7.53-7.51-7.58-12.11.54,2.75,1.66,5.37,2.71,6.45a12.56,12.56,0,0,0,5.32,3.23l.34.16a.4.4,0,0,0,.26,0,12,12,0,0,0,13-5.05c.36-.54-.41-1-.86-.66A15.74,15.74,0,0,1,154.2,133a3.81,3.81,0,0,0,.29-.57,4,4,0,0,0,.34-.23,7.84,7.84,0,0,0,2.87-1.39,6.49,6.49,0,0,0,2.09-3.46,8.05,8.05,0,0,1-.73,4.52c-1.7,3.47-6.12,5.5-8.91,8.06a.15.15,0,0,0,.14.25c5-1.58,9.73-4.13,11.62-9.28a8.18,8.18,0,0,0,.41-1.78,13.6,13.6,0,0,1-.06,4C161.73,136.37,158.89,137.73,156.35,139.05ZM151,117.25a.31.31,0,0,0,0-.1,2.74,2.74,0,0,0,.28-.05.53.53,0,0,0,.21-.11l.68.31a.44.44,0,0,0-.29.3,5.35,5.35,0,0,1-3.55,3.84,5.84,5.84,0,0,1-1,.22l.57-.24C149.74,120.59,150.4,119,151,117.25Zm-3.71-.14c.39,0,.77,0,1.16,0a5.56,5.56,0,0,1-1.78.4Zm-5.19,2.26a14.53,14.53,0,0,0-1.34,6.62.48.48,0,0,0-.31.22,13.24,13.24,0,0,1,.07-4.57,4.73,4.73,0,0,1,2-3C142.37,118.89,142.24,119.14,142.13,119.37Zm2.3,11.57-.06-.12a.43.43,0,0,0,.19,0l1,.6A4.38,4.38,0,0,1,144.43,130.94Zm1-11.23s0,0,0,0a8.37,8.37,0,0,0,1.8-.2l.17,0c-.14.06-.3.11-.45.16A6.89,6.89,0,0,1,145.39,119.71Zm3.93,11.83a.66.66,0,0,0,0-.15,15.63,15.63,0,0,0,1.66-.12C150.41,131.38,149.88,131.47,149.32,131.54Zm4.32-12.45-.06.25a.28.28,0,0,0-.06.2c0,.06,0,.12,0,.19,0,.31-.08.63-.12.93a6.17,6.17,0,0,1-3,3.57c-1.25.13-2.55-.08-3.76.16l-.11-.12a11.31,11.31,0,0,0,3.4-1.15c2-1.1,2.78-3.21,3-5.39,0,0,0,0,0-.06a8.22,8.22,0,0,1,1.18,1A.5.5,0,0,0,153.64,119.09Zm1.27.65a19,19,0,0,1,1.84,3,.64.64,0,0,0,.2.23,14,14,0,0,1-2.11,1.5C155.57,123.08,155.34,121.34,154.91,119.74Zm4.2,6a6.85,6.85,0,0,1-1.87,2.76.76.76,0,0,1,0-.16,6.16,6.16,0,0,0,1.14-1.68.36.36,0,0,0-.48-.48c-.55.28-1.08.52-1.62.75.17-.24.34-.49.49-.75a.56.56,0,0,0-.19-.76,10.87,10.87,0,0,0,1.35-2,.5.5,0,0,0,0-.46.67.67,0,0,0,.22-.19,12.62,12.62,0,0,1,1.18,2.66A.54.54,0,0,0,159.11,125.74Z"/><path class="cls-3" d="M142.06,108a19.22,19.22,0,0,0-15.48,11.88c-2.16,5.73-2.81,15.23,2,19.83.28.27.77-.08.55-.42-3-4.68-2.68-12.64-.94-17.7,2.47-7.21,9.59-10.88,16.74-11.39,7.57-.53,14.58,1.34,20.13,6.57,5.18,4.88,3.47,13.5,3.74,19.67a.2.2,0,0,0,.39.06c2.73-6.49-.09-16.13-3.94-21.63C160.32,107.88,149.71,107.07,142.06,108Z"/><path class="cls-3" d="M131.21,137.06c.7,8.43,12.83,12,19.64,12.25a24.42,24.42,0,0,0,7.41-.85c-5.8,2.68-12.3,2.45-19.43,1.37a.22.22,0,0,0-.11.43c6.06,2.55,11.59,3.8,18,1.56,4.16-1.47,8.2-4,9.81-8.27a.55.55,0,0,0,0-.31,9.19,9.19,0,0,0,1.61-5,0,0,0,0,0-.07,0c-1.2,7.31-12.59,9.51-18.49,9.06-7.72-.58-12.63-5.38-17.8-10.49A.32.32,0,0,0,131.21,137.06Z"/><path class="cls-3" d="M163.56,98.29c3.95-.89,3.27-7.34.62-9.23-.5-.36-1.11.23-1,.75.24,1,1.41,7.08-1,5.54-1.5-1-2.56-2.91-3.32-4.47a7.83,7.83,0,0,1-.45-5.2c.34-1.4,2.18-3.47,3.8-2.05.87.77,1.14,2.1,1.93,3,.3.32.71,0,.66-.38-.44-3.07-3.59-6.58-6.67-3.7-2.54,2.37-2.56,6.51-1.24,9.53C157.89,94.26,160.45,99,163.56,98.29Z"/><path class="cls-3" d="M36.11,81.49c.18-.27-.2-.51-.42-.32-2.84,2.37-6.25,2-9.19.14a10.65,10.65,0,0,1-3.43-3.57c-1.23-2-.84-4.21-.93-6.45,0-.59-.91-.94-1.2-.32C17.14,78.92,30.67,89.61,36.11,81.49Z"/><path class="cls-3" d="M127.46,97.46a10.06,10.06,0,0,0,4.65-1,.57.57,0,0,0,0-1,6.55,6.55,0,0,0-1.82-.49,2.76,2.76,0,0,0,1.65-.72.6.6,0,0,0,0-.83c-1-1-2.53-.44-3.81-.41-1.63,0-3.16-.6-4.76-.79a.41.41,0,0,0-.2.76,19,19,0,0,0,4.15,1.84l.48.09c-.81,0-1.63.07-2.43,0-3.12-.11-6.33-1.57-9.06-3a.38.38,0,0,0-.38.66,36.71,36.71,0,0,0,4.71,2.89,25.35,25.35,0,0,1-7.36-.84c-6.43-2.09-9.19-9.92-6.59-15.84.1-.22-.12-.55-.37-.38-4.27,3-2.16,11.15.78,14.47,4.43,5,13.46,6.73,19.81,5A.78.78,0,0,0,127.46,97.46Z"/><path class="cls-3" d="M114.06,149.19c3.68-3.29,2.83-7.73-.19-11.26a9.62,9.62,0,0,0-5.68-2.93,2.58,2.58,0,0,0-1-.15,21.06,21.06,0,0,0-5.93.19c-4.43.77-8.59,4-9.81,8.37-1.14,4,2.61,9,6.43,9.86a.59.59,0,0,0,.68-.49,4.32,4.32,0,0,0,1.57.26.59.59,0,0,0,.5-.87c-1.14-1.85-2.64-3.1-3.61-4.8a.69.69,0,0,0,.74-.47,3.42,3.42,0,0,0,.2-1c.66,1.72,2,4.07,4.07,3.56a.31.31,0,0,0,.07-.56c-1.21-.7-1.83-2.3-2.41-3.51-1.13-2.33-.31-4.24.36-6.45a10.19,10.19,0,0,1,1.23-.35,9,9,0,0,0-.71,1.36c-1,2.55-.73,5.4,1.75,6.88.43.25,1-.38.54-.7-1.8-1.43-1.64-3.62-.79-5.54a4.6,4.6,0,0,1,.57-.95,16.7,16.7,0,0,0,0,3.46,2.41,2.41,0,0,0,1.63,2.22c.37.13.71-.42.4-.67-1.1-.89-.5-3.73-.29-4.95a3.2,3.2,0,0,1,.62-1.42h.24a10.59,10.59,0,0,0-.5,2.92,3.18,3.18,0,0,0,1.12,3.09c.6.43,1.14-.37.9-.9a5.64,5.64,0,0,1,.51-4.85,2.71,2.71,0,0,1,1.68-.75,4.48,4.48,0,0,0-.68.58,3.57,3.57,0,0,0-1,2.63.45.45,0,0,0,.43.39,2.63,2.63,0,0,0,.43,1.38.51.51,0,0,0,.8.08.41.41,0,0,0,.55,0,2.51,2.51,0,0,1,2.26-.37,2.5,2.5,0,0,0-1.79,1.32.5.5,0,0,0,.86.51,1.71,1.71,0,0,1,1.6-.52c.6,0,1.08.46,1.68.28a.32.32,0,0,0,.14-.08,8.22,8.22,0,0,1-1,4.65A.5.5,0,0,0,114.06,149.19Zm-2.48-9.89h0Zm-1.26-.87.11.07c-.1,0-.19,0-.29.06ZM109,142.11a1.37,1.37,0,0,1-.12-1,7.27,7.27,0,0,1,2.17-.24c.53,0,1.46-.25,1.3-.95a8.19,8.19,0,0,1,.91,1.13A4.7,4.7,0,0,0,109,142.11Zm4.49.47a1.46,1.46,0,0,0,.29,0l.18-.08c0,.15.09.3.13.45A1.7,1.7,0,0,0,113.44,142.58Z"/><path class="cls-3" d="M122.91,176.42c-2-.28-3.76,1.21-5.7,1.67a7.48,7.48,0,0,1-3.39-.06,14.08,14.08,0,0,0,6.25-1.46.64.64,0,0,0,0-1.1c-1.46-.63-3.06-.36-4.64-.16a.42.42,0,0,0-.38-.4,13.47,13.47,0,0,1-2.93-1.27,1.85,1.85,0,0,1-1-1.31,4.42,4.42,0,0,0,2.48,1.26,6.33,6.33,0,0,0,1.23,0,3.6,3.6,0,0,0,.83-.42.2.2,0,0,0-.05-.37c-.38-.07-.88-.59-1.21-.81-.5-.32-1-.73-1.46-1.08a3.12,3.12,0,0,1-.46-.39l.15-.06a1.16,1.16,0,0,0,.26.28,2.16,2.16,0,0,0,2.17.32,2,2,0,0,0,.59.49.43.43,0,0,0,.42-.74,1.32,1.32,0,0,1-.63-.79,12.62,12.62,0,0,1,6.18,1.64.56.56,0,0,0,.67-.87,11.47,11.47,0,0,0-2.35-1.75,1.11,1.11,0,0,0-.57-.82c-3-1.3-7.24-2.87-10.24-.72a4.7,4.7,0,0,0-.66.6,8.11,8.11,0,0,0-2.1,3.7,6,6,0,0,0,0,1.48,4.24,4.24,0,0,0,0,1.42c.56,3.28,3.87,5,6.79,5.75s9.17.2,10.18-3.39A.53.53,0,0,0,122.91,176.42Z"/><path class="cls-3" d="M105.39,59.76c.41-.36-.12-.92-.55-.71l-.35.14A14.52,14.52,0,0,0,106,57.4c2.36-3.39.57-7.68,0-11.22,0-.33-.57-.31-.64,0a3.2,3.2,0,0,0,0,2c.45,2.42,1,4.45-.07,6.89a7.24,7.24,0,0,1-4.11,4c-1,.35-1.51.35-2.13.93a10.2,10.2,0,0,1-5-1.64.77.77,0,0,0,.43-.58c0-.17,0-.34.05-.51a1.14,1.14,0,0,0,.11.11,5.83,5.83,0,0,0,7-.46.28.28,0,0,0-.12-.45,4,4,0,0,0-1.15-.21,3.39,3.39,0,0,0,1.61-.46c1.59-.92,2.1-3.25,1.87-4.93a4.44,4.44,0,0,0-.47-1.48.36.36,0,0,0,.48-.49,3.83,3.83,0,0,0-1.93-2.13,2.91,2.91,0,0,1,2,.5c.32.21.67-.27.41-.53-1.16-1.15-2-2.12-3.85-1.73a7.69,7.69,0,0,0-4.37,3,3.78,3.78,0,0,0-.22.33h0a2,2,0,0,1,.11-.2A9.86,9.86,0,0,1,99.2,45c1.15-.62,1.75-.53,2.64-1.41a.28.28,0,0,0,0-.4c-2.32-2.3-6.57,2.18-7.74,3.67a11.14,11.14,0,0,0-1.27,10.69,6.93,6.93,0,0,1-1.12-1.45c-2.14-3.67.24-8,1.33-11.56a.37.37,0,0,0-.62-.36c-3.64,3.44-4.7,10-1.84,14.17C93.68,62.89,101.44,63.23,105.39,59.76Zm-3.86-9.48h0l.41.11c0,.08.05.16.08.25a.47.47,0,0,0-.31,0,3,3,0,0,0-.26.16A4.6,4.6,0,0,1,101.53,50.28ZM98.86,53l0,.11h0l0,0h-.12l-.07-.05A.5.5,0,0,0,98.86,53Zm-.5,2.82a3.33,3.33,0,0,0,1.37.5l-1.54,0a1.72,1.72,0,0,0-.32-.34A2.92,2.92,0,0,0,98.36,55.82Z"/><path class="cls-3" d="M96.83,107c-1.33-.12-3.54.51-3.82,2.07a3.77,3.77,0,0,0,2,4c.46.23,1-.38.58-.75-.87-.72-1.49-2.59-.09-3.16a5.16,5.16,0,0,1,3.26.26l.15.05a7.55,7.55,0,0,0-1.58.14,2.11,2.11,0,0,0-1.19.9c-.16.26,0,.84.32.87a3.48,3.48,0,0,0,.64-.14,6.56,6.56,0,0,1,1.17.06l.19,0a.62.62,0,0,0,.41,1,3.34,3.34,0,0,1,2.14,1.07v0a.51.51,0,0,0-.2.38l-.06,1.06a1.48,1.48,0,0,1-.38-.62c-.19-.62-1.27-.53-1.18.16a3.13,3.13,0,0,0,.61,1.54.56.56,0,0,0,.24.78l0,0a11.88,11.88,0,0,1-1.65-2.55c-.23-.57-1.17-.74-1.33,0-.72,3.3,3.6,7.3,6.83,5.75,2.61-1.26,2.16-5.84,1.48-8C104.38,108.86,99.71,107.21,96.83,107Zm5.62,8.13h0l0,.09,0,.14h-.1A1.94,1.94,0,0,0,102.45,115.08Zm-1.62-4.15h0a.69.69,0,0,0,.1-.72,8.36,8.36,0,0,1,1.08.65C101.6,110.85,101.2,110.91,100.83,110.93Zm1,7.36.22-.13a1.48,1.48,0,0,0,1.07-.35l.06.15A1,1,0,0,1,101.81,118.29Zm1.35-5.64c-.18-.28-.37-.55-.55-.8a2.19,2.19,0,0,0,.33-.12,3.08,3.08,0,0,1,.54.9Zm.6,1.1h0a.17.17,0,0,0,0,.07Z"/><path class="cls-3" d="M197.55,127a20.42,20.42,0,0,1-1.5-6.57A96.84,96.84,0,0,0,186,53.83a14.41,14.41,0,0,1,.51-5.27,7,7,0,0,0,.42-3.89c-1-3.23-3.43-5.31-6-7.39-3.76-3.08-5.72-7.66-9-11.21-2.35-2.56-6.52-.27-9.34-1.08a1,1,0,0,0-.89.19,96.85,96.85,0,0,0-45.35-20c-1.87-1-1.45-2.25-2.68-3.63C112-.3,109.78-.08,107.41.14S102,0,99.6.4c-2.95.52-5,2.55-7.39,4.07a97.31,97.31,0,0,0-12.51,2,13.64,13.64,0,0,1-4.92-1.62,10,10,0,0,0-4-1.73c-3.47-.61-7.11,2.55-9.66,4.4C57.5,10.17,52,10.06,48.63,12.9c-2.81,2.36-1.53,5.7-3.29,8.62a.94.94,0,0,0-.14.55A96.54,96.54,0,0,0,25.57,40.81,37.59,37.59,0,0,0,19,44c-2.79,1.51-4.25,4.26-6,6.77-1.47,2.15-3.79,4.71-3.92,7.46s1.49,4.81,2.29,7.3a96.49,96.49,0,0,0-6.65,35.17c0,.67,0,1.33,0,2a9.82,9.82,0,0,1-2,3.21,9.14,9.14,0,0,0-2.22,2.77c-1.42,3.56.15,7,1.61,10.33,2.09,4.73,1.16,10.34,3.42,14.91,1.12,2.24,4.33,2.4,6.44,3.57a96.36,96.36,0,0,0,29,38.65c.8,2,1.51,5,2,6a12.87,12.87,0,0,0,5.55,6.19c2.8,1.62,5.18,3.32,8.43,3.85,2.61.43,4.17-2,6.44-2.59a96.4,96.4,0,0,0,38,7.78,98,98,0,0,0,15.23-1.21,6.13,6.13,0,0,0,1.9.21c2.31.09,3.75,2.4,5.66,3.34,2.19,1.08,5.34-.87,7.22-1.82,2.78-1.42,6.88-2,9.17-4.05s3.63-5.1,5.73-7.52l2-1.09.34-.1a.74.74,0,0,0,.44-.34A97,97,0,0,0,183,152.61c.32-.5.62-1,.93-1.53.72-.12,1-.33,1.77-1.13,1.91-1.94,4.34-1.86,6.65-2.82,2.08-.87,2.67-4.09,3.13-6,.81-3.34,2.4-6.64,2.87-10A8.7,8.7,0,0,0,197.55,127ZM98.85,2.53c1.46-.61,3.71.08,5.28,0,3.19-.15,7.07-1.79,8.88,2.1l.07.11A96.43,96.43,0,0,0,101.42,4c-1.71,0-3.42.06-5.13.14A7.94,7.94,0,0,1,98.85,2.53ZM14.73,51.75c1.88-2.65,3.25-5,6.16-6.7l2.54-1.43a96.83,96.83,0,0,0-10.9,19.16c-.15-.28-.31-.56-.48-.86C9.87,58.11,12.6,54.76,14.73,51.75ZM50.57,187.33c-2.87-1.66-4.79-2.9-6.44-5.9-.77-1.41-1.33-2.92-2-4.39,1.29,1,2.59,2,3.94,2.92a96.58,96.58,0,0,0,14.56,8.38C56.75,190.45,54.41,189.55,50.57,187.33Zm91.93-2.14h0c-.58.23-1.16.45-1.73.64-1.49.51-4,.14-4.54,2.07a.24.24,0,0,0,.29.29c1.75-.34,3.6-.5,5.31-1l.72-.23c-.75,1.19-1.38,2.43-2.1,3.64-1.49,2.48-4.81,2.65-7.18,3.66-3.2,1.38-6.79,4.91-9.93,1.84a7.21,7.21,0,0,0-2.12-1.46,22.47,22.47,0,0,0,4.31-2.07.35.35,0,0,0-.18-.65c-2.18-.16-4.49.71-6.6,1.22a12.63,12.63,0,0,1-1.28.23l0-.12a94.11,94.11,0,0,1-101-52.56c.15-1.62-.94-3.11-1.61-4.58-.9-2-2.31-3.91-2.82-6a.37.37,0,0,0-.7,0c-.56,1.74.35,3.2,1.08,4.77a15.61,15.61,0,0,0-2.83-1c-3.82-1-3.6-10.44-4.36-13.75-1.1-4.83-5.13-7.92-.9-12.74A11.37,11.37,0,0,0,5.36,106c.16,1.08.4,2.16.63,3.18.5,2.2.66,4.59,1.9,6.53a.41.41,0,0,0,.71-.42c-.86-2-.42-4.47-.79-6.61a44.6,44.6,0,0,1-.37-4.48h.11c0-1.14-.07-2.31-.07-3.48A94.11,94.11,0,0,1,42.74,27.33a.78.78,0,0,0,.4,0,4.88,4.88,0,0,0,2-1.34,23.36,23.36,0,0,1,3.55-2.33,14.13,14.13,0,0,0,2.71-1.95c.84-.8,1.49-2.21,2.68-2.57a.4.4,0,0,0,0-.76c-2.23-.64-4.2,2-6,2.93l-.09.05a9.44,9.44,0,0,0,.76-3.71c.23-4.17,9.24-5.93,12.65-7.5,4.43-2,6.83-6.5,12.27-3.44a8.05,8.05,0,0,0,3.94,1.22l0,.11c-.88.26-1.67.53-2.26.7-1.45.42-3.77,1-4,2.77,0,.22.23.29.38.22A24,24,0,0,1,77,10.16c1.39-.24,2.78-.53,4.18-.8s2.28-.06,3.3-.93a.33.33,0,0,0,.12-.17A94.08,94.08,0,0,1,161,28l0-.05c.33.31.68.61,1,.94,1.78,1.76,3.07,3.8,5.14,5.27.24.17.53-.16.39-.4-.64-1-1.06-2.16-1.61-3.24a14.92,14.92,0,0,0-2.42-3,16.17,16.17,0,0,0,4.86-.35c3.35-.44,7.7,9,10.12,11.1,3.11,2.64,7,5.05,5.91,9.73-.58,2.47-.68,4.08.09,5.93a37.42,37.42,0,0,0-3.75-4.9c-.1-.1-.24,0-.18.15,1,2.17,1.91,4.37,3,6.5a22.78,22.78,0,0,0,2.66,4.53,94,94,0,0,1-43.7,125Zm53.41-53.44c-.22,1.56-1.37,3.18-1.83,4.7-1.13,3.76-.59,8.58-5.47,9.09a6.51,6.51,0,0,0-1.82.48,96.17,96.17,0,0,0,7.9-20C195.37,128,196.26,129.33,195.91,131.75Z"/><path class="cls-3" d="M42.09,160.65C43.72,154.73,36,146.87,31.72,144c-.28-.18-.69.2-.48.49,1.55,2,3.11,3.94,4.55,6,0,0,0,0,0,0a.34.34,0,0,0-.34-.15,6.5,6.5,0,0,1-2.37-2.78c-.12-.41-.69-.23-.63.18A4.86,4.86,0,0,0,33.53,150a.4.4,0,0,0-.26.59c-.6-.91-1.15-1.84-1.71-2.79a.37.37,0,0,0-.68.18c.09,2,1.32,4.12,2.66,5.87l-.54-.61c-1.24-1.44-1.66-3.31-2.71-4.81a24.67,24.67,0,0,0-1.62-3.55c-.08-.14-.33-.09-.31.08A26.74,26.74,0,0,0,29.64,151a.27.27,0,0,0-.19.34c.08.24.18.48.27.71a37.17,37.17,0,0,1-3.17-8.16c-.13-.54-.83-.35-.9.12a9.26,9.26,0,0,0,.09,2.78,24,24,0,0,1-1.29-4.71c-.1-.56-.87-.36-.92.12a9.3,9.3,0,0,0,0,1.39c-.6-2.5,1.27-4,3.67-2.62a.32.32,0,0,0,.38-.5c-1.28-1.22-1.61-3.08-3.79-2.48-1.74.48-2.32,2.09-2.43,3.69-.55-2.68,0-5.48,3.58-5.86a.27.27,0,0,0,.14-.49c-4.69-3-6.31,4.16-5.81,7.47.45,2.94,2.81,5.56,4.71,7.68.7.78,1.41,1.67,2.16,2.57,1.21,1.67,2.44,3.19,3.4,4.39C31.51,159.93,40.28,167.24,42.09,160.65Zm-7.77-1.57a0,0,0,0,1,0,0,6.42,6.42,0,0,0-.54-.51,16.21,16.21,0,0,1-2-2.87c.64,1,1.34,1.88,2.05,2.75a6.61,6.61,0,0,0,1.07,1Zm2.47-6.1h0l0,0A.08.08,0,0,1,36.79,153Z"/><path class="cls-3" d="M42.67,148.27a26.32,26.32,0,0,1,3.76,10.66,10.62,10.62,0,0,1,0,1.87c-.64-2.81-2.33-5.46-3.67-7.9a31.43,31.43,0,0,0-8.38-10.24c-.16-.12-.3.12-.2.25a82.74,82.74,0,0,1,8.79,13.3c1,1.82,4.27,7.21.72,8.65-2.82,1.14-5.62-.2-7.92-1.67-.47-.3-.93.27-.72.71.73,1.48,2.71,2.51,4.83,2.88A.48.48,0,0,0,40,167c3.52,3.24,8-2.19,8.33-5.49.5-4.85-2.72-9.77-5.53-13.32C42.72,148.13,42.63,148.21,42.67,148.27Z"/><path class="cls-3" d="M139.21,26.14c2.76,1.69,5.36,3.17,7.62,5.57,2,2.18,2,6.19-1.49,6.48-1.94.16-4.15-.62-6-1.18-3.53-1.09-6.66-3.4-9.58-5.56a26.27,26.27,0,0,1-3.35-3c-1.8-1.65-1.54-3.2.78-4.67a.85.85,0,0,0-.15.41c-.19,3.29,1.68,5.74,4.33,7.46,3.29,2.14,7.75,4.2,11.71,3.22a.93.93,0,0,0,.68-.9c.09-2.39-2.41-4.37-4.58-5.53a5.16,5.16,0,0,1-1.14-1.27.55.55,0,0,0-1,.55c-.34,0-.67.41-.44.72A13.06,13.06,0,0,0,139.27,31c.2.15.42.35.64.55a6.14,6.14,0,0,1-.59-.35,39.26,39.26,0,0,1-3.45-2.72.42.42,0,0,0-.59.6c.31.34.63.67.95,1a26.21,26.21,0,0,1-2.89-2.59.37.37,0,0,0-.64.27,12.31,12.31,0,0,1-1.84-2.67c-.19-.38-.69-.1-.63.26a8.34,8.34,0,0,0,2,3.87A5.67,5.67,0,0,1,130.27,26c-.06-.47-.77-.66-.91-.12a2.93,2.93,0,0,0,.07,1.5,7.87,7.87,0,0,1-.49-1,8.43,8.43,0,0,1-.31-1.51c0-.05-1.66-.43.87.09.22.05.39-.28.16-.38a10.79,10.79,0,0,1-1.49-1,.65.65,0,0,0-.4-.1c.43-.24.91-.47,1.45-.71a35.22,35.22,0,0,1,4.22.64.47.47,0,0,0,.25-.9c-3.54-.95-5.44-2.07-8.91-.25-1.82.95-2,3-1.47,4.71,1.55,5,9.87,9.76,14.19,11.47,3.66,1.44,12.48,3.92,13.41-2.26.74-4.91-7.13-10.53-11.12-11.44A.76.76,0,0,0,139.21,26.14Z"/><path class="cls-4" d="M121.56,17.4a0,0,0,1,0,0,.09A0,0,0,1,0,121.56,17.4Z"/><path class="cls-3" d="M119.46,26.69c1.94,3.88,6.47,8.08,10.76,9.14.26.07.57-.24.38-.49-1.57-2.05-4.1-3.24-6.07-4.86a15.65,15.65,0,0,1-3.33-3.79c-1.63-2.58-1-6.62,2.59-6.86a.37.37,0,0,0,0-.74C119.72,19,117.74,23.26,119.46,26.69Z"/><path class="cls-3" d="M30.58,79.65a5.2,5.2,0,0,0,4.62-1.34,5.25,5.25,0,0,0,.89-.86A7.27,7.27,0,0,0,37.29,75c0-.11.05-.21.07-.31a12.37,12.37,0,0,0,1.75-8.13c-.15-.75-1.15-.47-1.23.17,0,.06,0,.13,0,.2a.51.51,0,0,0-.56.31.51.51,0,0,0-.6.13.67.67,0,0,0-.46-.07.6.6,0,0,0-1.18.14,5,5,0,0,0,.15,1.15.53.53,0,0,0-.07.26s0,.09,0,.14a.62.62,0,0,0-.44,0c0-.18,0-.37,0-.56a.44.44,0,0,0-.88,0,20.17,20.17,0,0,0,0,2.58.66.66,0,0,0-.31-.09,4.48,4.48,0,0,1,.26-3.85c.38-.54-.49-1.21-.91-.71l0,0a.53.53,0,0,0-.75.26,10.17,10.17,0,0,0-.61,3.24.77.77,0,0,0-.13-.2c-.05-.85-.14-1.71-.15-2.55a.53.53,0,0,1,.18,0c.6,0,.79-1,.14-1.1h-.06a14,14,0,0,1,1-2.08c.29-.48-.42-.86-.73-.42l-.05.07s0,0-.06,0c-.9.1-1.11,1.29-1.19,2.24l-.19.43a1.83,1.83,0,0,0-.57.8c0-.27,0-.55.07-.81a4,4,0,0,1,.47-.44.51.51,0,0,0-.24-.91c.11-.41.26-.69.47-.69a.47.47,0,0,0,0-.94,1.64,1.64,0,0,0-.55,0c.41-.77.86-1.38,1.26-1.44a.52.52,0,0,0,.45-.7,10.14,10.14,0,0,1,3.81-.87.11.11,0,0,0,0-.2c-3.31-2-6.65.34-8.63,3.1a9.84,9.84,0,0,0-1.12,2c-1.79,2.59-1,7.5,0,9.88C26.69,77.27,28.12,79.23,30.58,79.65Zm5-5.14-.09.14-.3-.43A2.63,2.63,0,0,0,35.6,74.51ZM34.12,72.4a.06.06,0,0,1,0,0v0Zm-.59,3.88-.23.08c-.08-.1-.14-.21-.22-.32A2,2,0,0,0,33.53,76.28Zm-1.85-3.34c0,.23.09.46.14.7-.14-.35-.28-.72-.4-1.09C31.5,72.69,31.59,72.81,31.68,72.94Zm-4.81-1.88a7.37,7.37,0,0,0,.95,3.09l-.16-.25a6.61,6.61,0,0,1-1-3.83C26.72,70.4,26.79,70.73,26.87,71.06Z"/><path class="cls-3" d="M167.48,55.1c.47.32.92-.2.85-.66-.28-1.87-1.58-3-.62-5.09s3.22-2.05,5-1.17c2.14,1,3.62,3.43,5.69,4.71.53.33.93-.45.47-.81-1.88-1.45-2.66-3.85-4.66-5.19a5.81,5.81,0,0,0-5.36-1C165,47.15,164.06,52.87,167.48,55.1Z"/><path class="cls-3" d="M177.62,55.49a.36.36,0,0,0-.55.32,29,29,0,0,0,.89,3.74l-.15.05a8.85,8.85,0,0,1-.33-.87.37.37,0,0,0-.59-.17l-.61-.85a.65.65,0,0,0-1.06.32,11.36,11.36,0,0,0,.8,2.52,14.92,14.92,0,0,1-1.63-2.79c-.15-.34-.67-.09-.58.25.14.53.29,1.06.47,1.59a10.64,10.64,0,0,1-1.51-2.71.49.49,0,0,0-1,.13,4.81,4.81,0,0,0,0,.52,7.8,7.8,0,0,1-.51-1.5.25.25,0,0,0-.47,0,2.68,2.68,0,0,0-.07.27c-.3-1.39-.44-2.84-.73-4.26a.5.5,0,0,0-1,0,13.91,13.91,0,0,0,2.39,9.76c1.22,1.79,4.2,4.63,6.65,4.09C182.29,65,180.06,57.11,177.62,55.49Z"/><path class="cls-3" d="M178,70.41c-3.25-.75-5.63-1.57-8-4.06a36.6,36.6,0,0,1-5-7.63.21.21,0,0,0-.39.11c.4,5.14,7.3,15,13.42,13.18A.84.84,0,0,0,178,70.41Z"/><path class="cls-3" d="M192.57,102.68a1,1,0,0,0-.94-.53c-.49,0-1,.11-1.45.19a.93.93,0,0,0-.68.89c-.12.64-.24,1.28-.35,1.93a.7.7,0,0,0,1.28.54,12,12,0,0,0,.53-1.09c1,1.33.54,4.9.32,6.29-.35,2.28-2.88,4.08-3.29.85-.35-2.72-1.3-5.11-.15-7.81,2.62-6.15,1.34-12-1.49-18-.09-.2-.36,0-.33.14a101.45,101.45,0,0,1,1.57,10.25c.24,3.42-1.5,5.8-2.44,8.9-.7,2.34.6,5.7.88,8,.16,1.22.17,2.5,1.38,3.2,2.23,1.31,4.75-1.26,5.43-3.15A14,14,0,0,0,192.57,102.68Z"/><path class="cls-4" d="M89.84,188.36a0,0,0,0,0,0,.09A0,0,0,0,0,89.84,188.36Z"/><path class="cls-3" d="M77.34,120.05c.16-.19.28-.41.43-.63s-.2-.63-.49-.49A1.52,1.52,0,0,1,76,118.6a3.47,3.47,0,0,1-.79-1.55,3.15,3.15,0,0,1-.15-1.59s.26-.34.1-.22c.13-.1.45-.16.66-.28a.6.6,0,0,0,.32-.59,7.89,7.89,0,0,1,2.38.14.43.43,0,0,0,.23-.82,12.3,12.3,0,0,0-3.31-1.16A4.66,4.66,0,0,0,72.19,114a3.53,3.53,0,0,0-.92,1.42A2.66,2.66,0,0,0,70.9,118,8.91,8.91,0,0,0,71,119a6.38,6.38,0,0,0,2.6,4.46c1.13.75,3.29.73,4.07-.48a2.2,2.2,0,0,0,1.52-1.36,4.4,4.4,0,0,0,2.24-2.17.38.38,0,0,0-.6-.46A4.57,4.57,0,0,1,77.34,120.05Zm-4.24-3.13a.19.19,0,0,0,0-.08,1.77,1.77,0,0,1,0,.2A.61.61,0,0,0,73.1,116.92Z"/><path class="cls-3" d="M131.91,84.2a.38.38,0,0,0-.65-.27c-1.28,1.06-1.7,2.37-3.41,3a12,12,0,0,1-5.52.37s0-.06,0-.1c2.45.16,4.89-.46,5.86-2.5a.35.35,0,0,0-.55-.43,6.89,6.89,0,0,1-3.94.77,6.77,6.77,0,0,0,1.39-.44c.39-.18.2-.68-.1-.8-1.4-.57-3-.31-4.37-.9-1.16-.49-3.71-1.61-3.42-3.21.11-.57,1.7-1.16,1.51-1.88.41-.06.8-.11,1.13-.18a.38.38,0,0,0,0-.72c-3-.77-6.24-.79-7.82,2.38a4.05,4.05,0,0,0-.24,2.9c-.91-1.93-.19-4.33.09-6.26.06-.4-.27-1-.76-.76-4.1,1.7-2.14,8.18.24,10.59,4.31,4.34,12,4.92,17.57,3.75a.49.49,0,0,0,.27-.74A4,4,0,0,0,131.91,84.2Zm-13.3,2.38a6.74,6.74,0,0,1-3.82-2.52,13.2,13.2,0,0,0,4,2.57Z"/><path class="cls-3" d="M113.49,88.29a8.33,8.33,0,0,1-1.9-1.6c-.47-.49-.71-1-1.37-1.18a.53.53,0,0,0-.64.36C109,87.46,111,89,112.15,89.8a5.5,5.5,0,0,0,5,.85c.3-.11.48-.61.1-.78C116,89.34,114.67,88.94,113.49,88.29Z"/><path class="cls-3" d="M167.43,153.94c-2.43,2.66-3.83,5.91-6.13,8.67-2.71,3.25-8.35,5.32-12.26,5.26-2.75,0-5.86,1.95-8,3.43-1.81,1.24-5.16,6.13-7.57,3.39a.18.18,0,0,0-.29.12c0,1.64,1.19,2.46,2.87,2,3.75-1,6.14-4.37,9.71-6,2.95-1.33,4.65,0,7.3-.9,2.12-.7,3.75-2.07,5.72-3.07,5.2-2.64,6.88-7.43,9.41-12.34C168.42,154.05,167.81,153.52,167.43,153.94Z"/><path class="cls-3" d="M156.08,159.2a10.62,10.62,0,0,1-3.82,1.86c-1,.29-2.59.46-3,1.56a.42.42,0,0,0,.29.52c.63.22,1.11-.07,1.72-.26.8-.25,1.62-.43,2.43-.69a3.93,3.93,0,0,0,2.9-2.7C156.68,159.18,156.3,159,156.08,159.2Z"/><path class="cls-3" d="M18.69,108.78a.52.52,0,0,0-.62.35c-.67,2-1.94,4.83-.2,6.56a.55.55,0,0,0,.86-.65c-.14-.7-.28-1.4-.41-2.11-.15-1.63.44-1.55,1.76.26.12,1,0,2,.08,3s.13,2.1.12,3.16c0,3.06-3.36-.94-3.85-1.76-1.87-3.14-.58-5.71-1-9a11.89,11.89,0,0,0-1.34-4.24c-1.63-3.12-.82-6-.1-9.16a.25.25,0,0,0-.49-.13c-.7,2-2.17,4.93-1.49,7.16s1.95,4.15,2.26,6.52c.19,1.43-.74,3.19-.49,4.66.55,3.22,2.15,8.42,5.8,9.42C23.58,123.88,23,109.84,18.69,108.78Z"/><path class="cls-3" d="M73.06,44.22a.52.52,0,0,0,0-1c-3.78-1.21-7.87,1.33-10.49,3.88a14.73,14.73,0,0,0-3.29,4.62c-.82,2-1.61,5.48-4.17,5.73-.17,0-.23.27,0,.31,2.85.64,4.16-1.88,5.13-4.19a17.37,17.37,0,0,1,4.3-6C67.06,45.2,69.9,45.13,73.06,44.22Z"/><path class="cls-3" d="M92.56,13.89c3.79-.42,7.11-1.54,11-1.25l.49,0a6.87,6.87,0,0,0-2.75,1.77.41.41,0,0,0,.59.58c2.87-2.47,7.63-1.22,11-.57a11.37,11.37,0,0,0,3.46.27c.76.26,1.52.54,2.3.88a24.45,24.45,0,0,0,8.28,1.92c5,.39,9.8,1.79,14.68,2.76a.75.75,0,0,0,.39-1.44,66.34,66.34,0,0,0-11.83-3c-2.58-.31-5.14-.43-7.68-1a16.63,16.63,0,0,1-3.15-1.1.33.33,0,0,0-.1-.58,10,10,0,0,0-1.32-.08c-.94-.45-1.88-.9-2.79-1.27-3.63-1.46-7.7-1.18-11.53-1.42-4-.24-8-.19-11.37,2.21C91.74,13,91.83,14,92.56,13.89Z"/><path class="cls-3" d="M115,190.14c-4.33-1.15-8-3.38-12.46-3.87-5.21-.57-11.36.25-16.16-2.1-.35-.17-.75.27-.44.56,3.53,3.24,8.57,2.61,13.05,2.9,3.54.23,7.12.47,10.17,2.43a7.49,7.49,0,0,0,5.84.84A.4.4,0,0,0,115,190.14Z"/><path class="cls-3" d="M100.45,191.31a56.11,56.11,0,0,0-13.63-3c-3.62-.36-7.67-.09-11.07-1.58-.36-.16-4.29-2.16-1.77-3.19a5.35,5.35,0,0,1,6.28,1.5l-2.5.15a.23.23,0,0,0-.16.38c1,1.25,2.58.92,4.09.92a.77.77,0,0,0,.66-1.16c-1.77-3.06-4-3.62-7.44-3.16-2,.28-4.71,1.25-3,3.55,2,2.72,7.07,3.34,10,3.68,3.54.42,7,.52,10.57,1.12,2.74.46,5.22,1.24,8,1A.12.12,0,0,0,100.45,191.31Z"/><path class="cls-3" d="M64.33,150.19c.57.59,1.38-.28.89-.89a15.52,15.52,0,0,0-7.57-5.08c-2.59-.84-4.71-1.41-6.27-3.81-.94-1.46-1.54-3.17-2.39-4.69-.15-.28-.54-.08-.48.2.6,2.91,1.65,5.93,4.16,7.74a15.32,15.32,0,0,0,4.63,1.82A16,16,0,0,1,64.33,150.19Z"/><path class="cls-3" d="M78.71,150.17c-1.21-2.54-6.58-6.87-9.53-5.14-2.64,1.54,1.53,4.8,3,5.09.88.17,1.26-1.15.37-1.35s-4.06-3.06-1.38-2.63c1.48.23,3,1.5,4.11,2.4.55.46,5,5.36.88,5.53-1.4.06-3.08-.75-4.39-1.21-3.67-1.29-7.71-1.36-10.89-3.9-1.41-1.13-2.35-1.92-4.22-1.88a.25.25,0,0,0-.07.48c3.11,1.27,5.3,3.89,8.56,5.11A87.17,87.17,0,0,0,75,155.48C78.91,156.42,80.21,153.31,78.71,150.17Z"/><path class="cls-3" d="M61.13,88.49c.18-.25-.07-.56-.33-.57-1.15-.07-2.08.18-3.07-.63a5.23,5.23,0,0,1-1.59-3.51c-.21-2.44,1.92-5.69,4.43-6a.41.41,0,0,0,0-.81c-3.76-.4-6.18,3.89-6,7.24C54.74,86.9,58.62,91.93,61.13,88.49Z"/></g></g></svg>