<svg xmlns="http://www.w3.org/2000/svg" viewBox="0 0 120.3 118.57"><defs><style>.cls-1{isolation:isolate;}.cls-2{fill:#398769;}.cls-3{fill:#66c754;}.cls-4{fill:#0271ab;}.cls-5{fill:#52284a;opacity:0.1;}.cls-5,.cls-8{mix-blend-mode:multiply;}.cls-6{fill:#fff9f2;opacity:0.15;}.cls-6,.cls-7{mix-blend-mode:overlay;}.cls-7{fill:#fff7f7;opacity:0.5;}.cls-8{fill:#492659;opacity:0.25;}.cls-9{fill:#382734;}</style></defs><title>earth</title><g class="cls-1"><g id="Layer_2" data-name="Layer 2"><g id="OBJECTS"><path class="cls-2" d="M108.32,68.35c1.78,5.84,10.73,3.29,6.77,3.12-11.28-2,2.83-9.4-18.72-8.15a2.57,2.57,0,0,0,3.68,2.1C102.31,64.66,108.35,64.16,108.32,68.35Z"/><path class="cls-2" d="M94.27,52.64C94,50.69,91.54,49.22,90,49,90.17,51.38,92.74,51.39,94.27,52.64Z"/><path class="cls-2" d="M99.16,26.07c-1.72-.05-3.58-1.09-4.93.51-1.1,1.33-5.19,1.86-2,3.18,1.82-.35,2.74-3.15,5.09-2.13,1.57.58,3.15-.72,4.73-.11C101.88,26.42,100.17,26,99.16,26.07Z"/><path class="cls-2" d="M82.44,20.3c-.75,2.62-3.62,1.06-5.39.54a3.09,3.09,0,0,0,1.51,2C84,26.16,84.17,16.24,82.44,20.3Z"/><path class="cls-3" d="M79.64,17.23c-.25,1.06-1.41,1.24-2.23,1.48C76,20.4,79.78,21,80.85,20.84,83.35,20,82,14.15,79.64,17.23Z"/><path class="cls-2" d="M82,10.36c-3.94,8.46-7.57,3-11.7,6.57-1.55,2.34-2.07,7-5.84,4.26,3.85,7.54,5.22-2,8.25-3.66,2.48-1,5.91-.26,7.78-2.35,1.6-1.82,4-3.87,2.11-6.19C82.26,9,82.29,10,82,10.36Z"/><path class="cls-2" d="M60.26,10.82c-.19-1-8-3.15-6.86-2.08,2,2.74,5.9,1.19,8.14,4.19C62,12.57,60.78,11.37,60.26,10.82Z"/><path class="cls-2" d="M50.12,30.22c-9.69,7,.22,16.87-7.37,20.44-1,0-1.83-.76-2.72-1.16-1.42-.43-2.84,0-4.19-.45.8,1.61,2.52,2,4.17,2.17,6.81,5.07,8.5-5.3,6.93-10.08C44.82,37.39,52.31,28,50.12,30.22Z"/><path class="cls-2" d="M18.37,49c.69-7.87,5.47-.6,9-4.1,1.32-1.62,3.27-2.74,5.33-1.81-.32-2.23-2.24-1.55-4.43-.26-3.38,2.88-5.89-1.74-9.06-.19-8.78,8.13,7,20.53-2.67,24.41C27.68,66.22,17.27,54.79,18.37,49Z"/><path class="cls-2" d="M3.08,59.86c1.35,1.68,4.32.29,5.79.39-1.63-2-4.54-.94-6.69-1.68C1.83,58.85,2.93,59.6,3.08,59.86Z"/><path class="cls-2" d="M66.77,114.24c.87-.44.58-1.38,1-2.08a9.74,9.74,0,0,0,2.43-4.76A3.28,3.28,0,0,0,67.8,111C67.66,112,66.31,113.36,66.77,114.24Z"/><path class="cls-2" d="M87.28,102.34c1.75-1.78,2-4.79,2.07-7.27C86.6,95.89,87.32,100.4,87.28,102.34Z"/><path class="cls-3" d="M65.76,115.37c-2.81,5.19,13.48,0,15.25-1.53,4.24-2.61,10.46-1.78,14-5.89,2.86-4.16,8.16-6.09,9.67-11.23,2.19-6-1.54-3-4.89-2.72-2.34-1.29-5-1-7.59-.55s-1.77,4.61-2.51,6.4c-.77,3.72-7.75,7.19-11.39,6.82-3.09-.9-7.12-1.33-7.94,2.69-.35,1.62-1.64,2.39-2.09,3.81C68.33,114.55,66.89,115,65.76,115.37Z"/><path class="cls-3" d="M93.05,17.7c2.79,3.22-2.75,4.84-3.22,7.5.24,3.07,1.61,2.67,3.52,1,1.83-1.93,3.94-1.25,6.16-.73,5,.21,6.1,7.34,5.06,11.2-.58,2.53-3.23,3.12-5.47,2.71-2.8,0-4.12,3.42-6.71,4.45-7.69,6,5.71,2.59,2.82,15-.59,9.44,14.53-2.89,16.06,10.22a5.58,5.58,0,0,0,4.65,1.46C124.83,59,115,45.7,112.28,34.33c-5.18-7.63-10.75-15-18-20.7C92.2,13.11,91.77,16.54,93.05,17.7Z"/><path class="cls-3" d="M55.75,8.14c5.07.34,7.68,4.21,7.25,8.77.25,2.57,3.65,6.09,5.17,2.68,1.45-7.37,7.75-2.58,11.16-6.7C89.64,3.53,57.54-2,52.26,3.49,51.26,5.87,53.28,8.13,55.75,8.14Z"/><path class="cls-3" d="M5,58c4.86-.71,5.88,4.66,8.81,7.18a3.34,3.34,0,0,0,5-4.09c-2.46-6.21-5.74-13-.4-19.13,3.09-2.65,6.69,3,9.8-.27,8.59-4.91,2.59,6.93,9.66,6.66,1.75-.6,3.09,1,4.66,1.39,5.21-2.7.29-10.22,2.51-14.63,11.34-13.58-1-5.25-8.19-24.6-6.09-2.91-11.63,4.09-16.63,6.76-3.06,1.26-6.94,2.54-7.94,6C10.5,28.87-7.34,57.87,5,58Z"/><path class="cls-4" d="M29.53,108.18c10.34,5.71,22.85,9.58,34.72,8.38a1.44,1.44,0,0,1,.75-1.7c.93-.64.84-1.89,1.27-2.84.34-.56.66-.83.67-1.55a3.78,3.78,0,0,1,2.52-3.71c7.13-4.06,7.61,1.87,16.27-3.45,1.58-2.57-.59-7,2.48-8.67,1.87-1.3,3.92-2.57,6.33-2.39,1.6-.18,3.34-.42,4.73.56,2,.82,4-1.7,6-.73a36.88,36.88,0,0,0,8-19c-7.27-1.63-4.14-5.5-7.79-7.07-3.2-1.39-7.79,2.47-9.55-1.66-3.41-4.08,1.28-11.3-5.38-12.7-3.29-3.45-.93-8.07,3-9.72,3.08-2.49,3.37-4.16,7.85-3.47,4.7-1.14,3.16-12.47-2.4-9.94-1.67.07-3.52-1-4.65.81-2.14,2.9-4.39-.21-5-2.6-1.82-3.45,3.37-4.55,3.59-7.46-.51-1.54-2.15-2.89-1.29-4.68a26.48,26.48,0,0,0-7.3-4c0,2-1.75,3.56-2.94,5,5,2.26,2.42,11.38-3.21,8-2.28-1.25-3.52-5.76.09-6-3.17.41-6.81.34-7.57,4.26-3.72,7.81-8.82-1.59-8.8-6.24-2.7-6.23-9.5-2-10.7-10.29a35.61,35.61,0,0,0-14,4.23c1.5,1,1.74,3.17,2.45,4.69C41.47,21,51.11,23,51.47,30c-8.38,10.43,1.1,15-5.82,22.71-1.78,1.44-3.91.58-5.53-.61-4-.22-7.15-4-7.39-7.94-3.36-2.3-5,3.38-8.4,2.64-1.56.16-3-2-4.32-.56-3.09,4.91,1.63,9.89,2.55,14.64,1.21,5-5.21,9.41-8.9,5.36-6.14-5.87-1.2-4.71-10.19-5.08C4.1,79.84,13.27,98.4,29.53,108.18ZM48.89,21.31c-3.06-1.93-2.22-9.49,2.3-7.18,2.61.78,5.62-1.19,7.81.86,1.72,1.54,1.19,3.79,2,5.74.68,1.68,2.31,3.78.3,5.18C55.23,31.42,53.59,23.33,48.89,21.31ZM18.8,71.77c-.58-5.73,4.55-1.89,4.74-7.09A14.18,14.18,0,0,1,38.36,62.1c4.27-1.23,7.4,1.5,10.93,3.37,2,.78,4.21-.52,6.2.38.95.43,1.25,1.72,2.33,1.74,2.4-.14,5.28-.47,6.2,2.33,3,1.57,3.34,4.91,4.79,7.65,2.45,4.49-1.36,7.3,1.74,11.94-2.63,7.88,2.76,7-5.27,11.95-5.35,4.05,3,11.3-3.23,14.18-3.57.48-7.2-1.71-10.65-2.48-1.15-1-2.15-2.59-3.95-2.22-4.64,1.22-4.64-5.64-6.61-8.35-8.15-6.74-12.22-3.94-12.08-17.48C22.34,82.27,18.46,79.75,18.8,71.77Z"/><path class="cls-2" d="M51.36,21.86c2.32,1.38,3.39,5.88,6.64,5,1.37-.67,3.9-1.51,3.23-3.45-6.07,5.12-6.8-1.67-11.51-3.11C47.48,19.93,50.68,21.46,51.36,21.86Z"/><path class="cls-2" d="M28.65,83.63c-.33-3.35-5-3-7.23-4.48C22.55,82.36,26.13,82.3,28.65,83.63Z"/><path class="cls-2" d="M38.05,98.13a7.62,7.62,0,0,0-6.34-2.4C32.14,97,44,102.23,38.05,98.13Z"/><path class="cls-2" d="M63.52,111.9c-6,4.21-12.75-3.93-18.85-4.17-2.35-2.14.38,3.8,2.59,2.49,1.76-.47,3.19.72,4.25,2C54.34,113.15,63.81,117.59,63.52,111.9Z"/><path class="cls-2" d="M66.73,83.88c-1.2,2.73,1.19,5.24.9,8,1.88,7.34-9.32,7.11-4.91,15-.3-9.47,8.06-4.49,6.09-14,1.88-3.4-.15-4.43-.59-7.62h0c.32-2.32,1.52-4.64,0-6.86A23.86,23.86,0,0,1,66.73,83.88Z"/><path class="cls-3" d="M49.85,19.51c3.18-.07,3.82,4.25,6.73,4.74,4.65.07,3.87-1.81,3-5.29.24-3.33-2.86-4.74-5.77-3.73-1.61.41-3.62-1-5.08-.26C47.87,16.59,47.28,19.63,49.85,19.51Z"/><path class="cls-3" d="M24.74,79.57c8.2.75,2.64,11.33,7,15.18,11.14.92,7.55,9.18,14.29,12.77,1.92.15,3.91-.07,5.27,1.6,2.19,2,5.54,2.26,8.31,3.28,8.1.4-.45-7.06,1.76-10.9,1.93-4.67,6.85-3.52,5.4-10.08.48-2.15-1.26-3.77-1.1-5.89,1.13-4.49,2.53-6.73.52-11.41-.92-2.38-2.79-3.44-4.07-5.4-1.64-.9-3.63.13-5.3-.38-2.24-3.53-5.9-.65-9.08-2.61-2.45-1.3-4.49-3.49-7.64-2.91-2.73.7-5.14-1.11-7.85-1.08C21.72,63.66,26,67.67,21.6,68.69,17.56,68.91,19.48,79.76,24.74,79.57Z"/><path class="cls-5" d="M64.86,117.53c5.34,3,13.1-1.35,18.19-3.68,3.46-1.47,7.67-1.38,10.81-3.59,4.11-5.34,13.8-10,12.09-17.74a31.91,31.91,0,0,0,8.15-19.26c7.22-1.31,6.56-15.62,5.66-21.35-.69-3-2.27-5.43-3.65-8.13-1.89-4.27-1.49-9.45-5-13-4.83-4.28-6.34-11.36-12.47-14.08-2.36-.85-4-6.15-6.51-3a20.08,20.08,0,0,0-7.94-4c-.56-1.69-2.1-2.59-3.59-3.33,31.69,36.12,10.91,98.72-36,109C51.21,116.94,58.08,118.81,64.86,117.53Z"/><path class="cls-6" d="M6.3,81C65,123.18,104.15,27.46,38.2,7.87a8.7,8.7,0,0,0-2,1.15C27.68,7.8,21.37,16.73,13.62,19.43c-5.14,11-19.51,29.69-11,41.15A56.11,56.11,0,0,0,6.3,81Z"/><path class="cls-7" d="M4.43,58.51a.54.54,0,0,0,.42-.22,5,5,0,0,1,4.38,1.93c.32.34.78-.07.7-.45-.51-2.31-3.23-2.4-5-3.05-8.1-6.56,6.77-24,8.64-31.75,2.88-5.66,10.36-6.8,14.79-11.22,9.3-6.33,8.22,3.36,13.66,7.88,1.42,2,8.77,4.67,3.37.84A42.43,42.43,0,0,1,37.52,10.7,90.32,90.32,0,0,1,52.31,6.63C53.82,9,57,8.41,59.12,9.82c.66.34,2,2.64,2.5,1.19,0-4.8-9.46-2.29-8.11-7,4.37-1.41,10-2.86,14.36-.56,5.31.4,7.81.51,12.12,3.85,1.72-.69-2-2.6-2.65-3.32C76.16,2.4,73.16,2.4,71.42,2.33,68.58,2.63,66.29.9,63.58.61c-3.12.25-6.18,1.16-9.3,1.47-1.37-1-2.77,1.38-2.62,2.63-4.9,1-11.55,1.59-15,5.25-5.17-1.58-10.18,1.85-14.08,5-3.5,2.85-8.69,3.55-10.76,7.93C9.58,31.14-7.65,53.09,4.43,58.51Z"/><path class="cls-7" d="M15.59,95.92c3,5.53,8.9,10.59,14.48,13.35.88.44,5.41,3.4,4.62,1.31C14.4,99.25,9.15,78.73,2.59,61.83A65.77,65.77,0,0,0,15.59,95.92Z"/><path class="cls-7" d="M57.74,16.26c1,.65,1.12,1.64,1.61,2.63,2.55.55.44-5.92-5.77-4.08-4.14-1-7.45,0-5.44,4.88a.41.41,0,0,0,.75-.24c0-1.1-.43-4,1.4-3.75C52.75,16.65,55.39,15.32,57.74,16.26Z"/><path class="cls-7" d="M20,68.85c-3.14,7.38,1.68,9.87,7.52,12.44.4.36.88-.22.54-.6-4.24-2.9-8.43-3.64-7.22-10.1.56-1.34,3.31-.44,4-2.24.52-3.3,4-4.42,6.83-5.31,3.05,0,5.88,1.49,9,.83,4.59.95,8.11,4.91,13.18,3.46,4,3.47,4.9,1,8.94,2.34.31.17.77-.16.61-.51-1.46-3-5.4.15-7.36-1.9-.92-3.1-5-.62-7.22-1.68-6.18-3.65-17.77-6.2-23.67-1.12-1.59.34-1.31,2.49-2.31,3.5C22.12,68.69,20.78,68.13,20,68.85Z"/><path class="cls-7" d="M81.26,17c.45,0,.55-.64.18-.83-1.22-.62-1.92.51-2.45,1.41s-2.18.27-2.37,1.7c-.14.51.61.64.78.17.26-.73,1.45-.34,2-.77C80.15,18,79.86,16.92,81.26,17Z"/><path class="cls-7" d="M104.49,33.63c-.35,7.45-2.72,4.74-7.54,5.95-1.5,2.08-3.57,3.2-5.6,4.68A1.67,1.67,0,0,0,90,45.54c-1.4,1.16.11,3.48,1.7,3.43,6.3,2.64.38,10.66,4.59,14.14.34.19.81-.26.53-.59-2.27-4.32,1.92-10.83-3.29-14.13-4.16-1.91-.58-3.78,1.83-5,1.64-1.33,2.48-3.56,5-2.47,8.35.35,6.48-14.24.57-16.32-3.1-.47-6.7-1.32-9,1.47-3.51-.94,2.08-3.57,2.49-5.15,1-1.95-1-3.37-1.37-5.13a5.37,5.37,0,0,1,.45-2.11c-.06-1.2-1.34-.17-1.49.48-.37-1.12-9.63-5.58-7.59-2.92a57.38,57.38,0,0,0,7.41,5.09c2.89,4.85.76,4.16-2.08,7.69-1.23,3.56,1.09,5.61,3.88,2.26,1.91-1.76,4.84-.57,7.13-.33C103.64,27.11,104.11,30.91,104.49,33.63Z"/><path class="cls-7" d="M71,107.19c-.91,1.66-1,3.65-2.72,4.79-.35.45-.24,1.42-.68,1.73-.68,1.06,1,.78,1.07-.12.45-1.56,2.29-2.28,2.56-4.07,1.4-5.78,7.6.33,11-2.24,1.23-1.2,2.81-1.53,4.4-2,5.7-1.55,2.09-9.72,7.13-10.94,2.69-1,6.19,1.83,8.11-.81.35-1.58-2.62.58-3.84-.46-14-2.85-2.59,11.36-19.38,13.35C76.2,106.37,72.88,104.48,71,107.19Z"/><path class="cls-7" d="M14.79,29a.85.85,0,0,0,.52,1.62A.85.85,0,0,0,14.79,29Z"/><path class="cls-7" d="M14.72,26.72a1,1,0,0,0-.91,1.77A1,1,0,0,0,14.72,26.72Z"/><path class="cls-7" d="M16.82,27.16c-.27-.43-1,0-.72.41S17.12,27.63,16.82,27.16Z"/><path class="cls-7" d="M13.41,31.06c.9-.75-.8-1.62-.87-.45A.52.52,0,0,0,13.41,31.06Z"/><path class="cls-7" d="M11.53,32.28c-.69-.2-1,1-.3,1.13C11.63,33.69,12.34,32.74,11.53,32.28Z"/><path class="cls-7" d="M17,29.55a.26.26,0,0,0,.15.49A.26.26,0,0,0,17,29.55Z"/><path class="cls-7" d="M20.65,21.86a.57.57,0,0,0-1.09.35A.57.57,0,0,0,20.65,21.86Z"/><path class="cls-7" d="M21.47,23a.74.74,0,0,0,1.4-.45A.74.74,0,0,0,21.47,23Z"/><path class="cls-7" d="M22.74,20.64a.5.5,0,0,0-.94.31A.5.5,0,0,0,22.74,20.64Z"/><path class="cls-7" d="M23.84,19.86a.41.41,0,0,0,.25.78A.41.41,0,0,0,23.84,19.86Z"/><path class="cls-7" d="M6.28,54.55a.84.84,0,0,0,.52,1.6A.84.84,0,0,0,6.28,54.55Z"/><path class="cls-7" d="M4.53,54.53a.43.43,0,0,0,.32.79C5.36,55.19,5,54.21,4.53,54.53Z"/><path class="cls-7" d="M7.56,53.56c-.23-.7-1.27,0-.7.45A.43.43,0,0,0,7.56,53.56Z"/><path class="cls-7" d="M58,5.73a.29.29,0,0,0-.18-.55A.29.29,0,0,0,58,5.73Z"/><path class="cls-7" d="M55.43,4.39a.39.39,0,1,0,.78.07A.4.4,0,0,0,55.43,4.39Z"/><path class="cls-7" d="M59.69,4.22a.57.57,0,0,0-1.08.34A.57.57,0,0,0,59.69,4.22Z"/><path class="cls-7" d="M60.86,4.14a.49.49,0,0,0,.3.93A.49.49,0,0,0,60.86,4.14Z"/><path class="cls-7" d="M59.33,6.22c0,.32.41.56.52.19S59.37,5.75,59.33,6.22Z"/><path class="cls-7" d="M66.05,6c.11,1.57,2.54.79,1.72-.56A.92.92,0,0,0,66.05,6Z"/><path class="cls-7" d="M65.33,4.33c-.63.21.17,1.17.41.53C65.85,4.58,65.65,4.23,65.33,4.33Z"/><path class="cls-7" d="M69,6.05a.38.38,0,0,0,.23.73A.38.38,0,0,0,69,6.05Z"/><path class="cls-7" d="M50.12,17.42a.64.64,0,0,0,.39,1.21A.64.64,0,0,0,50.12,17.42Z"/><path class="cls-7" d="M50.31,16a.39.39,0,0,0,.23.74A.39.39,0,0,0,50.31,16Z"/><path class="cls-7" d="M51.88,16.61a.38.38,0,0,0,.37.66A.38.38,0,1,0,51.88,16.61Z"/><path class="cls-7" d="M95.44,20c-.2.79,1.08,1.33,1.36.49A.73.73,0,1,0,95.44,20Z"/><path class="cls-7" d="M94.92,18.1c.41.37,1-.22.68-.64A.47.47,0,1,0,94.92,18.1Z"/><path class="cls-7" d="M97,19.1c.84.32.86-1.25,0-1A.52.52,0,0,0,97,19.1Z"/><path class="cls-7" d="M100.31,23.35a.6.6,0,0,0,1.14-.37C101.36,22,99.79,22.45,100.31,23.35Z"/><path class="cls-7" d="M99.26,23.17a.34.34,0,0,0-.21-.64A.34.34,0,0,0,99.26,23.17Z"/><path class="cls-7" d="M100,22.08a.33.33,0,0,0,.14-.64C99.67,21.34,99.45,22.07,100,22.08Z"/><path class="cls-7" d="M102.43,42.19a1.08,1.08,0,0,0,.66,2.05A1.08,1.08,0,0,0,102.43,42.19Z"/><path class="cls-7" d="M100.64,42.48a.44.44,0,0,0-.83.27A.44.44,0,0,0,100.64,42.48Z"/><path class="cls-7" d="M104.54,41.17c-.89.73.6,1.78.95.68A.59.59,0,0,0,104.54,41.17Z"/><path class="cls-7" d="M106.1,39.92a.37.37,0,0,0-.22-.7A.37.37,0,0,0,106.1,39.92Z"/><path class="cls-7" d="M104.65,43.83c-.13.59.82.87.91.2A.47.47,0,0,0,104.65,43.83Z"/><path class="cls-7" d="M106,45.75a.37.37,0,0,0-.42.46C105.92,46.94,106.9,45.85,106,45.75Z"/><path class="cls-7" d="M98.39,43.64a.68.68,0,0,0-1.29.42A.68.68,0,0,0,98.39,43.64Z"/><path class="cls-7" d="M94.33,45.06a.51.51,0,0,0,.71.66C95.75,45.26,94.75,44.32,94.33,45.06Z"/><path class="cls-7" d="M94.75,47.05c-.53.58.41,1.36.92.78A.6.6,0,0,0,94.75,47.05Z"/><path class="cls-7" d="M97.11,47.46a.48.48,0,0,0,.29.92A.48.48,0,0,0,97.11,47.46Z"/><path class="cls-7" d="M97.27,50.5a.44.44,0,0,0-.27-.84A.44.44,0,0,0,97.27,50.5Z"/><path class="cls-7" d="M97.64,59c-.54-.17-.86.67-.37.94C97.93,60.4,98.4,59.12,97.64,59Z"/><path class="cls-7" d="M97.39,57.33c-.17.48.53.76.68.26S97.51,56.86,97.39,57.33Z"/><path class="cls-7" d="M36.49,17.31c-.76,0-.46,1.32.24,1A.53.53,0,1,0,36.49,17.31Z"/><path class="cls-7" d="M36.24,19.89c-.39.44.37,1,.66.45S36.54,19.55,36.24,19.89Z"/><path class="cls-7" d="M37.91,19.51a.48.48,0,0,0,.3.91A.48.48,0,0,0,37.91,19.51Z"/><path class="cls-7" d="M39.32,21.86a.48.48,0,0,0-.3-.92A.48.48,0,0,0,39.32,21.86Z"/><path class="cls-7" d="M40.78,21.84a.33.33,0,0,0,.2.63A.33.33,0,0,0,40.78,21.84Z"/><path class="cls-7" d="M37.57,22.82A.86.86,0,0,0,37,21.18.86.86,0,0,0,37.57,22.82Z"/><path class="cls-7" d="M23,77.05a.91.91,0,0,0,1.35-1.2C23.59,74.71,21.93,76.18,23,77.05Z"/><path class="cls-7" d="M21.55,74.86a.65.65,0,0,0,1.24-.4A.65.65,0,0,0,21.55,74.86Z"/><path class="cls-7" d="M24.19,74.32c0-.78-1.19-.49-.8.19A.42.42,0,0,0,24.19,74.32Z"/><path class="cls-7" d="M22.05,72.63a.37.37,0,0,0-.71.23A.37.37,0,0,0,22.05,72.63Z"/><path class="cls-7" d="M26.16,78a.48.48,0,0,0-.77-.56C24.89,77.91,25.83,78.58,26.16,78Z"/><path class="cls-7" d="M27.54,68.46a.63.63,0,0,0-.39-1.2A.63.63,0,0,0,27.54,68.46Z"/><path class="cls-7" d="M28.14,65.87a.57.57,0,0,0-1.09.35A.57.57,0,0,0,28.14,65.87Z"/><path class="cls-7" d="M28.66,66.17c-.3.29,0,.86.39.61S29.08,65.77,28.66,66.17Z"/><path class="cls-7" d="M29.69,65c-.4.19,0,.67.31.41S30,64.85,29.69,65Z"/><path class="cls-7" d="M25.83,67.07c-.54.54.73.82.57.12A.34.34,0,0,0,25.83,67.07Z"/><path class="cls-7" d="M25.25,69.46a.26.26,0,0,0-.16-.49A.26.26,0,0,0,25.25,69.46Z"/><path class="cls-7" d="M41.41,65.6a.81.81,0,0,0,.49,1.54A.81.81,0,0,0,41.41,65.6Z"/><path class="cls-7" d="M39.89,65.49a.39.39,0,0,0-.75-.18A.39.39,0,0,0,39.89,65.49Z"/><path class="cls-7" d="M39.82,67.08a.38.38,0,0,0-.24-.72A.38.38,0,0,0,39.82,67.08Z"/><path class="cls-7" d="M37.31,65.23a.36.36,0,1,0,.71.07C38,64.89,37.4,64.85,37.31,65.23Z"/><path class="cls-7" d="M43.68,66.31c0,.37.58.32.47,0S43.62,66,43.68,66.31Z"/><path class="cls-7" d="M54.07,70.05c.28-.42-.34-.85-.68-.54C52.88,70,53.73,70.64,54.07,70.05Z"/><path class="cls-7" d="M51.64,69.33a.46.46,0,0,0,.87-.28A.46.46,0,0,0,51.64,69.33Z"/><path class="cls-7" d="M72.47,109.58c-.74-.38-1.2.88-.38,1.07A.57.57,0,0,0,72.47,109.58Z"/><path class="cls-7" d="M72.56,108.47a.41.41,0,0,0,.25.77A.41.41,0,0,0,72.56,108.47Z"/><path class="cls-7" d="M92.28,97.09a.35.35,0,0,0,.21.66A.35.35,0,0,0,92.28,97.09Z"/><path class="cls-7" d="M93,96.16c.66.13.61-1.07-.07-.84A.44.44,0,0,0,93,96.16Z"/><path class="cls-7" d="M95.11,96.06a.67.67,0,0,0-1.28.41A.67.67,0,0,0,95.11,96.06Z"/><path class="cls-8" d="M85.46,109.43c-3.37.65-6.21,2.6-9.32,3.93-1.13,1.34-15,2.14-10.47,3.73,5.8,3,13-2.9,18.92-4.31,5.71-.78,11.07-3.42,14-8.66,3.69-2.23,7.34-6.79,6.65-11.3a1.53,1.53,0,0,0,.16-.87c4.24-5,8.32-11.41,8.1-18.14.62-.55-.06-1.22-.57-1.47l-.21-.35a7.54,7.54,0,0,1-1.11-.44,1.34,1.34,0,0,0-.31.17,6.93,6.93,0,0,1-2.93-2.35c-2.54-.57,1.23,4.16,2.5,4.07,1,10.93-15.89,23.75-8.22,19.5,1.56,6.32-5.57,8.63-8.72,12.6C92,108.18,88.44,108.69,85.46,109.43Z"/><path class="cls-8" d="M112.34,37c-.8,4.94,1.77,8.82,3.83,13,.57,4,2.73,16.83-2.61,17.65-2-.62-2.37-3.94-4.79-3.81-1.38.68,1,1.12,1.23,1.77.4,2.9,2.23,5.67,5.48,5.34,7.67-6.86,3.65-20.91-.68-28.79.12-1.15-2-12.82-3.61-9.47A8.24,8.24,0,0,1,112.34,37Z"/><path class="cls-8" d="M68.07,78a13.8,13.8,0,0,1,1.3,3c-2.19,3,.84,6.34.95,9.26-1.28,2.12-2,4.31-.78,6.68-.9.46-.78,1.79-1.8,2.29-6.2,2.59-4.13,9-3.53,14.08-.11,1.49-4.24,1.58-2.68,2.7a4.54,4.54,0,0,0,5.16-3.36c.87-2.8-2.49-5.89.35-8.13,3.65-2.48,6.21-4.65,4.06-9.28C74.8,91,72.75,89,70.71,84.8,71.65,83.57,68.87,75.09,68.07,78Z"/><path class="cls-8" d="M7.06,62.31C8.61,62.07,9.7,63,11,63.67,12.83,63.08,10,61,9,61c-1.55-.37-3.55.56-4.92-.4C1.54,60.87,6.11,62.81,7.06,62.31Z"/><path class="cls-8" d="M11.9,64.22a4.81,4.81,0,0,0,.51.58c3.29,10.09,20,1.34,8.62-11.9-1.21-2.61.5-5,3.33-3.53,3.87.19,4.22-4.38,8.75-4.5a5,5,0,0,0,2.07,3.84c-.74,1.36,2.18,5.18,4.1,5,7.78,6.53,13.49-3.22,11.29-10.56-3.64-7.29,4-12,.21-15.19-.05-3.66-2.56,2.79-3.78,3.2-7,3.52-.15,18.7-6.21,16.17a4.58,4.58,0,0,0-4-.65c-3.28-.94-.2-7.17-4.93-7.55-3.09-1.19-4.66,3.45-7.56,2-9.5-5.51-13.33,9.31-8.58,15.62,2.29,3.31,2.38,10.39-3.11,6.87C12.23,63.26,11.61,63.81,11.9,64.22Zm24.82-15.8a2.25,2.25,0,0,0,.63.06c1.24.87,2.82.32,4.06,1.25s4.11-.12,3.17-1.79c1.88-4.12-.24-8.74,1.5-12.83a.62.62,0,0,0-.25-.84c1.2-1.71,3.32-3,4.38-4.89.33,2.32-1.79,4.22-2.13,6.46-3.3,5.09,3.22,14.13-4.3,17.51-2.27-.2-4.49-2.3-6.76-2.48A13.3,13.3,0,0,0,35.86,49,.81.81,0,0,0,36.72,48.42Zm-21.45,18c2.74,0,5.91-3.82,3.46-6C16.35,54.89,13.57,46,19.92,42.15c2-.84,3.65,1.74,5.64,1.42,2.35-.79,6.76-5.41,7.46-.36-2-.53-4.09,1-5.44,2.39-1.17-.51-2.08.91-3,1.27-1.78-1.07-6-2.52-5.62,1.05-2.27,5.75,5.39,10.55,2.9,16.06-1.1,2.65-4.77,4.74-7.1,2.31A1,1,0,0,0,15.27,66.42ZM14,65.71a.44.44,0,0,0-.16.06l-.12-.14Z"/><path class="cls-8" d="M61.6,24.34a6.32,6.32,0,0,1-.11.76c-1.3,1.39-3.18,1.78-4.67,2.65a4.82,4.82,0,0,1-2.51-2.48c-2.65-.72,2,5.61,4.67,3.87,1.78-.54,5.43-2.84,3.54-5.1A.51.51,0,0,0,61.6,24.34Z"/><path class="cls-8" d="M74.15,20.73c.9-.48,2.83-.58,2.76-1.89.94-.19,3.06-1.7,1.59-2.3A28.2,28.2,0,0,0,74,18c-3.35,1.15-3.06,5.35-6.37,6.68a4,4,0,0,1-2.41-1.88c-2.14-1.22.45,4.23,1.56,4.44C71.72,29.85,71.47,22.53,74.15,20.73Z"/><path class="cls-8" d="M82.48,13.26a12.34,12.34,0,0,1-1.42,2.2c-.19,1.87,2.32-.15,2.51-1.09C85.5,11.7,83.81,9,82.48,13.26Z"/><path class="cls-8" d="M82.19,25.1c1.72-.65,3.3-2.9,2.25-4.68a.56.56,0,0,0-1,.18A3,3,0,0,1,78,22.55C75.34,22,80,26.73,82.19,25.1Z"/><path class="cls-8" d="M92.91,32.12c2.26,1.11,2.72-.91,4.25-1.37,2.11.78,3.57-1.31,5.53-1.72,1.6-1.79-2.63-1.74-3.43-.67a4.69,4.69,0,0,0-6.2,1.87C88.94,27,90.62,30.94,92.91,32.12Z"/><path class="cls-8" d="M101.35,67.85a7.44,7.44,0,0,1,6,0c2.26-.76-1.28-2.46-2.54-2.17-1.58-1-4.71-.83-6,.58C94.61,63.68,98.52,69.3,101.35,67.85Z"/><path class="cls-8" d="M51.15,20.52c2.22.71,3.07,3.57,5.6,3.75,4.6.63,5.27-4.1,3.13-2.73-.68,1.74-3.44,1.59-4.65.68C54.8,21.53,49.81,18,51.15,20.52Z"/><path class="cls-8" d="M82.88,17.25c-1.4-1.36-1.41,3.7-5.35,2.68-1.66.68,1.4,1.34,2,1,.39.92,2.5-.05,2-1A3.15,3.15,0,0,0,82.88,17.25Z"/><path class="cls-8" d="M65,20.61c3.83,3.05,3.57-4.64,6.73-4.87A.56.56,0,0,0,72.1,15C80,18.5,85.31,5.24,81.15,7.54c-4,12.18-10.11.15-14.6,11.33-1.09,1-2.14.23-2.86-.74C61.65,17.5,64.21,20.69,65,20.61Z"/><path class="cls-8" d="M65.13,71.13c-2-1.39,2.88,6.14-.81,11.74-1.13,4,2.15,7.88.88,12.08-2,4-8.8,4.64-6,10.7,5.53,8.27-5.7,4.44-8.54,1.27-1.71-1.24-4.17,0-5.65-1.74-8.22-17.1-11.81-7.3-14.21-13.32-2-15.52-3.92,6.27,3.54,3.44,7.31,1.62,6.09,9.08,11,12,5.56.09,9.35,6.39,15.29,5,2.59.7,4.17-3.63,1.66-4.63a7.35,7.35,0,0,1-.22-7.43c10.63-5.34,1-12.6,5.26-20.15.5-1.12.82-4.53-.59-5.17A10.65,10.65,0,0,0,65.13,71.13Z"/><path class="cls-8" d="M94,101.22a1,1,0,0,0-.16,1.8C95.5,103.74,95.75,100.77,94,101.22Z"/><path class="cls-8" d="M94.29,99.09a.65.65,0,1,0,.3,1.22A.64.64,0,0,0,94.29,99.09Z"/><path class="cls-8" d="M96.18,101a.49.49,0,0,0-.3-.94A.49.49,0,0,0,96.18,101Z"/><path class="cls-8" d="M92.24,104.92a.58.58,0,0,0-.36-1.1A.58.58,0,0,0,92.24,104.92Z"/><path class="cls-8" d="M75.51,111.24a.69.69,0,0,0,.43,1.32A.69.69,0,0,0,75.51,111.24Z"/><path class="cls-8" d="M76.57,109.3c-.68-.32-1,.76-.42,1S77.17,109.63,76.57,109.3Z"/><path class="cls-8" d="M77.85,111.39a.47.47,0,0,0-.29-.9A.47.47,0,0,0,77.85,111.39Z"/><path class="cls-8" d="M79.34,109.94a.45.45,0,0,0,.27.86A.45.45,0,0,0,79.34,109.94Z"/><path class="cls-8" d="M73.28,112.39a.44.44,0,0,0,.26.83A.44.44,0,0,0,73.28,112.39Z"/><path class="cls-8" d="M113.67,61.07a1.06,1.06,0,0,0-2,.65A1.06,1.06,0,0,0,113.67,61.07Z"/><path class="cls-8" d="M112.74,59.24a.71.71,0,0,0,.83-.9C113,57,111.35,58.79,112.74,59.24Z"/><path class="cls-8" d="M115.25,60.28a.51.51,0,0,0-.31-1A.51.51,0,0,0,115.25,60.28Z"/><path class="cls-8" d="M113.33,64c-.66.27-.18,1.14.43.85S113.93,63.54,113.33,64Z"/><path class="cls-8" d="M110.22,62.35c-.28-.83-1.58.1-.81.58C109.8,63.12,110.37,62.82,110.22,62.35Z"/><path class="cls-8" d="M110.33,44.89a.84.84,0,0,0,1.5.77A.84.84,0,0,0,110.33,44.89Z"/><path class="cls-8" d="M109.74,43.12a.65.65,0,0,0-.4-1.23A.65.65,0,0,0,109.74,43.12Z"/><path class="cls-8" d="M111.55,43.18c.64-.19.21-1.34-.37-1.16S110.93,43.4,111.55,43.18Z"/><path class="cls-8" d="M110.91,40.17a.53.53,0,1,0-.32-1A.52.52,0,0,0,110.91,40.17Z"/><path class="cls-8" d="M110.51,36.38a.61.61,0,0,0-.38-1.16A.61.61,0,0,0,110.51,36.38Z"/><path class="cls-8" d="M113.18,47.26a.51.51,0,0,0-.31-1A.51.51,0,0,0,113.18,47.26Z"/><path class="cls-8" d="M114.89,57.3c1,.38,1-1.43,0-1.13A.61.61,0,0,0,114.89,57.3Z"/><path class="cls-8" d="M115,62.41a.42.42,0,0,0-.26-.8A.42.42,0,0,0,115,62.41Z"/><path class="cls-8" d="M55.46,20.84A.72.72,0,0,0,55,19.47.72.72,0,0,0,55.46,20.84Z"/><path class="cls-8" d="M57.34,22.13c.66-.23.32-1.37-.36-1.14S56.68,22.33,57.34,22.13Z"/><path class="cls-8" d="M58.35,21.21a.4.4,0,0,0-.24-.77A.4.4,0,0,0,58.35,21.21Z"/><path class="cls-8" d="M75.61,13a.66.66,0,0,0-.4-1.25A.66.66,0,0,0,75.61,13Z"/><path class="cls-8" d="M77.14,11.54c.46-.93-1.2-1.29-1-.22A.54.54,0,0,0,77.14,11.54Z"/><path class="cls-8" d="M78.46,11.72c.6-.19.26-1.2-.33-1S77.87,11.92,78.46,11.72Z"/><path class="cls-8" d="M73.39,12.7a.47.47,0,0,0-.28-.89A.47.47,0,0,0,73.39,12.7Z"/><path class="cls-8" d="M65.26,17.33A.72.72,0,0,0,64.82,16,.72.72,0,0,0,65.26,17.33Z"/><path class="cls-8" d="M64.71,15.1A.57.57,0,0,0,64.36,14,.57.57,0,0,0,64.71,15.1Z"/><path class="cls-8" d="M66.73,15.82c.6-.21.28-1.27-.34-1.06S66.13,16,66.73,15.82Z"/><path class="cls-8" d="M68.13,14.59a.5.5,0,0,0-.31-1A.5.5,0,0,0,68.13,14.59Z"/><path class="cls-8" d="M40,45.34a.85.85,0,0,0-.52-1.62A.85.85,0,0,0,40,45.34Z"/><path class="cls-8" d="M38,43.26a.69.69,0,0,0-.43-1.32A.69.69,0,0,0,38,43.26Z"/><path class="cls-8" d="M37.12,45.38c.74.2,1.05-1.06.24-1.07A.55.55,0,0,0,37.12,45.38Z"/><path class="cls-8" d="M41.75,46.19a.48.48,0,0,0-.29-.92A.48.48,0,0,0,41.75,46.19Z"/><path class="cls-8" d="M41.49,36.31a.85.85,0,0,0,.59-1.57C41,34.21,40.24,36.06,41.49,36.31Z"/><path class="cls-8" d="M41.43,33.52a.59.59,0,0,0-.35-1.12A.59.59,0,0,0,41.43,33.52Z"/><path class="cls-8" d="M43.08,33.86c.63-.14.46-1.21-.18-1.1C42.07,32.78,42.29,34.18,43.08,33.86Z"/><path class="cls-8" d="M44.56,32.58a.5.5,0,0,0-.31-.94A.5.5,0,0,0,44.56,32.58Z"/><path class="cls-8" d="M42,38.64c.94.36.92-1.3.12-1.24C41.5,37.37,41.24,38.57,42,38.64Z"/><path class="cls-8" d="M26.91,38.77a.76.76,0,0,0,.2.06h0a.89.89,0,0,0,.63-1.64C26.73,36.67,25.94,38.26,26.91,38.77Z"/><path class="cls-8" d="M27.72,35.92c1.16-.66-.46-2.05-.87-.8C26.63,35.66,27.2,36.26,27.72,35.92Z"/><path class="cls-8" d="M29.22,37.62a.45.45,0,0,0-.28-.85A.45.45,0,0,0,29.22,37.62Z"/><path class="cls-8" d="M30.89,38.26a.48.48,0,0,0-.29-.92A.48.48,0,0,0,30.89,38.26Z"/><path class="cls-8" d="M25.54,39.87a.53.53,0,0,0-.33-1A.53.53,0,0,0,25.54,39.87Z"/><path class="cls-8" d="M46.84,27.94c-.19.76,1,1.09,1.18.29S47,27.18,46.84,27.94Z"/><path class="cls-8" d="M46.66,26.93a.42.42,0,0,0-.26-.79A.42.42,0,0,0,46.66,26.93Z"/><path class="cls-8" d="M19.32,39.3a.88.88,0,0,0-.54-1.68A.88.88,0,0,0,19.32,39.3Z"/><path class="cls-8" d="M16.75,37.88a.65.65,0,1,0,.44-1.21C16.48,36.51,16.05,37.57,16.75,37.88Z"/><path class="cls-8" d="M16.54,39.79c.78,0,.57-1.25-.16-1S15.8,40,16.54,39.79Z"/><path class="cls-8" d="M14.73,41.35c.61.31,1-.72.44-1S14,41.08,14.73,41.35Z"/><path class="cls-8" d="M21.37,39.07a.52.52,0,0,0-.32-1A.52.52,0,0,0,21.37,39.07Z"/><path class="cls-8" d="M13.06,45.69c1.07-.41-.53-1.68-.65-.51A.48.48,0,0,0,13.06,45.69Z"/><path class="cls-8" d="M14,57.13c.91-1.05-1.36-1.53-1.06-.23A.63.63,0,0,0,14,57.13Z"/><path class="cls-8" d="M14.47,58c-.2,1.35,2,.67,1.06-.34A.65.65,0,0,0,14.47,58Z"/><path class="cls-8" d="M15.16,60.28c.33-.68-.87-1.21-.92-.35A.5.5,0,0,0,15.16,60.28Z"/><path class="cls-8" d="M15.92,62.73a.46.46,0,0,0,.3-.7C15.52,60.84,14.65,63,15.92,62.73Z"/><path class="cls-8" d="M55.59,107.93a1,1,0,1,0,2-.64C57.21,106,55.13,106.67,55.59,107.93Z"/><path class="cls-8" d="M54.09,106.8c.86,0,.92-1.35,0-1.34S53.06,106.89,54.09,106.8Z"/><path class="cls-8" d="M55.63,105.17a.44.44,0,0,0,.27.83A.44.44,0,0,0,55.63,105.17Z"/><path class="cls-8" d="M58.54,106.63a.49.49,0,0,0,.3.93A.49.49,0,0,0,58.54,106.63Z"/><path class="cls-8" d="M58.16,99.73c-.56-.28-1,.56-.63,1C58.22,101.45,59.11,100.08,58.16,99.73Z"/><path class="cls-8" d="M58.38,98.49a.59.59,0,1,0-.28-1.11A.59.59,0,0,0,58.38,98.49Z"/><path class="cls-8" d="M60.48,97.42a.44.44,0,0,0,.27.83A.44.44,0,0,0,60.48,97.42Z"/><path class="cls-8" d="M45.9,104.11a.79.79,0,0,0,1.5-.48A.79.79,0,0,0,45.9,104.11Z"/><path class="cls-8" d="M44.78,101.82a.63.63,0,0,0-.22,1.23C45.43,103.29,45.75,101.84,44.78,101.82Z"/><path class="cls-8" d="M46.64,101.53a.44.44,0,0,0,.27.84A.44.44,0,0,0,46.64,101.53Z"/><path class="cls-8" d="M42.78,98.66a.47.47,0,0,0,.29.9A.47.47,0,0,0,42.78,98.66Z"/><path class="cls-8" d="M61.58,89.3c.12,1.41,2.28.72,1.56-.5A.83.83,0,0,0,61.58,89.3Z"/><path class="cls-8" d="M61.65,87.34a.57.57,0,0,0-.35-1.09A.57.57,0,0,0,61.65,87.34Z"/><path class="cls-8" d="M63.23,87.2a.48.48,0,0,0,.29.91A.48.48,0,0,0,63.23,87.2Z"/><path class="cls-8" d="M64.12,91.5a.47.47,0,0,0-.29-.9A.47.47,0,0,0,64.12,91.5Z"/><path class="cls-8" d="M63.84,94.17a.44.44,0,0,0-.27-.84A.44.44,0,0,0,63.84,94.17Z"/><path class="cls-8" d="M63.19,83.52a.51.51,0,0,0-.31-1A.51.51,0,0,0,63.19,83.52Z"/><path class="cls-8" d="M63.63,80.73c.18.56,1.18.25,1-.32S63.44,80.16,63.63,80.73Z"/><path class="cls-8" d="M62.38,80.49a.45.45,0,0,0,.28.86A.45.45,0,0,0,62.38,80.49Z"/><path class="cls-8" d="M64,79.38c.68-.22.31-1.35-.36-1.12S63.31,79.6,64,79.38Z"/><path class="cls-9" d="M51.51,23c1.37,1.43,2.45,3.71,4.35,4.53,2.28.83,6.28-1.08,6.45-3.65-3.46-8.23-.51-10.42-11.12-9.75-3.67-2-5,3.11-3.57,5.67C48.28,21.53,50.4,21.68,51.51,23Zm-3.32-4.35c-.52-5.36,2.07-3.25,5.63-3.32,2.56-.77,5.52-.13,5.63,3,.29,3.39,2.49,5.88-2.86,5.81-2.68-.44-3.33-4.21-6.05-4.68C49.75,19.34,48.6,19.52,48.19,18.65Zm1.38,2.15a2.63,2.63,0,0,1-.67-.59c4.82.39,6.4,8.92,12.24,3.2.64,2-2.54,3.26-4.14,3.47C53.78,26.06,53,21.67,49.57,20.8Z"/><path class="cls-9" d="M22.3,81.81c1.77,1.87,4.74,1.43,6.46,3.3-.17,13.45,3.92,10.77,12.08,17.48,1.77,2.6,1.77,7.08,4.83,8.5C50,110,49.73,112.88,53,113.74c3.08.26,5.93,2.65,9,1.9,3.3-1.21,2.89-5.12,1.36-7.57-1.51-7.4,5.26-6.61,6.55-11.22C68.6,90.14,72.3,92.46,69,85.7a15.65,15.65,0,0,0-5-15.78c-.93-2.79-3.79-2.47-6.2-2.33-4.63-4.11-5.8-.18-10.3-3-2.7-2.11-5.73-3.29-9.16-2.47a14.18,14.18,0,0,0-14.82,2.58c-.12,2.63-1.44,3.17-3.74,3.64C17.26,72.14,19.32,78.63,22.3,81.81ZM27.53,83c-2.36-.6-5-1.37-6.05-3.76,2.41,1.66,6.42,1.07,7.14,4.32A5.38,5.38,0,0,0,27.53,83Zm8.73,15.34c-1.33-1.25-3.44-.9-4.47-2.65a10.43,10.43,0,0,1,7.92,4.14C38.6,99.14,37.26,99.23,36.26,98.32ZM63,113.66c-2.76,2.86-11-1.15-13.65-3.4-3.09-.45-4.48.8-5.59-3.11a5.29,5.29,0,0,0,4.18,1.31c4.51,1.43,10.89,7.47,15.67,3.49A3.44,3.44,0,0,1,63,113.66Zm5.26-35.17c1.81,3.41-1.63,7.16,1.13,10.37.69,1.49-.41,2.58-.67,4-.23,1.26.34,2.45.36,3.7-1.07,4-7.47,3.94-6.38,10.23-2.49-4.35,1-7.51,4.24-9.84C70,89.72,64.32,89.19,68.25,78.49ZM19.72,73.55c-.7-7.19,2.61-2.68,4.47-6.92,1.24-4.1,8.69-5.74,12.36-3.83,4.38.14,7.54,0,11.17,3,3,1.93,6.91-.87,9.09,2.61,1.67.53,3.67-.51,5.29.38,1.51,2.2,4.12,3.87,4.31,6.74,2.76,5.38-2.9,8.72.36,14.65.82,9.46-2.24,4.86-5.46,11.27-1.43,3.32,1.48,6,1.94,9-1.18,4.25-9.55.22-11.85-1.38-1.38-1.69-3.38-1.47-5.32-1.63-6.65-3.65-3.25-11.91-14.27-12.76-1.51-.79-1.54-3.08-1.73-4.56C31,74.17,21.12,84.17,19.72,73.55Z"/><path class="cls-9" d="M15,96.56c11.51,14.72,31.48,22.54,49.91,21,5.34,3,13.1-1.35,18.19-3.68,3.46-1.47,7.67-1.38,10.81-3.59,4.11-5.34,13.8-10,12.09-17.74a31.91,31.91,0,0,0,8.15-19.26c7.22-1.31,6.56-15.62,5.66-21.35-.69-3-2.27-5.43-3.65-8.13-1.89-4.27-1.49-9.45-5-13-4.83-4.28-6.34-11.36-12.47-14.08-2.36-.85-4-6.15-6.51-3a20.08,20.08,0,0,0-7.94-4c-.79-2.5-3.61-2.92-5.26-4.64C74.9,1,68.46,1.13,63.15,0c-3.28,1-11.49.18-12,4.3A34.24,34.24,0,0,0,36.23,9C27.68,7.8,21.37,16.73,13.62,19.43c-5.14,11-19.51,29.69-11,41.15A58,58,0,0,0,15,96.56Zm89.57.3c-3.89,6.68-10.81,13.91-18.81,15.09-3.32.79-20,9.6-20.23,3.69,1.19-.62,2.92-.79,2.87-2.46,1.65-2.05,2-5.33,4.28-6.78,3.29-1.16,7.06,2,10.09-.54,12.16-3.68,3.14-12.9,12.44-12.59,1.68-.41,3.11.18,4.6.82C103.08,93.9,106.83,90.76,104.52,96.86Zm-37.8,17.29c1.17-2.31.63-5.68,3.48-6.66A49.17,49.17,0,0,1,66.72,114.15Zm20.49-11.88c.61-2.37-.7-5.94,2.08-7.12C89.08,97.61,89.05,100.37,87.21,102.27Zm28.12-30.15c-2.46.56-6.24-1.22-6.91-3.78-.18-1.08-.26-2-1.24-2.63-3.31-2.93-9.14,2.48-10.85-2.3,22.22-1.49,7,7.87,19.84,8A2.33,2.33,0,0,1,115.33,72.12ZM92.65,16.85c-.73-1.06.12-3.64,1.57-3.14,1.86,2.81,5.12,4.1,7.64,6.25,2.72,3.43,4.3,7.6,7.68,10.58,4.83,5.26,4,12.9,8.21,18.62,2.13,4.24,3.2,24.61-5,20.78a2.81,2.81,0,0,1-1.91-3c-1.86-9.36-16.54.46-15.51-8,2.89-14.94-13.74-7.18,1-18,3.75-3.9,10.14,2.56,8.33-10.19-1-6.32-9.22-7.53-13.22-3.33C90.34,28,90,26,89.93,25.2,91,22.12,96.19,20.78,92.65,16.85Zm1.56,35.7c-1.45-1.42-3.94-1.12-4.12-3.61C91.79,49.76,93.67,50.58,94.21,52.55Zm7.85-25.12c-1.88-.52-3.68.71-5.61,0-2.3-.54-3.68,4.33-5.45,1.16,1.86-.39,3.09-2.22,4.83-2.8C97.86,26.17,100.64,25.63,102.06,27.43ZM82.56,9.05c1.93,2-.66,4.54-2.09,6-2.77,2.89-8.28.36-9.93,4.71-.94,3.42-3.88,6.14-6,1.46C68.07,24.13,69,19.21,70.41,17,74.79,13.42,79.11,19.13,82.56,9.05ZM82.08,19c-.23,3-5.94,1.7-4.61-.19.84-.2,2-.47,2.25-1.51C80.68,15.22,82.77,17.52,82.08,19Zm1,.2c1.63,4.21-4.7,5.78-6,1.74C79.76,22.19,82.21,22.55,83.09,19.18ZM52.13,4c1.27-2.32,4.53-1.5,6.7-2.16C64.31,0,70.15,2.3,75.49,3.69c2.81,2.42,8.85,4.57,4.36,8.58-3.81,5.16-9.76-.74-11.77,7.28-1.49,3.4-4.83-.38-5-2.66s.06-4.81-1.93-6.45C58.74,7.1,51.55,9.47,52.13,4Zm9.48,8.91c-2.12-3-6.62-1.43-8.29-4.5C56.28,9.36,60.32,9.34,61.61,12.86ZM1.16,54.61C.15,43,8.77,33.8,12.41,23.31c1.17-3.63,4.78-4.59,7.9-5.95,4.6-2.52,8.36-7.34,14-7.43,4.29-.88,4.76,10.44,12.9,14.64,8,6.61-5.79,4.62-2.33,20.67-.13,4-1.62,5.58-5.07,3-10.53,1.31-1.15-13.1-13.74-5.61-1.46.3-2.75-.83-4-1.31-7.34-1.44-7,9.7-5.41,14.31.55,3.11,4.51,7.05,1,9.61-4.29,2.45-5.87-3.86-8.34-6C6.86,56.58.89,59.8,1.16,54.61ZM50.53,29.66c-1.54,3.71-5,6.71-3.73,11.22,1.59,4.76.05,15.38-6.76,10.25-1.67-.16-3.13-.51-4.12-2,1.33.64,2.73,0,4.07.49.89.4,1.72,1.21,2.77,1.17,5.32-1.62,2.32-8.93,2.79-13C45.42,34.11,49,32.47,50.53,29.66ZM21.68,63a4.54,4.54,0,0,1-5.1,3.86c8.77-3-2.14-12.92.3-19.28.36-3.87,3.05-7,6.81-4.18,2.92,2.23,7.4-4.3,9-.48-3.94-2.05-5.9,4.83-9.89,2.46-2.59-1.89-4.53,1.07-4.5,3.52C17.24,54.14,22.22,58,21.68,63ZM5.49,59a4.56,4.56,0,0,1,3.32,1.32c-2.53-.3-5.15,1.32-6.67-1.66A9.21,9.21,0,0,0,5.49,59ZM4.7,71.51A100,100,0,0,1,3.47,61.18c9,.36,4-.75,10.19,5.08,3.7,4,10.11-.35,8.9-5.36-.92-4.75-5.64-9.73-2.55-14.64,1.32-1.46,2.76.72,4.32.56,3.43.74,5-5,8.4-2.64.24,3.93,3.42,7.72,7.39,7.94,1.62,1.19,3.75,2.06,5.53.61C52.56,45,43.11,40.41,51.47,30c-.35-7-10-9.06-11.84-15.88-.71-1.52-1-3.72-2.45-4.69a35.61,35.61,0,0,1,14-4.23c1.21,8.34,8,4.05,10.7,10.29,0,4.65,5.08,14.05,8.8,6.24.76-3.92,4.4-3.85,7.57-4.26-3.61.28-2.37,4.8-.09,6,5.63,3.42,8.25-5.7,3.21-8,1.19-1.41,2.91-3,2.94-5a26.48,26.48,0,0,1,7.3,4c-.86,1.8.78,3.14,1.29,4.68-.22,2.91-5.41,4-3.59,7.46.59,2.41,2.82,5.48,5,2.6,1.13-1.8,3-.74,4.65-.81,5.56-2.54,7.09,8.81,2.4,9.94-4.49-.69-4.76,1-7.85,3.47-3.87,1.65-6.25,6.28-3,9.72,6.66,1.4,2,8.62,5.38,12.7,1.76,4.13,6.34.27,9.55,1.66,3.64,1.57.52,5.45,7.79,7.07a36.85,36.85,0,0,1-8,19c-2.08-1-4,1.55-6,.73-1.39-1-3.13-.74-4.73-.56-2.41-.18-4.46,1.09-6.33,2.39-3.07,1.72-.9,6.1-2.48,8.67-8.7,5.33-9.11-.62-16.27,3.45a3.8,3.8,0,0,0-2.52,3.71c0,.72-.33,1-.67,1.55-.43,1-.34,2.2-1.27,2.84a1.44,1.44,0,0,0-.75,1.7C36.69,119,9.19,99.22,4.7,71.51Z"/><path class="cls-9" d="M49,52.48c-.64-.93-2.92,4.3-6,2.6-.23-.09-.47.19-.26.38C45,57.57,48.13,54.66,49,52.48Z"/><path class="cls-9" d="M48.12,55.7c-.34.81-3.11,1.3-2.56,1.67C46.38,57.83,49.24,56.15,48.12,55.7Z"/><path class="cls-9" d="M50.81,43c-2.39-9.57,3-6.62,3.26-13.44-.92-.5-.76,3-1.72,3.61C48.66,35.43,49.43,40.41,50.81,43Z"/><path class="cls-9" d="M54.42,33.74c.78-.13,1.46-2.58.47-2.1a2.44,2.44,0,0,1-.62,1.87A.14.14,0,0,0,54.42,33.74Z"/><path class="cls-9" d="M40.54,10.83c-1.43-.19,2.49,7.4,3.15,5.63A13.56,13.56,0,0,1,40.54,10.83Z"/><path class="cls-9" d="M42.37,12.18c-.82-.08.72,2,1.11,2.21C44.21,14.17,42.51,12.78,42.37,12.18Z"/><path class="cls-9" d="M24.29,60.23c1.66-2-6.48-11.22,1.29-10.34,4.8-1.41,2.44-4.46,6.47,1.34.44.4,2.66,1.84,2.49.8a6.82,6.82,0,0,1-2.93-2.54c-2.47-5.62-3.85.52-7.32-.39C18.05,50.18,24,56.82,24.29,60.23Z"/><path class="cls-9" d="M38.89,53.26c.17-.61-.73,0-1-.17C35.39,51.74,38,54.59,38.89,53.26Z"/><path class="cls-9" d="M15.17,69.59c.32,0,.3-.43,0-.52-3-.75-4.63-3.34-6.21-5.78C8.64,65.25,12.43,69.79,15.17,69.59Z"/><path class="cls-9" d="M12.14,70.49c.52-.65-2.24-1.92-2.54-2.95C8.59,67.77,11.24,70.53,12.14,70.49Z"/><path class="cls-9" d="M68.93,27.45c1.65.21,4.85-4.15,3.55-4.7-1,3.71-5.52,5.85-8.17,2.43-.09-.15-.36,0-.29.14C64.84,27.14,67.07,27.77,68.93,27.45Z"/><path class="cls-9" d="M85,22.56c1.41-1.41,1-3.83,0-5.3a.18.18,0,0,0-.31.2C86.11,18.88,84,22.83,85,22.56Z"/><path class="cls-9" d="M86.58,21.49c.8-.48.79-3.14,0-2.91a3.85,3.85,0,0,1-.21,2.75A.15.15,0,0,0,86.58,21.49Z"/><path class="cls-9" d="M79.19,25.9c.72-.41-1.93-1-2.15-1.72C76.42,24.7,78.49,26,79.19,25.9Z"/><path class="cls-9" d="M89.38,30.21c1,3,3.93,3.37,5.93,1.09,1.85-1.18,5.64-.57,5.55,2.13a.26.26,0,0,0,.5.11c.83-3.7-5.18-4.35-7.11-2.13-1.51,1.87-4,.78-4.6-1.29C89.58,30,89.31,30,89.38,30.21Z"/><path class="cls-9" d="M99.82,35.61c-.43.3-1,.74-1.53.31-.15-.12-.39.06-.27.23C98.45,37.19,100.93,36.28,99.82,35.61Z"/><path class="cls-9" d="M86.89,49.39c2.42,2.12.08,5.36,3.76,5.7,2.72,1.36,0,6.12,2.42,8.58.2.33.7,0,.5-.33-2.43-3.19,1-8.78-4.36-9.34-.64-1.24,0-3-1.26-4.09-4.41-5.63,4.46-7.29,5.87-11.58C92,41.5,83.83,44,86.89,49.39Z"/><path class="cls-9" d="M94.63,65.39c-.17.81,2.26,3.42,2.2,2.09C96,67.38,94.89,64.84,94.63,65.39Z"/><path class="cls-9" d="M102.86,68.94c4.44-1.16,2.71,6.62,7.36,5.8,1.3-.76-2.58-.87-2.74-2.11-.66-2.22-1.79-5.12-4.7-4A.14.14,0,0,0,102.86,68.94Z"/><path class="cls-9" d="M85.08,44.28c-1.49.79-1.76,5.21-.13,5C84,47.27,85.16,45.58,85.08,44.28Z"/><path class="cls-9" d="M83,48.06c-.72-.93.44-2.09.13-2.59C81.63,45.65,82.39,49.2,83,48.06Z"/><path class="cls-9" d="M84,94.6c-1.34.74-1.46,2.29-1.47,3.67.49,8.24-10.67,1.1-14.32,6.57,7-4.21,13.37,1.35,14.94-4.63.3-1.81-.23-3.81,1.11-5.31A.2.2,0,0,0,84,94.6Z"/><path class="cls-9" d="M85.92,93.49c.26-.82,2.84-1.28,2.3-1.73C87.47,91.47,85.05,93.11,85.92,93.49Z"/><path class="cls-9" d="M94.32,90.05c2.13-1,4.23.48,6.32.61,1.62-1.26,3.86-.9,5.34-2.37.6-.5,2.61-3.72,1.46-3.61-1.29,3.89-4.14,4.08-7.47,5.27C98.48,89.48,94.83,88.53,94.32,90.05Z"/><path class="cls-9" d="M72,84.9c.15,2.27,1.73,5.06.16,7.18a.22.22,0,0,0,.32.29c2.08-2.08.47-4.88.26-7.34.46-2.81,1.38-5.44-.94-7.77-1.77-2.4-1.08-5.92-3.45-7.91-2.4-.72-2.64-5.14-5.5-4.09-.19.1,0,.42.16.34,1.72-.66,2.27,2,3.08,2.93s1.92,1.21,2.58,2.19c1.26,2.2,1,5,2.62,7.06C73.47,79.93,72.35,82.34,72,84.9Z"/><path class="cls-9" d="M73.64,76.63a.2.2,0,0,0-.31.26,9.37,9.37,0,0,1,1.43,5.61C76.53,82.19,75,77.57,73.64,76.63Z"/><path class="cls-9" d="M76.63,80.76c.67-.64-.44-3.81-1-2.85C76.45,78.41,76,81,76.63,80.76Z"/><path class="cls-9" d="M51.92,63.87a7.59,7.59,0,0,1,4.44.55C57.62,63.18,51.66,62.67,51.92,63.87Z"/><path class="cls-9" d="M53.15,62.39c.42-.29,2.24.19,1.9-.4C54.63,61.74,52.55,61.83,53.15,62.39Z"/><path class="cls-9" d="M17.81,77.67c.87,6.46,5.65,6.36,8.41,10.09.3,2.14.73,8,3,8a13.37,13.37,0,0,1-2.1-6.17C26.87,83.17,21.33,86.77,17.81,77.67Z"/><path class="cls-9" d="M25.45,91.36c-1.14.67.39,3.68,1.48,4.47.13.11.34,0,.23-.2A10.39,10.39,0,0,1,25.45,91.36Z"/><path class="cls-9" d="M40.35,107.35c-.13-1.86-1.63-5.82-3.53-4.94,3.66,1.09,1.84,6.13,5,7.83C42.71,110,40.31,108.17,40.35,107.35Z"/><path class="cls-9" d="M38.71,107.49c-1.3-.59.69,3.52,1.09,2.11A2.76,2.76,0,0,1,38.71,107.49Z"/><path class="cls-9" d="M18,81.32c-.76.21,1,2.29,1.58,2.65C20.13,83.65,18.13,82.12,18,81.32Z"/><path class="cls-9" d="M17.92,83.63c-.4-1-.84-.55-.38.25S19,84.32,17.92,83.63Z"/><path class="cls-9" d="M39.28,60.27c5-1.92,6.7,2.36,10.46,3.32.89-.45-2.31-1.41-2.6-2.2C45.72,59.68,39.79,58.44,39.28,60.27Z"/><path class="cls-9" d="M68.17,67.18c-.8.43,1.72,1.25,1.92,1.94C73.41,74.47,71.29,67,68.17,67.18Z"/><path class="cls-9" d="M70.16,66.45c-.5.31,2,1.61,2.25,2.41C73.37,68.33,71,66.48,70.16,66.45Z"/><path class="cls-9" d="M71.63,65.83c-.61.13,1,1,1.06,1.42C73.45,67.22,72.08,65.91,71.63,65.83Z"/><path class="cls-9" d="M71.18,27.92A4.28,4.28,0,0,1,66.83,29c.2,1.45,4.1.73,4.69-.83C71.65,27.94,71.35,27.77,71.18,27.92Z"/><path class="cls-9" d="M71.15,29.89a1.85,1.85,0,0,1-2,.67c-.24-.09-.42.25-.18.36A1.79,1.79,0,0,0,71.43,30C71.48,29.87,71.25,29.78,71.15,29.89Z"/><path class="cls-9" d="M78.14,101.13c1.16.93,3.5-.28,3.25-1.8,0-.15-.22-.22-.3-.07a2.56,2.56,0,0,1-2.83,1.63C78.14,100.87,78,101,78.14,101.13Z"/><path class="cls-9" d="M80,99c-.16-.5-.91.68-1.33.69C78.43,100.46,79.92,99.46,80,99Z"/><path class="cls-9" d="M3.36,55c.05-6.48,4-13.93,5.37-18.91C5.5,41,1.66,50.15,3.36,55Z"/><path class="cls-9" d="M7.67,45c-1.21-.63-3.33,8-2,8.17C6.36,50.45,6.93,47.66,7.67,45Z"/><path class="cls-9" d="M8.09,48.25c-.33.43-1.81,4-.36,2.9C7.83,50.52,9.26,48,8.09,48.25Z"/><path class="cls-9" d="M9.62,49.6c-.16.23-.76,1.32-.19,1.2C9.65,50.58,10.32,49.4,9.62,49.6Z"/><path class="cls-9" d="M14.52,24.52c1.52-4.22,6.77-4,10-6.23,3.16-2.56,6.05-5.65,10.36-6a.23.23,0,0,0,0-.44c-4.59-.83-7.73,3.77-11.07,6C21.4,19.36,12.73,21,14.52,24.52Z"/><path class="cls-9" d="M34.14,13.94c-1.55-.37-7.12,2.79-5.75,4a11.67,11.67,0,0,1,5.82-3.59A.2.2,0,0,0,34.14,13.94Z"/><path class="cls-9" d="M33.39,16.39c-1.79-.94-4.47,3.1-1.52.84C32.17,16.86,33.84,16.92,33.39,16.39Z"/><path class="cls-9" d="M33.58,17.87c-.28.1-1.72.67-1.09.9C32.78,18.64,34.31,18.16,33.58,17.87Z"/><path class="cls-9" d="M18.11,22.61c-.8.1-2.88,2.1-2,2.47C16.32,24.34,18.89,23.06,18.11,22.61Z"/><path class="cls-9" d="M18.79,24.39c-.72-.45-2,1.61-.92,1.17C17.85,24.94,19.35,24.89,18.79,24.39Z"/><path class="cls-9" d="M115.11,65.86c3.87-3.94,2.62-14.39-.51-19.49C115.88,51.85,117.62,59.52,115.11,65.86Z"/><path class="cls-9" d="M114.56,53.9c.71-.86-.69-6.66-1.69-5.46C113.75,49.46,113.53,54.31,114.56,53.9Z"/><path class="cls-9" d="M112.5,53.29c.56-.45,0-3.92-.64-2.89C112.32,51.1,111.52,53.5,112.5,53.29Z"/><path class="cls-9" d="M101.78,96.18c-.85,3.3-3.58,4.83-6.11,6.76a37.92,37.92,0,0,1-7.26,6.31c4-.13,5.43-4.08,8.42-6,2.32-1.65,5.71-3.7,5.45-7A.25.25,0,0,0,101.78,96.18Z"/><path class="cls-9" d="M97.58,100.21c1,0,3.65-2.73,2.15-3.07C99.69,98.13,96.38,100.25,97.58,100.21Z"/><path class="cls-9" d="M97.4,98.62c.55-.09,1.95-1.54,1.14-1.7C98.37,97.44,96.86,98.32,97.4,98.62Z"/><path class="cls-9" d="M62,3.74c6.65-.29,12.71,2.81,17.25,5.62C79.33,5.68,62.91,1.33,62,3.74Z"/><path class="cls-9" d="M72.91,7c-.4.66,1.7.87,2.13,1.45C79.35,12.28,75.45,6,72.91,7Z"/><path class="cls-9" d="M73.27,8.51c-1,.05,2,1.79,2.28,2.17C76.59,9.9,74.1,8.57,73.27,8.51Z"/><path class="cls-9" d="M73.31,10.13c-.62.25.76.74.93,1.07C75,11.13,73.73,10.08,73.31,10.13Z"/></g></g></g></svg>