<svg xmlns="http://www.w3.org/2000/svg" viewBox="0 0 99.24 97.27"><defs></defs><title>mars</title><g class="cls-1"><g id="Layer_2" data-name="Layer 2"><g id="OBJECTS"><path class="cls-2" d="M48.94,9.7A15.22,15.22,0,0,0,54.87,14h0A.07.07,0,0,0,55,14a.09.09,0,0,0,0-.11,15.35,15.35,0,0,1-3.4-3.38,14.7,14.7,0,0,1-2.32-4.82c-.09-.34-.16-.69-.22-1l-.09-.45A3.35,3.35,0,0,0,48,2.48a12.33,12.33,0,0,0-1.34-1.2L46.34,1,46.24,1a.08.08,0,0,0-.08,0,.08.08,0,0,0,0,.07c0,.11,0,.23,0,.34,0,.46,0,.94,0,1.41a11.82,11.82,0,0,0,.48,2.52A12.91,12.91,0,0,0,48.94,9.7Z"/><path class="cls-2" d="M93.38,51.4a6.34,6.34,0,0,1,2-.8,7.08,7.08,0,0,1,.79-.09A7.86,7.86,0,0,0,97,50.4c.8-.18.92-.76,1.06-1.43v0a11,11,0,0,0,.19-1.46.09.09,0,0,0-.08-.09h-.29a7.13,7.13,0,0,0-4,2.75,5.66,5.66,0,0,0-.59,1.18.1.1,0,0,0,0,.09l.07,0Z"/><path class="cls-3" d="M92.94,52.66a.08.08,0,0,0,0,.05,5.21,5.21,0,0,0,.53,3,5.08,5.08,0,0,0,2,2,4.65,4.65,0,0,0,1.21.43h0a.09.09,0,0,0,.07-.06,20,20,0,0,0,.67-3.64,13.92,13.92,0,0,0,0-2.13,5.66,5.66,0,0,0-.14-.84c0-.1,0-.19,0-.29a.08.08,0,0,0-.1-.06h0c-.28,0-.58.05-.87.07a6.79,6.79,0,0,0-1.21.13,4,4,0,0,0-1.56.76,4.78,4.78,0,0,0-.45.45Z"/><path class="cls-2" d="M25.66,80.34a10,10,0,0,0-3.92.87l-.3.14c-.26.18-.53.34-.79.5l-.15.08-.3.22-.6.42-.12.11-.34.3a.07.07,0,0,0,0,.09.07.07,0,0,0,.07.05h.1a9.78,9.78,0,0,0,1.95,0l.31-.06A4.35,4.35,0,0,0,23.37,82c.24-.2.49-.41.74-.59a9.77,9.77,0,0,1,1.59-.89.08.08,0,0,0,0-.09A.08.08,0,0,0,25.66,80.34Z"/><path class="cls-3" d="M23.64,82.61l-.48.39a4,4,0,0,1-.76.44.12.12,0,0,0,0,.07.09.09,0,0,0,0,.07c.53.45,1,.92,1.54,1.38a24.91,24.91,0,0,0,4,3.16,20.82,20.82,0,0,0,3.44,1.61c.56.19,1.14.33,1.7.47s.82.19,1.22.31h.06a.07.07,0,0,0,0,0,8.67,8.67,0,0,0-6.09-9.79l-.14,0-.06,0h0a8.49,8.49,0,0,0-2.24.57A9.76,9.76,0,0,0,23.64,82.61Z"/><path class="cls-3" d="M6,62.93a25.31,25.31,0,0,0,.88,2.73A18.84,18.84,0,0,0,9.5,70.12a.09.09,0,0,0,.06,0,.08.08,0,0,1,.07,0,2.5,2.5,0,0,1,.18.26.09.09,0,0,0,.06,0h0a.05.05,0,0,0,0,0,6.93,6.93,0,0,0,3.24-6.32,6.5,6.5,0,0,0-.12-.77,0,0,0,0,0,0,0,4.71,4.71,0,0,0-1.85-1.45,6.78,6.78,0,0,0-4,0L6.72,62a3.31,3.31,0,0,1-.93,0,.09.09,0,0,0-.08,0,.08.08,0,0,0,0,.08A4,4,0,0,1,6,62.93Z"/><path class="cls-2" d="M7,61.23l.39-.1a10.58,10.58,0,0,1,2-.23,5.29,5.29,0,0,1,2.88.82.07.07,0,0,0,.06,0,0,0,0,0,0,0,0,.08.08,0,0,0,0-.1,6.92,6.92,0,0,0-4-3.4A7.66,7.66,0,0,0,4.62,58a3.32,3.32,0,0,0-.49.14l-.42.12a.1.1,0,0,0,0,0,.09.09,0,0,0,0,.07c.07.2.15.4.23.61A3.82,3.82,0,0,0,5.4,61.26,2.43,2.43,0,0,0,7,61.23Z"/><path class="cls-3" d="M49.8,4.87a11,11,0,0,0,.46,1.75,13.57,13.57,0,0,0,1.22,2.51,14.76,14.76,0,0,0,3.87,4.16,16.42,16.42,0,0,0,3.06,1.63l.75.34h0a8.63,8.63,0,0,0,1.2.08l.43,0a2.45,2.45,0,0,0,1.71-1.14,2.84,2.84,0,0,1,1.25-1,22.51,22.51,0,0,1,2.54-.77c.71-.19,1.44-.38,2.14-.63a4.74,4.74,0,0,0,3.12-3.13c0-.05,0-.11,0-.16v0a.09.09,0,0,0-.06-.11,8.43,8.43,0,0,1-1.67-.84c-.33-.19-.66-.39-1-.55-.87-.43-1.77-.83-2.68-1.2A37.74,37.74,0,0,0,60.61,4a38.22,38.22,0,0,0-5.81-.85c-1-.07-2-.1-3-.09l-1,0c-.45,0-.91.05-1.36,0a.08.08,0,0,0-.07,0,.08.08,0,0,0,0,.08l.08.21C49.6,4,49.7,4.42,49.8,4.87Z"/><path class="cls-4" d="M2.25,53.09c.12.8.23,1.61.41,2.4A7.48,7.48,0,0,0,3,56.74c.17.46.18.72.68.63A10.75,10.75,0,0,1,7,57.08a8.55,8.55,0,0,1,3.24,1.07,7.57,7.57,0,0,1,3.69,5.61,4.06,4.06,0,0,1,.09.7.16.16,0,0,1,0,.09,7.51,7.51,0,0,1-2.51,5.74,11.17,11.17,0,0,1-1.72,1.26A5.31,5.31,0,0,0,9,72c-.32.29-.09.64.05,1l.06.15c.13.24.25.48.39.72.32.56.67,1.11,1,1.65a36.62,36.62,0,0,0,2.37,3,14.59,14.59,0,0,0,2.64,2.74A13.12,13.12,0,0,0,18,82.43l.17,0h.21a1.47,1.47,0,0,0,.42-.2l.13-.12.44-.34a10,10,0,0,1,1.13-.8,10.29,10.29,0,0,1,3.16-1.21A9.46,9.46,0,0,1,35.3,89.38,8.78,8.78,0,0,1,35.08,91c-.11.41-.51,1.09-.13,1.41a1.9,1.9,0,0,0,.33.22c1.42.46,2.78,1.12,4.19,1.62a44.15,44.15,0,0,0,4.85,1.39,20.51,20.51,0,0,0,5.1.77c1.53-.06,2.67-1.23,4.22-1.25,2.15,0,4.49,1.74,6.6.85A11.5,11.5,0,0,0,62,94.77,6.15,6.15,0,0,1,63.74,94a16.39,16.39,0,0,1,4-.51c2.85-.16,5.86-.63,8.17-2.44a29.59,29.59,0,0,0,2.84-2.87,9.29,9.29,0,0,1,2.91-2.06,3.84,3.84,0,0,0,1.76-1.34,15.7,15.7,0,0,1,1.13-1.58,26.77,26.77,0,0,1,2.86-2.45c2.06-1.72,3-4.15,4.15-6.51A19.67,19.67,0,0,1,93.35,71c.78-1.1,1.8-2,2.62-3,1.85-2.4,1.86-5.49,1.89-8.39a.81.81,0,0,0-.44-.41c-.37-.16-.88-.15-1.27-.27A5,5,0,0,1,95,58.4a5.83,5.83,0,0,1-2.83-4.24,7.12,7.12,0,0,1,5.58-7.61h0a.91.91,0,0,0,.45-.58c-.12-1.86-.18-3.71-.47-5.56-.31-2-.59-4.31-1.85-6-.89-1.19-1.68-2.18-1.57-3.75a16.57,16.57,0,0,0,.31-2.62,7,7,0,0,0-1.08-2.65,26.84,26.84,0,0,0-3-4.59,17.48,17.48,0,0,0-3.53-3c-2.34-1.61-4.92-3-6.72-5.26-1-1.25-1.51-3-2.82-3.94a12.06,12.06,0,0,0-4-1.62s-.76-.27-.76-.29,0,.42,0,.49a8.28,8.28,0,0,1-.21,1.21,5.64,5.64,0,0,1-2.28,3.46,17.24,17.24,0,0,1-4.71,1.65,3.91,3.91,0,0,0-2.39,1.25,2.93,2.93,0,0,1-1.32,1.14,6.81,6.81,0,0,1-4-.12,19.4,19.4,0,0,1-4.18-1.47,15.23,15.23,0,0,1-6.45-5.76,13.41,13.41,0,0,1-1.61-4A9.67,9.67,0,0,1,45.37.93c-.84.16-1.75.16-2.58.29a17.24,17.24,0,0,0-2.94.7A14.32,14.32,0,0,0,35.19,4.8a9.41,9.41,0,0,1-4.32,2.3c-1.26.23-2.51.29-3.73.55h0c-3.71,2.32-8.21,2.73-12,4.85a11.33,11.33,0,0,0-2.49,1.79A13.4,13.4,0,0,0,10.81,17a43.46,43.46,0,0,0-3.06,6.1,34.07,34.07,0,0,0-1.37,6.24,10.39,10.39,0,0,1-.84,2.78c-.41.82-1,1.49-1.52,2.27-1.07,1.79-.55,4-.73,6S2,43.76,1.23,45.55a6.07,6.07,0,0,0,.06,4.14A9.88,9.88,0,0,1,2.25,53.09ZM84,77.58a6,6,0,0,1-3.34,4.89,17.38,17.38,0,0,0-3,1.92c-.9.8-1.6,1.81-2.57,2.53A5.13,5.13,0,0,1,69,86.84,6.22,6.22,0,0,1,67,84.33c-.51-1.25-.6-2.54-1.69-3.46A3.36,3.36,0,0,1,64,78.2a12.41,12.41,0,0,1,.62-3.47,16.7,16.7,0,0,1,1.44-4,4.74,4.74,0,0,1,.53-.82,6.49,6.49,0,0,1,3.21-2.09c2.51-.84,5.37-1.73,8-1a8.17,8.17,0,0,1,4.7,4.31A12.51,12.51,0,0,1,84,77.58ZM55.58,36.89A18.28,18.28,0,0,1,58,27.08,15.66,15.66,0,0,1,61.41,23l.08-.09a8.1,8.1,0,0,1,1.95-1.65c2.26-1.5,5.65-1.26,8.22-1.07,2,.15,4.16,0,6,.94a13.14,13.14,0,0,1,4.06,3.62,20.12,20.12,0,0,1,4,8.89c.59,3.24.54,6.73-1.35,9.53-1.07,1.6-2.23,3.14-3.37,4.68a6.11,6.11,0,0,1-3.5,2.76c-1.83.36-3.71-.49-5.54-.58a9.51,9.51,0,0,0-3.39.52,4.69,4.69,0,0,1-2.28.33c-1.35-.24-2.18-1.43-2.92-2.47A19.76,19.76,0,0,0,60,44.9a14.89,14.89,0,0,1-3.09-3.2A9.27,9.27,0,0,1,55.58,36.89Zm-3.12,49a5.43,5.43,0,0,1-2,4c-1,1-2.47,2.4-4,2.16a8.19,8.19,0,0,1-2.3-1c-.75-.38-1.56-.64-2.29-1.06a5.5,5.5,0,0,1-2.54-3.55,6,6,0,0,1,3.55-6.76c1.71-1.08,3.49-2,5.59-1.8a3.53,3.53,0,0,1,3.1,2.71c.25.89.31,1.81.48,2.71A14.87,14.87,0,0,1,52.46,85.92ZM39.89,13.78a3.19,3.19,0,0,1,.51-.91,3.47,3.47,0,0,1,1.51-1.13,5.72,5.72,0,0,1,3.29-.53c.94.29,1.1,1.21,1.46,2A12,12,0,0,1,48,16.15c.36,2.13-1.61,3.53-3.56,3.56a4.79,4.79,0,0,1-4.33-2.89A4.11,4.11,0,0,1,39.89,13.78ZM38.48,30.34a5.19,5.19,0,0,1,4.39-3.43,4.13,4.13,0,0,1,4.47,3.52c.28,2-1.17,4.87-3.5,4.75a5.16,5.16,0,0,0-2.28,0,2.24,2.24,0,0,1-1.37.17C38.22,34.88,37.92,31.92,38.48,30.34Zm-20.92-8.6a4.64,4.64,0,0,1,2-2.89,8.25,8.25,0,0,1,1.15-.64l.09,0a5,5,0,0,1,1.22-.35,8.33,8.33,0,0,0,1.69-.69A13.74,13.74,0,0,1,26,15.87a2.66,2.66,0,0,1,3.29.91c1.28,2,.28,5-1,6.78a7.11,7.11,0,0,1-6.54,2.86C19.33,26.13,17,24.41,17.56,21.74Zm1.06,29.92a8.45,8.45,0,0,1,1.86-5.74c1.42-1.5,3.41-2.22,5.19-3.18a26.72,26.72,0,0,0,3.27-2.1,14.72,14.72,0,0,1,2.66-1.85,8.24,8.24,0,0,1,3.31-.42l3.34,0c2,0,4.2-.29,6.07.59a11.11,11.11,0,0,1,3.84,3.41,46.58,46.58,0,0,1,3.46,5,14.69,14.69,0,0,1,2.06,5.94,17.82,17.82,0,0,1-.59,6.21c-1,3.71-2.69,7.73-5.82,10.14a9,9,0,0,1-5.32,2c-2,0-3.86-.72-5.82-1s-3.9.69-5.82.28a6,6,0,0,1-2.51-1.49l-2.53-2.13c-1.61-1.36-3.55-2.66-4.65-4.5a13.31,13.31,0,0,1-1.51-4.57A23,23,0,0,1,18.62,51.66Z"/><path class="cls-2" d="M20.25,25.22s0,0,0,0l.06,0a.09.09,0,0,0,0-.1,3.68,3.68,0,0,1-.65-1.4,2.6,2.6,0,0,1,1.35-3.06,6.76,6.76,0,0,1,1.57-.53l.78-.22a5.31,5.31,0,0,0,2.35-1.7A3.76,3.76,0,0,1,28,16.81a.08.08,0,0,0,.07-.07.07.07,0,0,0,0-.08c-1-.51-2.36.23-3.31.83A8,8,0,0,1,22,18.61l-.06,0-.56.2a6.06,6.06,0,0,0-1.78,1,3.39,3.39,0,0,0-1.07,3.78A3.23,3.23,0,0,0,20.25,25.22Z"/><path class="cls-3" d="M25.94,18.8l-.39.41a5.08,5.08,0,0,1-2.47,1.34l-.1,0c-1.31.35-2.95.78-2.81,2.54a3.43,3.43,0,0,0,1.52,2.49.05.05,0,0,0,0,0l.48.05a6.41,6.41,0,0,0,1.24-.05,6.3,6.3,0,0,0,2.72-1.09c2-1.45,3.57-4.59,2.63-6.93,0,0,0,0,0-.05l0,0s0,0-.05,0C27.52,17.09,26.68,18,25.94,18.8Z"/><path class="cls-2" d="M40.78,34.68a3.2,3.2,0,0,0,.42-.1.09.09,0,0,0,.06-.07s0-.07,0-.08a2.35,2.35,0,0,1-1.17-1.88,3.54,3.54,0,0,1,1.07-2.92,5.15,5.15,0,0,1,4.74-.39.1.1,0,0,0,.1,0,.09.09,0,0,0,0-.1,3.31,3.31,0,0,0-3-1.42,4.68,4.68,0,0,0-3.76,2.63,4.38,4.38,0,0,0-.26.85,3.72,3.72,0,0,0,.64,3A1.18,1.18,0,0,0,40.78,34.68Z"/><path class="cls-3" d="M45.82,30a3.31,3.31,0,0,0-1.58-.49,3.17,3.17,0,0,0-3,.93,2.76,2.76,0,0,0-.42,2.73,2.82,2.82,0,0,0,.84.94l.08.07.1.08a.44.44,0,0,1,.1.08.1.1,0,0,0,.08,0,3.14,3.14,0,0,1,1,0l.12,0a4.36,4.36,0,0,0,1.13,0,1.94,1.94,0,0,0,.82-.33,3.69,3.69,0,0,0,1.49-3.43l0,0a2.18,2.18,0,0,1-.22-.21A4.13,4.13,0,0,0,45.82,30Z"/><path class="cls-2" d="M41.14,17.08h0a.09.09,0,0,0,0-.09,3.3,3.3,0,0,1,1-3.26,5,5,0,0,1,3.48-.5.09.09,0,0,0,.09,0,.08.08,0,0,0,0-.08l0,0c-.06-.12-.11-.24-.16-.37-.47-1.1-1.72-.75-2.64-.49l-.15,0A3.24,3.24,0,0,0,40.56,14a2.37,2.37,0,0,0-.14.57A3.94,3.94,0,0,0,41.06,17,.09.09,0,0,0,41.14,17.08Z"/><path class="cls-3" d="M42.52,14.37c-1.15,1.06-.72,2.32-.3,3.54l.12.38a.08.08,0,0,0,0,0,3.93,3.93,0,0,0,2.56.56,3,3,0,0,0,1.62-.75c.8-.69.87-1.71.23-3l-.24-.49-.08-.17,0,0C45.28,13.71,43.52,13.44,42.52,14.37Z"/><path class="cls-2" d="M67.63,80.16a4.86,4.86,0,0,1-1.06-2.82,10,10,0,0,1,1.05-3.57l.14-.33.12-.29a4.14,4.14,0,0,1,1.77-2.4,23.13,23.13,0,0,1,2.83-1.12l1.24-.43.42-.17a13.29,13.29,0,0,1,3.76-1A.11.11,0,0,0,78,68a.09.09,0,0,0,0-.09,5.82,5.82,0,0,0-1.73-.41,16.26,16.26,0,0,0-6.5,1.29,5.36,5.36,0,0,0-2.72,2A15.92,15.92,0,0,0,66,72.23a21.91,21.91,0,0,0-.93,3.17c0,.15-.07.3-.11.45a5.65,5.65,0,0,0-.15,3.3,2.75,2.75,0,0,0,1,1.1,6.14,6.14,0,0,1,.47.42,3.35,3.35,0,0,1,.69,1A9.36,9.36,0,0,1,67.45,83a7.69,7.69,0,0,0,.6,1.57,3,3,0,0,0,.27.43.09.09,0,0,0,.08,0h0a.07.07,0,0,0,0-.09,3,3,0,0,1-.06-.4,11.3,11.3,0,0,1,0-1.29,5.17,5.17,0,0,0-.64-3Z"/><path class="cls-3" d="M79.86,69.11a6.65,6.65,0,0,0-2.74-.26,14.28,14.28,0,0,0-2.81.86l-.62.23-1.2.42c-.79.27-1.6.54-2.37.89a3.9,3.9,0,0,0-1.77,2.42l-.18.45-.13.31a7.17,7.17,0,0,0-.83,3.33A4.24,4.24,0,0,0,68,79.67a9.05,9.05,0,0,1,.57,1A6.36,6.36,0,0,1,69,83.27a5.43,5.43,0,0,0,.57,3l0,0a3.93,3.93,0,0,0,.76.44,4.27,4.27,0,0,0,2.43.36,3.64,3.64,0,0,0,1.08-.32A7,7,0,0,0,76,84.94l.21-.22a10.82,10.82,0,0,1,2.16-1.86c.36-.23.74-.45,1.11-.65s.82-.46,1.22-.72a5.16,5.16,0,0,0,2.5-5.12,11.69,11.69,0,0,0-3.28-7.24Z"/><path class="cls-2" d="M41.53,85.71c-.19-1.8.42-2.93,1.87-3.46l.38-.14a15.39,15.39,0,0,0,2.37-1l.06,0A7.41,7.41,0,0,1,48.82,80a3.1,3.1,0,0,1,1.75.29.07.07,0,0,0,.09,0,.08.08,0,0,0,0-.09,3.13,3.13,0,0,0-3.49-1.55,9.56,9.56,0,0,0-4.11,1.81l-.41.25c-.11.08-.23.15-.35.22-.31.19-.64.4-1,.63a5.57,5.57,0,0,0-.94,1.33,5.12,5.12,0,0,0-.08,4.39,4.83,4.83,0,0,0,2.37,2.35h0l.05,0a.07.07,0,0,0,0-.1A8.44,8.44,0,0,1,41.53,85.71Z"/><path class="cls-3" d="M51.46,83.67c-.09-.65-.19-1.33-.33-2v0c-.77-1.4-2.55-1.15-3.83-.5-.29.14-.57.31-.84.46s-.65.38-1,.54a10,10,0,0,1-1.15.43l-.55.18a2.18,2.18,0,0,0-1.55,1.33,4.47,4.47,0,0,0,0,2.09A8,8,0,0,0,43,88.41a6.16,6.16,0,0,0,.4.71,5.81,5.81,0,0,1,.53,1,.08.08,0,0,0,0,0l.49.27a4.6,4.6,0,0,0,2.66.9l.11,0a4.34,4.34,0,0,0,1.73-1c.1-.08.2-.17.3-.24a11.9,11.9,0,0,0,1.35-1.26h0a4.56,4.56,0,0,0,1.06-4C51.57,84.42,51.51,84,51.46,83.67Z"/><path class="cls-2" d="M60.69,44.55c.46.39.94.8,1.39,1.21l.47.46a.06.06,0,0,0,.07,0h0a.08.08,0,0,0,0-.11,21.71,21.71,0,0,0-2.1-3.26,9.43,9.43,0,0,1-1.91-4.65,17.59,17.59,0,0,1,1.55-8.91c.91-2.12,2.66-4.85,5.79-5.82A14.84,14.84,0,0,1,70.76,23c1.64,0,3.4.12,5.21.23a10.93,10.93,0,0,1,4,1,.08.08,0,0,0,.1,0,.08.08,0,0,0,0-.11L80,24a8.18,8.18,0,0,0-4-2.63A20.07,20.07,0,0,0,72.41,21c-.48,0-1,0-1.48-.08a13.86,13.86,0,0,0-6.51.73A16.94,16.94,0,0,0,58,28.51a16.76,16.76,0,0,0-1.43,10.66C57.12,41.56,58.93,43.08,60.69,44.55Z"/><path class="cls-3" d="M74.54,23.83l-.73,0-1.23-.07c-2.6-.15-5.54-.33-7.9,1-2,1.16-3.54,3.36-4.59,6.73-1.12,3.59-1.19,6.62-.22,9a11.53,11.53,0,0,0,1.51,2.45c.33.44.66.9.95,1.37a10.19,10.19,0,0,1,1.33,3.23s0,0,0,0l.43.54.43.56A3.5,3.5,0,0,0,66.23,50a3.74,3.74,0,0,0,2.21-.29,5.52,5.52,0,0,1,.53-.18,10.19,10.19,0,0,1,4.65-.18c.29,0,.59.1.88.16a7.85,7.85,0,0,0,2.67.23,3.19,3.19,0,0,0,1.56-.66,12.46,12.46,0,0,0,2.42-2.87c.21-.32.41-.61.62-.9l.7-.94A15.05,15.05,0,0,0,84.61,41c1.28-3.2.44-7.17-.18-9.25A19.6,19.6,0,0,0,82.27,27h0a10,10,0,0,0-3.39-2.49A13,13,0,0,0,74.54,23.83Z"/><path class="cls-2" d="M20.89,62a8.85,8.85,0,0,0,2.2,2.64c.76.65,1.57,1.34,2.47,2.09l.06,0,.05,0a.09.09,0,0,0,0-.11c-.44-.64-.83-1.31-1.08-1.75a19.24,19.24,0,0,1-2-5.37,19.59,19.59,0,0,1-.39-5.07,11.65,11.65,0,0,1,1.08-4.76A5.1,5.1,0,0,1,26,47.57a12.8,12.8,0,0,0,1.47-.76,11.6,11.6,0,0,0,2.45-2.07l.47-.58a6.49,6.49,0,0,1,1.05-1.11,6.2,6.2,0,0,1,4-.82h.85A15.94,15.94,0,0,0,39,41.93a14.83,14.83,0,0,1,3.13-.3,11.57,11.57,0,0,1,5.69,1.88.08.08,0,0,0,.11,0,.07.07,0,0,0,0-.1,16.64,16.64,0,0,0-2-2.31,6.75,6.75,0,0,0-4.84-1.94c-1.37,0-2.76,0-4.1,0l-1.91,0h-.44a6.15,6.15,0,0,0-3,.48,10.2,10.2,0,0,0-1.58,1.11c-.21.17-.42.34-.64.5a31.65,31.65,0,0,1-4.91,3l-.07,0a9.52,9.52,0,0,0-4,2.91,9.07,9.07,0,0,0-1.1,4.58l0,.53-.06.82a25.72,25.72,0,0,0,.52,5.52A13.86,13.86,0,0,0,20.89,62Z"/><path class="cls-3" d="M40.42,42.37c-.5.05-1,.15-1.48.24s-.89.18-1.35.24a15.16,15.16,0,0,1-2.13.06H35.2a6.51,6.51,0,0,0-2.74.33,4,4,0,0,0-1.53,1.34l-.28.35a12.4,12.4,0,0,1-3.56,2.88,9,9,0,0,1-.94.43,5.73,5.73,0,0,0-1.63.89,4.41,4.41,0,0,0-1.13,2.12,17.8,17.8,0,0,0,.23,9.45,19.35,19.35,0,0,0,1.92,4.43,18.59,18.59,0,0,0,1.54,2.15c.43.55.87,1.12,1.26,1.7,0,0,0,0,0,0s0,0,0,0l0,0,.06,0a4.26,4.26,0,0,0,2.71,1.24A9.74,9.74,0,0,0,33,70.13l.8-.14a14.49,14.49,0,0,1,5.09.46,11.32,11.32,0,0,0,4,.28,6.72,6.72,0,0,0,1.48-.38,10.33,10.33,0,0,0,4.48-3.54,21.94,21.94,0,0,0,3.94-10.58,13.28,13.28,0,0,0-.74-6,20.32,20.32,0,0,0-2.07-3.86s0,0,0,0a.38.38,0,0,1-.11-.08A11.16,11.16,0,0,0,40.42,42.37Z"/><path class="cls-5" d="M30.92,90.41a18.55,18.55,0,0,0,1.79.56c.43.11.91.17,1.35.3-.21.68-.37,1.36.34,1.84a7.54,7.54,0,0,0,2.29,1c.57.25,1.16.48,1.75.7a44.3,44.3,0,0,0,4.33,1.36,42.91,42.91,0,0,0,4.48.93,7,7,0,0,0,4-.24,6.62,6.62,0,0,1,2-.8,5.48,5.48,0,0,1,1.84.2,22.47,22.47,0,0,0,3.51.86,4.3,4.3,0,0,0,3-1A7.89,7.89,0,0,1,66,94.46c2.9-.26,5.78-.27,8.48-1.52a10.83,10.83,0,0,0,3.23-2.34,22.93,22.93,0,0,1,2.92-2.91c1.11-.81,2.5-1,3.37-2.17.39-.52.69-1.1,1.11-1.6a12.11,12.11,0,0,1,1.63-1.49,15.53,15.53,0,0,0,2.91-2.7,17.87,17.87,0,0,0,1.94-3.33,38.35,38.35,0,0,1,2-4.06,35.75,35.75,0,0,1,2.93-3.56,12,12,0,0,0,2.28-8,3.31,3.31,0,0,0-.2-1.65h0a.32.32,0,0,0-.12-.21,1.57,1.57,0,0,0-.79-.59l-.24-.07A15.94,15.94,0,0,0,98.22,54a6.16,6.16,0,0,0-.31-3c.68-.36.81-1.26,1-2A10.09,10.09,0,0,0,99.11,47a5.83,5.83,0,0,0,0-2.39c-.12-1.12-.2-2.24-.35-3.36a25.29,25.29,0,0,0-1.18-5.59c-.59-1.59-2.41-2.83-2.39-4.59,0-.83.28-1.63.32-2.46a4.94,4.94,0,0,0-.58-2.49A22.14,22.14,0,0,0,88.81,18c-2.43-1.86-5.3-3.2-7.39-5.48-1.19-1.3-1.76-3.07-3-4.27a6.32,6.32,0,0,0-2-1.16c-.2-.09-.42-.18-.63-.25a19.92,19.92,0,0,0-2.62-.94c-.93-.27-1.1-.35-1.22.15a48.05,48.05,0,0,1,9.49,11.19,39.26,39.26,0,0,1,5.28,15,50.89,50.89,0,0,1-1,17.56,54.85,54.85,0,0,1-6.2,16.77A32.36,32.36,0,0,1,69.44,77,69.88,69.88,0,0,1,42.16,87.59a46.05,46.05,0,0,1-16.27.15c.57.41,1.16.79,1.76,1.14A21.13,21.13,0,0,0,30.92,90.41Z"/><path class="cls-6" d="M1,51.44a28,28,0,0,0,1.27,5.92,1.77,1.77,0,0,0,.57.86,8.65,8.65,0,0,0,1.28,3,2.44,2.44,0,0,0,.66.63L5.18,63c.34.32.69.63,1.05.94,7.59,6.45,18.54,7.62,28,5.39a32.94,32.94,0,0,0,13.63-6.7A39.14,39.14,0,0,0,57.71,49.8,42.9,42.9,0,0,0,62,34.36a42.31,42.31,0,0,0-2.34-17.1A50.43,50.43,0,0,0,51.28,2.31a8.29,8.29,0,0,0-2.23.23,7,7,0,0,0-.91-1,6.22,6.22,0,0,0-2-1.42.36.36,0,0,0-.47-.09l-.07,0a12.49,12.49,0,0,0-2.8.27,19.52,19.52,0,0,0-2.63.56,13.62,13.62,0,0,0-5,2.78,9.58,9.58,0,0,1-5.07,2.66,13.5,13.5,0,0,0-3.29.57.25.25,0,0,0-.11,0h0a4.33,4.33,0,0,0-.62.36c-3.35,1.81-7.22,2.37-10.63,4.08A12,12,0,0,0,11,15a39.07,39.07,0,0,0-3.25,5.83,21.83,21.83,0,0,0-1.93,6.27,24.94,24.94,0,0,1-.57,3.2,8.64,8.64,0,0,1-1.49,2.85c-1.26,1.7-1.31,3.45-1.3,5.49a9.49,9.49,0,0,1-.31,2.91,20.67,20.67,0,0,1-1.43,3A6.29,6.29,0,0,0,0,47.47a12.69,12.69,0,0,0,1,3.91S1,51.42,1,51.44Z"/><path class="cls-7" d="M2.87,57.38a.44.44,0,0,0,.59.19.58.58,0,0,0,.65-.33l.06,0a6.89,6.89,0,0,0,2.22,0,5.57,5.57,0,0,1,2.14.32,6.3,6.3,0,0,1,3.17,2.34,13,13,0,0,1,1.63,3.86,8.64,8.64,0,0,1-.28,2.46,8.83,8.83,0,0,1-1.57,3.23A14.55,14.55,0,0,1,8.7,72c-.33.26,0,.7.36.6a9.23,9.23,0,0,0,4.75-4.2,9.31,9.31,0,0,0,1.29-6.64,8.14,8.14,0,0,0-4-5.59A7,7,0,0,0,8,55.29c-.93,0-2.24.16-3-.5a5.17,5.17,0,0,1-1-1.7,10.07,10.07,0,0,1-.87-2.31,17.16,17.16,0,0,1-.35-2.49c0-.2,0-.4,0-.6.38-1.87,1.92-3.28,2.26-5.23s-.51-4.29.07-6.34c.32-1.1,1.26-1.91,1.82-2.9A11,11,0,0,0,8,30.36l0-.09a13.41,13.41,0,0,0,.48-1.39c.72-2.58.92-5.25,1.85-7.75a20.19,20.19,0,0,1,2.35-3.45,18.72,18.72,0,0,1,2.5-2.61,10.06,10.06,0,0,1,3.3-1.66c2.63-.89,5.29-1.72,7.93-2.57,1.7-.56,3.41-1.08,5-1.77a6.75,6.75,0,0,0,.76-.25,12.13,12.13,0,0,0,2.88-1.7c.87-.58,1.72-1.19,2.6-1.75a15.88,15.88,0,0,1,1.6-.9l1-.41a15.73,15.73,0,0,1,2.43-.71l.14,0A16.32,16.32,0,0,0,46,9.83a19.59,19.59,0,0,0,2.67,2.94,16.4,16.4,0,0,0,5.1,3.49,18.2,18.2,0,0,0,4.51,1.36,8.19,8.19,0,0,0,4.42-.21,3.11,3.11,0,0,0,.94-.67c.25-.25.44-.62.7-.85.54-.46,1.48-.31,2.14-.35a8.2,8.2,0,0,0,3.75-1.19A9.26,9.26,0,0,0,73.48,11c.71-1.25,1.53-3.09.66-4.42a.77.77,0,0,0-1.2,0c-.7.89-.71,2.22-1.25,3.23a7.3,7.3,0,0,1-1,1.42c-.85.41-1.69.84-2.56,1.23s-1.77.65-2.66,1a3.7,3.7,0,0,0-2.8,1.13c-.45.5-.68.91-1.4,1a7.89,7.89,0,0,1-2.06,0,15.31,15.31,0,0,1-4-.9,17,17,0,0,1-6.46-4.56A13.49,13.49,0,0,1,46.25,6a14.81,14.81,0,0,1-.74-2.25c-.1-.39-.2-.79-.33-1.18a1,1,0,0,0,.25-.41A.72.72,0,0,0,44.89.92L44.36,1a4.53,4.53,0,0,0-1.67.12,19.88,19.88,0,0,0-2.15.54l-.66.16A7.47,7.47,0,0,0,36.46,3.5L36,3.8c-1.27.82-2.41,1.86-3.73,2.6a9.51,9.51,0,0,1-2.71.95,4.07,4.07,0,0,0-3.83,1c-2.56.78-5.06,1.78-7.54,2.77-.39.16-.78.33-1.16.52h0a6.82,6.82,0,0,0-4.05,2.05,17.08,17.08,0,0,0-3.07,3.61,20.27,20.27,0,0,0-2.59,7.06c-.12.52-.22,1-.31,1.56l-.12.64a17.43,17.43,0,0,1-1.22,4.73c-.74,1.45-1.95,2.59-2.39,4.2s.24,3.46-.22,5.15-1.46,2.81-2,4.31c-.67,1.91-.23,3.81.15,5.73A32.2,32.2,0,0,0,2.87,57.38Z"/><path class="cls-7" d="M18.71,82.86a11.07,11.07,0,0,0,1.57-1.2,9.31,9.31,0,0,1,2-1.15,8.42,8.42,0,0,1,4.46-.61,9.76,9.76,0,0,1,6.78,5,.38.38,0,0,0,.7-.3,9,9,0,0,0-7.2-6,9.75,9.75,0,0,0-5,.59,9.1,9.1,0,0,0-2.22,1.28,4.24,4.24,0,0,0-1.61,1.9C18.11,82.66,18.37,83,18.71,82.86Z"/><path class="cls-7" d="M18.26,25.06a.41.41,0,0,0,.56-.58c-1-1.42-1.37-3.13-.2-4.58s3-1.54,4.48-2.19,3.07-2.13,4.66-1.18,1.37,2.95.95,4.5a.42.42,0,0,0,.72.41A4,4,0,0,0,29,15.85a3.48,3.48,0,0,0-2.59-.9,9.52,9.52,0,0,0-3.32,1.36c-2,1-4.48,1.18-5.77,3.25C16.25,21.28,16.41,23.92,18.26,25.06Z"/><path class="cls-7" d="M40.87,18c.36.15.59-.27.41-.55-.65-1-1.77-2.06-1.26-3.43s2.21-2,3.45-2.36,2.23,1.24,2.87,2.22,1.66,2.78.39,3.89a.44.44,0,0,0,.33.77c1.49-.25,1.63-1.63,1.34-2.9a2.87,2.87,0,0,0-.62-1.74,6.75,6.75,0,0,1-.7-1.26,11.72,11.72,0,0,0-.44-1.17,2.79,2.79,0,0,0-3.74-.85,10,10,0,0,0-2,.92,4.35,4.35,0,0,0-1.87,1.95A3.64,3.64,0,0,0,40.87,18Z"/><path class="cls-7" d="M37.86,33.19c.27.76.89,1.92,1.78,2a.36.36,0,0,0,.37-.49c-.2-.63-.83-1.09-1.09-1.72a3.56,3.56,0,0,1-.09-2.47,4.86,4.86,0,0,1,3.35-3.22,3.74,3.74,0,0,1,3.75,1.36c1,1.35.65,2.79.34,4.29a.39.39,0,0,0,.63.36C48.29,32,48,29.59,47,28.12a4.89,4.89,0,0,0-5.08-1.95,5.94,5.94,0,0,0-4.17,4.18A4.6,4.6,0,0,0,37.86,33.19Z"/><path class="cls-7" d="M52.16,60.23a19.33,19.33,0,0,0-.94,2.71c0,.32.38.6.63.36a7,7,0,0,0,1.38-2.79A18.81,18.81,0,0,0,54,57.27a17.58,17.58,0,0,0-.37-6.62,26.26,26.26,0,0,0-5.22-10.23,12.15,12.15,0,0,0-3.54-2.84A6,6,0,0,0,40.67,37a20.6,20.6,0,0,1-2.36.5,7.83,7.83,0,0,1-1.53,0,18.57,18.57,0,0,0-4.38-.33c-1.73.22-3,1.41-4.32,2.49a27.57,27.57,0,0,1-4.84,3.23c-1.49.8-3.13,1.48-4.09,3a7.71,7.71,0,0,0-.92,2,.54.54,0,0,0-.05.11l-.12.57a15.35,15.35,0,0,0-.29,2.1c0,.61-.05,1.22,0,1.82a31.24,31.24,0,0,0,.05,3.87c.22,2.55.75,5.37,2.4,7.42a17.09,17.09,0,0,0,2.73,2.51c1.14.93,2.28,1.84,3.42,2.76a12.14,12.14,0,0,0,3.07,2.08,3,3,0,0,0,3.14-.27c.26-.27.12-.79-.31-.72a5.68,5.68,0,0,1-1.74.16,4.49,4.49,0,0,1-1.76-.77c-1-.65-1.86-1.44-2.77-2.16-1.81-1.45-4.1-2.83-5.4-4.8l0,0a.3.3,0,0,0,.13-.41,15.07,15.07,0,0,1-1.3-4.8,32.64,32.64,0,0,1-.44-5,13,13,0,0,1,.83-4.9c.67-1.59,2-2.31,3.49-3.05a32.93,32.93,0,0,0,4.22-2.56A29.06,29.06,0,0,1,31.35,39c1.56-.78,3.16-.22,4.79-.06s3.5,0,5.24.1a6.87,6.87,0,0,1,4.74,1.85c.09.09.16.18.24.27a.32.32,0,0,1,.21.13c.88,1.24,1.7,2.53,2.49,3.83a.48.48,0,0,0,.46-.44l0,0a.36.36,0,0,0,.17.13c.06.12.13.23.2.35a22.52,22.52,0,0,1,2.53,5.93,17.42,17.42,0,0,1,.36,6A17.17,17.17,0,0,1,52.16,60.23Z"/><path class="cls-7" d="M63.05,20c-2.33,1-4.38,3.74-5.73,5.84a16.34,16.34,0,0,0-2.41,8.46c-.09,3.22.07,6.58,2.38,9.08a19.66,19.66,0,0,0,2.91,2.48c1.06.77,2.1,1.7,3.23,2.36a.34.34,0,0,0,.47-.49,12.6,12.6,0,0,0-2.52-2.19,29,29,0,0,1-2.74-2.32,8.4,8.4,0,0,1-1.94-2.84,12.08,12.08,0,0,1-.58-4.63A17.15,17.15,0,0,1,58,28a15.08,15.08,0,0,1,2.14-3C61,24,62,23.32,62.86,22.39a.36.36,0,0,0,.09-.26,18.08,18.08,0,0,0,1.89-1.24,19.21,19.21,0,0,1,4.25-.16c1.5.05,3-.1,4.5,0a10.77,10.77,0,0,1,3.74,1.19.43.43,0,0,0,.57-.3A15.16,15.16,0,0,1,79.68,23a21.82,21.82,0,0,1,3.26,4.43.34.34,0,0,0,.44.11,17.17,17.17,0,0,1,1.42,4,22.62,22.62,0,0,1,.5,5.51,9.44,9.44,0,0,1-1,4.83c-.2.32.19.78.51.49,1.24-1.15,1.5-3,1.6-4.57A24.23,24.23,0,0,0,86,31.69a18,18,0,0,0-2-5.42,15.71,15.71,0,0,0-5.9-5.77c-3-1.68-6.14-1.07-9.37-1.19A13.06,13.06,0,0,0,63.05,20Z"/><path class="cls-7" d="M52.47,80.15a4.51,4.51,0,0,0-1.68-2.71c-2.23-1.77-4.84-.75-7,.53s-4.19,2.38-4.94,4.82c-.58,1.91-.25,4.51,1.4,5.81a.35.35,0,0,0,.52-.41,6.4,6.4,0,0,1-.62-5.12c.68-2,2.61-2.94,4.32-3.95s4.19-2.12,5.91-.26c1.44,1.57.7,3.85,1.36,5.69.14.38.81.2.7-.2A5.13,5.13,0,0,1,52.34,82,5.14,5.14,0,0,0,52.47,80.15Z"/><path class="cls-7" d="M74,67.19c1.32-.1,2.88-.47,4.11.14,2.44,1.2,3.58,4.16,4.84,6.41a14.16,14.16,0,0,1,.17,5.19.36.36,0,0,0,.69.18,9.62,9.62,0,0,0,.08-6.27,10.71,10.71,0,0,0-2.27-4.23,9,9,0,0,0-1.89-2,5.55,5.55,0,0,0-4.14-1,31.82,31.82,0,0,0-4.88.54,9.77,9.77,0,0,0-6.2,5.09,12.52,12.52,0,0,0-1.27,4.14A8.82,8.82,0,0,0,63.52,80c.62,1.36,2.13,2,2.81,3.28.59,1.13.86,2.72,2.15,3.27a.35.35,0,0,0,.4-.54,9.1,9.1,0,0,1-1.41-2.84,6.87,6.87,0,0,0-1.91-2.49,3.21,3.21,0,0,1-1.09-1.57A7.37,7.37,0,0,1,64.41,77a13.16,13.16,0,0,1,.76-3.78,8.92,8.92,0,0,1,4.93-5.33A13.3,13.3,0,0,1,74,67.19Z"/><path class="cls-7" d="M93.16,57c.31.21.74-.18.47-.49a6.57,6.57,0,0,1-1.5-2.87.34.34,0,0,0,.05-.14,8.49,8.49,0,0,1,.31-1.88A17.25,17.25,0,0,1,93.24,50a.34.34,0,0,0,0-.34A8.84,8.84,0,0,1,96,47.9c.34-.15.31-.76-.11-.77-2.13,0-4,2-4.62,3.92A5.43,5.43,0,0,0,93.16,57Z"/><path class="cls-7" d="M39.17,7.46A.61.61,0,1,0,38,7.64a.61.61,0,0,0,1.21-.18Z"/><path class="cls-7" d="M39.77,6.43l0,0A.57.57,0,1,0,39,5.82v0A.55.55,0,0,0,39.77,6.43Z"/><path class="cls-7" d="M40.54,7.11l.06,0a.31.31,0,0,0,.34-.36.31.31,0,1,0-.59.17C40.4,7,40.43,7.09,40.54,7.11Z"/><path class="cls-7" d="M42.11,6.63a.19.19,0,0,0,.06.38A.19.19,0,0,0,42.11,6.63Z"/><path class="cls-7" d="M36.09,8.3l.1,0A.24.24,0,0,0,36.44,8a.93.93,0,0,0,0-.1.28.28,0,0,0-.23-.17h0a.27.27,0,0,0-.28.37l0,0A.32.32,0,0,0,36.09,8.3Z"/><path class="cls-7" d="M15.35,17.33a.56.56,0,0,0-.61,0,.55.55,0,0,0-.26.55.6.6,0,0,0,.34.43.56.56,0,0,0,.64-.18l0,0a.53.53,0,0,0-.11-.74Z"/><path class="cls-7" d="M15.75,15.82l-.07,0c-.65-.18-.49.91.08.56l.07,0A.29.29,0,0,0,15.75,15.82Z"/><path class="cls-7" d="M17.16,16.53a1.29,1.29,0,0,0,0-.19.23.23,0,0,0-.2-.15.68.68,0,0,0-.2,0,.39.39,0,1,0,.44.32Z"/><path class="cls-7" d="M17.87,15a.24.24,0,0,0,.07.47A.24.24,0,0,0,17.87,15Z"/><path class="cls-7" d="M13,19.5A.25.25,0,0,0,13,19a.36.36,0,0,0-.27,0,.28.28,0,0,0,.08.53A.35.35,0,0,0,13,19.5Z"/><path class="cls-7" d="M5.54,49.85l0-.08a.38.38,0,0,0-.75.1V50C4.8,50.45,5.65,50.33,5.54,49.85Z"/><path class="cls-7" d="M4.28,47.51a.58.58,0,0,0,.16,1.14A.58.58,0,0,0,4.28,47.51Z"/><path class="cls-7" d="M5.85,47.79a.31.31,0,0,0-.4.06l0,0c-.22.23.06.59.33.55s.43-.46.16-.62Z"/><path class="cls-7" d="M7.35,41.27A.65.65,0,0,0,7.17,40,.65.65,0,0,0,7.35,41.27Z"/><path class="cls-7" d="M6.83,39.71A.37.37,0,0,0,7,39.52a.29.29,0,0,0,0-.24.45.45,0,0,0-.16-.2.42.42,0,0,0-.27,0,.35.35,0,0,0-.23.48A.36.36,0,0,0,6.83,39.71Z"/><path class="cls-7" d="M22.46,41.53l-.07.06a.51.51,0,0,0,.12.85l.08,0a.55.55,0,0,0,.75-.58A.56.56,0,0,0,22.46,41.53Z"/><path class="cls-7" d="M23.58,40.45a.37.37,0,0,0,.12-.4.31.31,0,0,0-.06-.13l0,0a.08.08,0,0,0,0,0,.37.37,0,0,0-.57,0,.42.42,0,0,0,0,.56A.42.42,0,0,0,23.58,40.45Z"/><path class="cls-7" d="M24.68,41a.34.34,0,0,0-.1-.68A.34.34,0,0,0,24.68,41Z"/><path class="cls-7" d="M25.7,39.37a.39.39,0,0,0,0,.24.23.23,0,0,0,.43-.06.41.41,0,0,0-.06-.24A.21.21,0,0,0,25.7,39.37Z"/><path class="cls-7" d="M47.21,36.6a.59.59,0,0,0,0,.93.61.61,0,0,0,.9-.25.66.66,0,0,0,0-.46.58.58,0,0,0-.9-.22Z"/><path class="cls-7" d="M45.61,36l0,0a.39.39,0,0,0,0,.43.39.39,0,0,0,.38.18.39.39,0,0,0,.29-.24.38.38,0,0,0-.12-.44l-.06,0A.31.31,0,0,0,45.61,36Z"/><path class="cls-7" d="M48.83,38.49a.27.27,0,0,0-.28-.14.32.32,0,0,0-.22.17.3.3,0,0,0,.1.34s0,0,0,0a.21.21,0,0,0,.36,0s0-.08,0,0A.27.27,0,0,0,48.83,38.49Z"/><path class="cls-7" d="M47.79,34.9a.27.27,0,0,0,.08.53A.27.27,0,0,0,47.79,34.9Z"/><path class="cls-7" d="M44,24.85a.51.51,0,0,0,.56.42.49.49,0,1,0-.14-1A.5.5,0,0,0,44,24.85Z"/><path class="cls-7" d="M42.86,24a.34.34,0,1,0-.45-.18A.35.35,0,0,0,42.86,24Z"/><path class="cls-7" d="M42.33,24.62a.2.2,0,0,0,.05.4A.2.2,0,0,0,42.33,24.62Z"/><path class="cls-7" d="M40.73,25.07l0,.06a.25.25,0,0,0,0,.24.23.23,0,0,0,.27.11h0a.24.24,0,0,0,.17-.41l0-.06A.23.23,0,0,0,40.73,25.07Z"/><path class="cls-7" d="M36.79,26.68a.68.68,0,0,0-.56.75.66.66,0,0,0,1.31-.19A.68.68,0,0,0,36.79,26.68Z"/><path class="cls-7" d="M36.92,28.49a.29.29,0,0,0,.09.58A.29.29,0,0,0,36.92,28.49Z"/><path class="cls-7" d="M70.67,16a.74.74,0,0,0-.13.52.71.71,0,0,0,.79.59.78.78,0,0,0,.46-.27.74.74,0,0,0,.13-.52.72.72,0,0,0-.79-.59A.75.75,0,0,0,70.67,16Z"/><path class="cls-7" d="M71.46,14.33a.31.31,0,0,0,.09.61A.31.31,0,0,0,71.46,14.33Z"/><path class="cls-7" d="M69.47,15.26a.46.46,0,0,0,.13.91A.46.46,0,0,0,69.47,15.26Z"/><path class="cls-7" d="M72.78,15.19a.32.32,0,0,0,.09.64A.32.32,0,0,0,72.78,15.19Z"/><path class="cls-7" d="M67.42,16.86a.46.46,0,0,0,.07-.07.25.25,0,0,0,0-.25.21.21,0,0,0-.06-.1.22.22,0,0,0-.38,0,.27.27,0,0,0,0,.12.24.24,0,0,0,.1.23A.21.21,0,0,0,67.42,16.86Z"/><path class="cls-7" d="M74.72,10.1a.37.37,0,0,0-.22.39.39.39,0,0,0,.33.32h.09a.4.4,0,0,0,.36-.15.38.38,0,0,0-.08-.55.39.39,0,0,0-.39,0Z"/><path class="cls-7" d="M84.54,23.36a.51.51,0,0,0,.55.41.49.49,0,1,0-.55-.41Z"/><path class="cls-7" d="M84.64,22.05a.42.42,0,0,0-.12-.84A.42.42,0,0,0,84.64,22.05Z"/><path class="cls-7" d="M85.85,22.61l.14-.07a.33.33,0,1,0-.46-.34l0,.16A.24.24,0,0,0,85.85,22.61Z"/><path class="cls-7" d="M58.83,47.52a.59.59,0,0,0-.37.22l-.07.12a.59.59,0,0,0,0,.29.6.6,0,0,0,.06.23.62.62,0,1,0,.65-.87A.59.59,0,0,0,58.83,47.52Z"/><path class="cls-7" d="M59.22,46.13a.37.37,0,0,0,.11.73A.37.37,0,0,0,59.22,46.13Z"/><path class="cls-7" d="M60.4,47.73a.3.3,0,0,0,.38,0l0,0v0a.38.38,0,0,0,0-.16.35.35,0,0,0-.07-.15h0l0,0,0,0h0a.32.32,0,0,0-.32.09h0l0,.05a.23.23,0,0,0,.05.32l0,0Z"/><path class="cls-7" d="M70.37,64.13a.84.84,0,0,0-.15.62.82.82,0,0,0,.32.54.87.87,0,0,0,.62.16.83.83,0,0,0,.71-.94.8.8,0,0,0-.33-.55.83.83,0,0,0-1.17.17Z"/><path class="cls-7" d="M71.34,62.06a.5.5,0,0,0,.14,1A.5.5,0,0,0,71.34,62.06Z"/><path class="cls-7" d="M73.14,63.53a.44.44,0,0,0,.13.88A.44.44,0,0,0,73.14,63.53Z"/><path class="cls-7" d="M75.46,64.74l0-.08a.38.38,0,1,0-.65.09l0,.07A.34.34,0,0,0,75.46,64.74Z"/><path class="cls-7" d="M69,65.42a.34.34,0,0,0,.1.67A.34.34,0,0,0,69,65.42Z"/><path class="cls-7" d="M28.37,77.72a.62.62,0,0,0,.51.38,1.61,1.61,0,0,0,.22,0,.6.6,0,0,0,.51-.69l-.06-.21a.65.65,0,0,0-.51-.38.64.64,0,0,0-.67.9Z"/><path class="cls-7" d="M28.07,75.41a.56.56,0,0,0-.31.12.47.47,0,0,0,0,.73.46.46,0,0,0,.7-.2.5.5,0,0,0,0-.32A.38.38,0,0,0,28.07,75.41Z"/><path class="cls-7" d="M27.14,77.65l.14-.07a.35.35,0,1,0-.49-.37l0,.16A.27.27,0,0,0,27.14,77.65Z"/><path class="cls-7" d="M25.93,77.65a.22.22,0,0,0-.06-.42.46.46,0,0,0-.26,0,.25.25,0,0,0,.07.47A.51.51,0,0,0,25.93,77.65Z"/><path class="cls-7" d="M30.57,78.05a.3.3,0,0,0,.08.6A.3.3,0,0,0,30.57,78.05Z"/><path class="cls-7" d="M15,69.08a.62.62,0,0,0,.69.51.61.61,0,0,0,.51-.68.61.61,0,1,0-1.2.17Z"/><path class="cls-7" d="M15.44,67.11a.27.27,0,0,0-.12.14.33.33,0,0,0,.27.44.3.3,0,0,0,.33-.26.31.31,0,0,0-.17-.31.1.1,0,0,0-.05,0,.26.26,0,0,0-.21,0l-.05,0Z"/><path class="cls-7" d="M17.13,68.07a.24.24,0,0,0,.27-.27.25.25,0,0,0-.34-.19l-.12,0a.22.22,0,0,0,.06.42Z"/><path class="cls-7" d="M13.17,56.52a.39.39,0,0,0,.06.39.33.33,0,0,0,.33.13.43.43,0,0,0,.3-.22.36.36,0,0,0,0-.29h0a.36.36,0,0,0-.12-.15l-.08,0c.09,0,.09,0,0,0h-.22c-.06,0-.05,0,0,0A.34.34,0,0,0,13.17,56.52Z"/><path class="cls-7" d="M12.17,55.91l.05,0,.1,0h.08l0,0h0a.27.27,0,0,0,.08-.07l0,0c.19-.2,0-.51-.28-.48S11.94,55.77,12.17,55.91Z"/><path class="cls-7" d="M13.58,55a.2.2,0,0,0,.06.39A.2.2,0,0,0,13.58,55Z"/><path class="cls-7" d="M10.92,54.82a.3.3,0,1,0,.08.51l.09-.06a.25.25,0,0,0-.06-.42Z"/><path class="cls-7" d="M14.51,58.14a.78.78,0,0,0,.15-.1.22.22,0,0,0-.05-.37l-.18,0a.27.27,0,0,0-.3.3A.27.27,0,0,0,14.51,58.14Z"/><path class="cls-7" d="M90.42,48.71a.64.64,0,0,0-.27.11.42.42,0,0,0,0,.67.43.43,0,0,0,.65-.18.72.72,0,0,0,0-.29A.37.37,0,0,0,90.42,48.71Z"/><path class="cls-7" d="M89.78,47.36l0,.07a.37.37,0,0,0,.69-.1l0-.08C90.64,46.61,89.48,46.77,89.78,47.36Z"/><path class="cls-7" d="M91.5,48.4l.13,0a.19.19,0,0,0-.06-.38l-.13,0A.2.2,0,0,0,91.5,48.4Z"/><path class="cls-7" d="M90,50.13l-.12.14a.2.2,0,0,0,0,.16.19.19,0,0,0,0,.13.25.25,0,0,0,.34.19l.12,0a.22.22,0,0,0,0-.38A.19.19,0,0,0,90,50.13Z"/><path class="cls-7" d="M56.21,21.09a.85.85,0,0,0,.73.72H57a.88.88,0,0,0,1-1,.87.87,0,0,0-1.21-.67l-.09,0A.83.83,0,0,0,56.21,21.09Z"/><path class="cls-7" d="M55.73,18.3a.53.53,0,0,0-.24.93l0,0a.47.47,0,0,0,.65-.1l0-.05A.53.53,0,0,0,55.73,18.3Z"/><path class="cls-7" d="M58.34,19.77a.33.33,0,0,0,.3-.13v0a.3.3,0,0,0-.06-.41h0a.31.31,0,0,0-.32,0l-.08.05a.3.3,0,0,0-.17.3.31.31,0,0,0,.25.24Z"/><path class="cls-7" d="M60.43,19.73l.09,0a.45.45,0,0,0,.26-.46.45.45,0,0,0-.38-.37h-.09a.46.46,0,0,0-.51.52A.45.45,0,0,0,60.43,19.73Z"/><path class="cls-7" d="M55.75,24a.4.4,0,0,0-.12-.8A.4.4,0,0,0,55.75,24Z"/><path class="cls-7" d="M55,25.36l0-.07a.34.34,0,0,0-.65.1v.07C54.21,26.06,55.23,25.92,55,25.36Z"/><path class="cls-7" d="M55,21.82l-.12.09a.31.31,0,0,0,0,.5.32.32,0,0,0,.48-.14s0-.09.05-.14A.27.27,0,0,0,55,21.82Z"/><path class="cls-7" d="M18.35,27.69a.74.74,0,0,0,.14-.56.7.7,0,0,0-.29-.49.76.76,0,0,0-.55-.14.83.83,0,0,0-.5.29.8.8,0,0,0-.14.56.78.78,0,0,0,.29.49.8.8,0,0,0,.56.14A.74.74,0,0,0,18.35,27.69Z"/><path class="cls-7" d="M15.94,27.3a.25.25,0,0,0-.07-.49A.25.25,0,0,0,15.94,27.3Z"/><path class="cls-7" d="M16.55,28.76a.34.34,0,0,0-.1-.67A.34.34,0,0,0,16.55,28.76Z"/><path class="cls-7" d="M15.51,29.51a.33.33,0,0,0,0,.36.3.3,0,0,0,.35.14.32.32,0,0,0,.22-.39.29.29,0,0,0-.11-.18A.33.33,0,0,0,15.51,29.51Z"/><path class="cls-7" d="M17.5,29.84a.23.23,0,0,0-.07-.46A.23.23,0,0,0,17.5,29.84Z"/><path class="cls-8" d="M93.09,30.66c-.25,1.82.8,3.31,1.42,4.94,1.35,3.53,1.54,7.26,1.66,11a1,1,0,0,0,2,.24,16.84,16.84,0,0,0,.69-4,7.92,7.92,0,0,0-.69-3.94.78.78,0,0,0-.65-.39,15.57,15.57,0,0,0-1.13-3.33c-.39-.81-.9-1.56-1.32-2.36A4.29,4.29,0,0,1,94.58,30a8.66,8.66,0,0,0-.72-5.19.38.38,0,0,0-.69.3,7.63,7.63,0,0,1,.42,3C93.53,29,93.2,29.82,93.09,30.66Z"/><path class="cls-8" d="M89.73,72.11a8.56,8.56,0,0,0-1.32,3.09c-.25,1.23-.32,2.4-1.2,3.38a17.57,17.57,0,0,1-2.52,2A8.44,8.44,0,0,0,82.47,83a3.79,3.79,0,0,1-1.15,1.39,10.2,10.2,0,0,1-1.67.79,7.83,7.83,0,0,0-3,2.12A10.61,10.61,0,0,1,73.89,90a11.2,11.2,0,0,1-3.73,1,27.69,27.69,0,0,0-3.85.68,41.21,41.21,0,0,0-3.86,1.52,7.18,7.18,0,0,1-4.1.38,21.3,21.3,0,0,0-3.88-.6,11.71,11.71,0,0,0-4.3,1.33,8.76,8.76,0,0,1-5,.33,74.43,74.43,0,0,1-10-3,.46.46,0,0,0-.35.86,42.9,42.9,0,0,0,8.85,3.32,14.26,14.26,0,0,0,4.55.53l.48-.06a.41.41,0,0,0,.19.08c1.18.14,2.23-.43,3.35-.66a9.49,9.49,0,0,1,3.59.31,14.19,14.19,0,0,0,3.43.37,11.8,11.8,0,0,0,3.59-.92,23.36,23.36,0,0,1,3.48-1.18c1.18-.26,2.38-.39,3.57-.57A12.16,12.16,0,0,0,76,91.44a31.61,31.61,0,0,0,2.41-2.5,9.56,9.56,0,0,1,1.16-1A14,14,0,0,1,81,87.13a1.07,1.07,0,0,0,.51-1c.19-.09.37-.19.55-.29a.45.45,0,0,0,.4-.15,29,29,0,0,1,2.59-2.61c.92-.79,1.87-1.54,2.73-2.4,1.82-1.85,2.61-4.15,3.82-6.38s3.39-4,4.71-6.27a15.9,15.9,0,0,0,1.47-3.42,16.3,16.3,0,0,0,.41-1.81,8.05,8.05,0,0,0,0-2.08.56.56,0,0,0-.32-.48c0-.27.05-.55.07-.82a1,1,0,0,0-1.26-1c0-.09-.09-.18-.14-.27.65-.48.75-1.8.84-2.49s.19-1.36.24-2.06a3.13,3.13,0,0,0-.21-2c-.72-1-2.5-.81-3.38-.18a2.4,2.4,0,0,0-.73.83.44.44,0,0,0-.18.12c-.75.86-.3,2.28.19,3.17a15.17,15.17,0,0,0,1,1.53,3.54,3.54,0,0,0,1.07,1.17,16.15,16.15,0,0,1,.2,4,11.93,11.93,0,0,1-.39,2.24,9.72,9.72,0,0,1-1,2.31C92.94,68.73,91,70.18,89.73,72.11Z"/><path class="cls-8" d="M28.23,89.06a14.93,14.93,0,0,0,2.9,1.25,8.13,8.13,0,0,0,3,.56.7.7,0,0,0,.55-.43,5.8,5.8,0,0,0-.18-3.06c-.09-.34-.4-.69-.79-.59a15.73,15.73,0,0,1-7.22.14c-.42-.09-.58.56-.19.71a13.75,13.75,0,0,0,1.5.48.59.59,0,0,0,.22.84l.17.09h0Z"/><path class="cls-8" d="M23.16,85.21a.67.67,0,0,0,.79,0,.34.34,0,0,0,.39-.06A20,20,0,0,1,27.28,83c1-.56,2.22-.75,3.27-1.27a.43.43,0,0,0-.12-.82,4.46,4.46,0,0,0-1,.07.76.76,0,0,0-.44-.63,3.44,3.44,0,0,0-3.15.57,9.19,9.19,0,0,0-1.44,1c-.41.37-1,1.24-1.6,1.14a.75.75,0,0,0-.67,1.2A5.84,5.84,0,0,0,23.16,85.21Z"/><path class="cls-8" d="M5.87,64.17a.4.4,0,0,0,.46.25c1-.15,2-.48,3.1-.59a13.56,13.56,0,0,1,3.31.08.63.63,0,0,0,.45-1.12,5.7,5.7,0,0,0-2.9-1.65c-1.35-.22-2.52.43-3.84.44a1,1,0,0,0-1,1.07c0,.18,0,.36.07.55a1,1,0,0,0,.23.84A.4.4,0,0,0,5.87,64.17Z"/><path class="cls-8" d="M20.79,24.65a2.49,2.49,0,0,0,.48,1,.42.42,0,0,0,.74-.2c.17-.93-.33-2,.42-2.77s1.9-.48,2.7-.94a4.62,4.62,0,0,0,1.52-1.73,3.53,3.53,0,0,1,2-1.83c.61-.21.34-1-.16-1.12-1.08-.27-2,.67-2.58,1.49-.21.31-.39.66-.6,1a.44.44,0,0,0-.68-.15c-1.1.94-2.83.6-3.92,1.62a2.57,2.57,0,0,0-.33,3.42A.4.4,0,0,0,20.79,24.65Z"/><path class="cls-8" d="M41.12,33.47a2.08,2.08,0,0,0,.26.76.41.41,0,0,0,.78-.12c.15-1,.14-1.94.94-2.69a3.78,3.78,0,0,1,2.77-.74c.36,0,.68-.48.3-.73a2.9,2.9,0,0,0-2.33-.3.39.39,0,0,0-.31-.24c-1.92-.2-3.39,2.14-2.85,3.84A.35.35,0,0,0,41.12,33.47Z"/><path class="cls-8" d="M42.12,17.6a2.18,2.18,0,0,0,.21.7.4.4,0,0,0,.76-.11,4.39,4.39,0,0,1,.84-2.63,2.92,2.92,0,0,1,1.13-.77,10.47,10.47,0,0,0,1.35-.4c.25-.14.4-.57.09-.75a2.06,2.06,0,0,0-1.72-.07.36.36,0,0,0-.25-.13,2.62,2.62,0,0,0-2.47,1.24,2.45,2.45,0,0,0-.26,2.75A.35.35,0,0,0,42.12,17.6Z"/><path class="cls-8" d="M24.61,63.21a24.42,24.42,0,0,0,1.54,4,.41.41,0,0,0,.74-.33,34.26,34.26,0,0,1-1.75-7.27A18.71,18.71,0,0,1,25.53,55a6.57,6.57,0,0,1,1-2.64c.72-.91,1.83-1,2.85-1.36,1.94-.73,2.47-2.6,3.66-4.09a3.51,3.51,0,0,1,1.28-1,7.36,7.36,0,0,1,.8-.06,27.36,27.36,0,0,0,4.05-.08c3-.51,5.95-2,9-.78a.45.45,0,0,0,.44-.78,5.08,5.08,0,0,0-3.28-1,.18.18,0,0,0,0-.07.87.87,0,0,0-.3-.2.43.43,0,0,0-.21-.43,3.06,3.06,0,0,0-2.25-.44c-1,.12-1.92.29-2.88.42-.66.09-1.4.27-2.15.39a.87.87,0,0,0-.42-.12l-2.56-.11a1,1,0,0,0-.7.22,1.89,1.89,0,0,0-1.13,0,3.19,3.19,0,0,0-1.46,1.26,11.15,11.15,0,0,1-1.39,1.52,25.91,25.91,0,0,1-3.57,2.26,9.83,9.83,0,0,0-1.58,1.16A3,3,0,0,0,23.32,51a19.17,19.17,0,0,0,.9,12A.39.39,0,0,0,24.61,63.21Z"/><path class="cls-8" d="M60.61,42.49a12.48,12.48,0,0,0,1.47,1.61l.1,0a21.38,21.38,0,0,1,.79,3,.44.44,0,0,0,.86,0c.4-3-1.21-5.79-1.7-8.65-.51-3,.68-5.84,2-8.5a7.5,7.5,0,0,1,2.58-3.2c1.38-.84,2.87-.4,4.39-.45a19.49,19.49,0,0,0,3.7-.51,4.05,4.05,0,0,0,.5-.12l.08,0a17.06,17.06,0,0,1,2.23-.49,13.94,13.94,0,0,1,2.33,0,.46.46,0,0,0,.23-.88,6.42,6.42,0,0,0-3.54-.59,7.17,7.17,0,0,0-2.26-.35c-.81,0-1.61.1-2.43.06a17.52,17.52,0,0,0-4.4-.06,9.7,9.7,0,0,0-6.23,4.74,18.64,18.64,0,0,0-2.39,8.17,10.88,10.88,0,0,0,.63,4.34A5.61,5.61,0,0,0,60.61,42.49Z"/><path class="cls-8" d="M45,82.52l-.08,0a2,2,0,0,0-1.64.36,2.14,2.14,0,0,0-.69.75c-.71,1-.47,2.57-.25,3.71a.44.44,0,0,0,.37.33,6.3,6.3,0,0,0,.79,2.4.4.4,0,0,0,.75-.22,10.53,10.53,0,0,1-.3-3.35,2.43,2.43,0,0,1,.66-1.29A3.12,3.12,0,0,1,46,84.68a4.61,4.61,0,0,0,2-1.41,3.4,3.4,0,0,1,3-1.13.65.65,0,0,0,.17-1.29A4,4,0,0,0,50,80.79a.65.65,0,0,0-.7-.49c-1.05.06-2.06.91-3,1.42C45.89,82,45.43,82.28,45,82.52Z"/><path class="cls-8" d="M75.62,69.12c-1.28.39-2.54.8-3.8,1.25a5.24,5.24,0,0,0-2.72,1.5,14.88,14.88,0,0,0-1.37,3.32,4.49,4.49,0,0,0-.4,3.17c.19.52.52,1,.74,1.48a5.42,5.42,0,0,1,.37,1.54c.09.65.11,1.33.17,2,0,.09,0,.18,0,.27a3,3,0,0,0,.8,2.71.34.34,0,0,0,.25.1,4.89,4.89,0,0,0,.39.4.34.34,0,0,0,.21.1,4.16,4.16,0,0,1-.33-3.39c.06-.25.12-.5.19-.76a8.93,8.93,0,0,0,.37-2.86c-.07-1.81-.89-3.73-.15-5.5a2.66,2.66,0,0,1,2-1.5A13.48,13.48,0,0,0,75,72a29.37,29.37,0,0,1,2.69-1.35,5.57,5.57,0,0,1,2.89-.26A.71.71,0,0,0,80.9,69a3.1,3.1,0,0,0-1-.31.64.64,0,0,0-.53-.35A10.84,10.84,0,0,0,75.62,69.12Z"/><path class="cls-8" d="M88,68a.93.93,0,0,0,.76.57h0a.78.78,0,0,0,.4,0,.52.52,0,0,0,.23-.1.94.94,0,0,0,.41-.47l.07-.25a.73.73,0,0,0,0-.39,1,1,0,0,0-.35-.53,1.29,1.29,0,0,0-.47-.19,1,1,0,0,0-.63.15,1,1,0,0,0-.41.46A1.08,1.08,0,0,0,88,68Z"/><path class="cls-8" d="M89,65.27a1,1,0,0,0,.36.6A.91.91,0,0,0,90,66a.92.92,0,0,0,.6-.36.94.94,0,0,0,.17-.67.92.92,0,0,0-.36-.61,1,1,0,0,0-.67-.17.92.92,0,0,0-.61.36A1,1,0,0,0,89,65.27Z"/><path class="cls-8" d="M90.9,67a.51.51,0,0,0,.32.39.7.7,0,0,0,.23.08.58.58,0,0,0,.64-.65.61.61,0,0,0-.35-.44.59.59,0,0,0-.65.15A.48.48,0,0,0,90.9,67Z"/><path class="cls-8" d="M93.45,64.62a.39.39,0,0,0,.11.77A.39.39,0,0,0,93.45,64.62Z"/><path class="cls-8" d="M90.41,69.77l.15-.1a.46.46,0,0,0,0-.71.45.45,0,0,0-.68.19l-.05.17a.4.4,0,0,0,.12.46A.41.41,0,0,0,90.41,69.77Z"/><path class="cls-8" d="M88.18,72.17a.42.42,0,0,0-.12-.84A.42.42,0,0,0,88.18,72.17Z"/><path class="cls-8" d="M93,62.25a.47.47,0,0,0-.13-.93A.47.47,0,0,0,93,62.25Z"/><path class="cls-8" d="M88.54,63.7a.49.49,0,0,0,.37-.68.66.66,0,0,0-.2-.27.44.44,0,0,0-.6.08.93.93,0,0,0-.12.33A.49.49,0,0,0,88.54,63.7Z"/><path class="cls-8" d="M92.05,43.32a.78.78,0,0,0,.59.15.85.85,0,0,0,.53-.31v0a.76.76,0,0,0,.16-.39.79.79,0,0,0-.12-.52.82.82,0,0,0-.82-.4.88.88,0,0,0-.64.51.83.83,0,0,0,.27,1Z"/><path class="cls-8" d="M92.06,39.12a.64.64,0,0,0,.19,1.27A.64.64,0,0,0,92.06,39.12Z"/><path class="cls-8" d="M93.76,40.36a.42.42,0,0,0-.22,0,.47.47,0,0,0-.25.46.36.36,0,0,0,.11.26.41.41,0,0,0,.7-.1.4.4,0,0,0,0-.28A.46.46,0,0,0,93.76,40.36Z"/><path class="cls-8" d="M93.24,37.51a.55.55,0,0,0-.25,1l0,0a.5.5,0,0,0,.69-.1l0-.05A.55.55,0,0,0,93.24,37.51Z"/><path class="cls-8" d="M91.74,45.64a.76.76,0,0,0,.22-.18.43.43,0,0,0,.16-.4.48.48,0,0,0-.17-.29.47.47,0,0,0-.33-.08.46.46,0,0,0-.34.27.82.82,0,0,0-.1.26A.41.41,0,0,0,91.74,45.64Z"/><path class="cls-8" d="M90.34,27.1a.83.83,0,0,0,.52-.31A.84.84,0,0,0,91,26.2a.8.8,0,0,0-1.43-.37.8.8,0,0,0,.75,1.27Z"/><path class="cls-8" d="M90.91,25.17a.58.58,0,0,0,.62-.15.48.48,0,0,0,.19-.45.51.51,0,0,0-.31-.37.57.57,0,0,0-.58,0,.55.55,0,0,0-.26.55A.6.6,0,0,0,90.91,25.17Z"/><path class="cls-8" d="M92.21,26.64h.13a.46.46,0,1,0-.13-.87l-.11,0a.41.41,0,0,0-.25.45A.44.44,0,0,0,92.21,26.64Z"/><path class="cls-8" d="M63.5,89.44A.73.73,0,0,0,63.29,88,.73.73,0,0,0,63.5,89.44Z"/><path class="cls-8" d="M63.49,86.93a.9.9,0,0,0,.16-.64.87.87,0,0,0-.34-.56.9.9,0,0,0-.64-.17.92.92,0,0,0-.56.34.87.87,0,0,0-.17.64.86.86,0,0,0,1,.73A.87.87,0,0,0,63.49,86.93Z"/><path class="cls-8" d="M66,89.42a.55.55,0,0,0,.46-.62,1.12,1.12,0,0,0-.08-.26.54.54,0,0,0-.56-.31.53.53,0,0,0-.44.45.88.88,0,0,0,0,.28A.54.54,0,0,0,66,89.42Z"/><path class="cls-8" d="M61.3,90.08a.43.43,0,0,0,.17.28.44.44,0,0,0,.43,0l.12,0a.4.4,0,0,0-.11-.77h-.13a.43.43,0,0,0-.48.49Z"/><path class="cls-8" d="M58.76,91.5a.43.43,0,0,0,.22-.09l.07,0,.15-.1a.41.41,0,0,0,.07-.57.43.43,0,0,0-.58-.07,1.25,1.25,0,0,0-.3.26.39.39,0,0,0,0,.43A.38.38,0,0,0,58.76,91.5Z"/><path class="cls-8" d="M68.31,89.73a.41.41,0,0,0,.33-.34.53.53,0,0,0,0-.13.42.42,0,0,0-.16-.39.42.42,0,0,0-.31-.07.4.4,0,0,0-.28.16.48.48,0,0,0-.05.42l.05.12A.42.42,0,0,0,68.31,89.73Z"/><path class="cls-8" d="M64.81,91.15a.46.46,0,0,0,.3-.17l.09-.1a.43.43,0,0,0-.08-.59.46.46,0,0,0-.66.2.53.53,0,0,0-.09.34A.38.38,0,0,0,64.81,91.15Z"/><path class="cls-8" d="M63.37,83a.38.38,0,0,0-.33.33.74.74,0,0,0,0,.21.47.47,0,0,0,.18.28.39.39,0,0,0,.54-.08.41.41,0,0,0,.09-.32c0-.06,0-.13-.06-.2A.39.39,0,0,0,63.37,83Z"/><path class="cls-8" d="M50.5,93a.71.71,0,0,0-.21-1.4A.71.71,0,0,0,50.5,93Z"/><path class="cls-8" d="M52.3,90.74a.41.41,0,0,0-.08-.56.49.49,0,0,0-.5-.14.51.51,0,0,0-.36.55.53.53,0,0,0,.44.43A.51.51,0,0,0,52.3,90.74Z"/><path class="cls-8" d="M53,92.61a.56.56,0,0,0,.32-.58.51.51,0,0,0-.57-.43.57.57,0,0,0-.25.11.46.46,0,0,0-.2.19.5.5,0,0,0,.13.64A.58.58,0,0,0,53,92.61Z"/><path class="cls-8" d="M87.23,76.64a.51.51,0,0,0-.14-1A.51.51,0,0,0,87.23,76.64Z"/><path class="cls-8" d="M52.38,36.36a.87.87,0,0,0,.54-.32.82.82,0,0,0-.78-1.3.84.84,0,0,0-.54.32.82.82,0,0,0,.78,1.3Z"/><path class="cls-8" d="M52.89,33.49a.51.51,0,0,0-.15-1A.51.51,0,0,0,52.89,33.49Z"/><path class="cls-8" d="M54.12,34.65a.42.42,0,0,0,.27.07.38.38,0,0,0,.24-.15.42.42,0,0,0,.07-.27v-.13a.37.37,0,0,0-.15-.25.43.43,0,0,0-.29-.08c-.18,0-.38.23-.32.44l0,.13A.38.38,0,0,0,54.12,34.65Z"/><path class="cls-8" d="M59.11,60a.45.45,0,0,0-.33.24.54.54,0,0,0-.1.47.53.53,0,0,0,.59.38.55.55,0,0,0,.45-.45.53.53,0,0,0-.22-.49A.42.42,0,0,0,59.11,60Z"/><path class="cls-8" d="M57.88,58.72a.76.76,0,0,0,.84.63.8.8,0,0,0,.49-.29.74.74,0,0,0-.7-1.18.8.8,0,0,0-.49.29A.78.78,0,0,0,57.88,58.72Z"/><path class="cls-8" d="M59.4,57.5a.64.64,0,0,0,.27.11.49.49,0,0,0,.29,0,.59.59,0,0,0,.31-.77.58.58,0,0,0-1-.11.6.6,0,0,0-.07.58A.53.53,0,0,0,59.4,57.5Z"/><path class="cls-8" d="M60.64,59.62a.45.45,0,0,0-.13-.9A.45.45,0,0,0,60.64,59.62Z"/><path class="cls-8" d="M58.86,62.87a.38.38,0,0,0,.11.76h.13a.39.39,0,0,0,.34-.44.4.4,0,0,0-.45-.34Z"/><path class="cls-8" d="M52.87,69.12a.48.48,0,0,0-.14-1A.48.48,0,0,0,52.87,69.12Z"/><path class="cls-8" d="M52.37,70.41a.48.48,0,0,0-.55.16,1.22,1.22,0,0,0-.12.19.69.69,0,0,0,0,.32.46.46,0,0,0,.28.42.49.49,0,0,0,.56-.18.61.61,0,0,0,.15-.41A.49.49,0,0,0,52.37,70.41Z"/><path class="cls-8" d="M50.25,71.17a.49.49,0,0,0,.14,1A.49.49,0,0,0,50.25,71.17Z"/><path class="cls-8" d="M51.18,73.89a.5.5,0,0,0-.15-1A.5.5,0,0,0,51.18,73.89Z"/><path class="cls-8" d="M47.82,74a.58.58,0,0,0-.24-.88l-.06,0a.58.58,0,0,0-.67.19.59.59,0,0,0,0,.69l0,0A.58.58,0,0,0,47.82,74Z"/><path class="cls-8" d="M80.78,54.92a.94.94,0,0,0-.18.69,1,1,0,0,0,.36.61,1,1,0,0,0,.69.17.92.92,0,0,0,.61-.36.94.94,0,0,0,.18-.69,1,1,0,0,0-.37-.61.91.91,0,0,0-.68-.17A.92.92,0,0,0,80.78,54.92Z"/><path class="cls-8" d="M81.83,52.14A.63.63,0,0,0,82,53.39.63.63,0,0,0,81.83,52.14Z"/><path class="cls-8" d="M83.73,52.68a.42.42,0,0,0-.42.06l0,0a.45.45,0,0,0-.2.23,1.43,1.43,0,0,0-.07.28.48.48,0,0,0,.29.49.5.5,0,0,0,.24,0,.45.45,0,0,0,.31-.18l.05-.09a.65.65,0,0,0,.11-.28A.44.44,0,0,0,84,53,.43.43,0,0,0,83.73,52.68Z"/><path class="cls-8" d="M84.43,50.87a.45.45,0,0,0-.13-.9A.45.45,0,0,0,84.43,50.87Z"/><path class="cls-8" d="M79.43,55.68a.55.55,0,0,0,.47-.48.71.71,0,0,0,0-.14.82.82,0,0,0-.06-.26l-.07-.12a.38.38,0,0,0-.17-.14.5.5,0,0,0-.36-.07.81.81,0,0,0-.27.11.58.58,0,0,0-.21.38,1.14,1.14,0,0,0,0,.26s0,.09,0,.13A.56.56,0,0,0,79.43,55.68Z"/><path class="cls-8" d="M77.67,55.37a.41.41,0,0,0,0-.44.39.39,0,0,0-.39-.19.63.63,0,0,0-.33.15,1,1,0,0,0-.22.27.39.39,0,0,0,.42.53A.77.77,0,0,0,77.67,55.37Z"/><path class="cls-8" d="M78.52,56.7A.39.39,0,0,0,79,57h.13a.41.41,0,0,0,.34-.46.4.4,0,0,0-.45-.34l-.13,0A.4.4,0,0,0,78.52,56.7Z"/><path class="cls-8" d="M81.09,58.67a.38.38,0,0,0,.47,0,.44.44,0,0,0,.12-.15l0-.05a.39.39,0,0,0-.63-.47l0,0a.48.48,0,0,0-.11.15A.36.36,0,0,0,81.09,58.67Z"/><path class="cls-8" d="M46.22,22.47a.65.65,0,0,0,1.11-.16l0-.08a.73.73,0,0,0-.1-.7.69.69,0,0,0-.65-.25.7.7,0,0,0-.44,1.12Z"/><path class="cls-8" d="M47.26,20.13a.39.39,0,0,0,.43.32h.13a.38.38,0,0,0-.11-.76l-.13,0A.39.39,0,0,0,47.26,20.13Z"/><path class="cls-8" d="M48.55,21.58l0,0a.42.42,0,0,0,.33.09.43.43,0,0,0,.35-.19h0l0,0a.34.34,0,0,0,0-.32l0-.07a.4.4,0,0,0-.75.11v.08a.28.28,0,0,0,.07.3Z"/><path class="cls-8" d="M50.44,21.14a.4.4,0,0,0-.12-.8A.4.4,0,0,0,50.44,21.14Z"/><path class="cls-8" d="M44.56,21.74a.41.41,0,0,0-.12-.82A.41.41,0,0,0,44.56,21.74Z"/><path class="cls-8" d="M30.67,28.13a.87.87,0,0,0,.1-.88.91.91,0,0,0-.69-.52H30a.86.86,0,0,0-.88,1.19l0,.05a.9.9,0,0,0,.7.52A.89.89,0,0,0,30.67,28.13Z"/><path class="cls-8" d="M30.68,25.66a.47.47,0,0,0-.14-.93A.47.47,0,0,0,30.68,25.66Z"/><path class="cls-8" d="M32.36,26.28a.5.5,0,0,0,.27-.16.43.43,0,0,0,0-.41.56.56,0,0,0,0-.12.4.4,0,0,0-.4-.22.38.38,0,0,0-.32.33.49.49,0,0,0,0,.12.39.39,0,0,0,.16.38A.46.46,0,0,0,32.36,26.28Z"/><path class="cls-8" d="M27.92,28.84a.48.48,0,0,0,.29-.52.5.5,0,0,0-.42-.41.53.53,0,0,0-.35.05.5.5,0,0,0-.29.52.51.51,0,0,0,.42.41A.59.59,0,0,0,27.92,28.84Z"/><path class="cls-8" d="M25.42,29.63a.37.37,0,0,0-.11-.73A.37.37,0,0,0,25.42,29.63Z"/><path class="cls-8" d="M27.28,29.63a.41.41,0,0,0,.11.82A.41.41,0,0,0,27.28,29.63Z"/><path class="cls-8" d="M29.49,30.29a.63.63,0,0,0-.08.38.41.41,0,0,0,.45.33.57.57,0,0,0,.34-.18.46.46,0,0,0,0-.72A.47.47,0,0,0,29.49,30.29Z"/><path class="cls-8" d="M23,74.58a.75.75,0,0,0-.21-1.48A.75.75,0,0,0,23,74.58Z"/><path class="cls-8" d="M22.24,72.43h0a.49.49,0,0,0,.3-.4v0a.49.49,0,0,0-.19-.43.48.48,0,0,0-.46-.06l-.06,0a.49.49,0,0,0-.29.4v0A.5.5,0,0,0,22.24,72.43Z"/><path class="cls-8" d="M23.83,72.7c.18,0,.39-.23.33-.44l0-.13a.48.48,0,0,0-.14-.25.47.47,0,0,0-.28-.07.38.38,0,0,0-.31.42v.14a.37.37,0,0,0,.15.25A.38.38,0,0,0,23.83,72.7Z"/><path class="cls-8" d="M25.15,74.48a.38.38,0,0,0,.31-.42v-.14a.38.38,0,1,0-.75.11l0,.13A.37.37,0,0,0,25.15,74.48Z"/><path class="cls-8" d="M22.1,70.85A.41.41,0,0,0,22,70,.41.41,0,0,0,22.1,70.85Z"/><path class="cls-8" d="M88.34,36.66a.46.46,0,0,0-.13-.91A.46.46,0,0,0,88.34,36.66Z"/><path class="cls-8" d="M86.92,34.81l0,0,0,0h0l0,0a.33.33,0,0,0,.13.07h0a.4.4,0,0,0,.42-.12.47.47,0,0,0,.16-.41v-.06a.42.42,0,0,0-.47-.35h-.06a.5.5,0,0,0-.34.27.41.41,0,0,0,0,.44Z"/><path class="cls-9" d="M1,51.44a28,28,0,0,0,1.27,5.92,1.77,1.77,0,0,0,.57.86,8.65,8.65,0,0,0,1.28,3,2.44,2.44,0,0,0,.66.63,35.49,35.49,0,0,0,1.6,4.83,17.81,17.81,0,0,0,2.7,4.27l0,0c-.45.25-1,.44-1.19,1a2.92,2.92,0,0,0,.4,1.69c.9,2.12,2.75,4,4.24,5.77a13.65,13.65,0,0,0,2.69,2.73,7.33,7.33,0,0,0,1.85.84,3.53,3.53,0,0,0,1,.38.26.26,0,0,0,.14.15,5.32,5.32,0,0,0,3.49.3,15.47,15.47,0,0,0,2.79,2.85,20.68,20.68,0,0,0,3.17,2.25,21.13,21.13,0,0,0,3.27,1.53,18.55,18.55,0,0,0,1.79.56c.43.11.91.17,1.35.3-.21.68-.37,1.36.34,1.84a7.54,7.54,0,0,0,2.29,1c.57.25,1.16.48,1.75.7a44.3,44.3,0,0,0,4.33,1.36,42.91,42.91,0,0,0,4.48.93,7,7,0,0,0,4-.24,6.62,6.62,0,0,1,2-.8,5.48,5.48,0,0,1,1.84.2,22.47,22.47,0,0,0,3.51.86,4.3,4.3,0,0,0,3-1A7.89,7.89,0,0,1,66,94.46c2.9-.26,5.78-.27,8.48-1.52a10.83,10.83,0,0,0,3.23-2.34,22.93,22.93,0,0,1,2.92-2.91c1.11-.81,2.5-1,3.37-2.17.39-.52.69-1.1,1.11-1.6a12.11,12.11,0,0,1,1.63-1.49,15.53,15.53,0,0,0,2.91-2.7,17.87,17.87,0,0,0,1.94-3.33,38.35,38.35,0,0,1,2-4.06,35.75,35.75,0,0,1,2.93-3.56,12,12,0,0,0,2.28-8,3.31,3.31,0,0,0-.2-1.65h0a.32.32,0,0,0-.12-.21,1.57,1.57,0,0,0-.79-.59l-.24-.07A15.94,15.94,0,0,0,98.22,54a6.16,6.16,0,0,0-.31-3c.68-.36.81-1.26,1-2A10.09,10.09,0,0,0,99.11,47a5.83,5.83,0,0,0,0-2.39c-.12-1.12-.2-2.24-.35-3.36a25.29,25.29,0,0,0-1.18-5.59c-.59-1.59-2.41-2.83-2.39-4.59,0-.83.28-1.63.32-2.46a4.94,4.94,0,0,0-.58-2.49A22.14,22.14,0,0,0,88.81,18c-2.43-1.86-5.3-3.2-7.39-5.48-1.19-1.3-1.76-3.07-3-4.27a6.32,6.32,0,0,0-2-1.16c-.2-.09-.42-.18-.63-.25a19.92,19.92,0,0,0-2.62-.94c-1.2-.35-1.14-.38-1.32.7,0,.32-.08.64-.12.95a14.16,14.16,0,0,0-2.11-1.18c-.92-.46-1.85-.89-2.8-1.27A38.31,38.31,0,0,0,61,3.27a38.94,38.94,0,0,0-6.08-.9c-1-.06-1.94-.08-2.91-.07a11.61,11.61,0,0,0-2.94.24,7,7,0,0,0-.91-1,6.22,6.22,0,0,0-2-1.42.36.36,0,0,0-.47-.09l-.07,0a12.49,12.49,0,0,0-2.8.27,19.52,19.52,0,0,0-2.63.56,13.62,13.62,0,0,0-5,2.78,9.58,9.58,0,0,1-5.07,2.66,13.5,13.5,0,0,0-3.29.57.25.25,0,0,0-.11,0h0a4.33,4.33,0,0,0-.62.36c-3.35,1.81-7.22,2.37-10.63,4.08A12,12,0,0,0,11,15a39.07,39.07,0,0,0-3.25,5.83,21.83,21.83,0,0,0-1.93,6.27,24.94,24.94,0,0,1-.57,3.2,8.64,8.64,0,0,1-1.49,2.85c-1.26,1.7-1.31,3.45-1.3,5.49a9.49,9.49,0,0,1-.31,2.91,20.67,20.67,0,0,1-1.43,3A6.29,6.29,0,0,0,0,47.47a12.69,12.69,0,0,0,1,3.91S1,51.42,1,51.44Zm4.4,9.75c-1-.47-1.29-1.87-1.71-2.89.31-.07.63-.21.9-.26a7.54,7.54,0,0,1,3.77.25,6.84,6.84,0,0,1,4,3.36,5.47,5.47,0,0,0-2.93-.83,9.85,9.85,0,0,0-2,.23A3.22,3.22,0,0,1,5.44,61.19Zm1.48,4.44A23.94,23.94,0,0,1,6,62.91a4.76,4.76,0,0,0-.26-.78,3.16,3.16,0,0,0,1-.05c1.46-.28,3-.68,4.42-.1A4.49,4.49,0,0,1,13,63.4a6.32,6.32,0,0,1,.11.76,6.89,6.89,0,0,1-3.2,6.25,3.16,3.16,0,0,0-.18-.27.17.17,0,0,0-.13-.07A18.14,18.14,0,0,1,6.92,65.63ZM21.53,83a8.33,8.33,0,0,1-2.34.06l.46-.4c.31-.21.6-.43.9-.64s.63-.37.94-.58a2.44,2.44,0,0,1,.28-.14,9.84,9.84,0,0,1,3.89-.86,10.08,10.08,0,0,0-1.59.89C23.23,81.89,22.55,82.76,21.53,83Zm9.84,6.67a20.57,20.57,0,0,1-3.43-1.6,41.35,41.35,0,0,1-5.51-4.53,4.32,4.32,0,0,0,.78-.46,12.87,12.87,0,0,1,2.62-1.81,8.32,8.32,0,0,1,2.22-.56l.2,0a8.61,8.61,0,0,1,6,9.69C33.32,90.14,32.32,90,31.37,89.65Zm66-37.3a14.86,14.86,0,0,1,0,2.11,20.35,20.35,0,0,1-.67,3.63,4.24,4.24,0,0,1-1.19-.42,4.91,4.91,0,0,1-1.92-2,5.08,5.08,0,0,1-.52-3,4.42,4.42,0,0,1,.52-.54,3.84,3.84,0,0,1,1.53-.75c.64-.16,1.4-.1,2.08-.2A10.47,10.47,0,0,1,97.33,52.35ZM98,48.94c-.14.68-.24,1.21-1,1.38-.52.12-1.08.09-1.61.2a6.25,6.25,0,0,0-2,.81,5.64,5.64,0,0,1,.58-1.15,6.92,6.92,0,0,1,4-2.72l.25,0A12,12,0,0,1,98,48.94ZM51.78,3.17c1,0,2,0,3,.08a37.93,37.93,0,0,1,5.8.86,36.59,36.59,0,0,1,5.62,1.75c.91.36,1.8.76,2.68,1.2a21.15,21.15,0,0,0,2.67,1.39l-.06.19a4.66,4.66,0,0,1-3.07,3.08c-1.53.55-3.17.8-4.68,1.41a2.77,2.77,0,0,0-1.29,1,2.37,2.37,0,0,1-2.07,1.13,8,8,0,0,1-1.19-.07,21.4,21.4,0,0,1-3.8-2A14.35,14.35,0,0,1,50.33,6.6c-.37-1-.47-2.1-.79-3.13l-.09-.22C50.22,3.28,51,3.17,51.78,3.17Zm-5.59-.38A14.59,14.59,0,0,1,46.2,1l.42.31A11.54,11.54,0,0,1,48,2.54a3.22,3.22,0,0,1,.89,1.66c.1.49.18,1,.31,1.48a14.8,14.8,0,0,0,2.33,4.85,15.76,15.76,0,0,0,3.42,3.4A15.23,15.23,0,0,1,49,9.65a12.84,12.84,0,0,1-2.34-4.37A11.17,11.17,0,0,1,46.19,2.79Zm-45,42.76c.72-1.79,1.88-3.26,2.06-5.24s-.34-4.18.73-6c.47-.78,1.11-1.45,1.52-2.27a10.39,10.39,0,0,0,.84-2.78,34.07,34.07,0,0,1,1.37-6.24A43.46,43.46,0,0,1,10.81,17a13.4,13.4,0,0,1,1.82-2.65,11.33,11.33,0,0,1,2.49-1.79c3.79-2.12,8.29-2.53,12-4.85h0c1.22-.26,2.47-.32,3.73-.55a9.41,9.41,0,0,0,4.32-2.3,14.32,14.32,0,0,1,4.66-2.88,17.24,17.24,0,0,1,2.94-.7c.83-.13,1.74-.13,2.58-.29a9.67,9.67,0,0,0,.19,3.56,13.41,13.41,0,0,0,1.61,4,15.23,15.23,0,0,0,6.45,5.76,19.4,19.4,0,0,0,4.18,1.47,6.81,6.81,0,0,0,4,.12,2.93,2.93,0,0,0,1.32-1.14,3.91,3.91,0,0,1,2.39-1.25,17.24,17.24,0,0,0,4.71-1.65,5.64,5.64,0,0,0,2.28-3.46,8.28,8.28,0,0,0,.21-1.21c0-.07,0-.48,0-.49s.76.28.76.29a12.06,12.06,0,0,1,4,1.62c1.31,1,1.83,2.69,2.82,3.94,1.8,2.25,4.38,3.65,6.72,5.26a17.48,17.48,0,0,1,3.53,3,26.84,26.84,0,0,1,3,4.59,7,7,0,0,1,1.08,2.65,16.57,16.57,0,0,1-.31,2.62c-.11,1.57.68,2.56,1.57,3.75,1.26,1.68,1.54,4,1.85,6,.29,1.85.35,3.7.47,5.56a.91.91,0,0,1-.45.58h0a7.12,7.12,0,0,0-5.58,7.61A5.83,5.83,0,0,0,95,58.4a5,5,0,0,0,1.18.51c.39.12.9.11,1.27.27a.81.81,0,0,1,.44.41c0,2.9,0,6-1.89,8.39-.82,1.06-1.84,2-2.62,3a19.67,19.67,0,0,0-1.78,3.17c-1.11,2.36-2.09,4.79-4.15,6.51a26.77,26.77,0,0,0-2.86,2.45,15.7,15.7,0,0,0-1.13,1.58,3.84,3.84,0,0,1-1.76,1.34,9.29,9.29,0,0,0-2.91,2.06A29.59,29.59,0,0,1,75.92,91c-2.31,1.81-5.32,2.28-8.17,2.44a16.39,16.39,0,0,0-4,.51,6.15,6.15,0,0,0-1.72.81A11.5,11.5,0,0,1,60.24,96c-2.11.89-4.45-.89-6.6-.85-1.55,0-2.69,1.19-4.22,1.25a20.51,20.51,0,0,1-5.1-.77,44.15,44.15,0,0,1-4.85-1.39c-1.41-.5-2.77-1.16-4.19-1.62A1.9,1.9,0,0,1,35,92.4c-.38-.32,0-1,.13-1.41a8.78,8.78,0,0,0,.22-1.61A9.46,9.46,0,0,0,23.62,79.8,10.29,10.29,0,0,0,20.46,81a10,10,0,0,0-1.13.8l-.44.34-.13.12a1.47,1.47,0,0,1-.42.2h-.21l-.17,0a13.12,13.12,0,0,1-2.46-1.15,14.59,14.59,0,0,1-2.64-2.74,36.62,36.62,0,0,1-2.37-3c-.37-.54-.72-1.09-1-1.65-.14-.24-.26-.48-.39-.72L9,73c-.14-.35-.37-.7-.05-1a5.31,5.31,0,0,1,.81-.46,11.17,11.17,0,0,0,1.72-1.26A7.51,7.51,0,0,0,14,64.55a.16.16,0,0,0,0-.09,4.06,4.06,0,0,0-.09-.7,7.57,7.57,0,0,0-3.69-5.61A8.55,8.55,0,0,0,7,57.08a10.75,10.75,0,0,0-3.3.29c-.5.09-.51-.17-.68-.63a7.48,7.48,0,0,1-.36-1.25c-.18-.79-.29-1.6-.41-2.4a9.88,9.88,0,0,0-1-3.4A6.07,6.07,0,0,1,1.23,45.55Z"/><path class="cls-9" d="M21.74,26.42a7.11,7.11,0,0,0,6.54-2.86c1.28-1.75,2.28-4.78,1-6.78A2.66,2.66,0,0,0,26,15.87a13.74,13.74,0,0,0-2.24,1.27,8.33,8.33,0,0,1-1.69.69,5,5,0,0,0-1.22.35l-.09,0a8.25,8.25,0,0,0-1.15.64,4.64,4.64,0,0,0-2,2.89C17,24.41,19.33,26.13,21.74,26.42Zm7-8.79c.94,2.36-.69,5.47-2.6,6.84a6.15,6.15,0,0,1-3.9,1.12l-.48-.05a3.32,3.32,0,0,1-1.49-2.44c-.14-1.73,1.53-2.12,2.86-2.47a5.13,5.13,0,0,0,2.5-1.36c.82-.83,1.72-2.15,3.08-1.72Zm-9.11,2.3a5.91,5.91,0,0,1,1.75-1l.62-.22a7.83,7.83,0,0,0,2.76-1.13C25.66,17,27,16.24,28,16.73a4,4,0,0,0-2.29,1.4,5.26,5.26,0,0,1-2.31,1.67,13.65,13.65,0,0,0-2.37.76,2.65,2.65,0,0,0-1.39,3.15,3.93,3.93,0,0,0,.66,1.43,3.15,3.15,0,0,1-1.72-1.52A3.3,3.3,0,0,1,19.61,19.93Z"/><path class="cls-9" d="M40.19,35.38a2.24,2.24,0,0,0,1.37-.17,5.16,5.16,0,0,1,2.28,0c2.33.12,3.78-2.74,3.5-4.75a4.13,4.13,0,0,0-4.47-3.52,5.19,5.19,0,0,0-4.39,3.43C37.92,31.92,38.22,34.88,40.19,35.38Zm6.28-4.71A3.63,3.63,0,0,1,45,34a2.52,2.52,0,0,1-2,.25,3,3,0,0,0-1,0,2.32,2.32,0,0,0-.21-.18,2.91,2.91,0,0,1-.9-1,2.67,2.67,0,0,1,.42-2.64,3.08,3.08,0,0,1,2.92-.89,3.27,3.27,0,0,1,1.55.47A6.87,6.87,0,0,1,46.47,30.67Zm-7.42.52a4,4,0,0,1,.25-.83A4.66,4.66,0,0,1,43,27.77a3.23,3.23,0,0,1,2.89,1.39,4.31,4.31,0,0,0-1.28-.35,4.5,4.5,0,0,0-3.54.76c-1.4,1.25-1.63,4,.11,4.93a1.23,1.23,0,0,1-1.51-.35A3.66,3.66,0,0,1,39.05,31.19Z"/><path class="cls-9" d="M44.42,19.71c1.95,0,3.92-1.43,3.56-3.56a12,12,0,0,0-1.32-2.95c-.36-.78-.52-1.7-1.46-2a5.72,5.72,0,0,0-3.29.53,3.47,3.47,0,0,0-1.51,1.13,3.19,3.19,0,0,0-.51.91,4.11,4.11,0,0,0,.2,3A4.79,4.79,0,0,0,44.42,19.71Zm2-5.2.33.65c.48,1,.7,2.11-.21,2.92a3.42,3.42,0,0,1-4.09.18c-.42-1.31-1.07-2.7.15-3.83C43.59,13.49,45.35,13.85,46.39,14.51Zm-5.88.09a2.33,2.33,0,0,1,.12-.55,3.21,3.21,0,0,1,2.23-1.71c.91-.26,2.22-.7,2.68.39l.18.41a5.12,5.12,0,0,0-3.55.52,3.37,3.37,0,0,0-1,3.33A3.75,3.75,0,0,1,40.51,14.6Z"/><path class="cls-9" d="M77.75,66.88c-2.63-.77-5.49.12-8,1a6.49,6.49,0,0,0-3.21,2.09,4.74,4.74,0,0,0-.53.82,16.7,16.7,0,0,0-1.44,4A12.41,12.41,0,0,0,64,78.2a3.36,3.36,0,0,0,1.4,2.67c1.09.92,1.18,2.21,1.69,3.46A6.22,6.22,0,0,0,69,86.84a5.13,5.13,0,0,0,6.18.08c1-.72,1.67-1.73,2.57-2.53a17.38,17.38,0,0,1,3-1.92A6,6,0,0,0,84,77.58a12.51,12.51,0,0,0-1.59-6.39A8.17,8.17,0,0,0,77.75,66.88ZM68.39,85a3.87,3.87,0,0,1-.27-.43c-.51-.91-.63-2-1.08-2.9a3.66,3.66,0,0,0-.71-1c-.49-.5-1.13-.8-1.4-1.49-.45-1.15,0-2.56.26-3.7a21.57,21.57,0,0,1,.92-3.16,15.21,15.21,0,0,1,.94-1.49,5.28,5.28,0,0,1,2.68-2,16.21,16.21,0,0,1,6.47-1.28,5.8,5.8,0,0,1,1.69.4,15.43,15.43,0,0,0-4.2,1.19,38.55,38.55,0,0,0-4.08,1.56c-1.09.55-1.47,1.65-1.93,2.72a11.24,11.24,0,0,0-1.19,3.94,5.13,5.13,0,0,0,1.16,3c.86,1.35.52,2.7.67,4.21C68.34,84.68,68.36,84.82,68.39,85ZM83.1,76.37a5.07,5.07,0,0,1-2.47,5c-.75.49-1.56.89-2.32,1.37a10.9,10.9,0,0,0-2.19,1.88,8,8,0,0,1-2.34,2,4.21,4.21,0,0,1-4.19-.48c-1-1.68-.14-3.73-.93-5.54-.42-1-1.27-1.78-1.37-2.9a7.92,7.92,0,0,1,.95-3.6c.45-1.06.8-2.32,1.92-2.83s2.38-.87,3.56-1.3a19.34,19.34,0,0,1,3.41-1.09,6.49,6.49,0,0,1,2.71.26A11.55,11.55,0,0,1,83.1,76.37Z"/><path class="cls-9" d="M51.59,80.56a3.53,3.53,0,0,0-3.1-2.71c-2.1-.24-3.88.72-5.59,1.8a6,6,0,0,0-3.55,6.76A5.5,5.5,0,0,0,41.89,90c.73.42,1.54.68,2.29,1.06a8.19,8.19,0,0,0,2.3,1c1.54.24,3-1.19,4-2.16a5.43,5.43,0,0,0,2-4,14.87,14.87,0,0,0-.39-2.65C51.9,82.37,51.84,81.45,51.59,80.56ZM40.42,87.21a5,5,0,0,1,.07-4.31,5.55,5.55,0,0,1,.93-1.31c.43-.31.9-.58,1.3-.84a11,11,0,0,1,4.48-2,3.06,3.06,0,0,1,3.4,1.51,3.18,3.18,0,0,0-1.79-.31A7.55,7.55,0,0,0,46.11,81a18.7,18.7,0,0,1-2.74,1.15c-1.63.6-2.09,1.92-1.92,3.55a8.34,8.34,0,0,0,1.3,3.8A4.72,4.72,0,0,1,40.42,87.21ZM50.5,88.73A9.85,9.85,0,0,1,49.16,90a5.24,5.24,0,0,1-2,1.28c-1,.22-2.22-.61-3.2-1.14A19.29,19.29,0,0,0,43,88.38a8.22,8.22,0,0,1-.72-2.2,4.35,4.35,0,0,1,0-2.06,2.08,2.08,0,0,1,1.5-1.27c.57-.21,1.15-.35,1.71-.62s1.21-.68,1.82-1c1.28-.64,3-.88,3.72.47.22,1,.33,2.1.49,3.1A4.43,4.43,0,0,1,50.5,88.73Z"/><path class="cls-9" d="M60,44.9a19.76,19.76,0,0,1,3.43,3.47c.74,1,1.57,2.23,2.92,2.47a4.69,4.69,0,0,0,2.28-.33A9.51,9.51,0,0,1,72,50c1.83.09,3.71.94,5.54.58A6.11,6.11,0,0,0,81,47.81c1.14-1.54,2.3-3.08,3.37-4.68,1.89-2.8,1.94-6.29,1.35-9.53a20.12,20.12,0,0,0-4-8.89,13.14,13.14,0,0,0-4.06-3.62c-1.82-.92-4-.79-6-.94-2.57-.19-6-.43-8.22,1.07a8.1,8.1,0,0,0-1.95,1.65l-.08.09A15.66,15.66,0,0,0,58,27.08a18.28,18.28,0,0,0-2.37,9.81,9.27,9.27,0,0,0,1.28,4.81A14.89,14.89,0,0,0,60,44.9ZM82.2,27a19.36,19.36,0,0,1,2.15,4.75c.83,2.81,1.3,6.41.18,9.2a21.3,21.3,0,0,1-2.83,4.3,17.2,17.2,0,0,1-3,3.76c-1.53,1.19-3.33.52-5.05.24a10.47,10.47,0,0,0-4.69.19,4.92,4.92,0,0,1-2.68.47,3.4,3.4,0,0,1-1.66-1.34c-.29-.37-.57-.74-.86-1.1a10.48,10.48,0,0,0-1.33-3.27A26.8,26.8,0,0,1,60,40.42c-1.16-2.83-.66-6.11.22-8.94.8-2.57,2.11-5.29,4.55-6.67,2.71-1.53,6.12-1.06,9.08-.93a15.85,15.85,0,0,1,5,.67A9.65,9.65,0,0,1,82.2,27ZM58.07,28.55a16.86,16.86,0,0,1,6.4-6.81A13.63,13.63,0,0,1,70.92,21a35,35,0,0,1,5,.45,8.11,8.11,0,0,1,4,2.61l0,.05a10.83,10.83,0,0,0-4-1c-1.73-.11-3.48-.19-5.22-.23A15.11,15.11,0,0,0,66,23.4a9.86,9.86,0,0,0-5.84,5.86,17.86,17.86,0,0,0-1.56,9,9.55,9.55,0,0,0,1.94,4.69,23.24,23.24,0,0,1,2.09,3.25c-.16-.16-.31-.31-.48-.46-2.11-2-4.79-3.55-5.48-6.55A16.66,16.66,0,0,1,58.07,28.55Z"/><path class="cls-9" d="M36.13,70.65c2,.24,3.83,1,5.82,1a9,9,0,0,0,5.32-2c3.13-2.41,4.85-6.43,5.82-10.14a17.82,17.82,0,0,0,.59-6.21,14.69,14.69,0,0,0-2.06-5.94,46.58,46.58,0,0,0-3.46-5,11.11,11.11,0,0,0-3.84-3.41c-1.87-.88-4.07-.6-6.07-.59l-3.34,0a8.24,8.24,0,0,0-3.31.42,14.72,14.72,0,0,0-2.66,1.85,26.72,26.72,0,0,1-3.27,2.1c-1.78,1-3.77,1.68-5.19,3.18a8.45,8.45,0,0,0-1.86,5.74,23,23,0,0,0,.49,6.58,13.31,13.31,0,0,0,1.51,4.57c1.1,1.84,3,3.14,4.65,4.5l2.53,2.13a6,6,0,0,0,2.51,1.49C32.23,71.34,34.18,70.41,36.13,70.65Zm-13-6.12A8.42,8.42,0,0,1,21,61.92a13.33,13.33,0,0,1-1-3.3,24.91,24.91,0,0,1-.51-5.51c0-.27,0-.54,0-.81.12-1.72.13-3.58,1.12-5.07a9.62,9.62,0,0,1,4-2.92,31.11,31.11,0,0,0,4.93-3,17.59,17.59,0,0,1,2.21-1.61,7.22,7.22,0,0,1,3.39-.47c2,0,4-.07,6,0a6.66,6.66,0,0,1,4.78,1.92,17.89,17.89,0,0,1,2,2.29,11.69,11.69,0,0,0-5.74-1.89c-2-.11-3.85.6-5.82.61-1.66,0-3.52-.25-4.93.82a12.31,12.31,0,0,0-1.53,1.7,11.45,11.45,0,0,1-2.44,2.06c-1.47.94-3.3,1.21-4.2,2.85a11.46,11.46,0,0,0-1.08,4.8,18.93,18.93,0,0,0,.39,5.09,19.15,19.15,0,0,0,2,5.39c.32.57.68,1.17,1.08,1.76C24.78,65.93,24,65.24,23.14,64.53Zm8,5.73A4.19,4.19,0,0,1,28.51,69L28.42,69h0c-.87-1.34-2-2.47-2.8-3.86a19.25,19.25,0,0,1-1.91-4.42,17.61,17.61,0,0,1-.23-9.39,4.25,4.25,0,0,1,1.11-2.09,12.5,12.5,0,0,1,2.55-1.3A12.59,12.59,0,0,0,30.71,45a5.12,5.12,0,0,1,1.79-1.67A7.08,7.08,0,0,1,35.36,43a15.38,15.38,0,0,0,2.25-.06c.94-.12,1.87-.37,2.82-.48a11.18,11.18,0,0,1,9.41,3.89.55.55,0,0,0,.14.09A20.07,20.07,0,0,1,52,50.28a13.09,13.09,0,0,1,.74,5.95,21.7,21.7,0,0,1-3.93,10.53,10.12,10.12,0,0,1-4.44,3.51,9.4,9.4,0,0,1-5.46.1,14.55,14.55,0,0,0-5.12-.46A17.15,17.15,0,0,1,31.17,70.26Z"/><path class="cls-9" d="M64.5,82.31A4.66,4.66,0,0,0,63,80.62a1.94,1.94,0,0,1-.85-1.69c0-.6,0-1.2-.09-1.8a.13.13,0,0,0-.25,0c-.09.93-.37,2.34.19,3.19a4.8,4.8,0,0,0,1.09,1,3.75,3.75,0,0,1,1.09,1.57c.66,1.63.83,4.26,2.92,4.72.15,0,.24-.2.11-.28C65.34,86.16,65.36,84.08,64.5,82.31Z"/><path class="cls-9" d="M62.69,74.42a14.5,14.5,0,0,1,.83-2.67c.35-.77.82-1.48,1.18-2.26a.16.16,0,0,0-.25-.19,7.71,7.71,0,0,0-2,5.09A.1.1,0,0,0,62.69,74.42Z"/><path class="cls-9" d="M62.24,70.21a2.47,2.47,0,0,0-.87,2c0,.19.25.15.29,0a4.41,4.41,0,0,1,.78-1.77C62.54,70.28,62.36,70.1,62.24,70.21Z"/><path class="cls-9" d="M78.27,65.43a11.84,11.84,0,0,1,4,3.23.13.13,0,0,0,.22-.14,6.09,6.09,0,0,0-4.17-3.31C78.22,65.17,78.12,65.37,78.27,65.43Z"/><path class="cls-9" d="M82.15,66.07a3.31,3.31,0,0,0-1.48-1.29c-.12-.06-.22.12-.11.2.5.38.92.84,1.39,1.25C82.05,66.31,82.22,66.18,82.15,66.07Z"/><path class="cls-9" d="M82,49.92a7.37,7.37,0,0,1-4.34,3.52,5.87,5.87,0,0,1-2.57.12c-1-.19-2-.67-3-1a5,5,0,0,0-2.5-.09c-1,.23-1.92.65-2.91.84a3,3,0,0,1-3-1.25c-.8-.89-1.54-1.83-2.26-2.78-.07-.09-.26,0-.19.12a24.1,24.1,0,0,0,2.23,3.17A3.4,3.4,0,0,0,65.7,54a8,8,0,0,0,2.93-.61,5.86,5.86,0,0,1,4,.14c2,.7,3.8,1.17,5.87.4A6,6,0,0,0,82.28,50,.16.16,0,0,0,82,49.92Z"/><path class="cls-9" d="M85.13,45.9A9.89,9.89,0,0,0,87.59,38a.15.15,0,0,0-.3,0,15.67,15.67,0,0,1-2.4,7.69A.15.15,0,0,0,85.13,45.9Z"/><path class="cls-9" d="M75,18.77a12.67,12.67,0,0,1,4.55,1.77,22.66,22.66,0,0,1,3.38,3.26.15.15,0,0,0,.25-.15,7.92,7.92,0,0,0-3.43-3.58A10.19,10.19,0,0,0,75,18.53.12.12,0,0,0,75,18.77Z"/><path class="cls-9" d="M84,25a7.54,7.54,0,0,0,1,2.32.16.16,0,0,0,.28-.12,7.68,7.68,0,0,0-1.05-2.29C84.17,24.84,84,24.91,84,25Z"/><path class="cls-9" d="M83,21.52c.11.11.32,0,.25-.15a5,5,0,0,0-2.57-2.32c-.11-.06-.21.12-.11.19A11.69,11.69,0,0,1,83,21.52Z"/><path class="cls-9" d="M82.87,19.44c.23.21.4.46.61.68a.11.11,0,0,0,.19-.12,2.52,2.52,0,0,0-1.46-1.29c-.14-.06-.21.14-.08.21A3.8,3.8,0,0,1,82.87,19.44Z"/><path class="cls-9" d="M53.8,37.57c-.21,3,.94,7.18,4.16,8.12.13,0,.25-.14.12-.22a7.83,7.83,0,0,1-3-3.07,11.64,11.64,0,0,1-1-4.83A.12.12,0,0,0,53.8,37.57Z"/><path class="cls-9" d="M53.09,42.09a4.58,4.58,0,0,0,2.13,3.8.17.17,0,0,0,.19-.27,6.6,6.6,0,0,1-2.09-3.56A.12.12,0,0,0,53.09,42.09Z"/><path class="cls-9" d="M55.85,26.77a10.26,10.26,0,0,1,1.66-2.91C58.28,23,59.18,22.2,60,21.4a25.39,25.39,0,0,1,2.36-2.16,7.18,7.18,0,0,1,3.4-1c.22,0,.23-.4,0-.4a6.34,6.34,0,0,0-3.2.66A16,16,0,0,0,59.7,21c-1.69,1.6-3.8,3.24-4.13,5.7A.15.15,0,0,0,55.85,26.77Z"/><path class="cls-9" d="M18,63.61a9,9,0,0,0,2.4,2.92c2.21,1.89,3.91,4.41,6.29,6.1,1.74,1.23,4.47,2.26,6.45,1,.11-.07,0-.28-.11-.25a6.64,6.64,0,0,1-3.8,0,9.21,9.21,0,0,1-3.09-1.82c-2-1.71-3.56-3.8-5.55-5.51a8.25,8.25,0,0,1-2.48-3.41A25,25,0,0,1,17,58.46a81.08,81.08,0,0,1-.84-8.66.12.12,0,0,0-.23,0,32,32,0,0,0,.76,9.51A19,19,0,0,0,18,63.61Z"/><path class="cls-9" d="M35.28,73.22c-.11.06-.08.26.07.23a5.05,5.05,0,0,1,2.88.17c.14,0,.26-.13.13-.22A2.89,2.89,0,0,0,35.28,73.22Z"/><path class="cls-9" d="M50.73,68.94a12.28,12.28,0,0,1-3.23,2.87,9,9,0,0,1-4,1c-.14,0-.13.23,0,.24,3.21.27,5.7-1.44,7.51-3.95A.17.17,0,0,0,50.73,68.94Z"/><path class="cls-9" d="M53,66a.13.13,0,0,0,.22.12,13.51,13.51,0,0,0,2.35-7.27.21.21,0,0,0-.41-.05c-.31,1.26-.52,2.53-.9,3.76S53.4,64.89,53,66Z"/><path class="cls-9" d="M55.63,64.74a6.78,6.78,0,0,0,1-2.55.22.22,0,0,0-.43-.11,21.82,21.82,0,0,0-.75,2.54C55.38,64.74,55.55,64.87,55.63,64.74Z"/><path class="cls-9" d="M57.07,64.38a2.93,2.93,0,0,0,.37-1.15c0-.12-.16-.23-.24-.1a3.09,3.09,0,0,0-.35,1.19A.12.12,0,0,0,57.07,64.38Z"/><path class="cls-9" d="M19,44.48A5.27,5.27,0,0,0,16.37,48c0,.14.2.2.25.06a6.55,6.55,0,0,1,2.58-3.33A.15.15,0,0,0,19,44.48Z"/><path class="cls-9" d="M26.91,39.5c-.13.13,0,.34.17.22,1.66-1.37,2.87-3.37,5.28-3.22.17,0,.27-.26.08-.31C30.05,35.55,28.38,38.09,26.91,39.5Z"/><path class="cls-9" d="M27.87,37c-.05.12.13.22.2.11a3.64,3.64,0,0,1,1.71-1.31.14.14,0,0,0-.07-.27A2.49,2.49,0,0,0,27.87,37Z"/><path class="cls-9" d="M28.36,34.82a10,10,0,0,0-1.06,1.1c-.08.09.07.23.15.15A9.26,9.26,0,0,0,28.53,35C28.61,34.88,28.46,34.73,28.36,34.82Z"/><path class="cls-9" d="M18.83,66.34c.13.07.22-.12.12-.2-1.82-1.48-2.44-3.5-3-5.69,0-.15-.28-.12-.24,0C16.08,62.6,16.74,65.28,18.83,66.34Z"/><path class="cls-9" d="M17.05,66.33a6.54,6.54,0,0,1-1.46-2.78.12.12,0,0,0-.23,0,4.12,4.12,0,0,0,1.49,3C17,66.64,17.15,66.46,17.05,66.33Z"/><path class="cls-9" d="M55.63,53.59A5,5,0,0,0,54.46,49c-.09-.09-.27,0-.2.12a9.25,9.25,0,0,1,1.05,4.38C55.31,53.67,55.58,53.79,55.63,53.59Z"/><path class="cls-9" d="M56.84,52.19a2.86,2.86,0,0,0-.41-1.82c-.08-.15-.32,0-.25.11a5.58,5.58,0,0,1,.38,1.71A.14.14,0,0,0,56.84,52.19Z"/><path class="cls-9" d="M54.44,82.91c-.21-1.32,0-2.57-.54-3.84a9.25,9.25,0,0,0-2.14-2.83c-.16-.15-.36.1-.25.25a17.12,17.12,0,0,1,1.93,2.94c.5,1.17.26,2.34.45,3.56s.74,2,.61,3.23a9.2,9.2,0,0,1-1.19,3.36c-.07.14.16.27.24.13A9.35,9.35,0,0,0,55,86.56a4.63,4.63,0,0,0,0-1.7C54.87,84.19,54.55,83.58,54.44,82.91Z"/><path class="cls-9" d="M55.51,79.52a4.81,4.81,0,0,0-1.38-2.81.16.16,0,0,0-.25.19,19.7,19.7,0,0,1,1.26,2.72A.19.19,0,0,0,55.51,79.52Z"/><path class="cls-9" d="M55.77,77.41a6,6,0,0,1,.42,1,7.16,7.16,0,0,1,.21,1.14.13.13,0,0,0,.26,0A2.61,2.61,0,0,0,56,77.3C55.88,77.21,55.71,77.29,55.77,77.41Z"/><path class="cls-9" d="M39.22,79.93a18.33,18.33,0,0,0,1.94-1.58,5.46,5.46,0,0,1,2.52-1.42.14.14,0,0,0,0-.25c-.89-.37-1.8.27-2.45.86-.41.37-.78.79-1.21,1.15s-.91.61-1.32,1c-1.46,1.26-1.82,3.91-1.74,5.72,0,.14.21.12.23,0C37.49,83.65,37.72,81.07,39.22,79.93Z"/><path class="cls-9" d="M37.6,79.18a.15.15,0,0,0-.18-.23,3.66,3.66,0,0,0-1.82,2.87.13.13,0,0,0,.24.07,11.12,11.12,0,0,1,.74-1.51C36.88,79.94,37.27,79.58,37.6,79.18Z"/><path class="cls-9" d="M34.79,80.85A5.21,5.21,0,0,1,36,79.29c.1-.09,0-.31-.13-.23a3,3,0,0,0-1.32,1.69A.13.13,0,0,0,34.79,80.85Z"/><path class="cls-9" d="M49,32.47a4,4,0,0,0,.45-4,3.87,3.87,0,0,0-2.8-2.45.12.12,0,0,0-.08.21,5.11,5.11,0,0,1,2.29,2.37c.53,1.31.15,2.37-.22,3.64A.21.21,0,0,0,49,32.47Z"/><path class="cls-9" d="M50.91,30.69a2.77,2.77,0,0,0-.3-2.58c-.08-.14-.3-.06-.23.1a5.76,5.76,0,0,1,.24,2.41A.15.15,0,0,0,50.91,30.69Z"/><path class="cls-9" d="M38.68,18.63a6.75,6.75,0,0,0,3.1,2.4c.17.07.32-.19.16-.29-2-1.21-4-3.12-3.64-5.67,0-.18-.24-.2-.28,0A4.49,4.49,0,0,0,38.68,18.63Z"/><path class="cls-9" d="M39.38,20.75a4.93,4.93,0,0,1-2.2-3.14c0-.11-.21-.13-.22,0a3.61,3.61,0,0,0,2.23,3.46C39.39,21.15,39.56,20.88,39.38,20.75Z"/><path class="cls-9" d="M37.72,21.36a.12.12,0,0,0,.08-.22,3.11,3.11,0,0,1-1.44-1.71c0-.13-.21-.06-.21.06A2,2,0,0,0,37.72,21.36Z"/><path class="cls-9" d="M48.67,20.43c1.41-1.1,2.52-3.27,1.64-5-.06-.12-.28-.12-.28,0,0,1.78-.18,3.42-1.57,4.72C48.31,20.31,48.5,20.57,48.67,20.43Z"/><path class="cls-9" d="M50.82,19.72a2.49,2.49,0,0,0,.85-1.95c0-.12-.21-.14-.24,0a7.33,7.33,0,0,1-.77,1.82C50.59,19.66,50.73,19.81,50.82,19.72Z"/><path class="cls-9" d="M27.38,14c-.11,0-.08.21,0,.22a3.53,3.53,0,0,1,3.27,2.21.15.15,0,0,0,.28-.08A2.9,2.9,0,0,0,27.38,14Z"/><path class="cls-9" d="M30.36,13.82a3.52,3.52,0,0,1,.6.78c.09.12.24,0,.24-.1,0-.86-1.05-1.38-1.8-1.35-.14,0-.13.23,0,.25A1.78,1.78,0,0,1,30.36,13.82Z"/><path class="cls-9" d="M16.73,25.21c-.12-.57-.44-1.08-.56-1.65a5.17,5.17,0,0,1-.08-1.71,6,6,0,0,1,1.57-3.23c.1-.12-.07-.24-.18-.17a4.66,4.66,0,0,0-1.91,3.34c-.15,1.09-.06,2.83.91,3.56A.16.16,0,0,0,16.73,25.21Z"/><path class="cls-9" d="M14.55,24.07a4.63,4.63,0,0,1,.29-3.41c.09-.16-.15-.28-.26-.15a3.06,3.06,0,0,0-.3,3.68A.16.16,0,0,0,14.55,24.07Z"/><path class="cls-9" d="M13.09,23.14A1.26,1.26,0,0,1,13,22a.13.13,0,0,0-.22-.12,1.18,1.18,0,0,0,.09,1.48A.14.14,0,0,0,13.09,23.14Z"/><path class="cls-9" d="M28.62,26a10.21,10.21,0,0,1-3.19,1.89,10,10,0,0,1-3.89.41c-.12,0-.18.16-.06.2a7.12,7.12,0,0,0,7.37-2.28A.16.16,0,0,0,28.62,26Z"/><path class="cls-9" d="M29.88,23.61c-.11.14.12.31.23.16s.37-.49.53-.76a.11.11,0,0,0-.18-.13C30.26,23.11,30.07,23.36,29.88,23.61Z"/><path class="cls-9" d="M15.59,46a.15.15,0,0,0,.28.07,4.21,4.21,0,0,1,.48-.85c.18-.25.44-.44.63-.69a.18.18,0,0,0-.21-.27A2.13,2.13,0,0,0,15.59,46Z"/><path class="cls-9" d="M15,44.75a3.39,3.39,0,0,1,.73-1c.08-.08,0-.27-.13-.2a1.81,1.81,0,0,0-.85,1.1A.13.13,0,0,0,15,44.75Z"/><path class="cls-9" d="M36.83,29.49c-.73,1.27-1.06,3.06,0,4.28a.16.16,0,0,0,.27-.12,7.18,7.18,0,0,1,0-4C37.1,29.49,36.9,29.36,36.83,29.49Z"/><path class="cls-9" d="M92.3,58.26c.17.1.43-.1.27-.28a7.33,7.33,0,0,1-1.81-3.13,8.1,8.1,0,0,1,.17-3.46.17.17,0,0,0-.3-.12C89.13,53.32,90.16,57.05,92.3,58.26Z"/><path class="cls-9" d="M88.76,53.29c-.48,1.3-.44,3.25.78,4.18.1.07.29,0,.25-.15-.18-.62-.5-1.18-.64-1.81A6.48,6.48,0,0,1,89,53.36C89.05,53.2,88.81,53.13,88.76,53.29Z"/><path class="cls-9" d="M87.53,55.22A2.28,2.28,0,0,0,88,57.28c.13.15.4,0,.31-.18a4.15,4.15,0,0,1-.49-1.85A.14.14,0,0,0,87.53,55.22Z"/><path class="cls-9" d="M69.22,13.77a4,4,0,0,0,3.57-3.33c0-.25-.33-.34-.42-.11a5.71,5.71,0,0,1-1.28,2,7.53,7.53,0,0,1-1.9,1.2C69.09,13.58,69.08,13.77,69.22,13.77Z"/><path class="cls-9" d="M71.94,13.73c-.13.1,0,.29.15.24a2.66,2.66,0,0,0,1.77-2.1c0-.13-.17-.22-.24-.1A6.73,6.73,0,0,1,71.94,13.73Z"/><path class="cls-9" d="M45.71,7.44a10.12,10.12,0,0,1-1.45-4.5c0-.16-.25-.14-.28,0a5.15,5.15,0,0,0,1.51,4.68C45.59,7.72,45.78,7.57,45.71,7.44Z"/><path class="cls-9" d="M43.89,7.07A6.07,6.07,0,0,1,43,4.17c0-.14-.21-.12-.23,0a3.54,3.54,0,0,0,.85,3C43.75,7.31,44,7.21,43.89,7.07Z"/><path class="cls-9" d="M13.58,69.44a9.11,9.11,0,0,1-1.35,1.86,9.44,9.44,0,0,1-1.73,1.28c-.11.07,0,.27.11.24a4.69,4.69,0,0,0,3.27-3.26C13.92,69.4,13.67,69.3,13.58,69.44Z"/><path class="cls-9" d="M13.71,71.27c-.14.22-.2.45-.35.65a1.93,1.93,0,0,1-.61.53.14.14,0,0,0,.11.25A1.61,1.61,0,0,0,14,71.34.16.16,0,0,0,13.71,71.27Z"/><path class="cls-9" d="M4.36,55.72c-.17.08-.08.3.09.3a20.2,20.2,0,0,1,3.3,0c1,.13,2,.48,3,.71.17,0,.25-.21.12-.3A7.21,7.21,0,0,0,4.36,55.72Z"/><path class="cls-9" d="M5.86,54.19c-.13.08-.1.35.09.3a8,8,0,0,1,2.49-.16.15.15,0,0,0,.07-.28A2.8,2.8,0,0,0,5.86,54.19Z"/><path class="cls-9" d="M24.2,78.56a5.69,5.69,0,0,0-5.72,2.18c-.12.17.1.42.27.26a7.42,7.42,0,0,1,5.41-2.1A.17.17,0,0,0,24.2,78.56Z"/><path class="cls-9" d="M19,79a7.31,7.31,0,0,1,.93-.64A5.32,5.32,0,0,1,21,78a.13.13,0,0,0,0-.25,2.06,2.06,0,0,0-2.28,1C18.67,79,18.86,79.06,19,79Z"/><path class="cls-9" d="M36.05,87.82a4.93,4.93,0,0,1,.14,3c0,.15.17.32.27.15a2.88,2.88,0,0,0-.2-3.26A.12.12,0,0,0,36.05,87.82Z"/><path class="cls-9" d="M84.55,72.19a13.85,13.85,0,0,1,.68,5.5c0,.16.22.24.29.08A7.11,7.11,0,0,0,84.89,72,.19.19,0,0,0,84.55,72.19Z"/><path class="cls-9" d="M93.17,47.52a8.22,8.22,0,0,1,1.15-1.28,14.56,14.56,0,0,1,1.33-.88c.15-.09,0-.33-.13-.3a3.79,3.79,0,0,0-2.68,2.27A.19.19,0,0,0,93.17,47.52Z"/><path class="cls-9" d="M92.91,45.58c.25-.06.4-.3.58-.46a4.37,4.37,0,0,0,.62-.5c.1-.11,0-.25-.14-.24a1.38,1.38,0,0,0-.79.41c-.2.18-.44.39-.42.67A.14.14,0,0,0,92.91,45.58Z"/><path class="cls-9" d="M2.92,47.22C2.46,45,4.81,43.65,5.34,41.68a7.18,7.18,0,0,0,0-2.49,9.38,9.38,0,0,1,.1-3c0-.15-.17-.2-.25-.1-1.3,1.6.13,4-.56,5.81s-2.86,3.24-2,5.38A.13.13,0,0,0,2.92,47.22Z"/><path class="cls-9" d="M6.15,34.47c.46-.94,1.35-1.54,1.62-2.59a5.47,5.47,0,0,0-.18-3,.16.16,0,0,0-.3,0c-.08,1.11.32,2.22-.12,3.29-.33.8-1.08,1.33-1.24,2.21A.11.11,0,0,0,6.15,34.47Z"/><path class="cls-9" d="M7.8,27.1a7.54,7.54,0,0,0,.46-1.31c0-.14-.17-.16-.23-.05A6.13,6.13,0,0,0,7.54,27C7.49,27.16,7.73,27.26,7.8,27.1Z"/><path class="cls-9" d="M26.21,10.55c.57-1.9,3.29-1,4.74-1.33a4.51,4.51,0,0,0,2.92-2c.06-.11-.1-.21-.19-.14a8.74,8.74,0,0,1-2.13,1.48,7.33,7.33,0,0,1-3,.37c-1.1,0-2.43.3-2.65,1.56C25.9,10.64,26.17,10.71,26.21,10.55Z"/><path class="cls-9" d="M35,6.49a5.8,5.8,0,0,1,1.25-1.12c.12-.08,0-.24-.12-.2a2.66,2.66,0,0,0-1.33,1.17C34.75,6.48,34.93,6.63,35,6.49Z"/><path class="cls-9" d="M95,36.66a.15.15,0,0,0,.3,0c.32-1.8-1.61-2.57-2.4-3.9a4.2,4.2,0,0,1-.19-3.23,2.16,2.16,0,0,0-.21-2,.13.13,0,0,0-.21.16c.61.88-.19,2.07-.28,3a3.94,3.94,0,0,0,.3,2.06C93,34.24,94.78,34.92,95,36.66Z"/><path class="cls-9" d="M95.71,38.6a1.22,1.22,0,0,1,0,.54c0,.17.18.34.28.17a1,1,0,0,0,.14-.73c0-.22-.13-.5-.37-.55-.07,0-.14,0-.15.12S95.69,38.45,95.71,38.6Z"/><path class="cls-9" d="M88.8,75.51c-.14.16.12.34.26.19,1.37-1.44,1-3.72,2.44-5.11,1.11-1.09,3-1.64,3.27-3.38a.15.15,0,0,0-.28-.08c-.81,1.59-2.69,2.08-3.73,3.46S90,74.15,88.8,75.51Z"/><path class="cls-9" d="M95.9,65.41a1.65,1.65,0,0,0,.44-1.07c0-.11-.18-.12-.22,0a3.89,3.89,0,0,1-.44.92A.14.14,0,1,0,95.9,65.41Z"/><path class="cls-9" d="M64.25,91.93a4.29,4.29,0,0,0-3.37.06c-1.27.48-2.71,2.31-4.15,1.45-.11-.07-.24.09-.12.17a2.38,2.38,0,0,0,2.68-.21,7.92,7.92,0,0,1,2.37-1.16,9.18,9.18,0,0,1,2.51,0A.17.17,0,0,0,64.25,91.93Z"/><path class="cls-9" d="M67.18,91.75a1.71,1.71,0,0,0-1.24.27.13.13,0,0,0,.11.24c.37-.12.76-.13,1.14-.22A.15.15,0,0,0,67.18,91.75Z"/><path class="cls-9" d="M44.22,93.31a11,11,0,0,1-3.47-1c-.16-.08-.31.18-.16.27a6.62,6.62,0,0,0,3.63.94C44.35,93.53,44.34,93.32,44.22,93.31Z"/><path class="cls-9" d="M14.67,15.2a3.38,3.38,0,0,1,2.09-1.47.12.12,0,0,0,0-.24,2.86,2.86,0,0,0-2.29,1.57C14.36,15.2,14.59,15.33,14.67,15.2Z"/></g></g></g></svg>