<svg xmlns="http://www.w3.org/2000/svg" viewBox="0 0 358.69 150.4"><defs><style>.cls-1{fill:#e7c977;}.cls-1,.cls-2,.cls-3,.cls-4,.cls-5,.cls-6,.cls-7,.cls-8,.cls-9{fill-rule:evenodd;}.cls-2{fill:#d4b96f;}.cls-3{fill:#cda75c;}.cls-4{fill:#b59048;}.cls-5{fill:#f6e3af;}.cls-6{fill:#fff4d5;}.cls-7{fill:#e5d095;}.cls-8{fill:#e9ddba;}.cls-9{fill:#c6b796;}</style></defs><title>planet-1</title><g id="Layer_2" data-name="Layer 2"><g id="OBJECTS"><path class="cls-1" d="M145.36,5.74A75.18,75.18,0,1,1,104.65,104,75.18,75.18,0,0,1,145.36,5.74Z"/><path class="cls-2" d="M184.23.7a75.18,75.18,0,1,1-48,139.42A75.19,75.19,0,0,0,215.79,36.87,74.85,74.85,0,0,0,184.23.7Z"/><path class="cls-3" d="M249.21,71.45a73.11,73.11,0,0,1,0,8.11c-54.8,30-111.55,37.8-135.91,39.82a73.43,73.43,0,0,1-4.36-6.75C130.39,111.17,191.33,104.22,249.21,71.45Z"/><path class="cls-3" d="M233.65,121.12a74.86,74.86,0,0,1-15,14.69,204.86,204.86,0,0,1-48.12,14.49,75.31,75.31,0,0,1-21-4.06A193.79,193.79,0,0,0,233.65,121.12Z"/><path class="cls-3" d="M235.3,31.49q2,2.88,3.84,6C181.66,69.19,119.43,73.32,98.94,73.78q.06-3.57.47-7.09C119.83,66.19,179.78,62,235.3,31.49Z"/><path class="cls-3" d="M121.91,90.22C105,87.28,99.12,80.75,99.12,80.75A73.81,73.81,0,0,0,100.6,91,146.8,146.8,0,0,0,121.91,90.22Z"/><path class="cls-4" d="M249.21,71.45c0,.43,0,.85,0,1.27v.64l0,1v1.77c0,.34,0,.67,0,1v.76l0,1.14v.14l0,.36a305.55,305.55,0,0,1-33.84,15.87,74.49,74.49,0,0,0,3.21-9A292.56,292.56,0,0,0,249.21,71.45Z"/><path class="cls-4" d="M233.65,121.12l0,0,0,0q-.5.64-1,1.29l-.12.15-1,1.19-.22.27-1,1.12-.22.24q-.47.53-1,1.05l-.37.39c-.29.31-.58.62-.88.92l-.43.43-.7.7-.24.23-.38.37-.81.76-.66.6-.53.48-.79.69-.25.21-.38.33-.89.74-.26.21-.26.21,0,0-1,.79-.27.21,0,0-1,.78-.27.2h0a204.86,204.86,0,0,1-48.12,14.49,76.06,76.06,0,0,1-11-1.35l-.33-.07-.66-.14-.32-.07-.66-.14-.32-.08-.65-.15-.33-.08-.64-.16-.33-.08-.32-.09-.32-.09-.33-.08-.32-.09-.64-.18-.32-.1-.61-.18h0l-.32-.09-.05,0-.55-.17h0l-.31-.1-.64-.21-.31-.11-.32-.1-.32-.11A193.79,193.79,0,0,0,233.65,121.12Z"/><path class="cls-4" d="M235.36,31.58l.07.09.06.09.06.09.2.27.06.09.06.09.13.19.06.09.06.09.06.09.07.09.18.28.06.09.06.09.07.09.06.09.06.09.06.1.06.09q1.19,1.8,2.28,3.69c-6.59,3.64-13.24,6.91-19.89,9.86-.58-2.29-1.26-4.56-2.06-6.82,6.05-2.72,12.11-5.71,18.11-9Z"/><path class="cls-5" d="M248.51,86.07a75.61,75.61,0,0,1-13,32.51,355.3,355.3,0,0,1-91.05,25.7,75,75,0,0,1-28.17-21l.54,0C117,123.25,182.06,122.19,248.51,86.07Z"/><path class="cls-5" d="M206.39,7.3a75.47,75.47,0,0,1,21.36,15.2c-54.66,31.18-104.19,37.22-127.4,38.18a75.48,75.48,0,0,1,9.29-24.15C131.15,34.58,166.6,28.05,206.39,7.3Z"/><path class="cls-5" d="M243.19,45.53C226.1,55.67,173.31,84.78,121.91,90.22c21.27,3.7,60,1.75,126.62-25.82a75.27,75.27,0,0,0-4.95-18Z"/><path class="cls-6" d="M132.27,88.82q-2.72.44-5.43.81A31.44,31.44,0,0,0,132.27,88.82Z"/><path class="cls-7" d="M248.51,86.07l-.17,1.07v0l-.09.55v.06l-.19,1-.1.54v0c-.1.5-.2,1-.31,1.49l0,.12-.12.54c-.08.36-.16.71-.25,1.07l-.13.54-.27,1.07-.14.53,0,.15c-.12.41-.23.82-.35,1.23l-.11.39c-.14.47-.29.94-.43,1.41l-.17.52-.35,1-.18.52v0l-.36,1-.19.51,0,0c-.17.45-.34.9-.52,1.34l-.14.34c-.17.44-.35.87-.54,1.31v0l-.22.51-.45,1-.23.5c-.45,1-.93,2-1.43,3v0l-.26.49-.52,1-.26.48-.54,1-.28.48,0,.07-.68,1.13-.25.41c-.24.4-.5.8-.75,1.2v0l-.3.46c-.2.31-.4.62-.61.92h0l-.31.45v0c-.21.3-.41.6-.62.89a355.3,355.3,0,0,1-91.05,25.7h0l-.5-.22-.19-.08-.11,0-.81-.37-.16-.07-.74-.34-.11-.05-.1,0-.78-.38-.08,0-.9-.45-.05,0,0,0-.82-.43-.08,0h0l-.07,0-.86-.46h0c-.6-.33-1.2-.67-1.79-1l0,0A75.21,75.21,0,0,0,211.58,103,299.73,299.73,0,0,0,248.51,86.07Z"/><path class="cls-7" d="M225.39,23.83l-.2.11,0,0-2.35,1.3-.17.09-.07,0h0q-1,.59-2.1,1.14l-.24.13-.23.12-.23.12q-1.05.57-2.1,1.11l-.11.05-.13.07-.23.12-1.86,1-.23.12-.23.12-.23.11-1.62.82-.23.12a74.51,74.51,0,0,0-14.45-19.16l.13-.06.12-.06.12-.06.62-.3h0l.12-.06.13-.07.12-.06.13-.06.12-.06.13-.06.12-.06.13-.06.12-.06.72-.36h0l.13-.07.12-.06.13-.06.12-.06.26-.13.12-.06.13-.06.12-.07.13-.06.12-.06.07,0,.06,0,.12-.06.13-.06L203.1,9l1.14-.57.12-.07.13-.06,0,0,.1,0,.12-.07,1.39-.72.13-.06.12-.07h0a75.47,75.47,0,0,1,21.36,15.2Z"/><path class="cls-7" d="M243.19,45.53c-4.81,2.86-12.45,7.21-22.09,12.12A75.29,75.29,0,0,1,220.94,75c8.61-3,17.8-6.5,27.59-10.56-.07-.47-.14-.94-.22-1.41l0-.12v0c-.1-.59-.2-1.18-.32-1.77v0l-.36-1.73,0-.17c-.12-.57-.26-1.15-.4-1.73v0h0c-.14-.58-.29-1.15-.45-1.72l0-.16c-.15-.55-.31-1.11-.48-1.66l-.05-.17c-.17-.56-.34-1.12-.52-1.68l-.05-.15c-.19-.57-.38-1.14-.59-1.7v0h0c-.21-.58-.42-1.15-.64-1.72l0-.14c-.21-.55-.43-1.1-.66-1.64l0-.09v0h0v0h0v0h0v0h0v0h0v0l0-.09h0Z"/><path class="cls-4" d="M233.91,43.36s-1-.37-.85.53a13.64,13.64,0,0,1,.52,5c-.17,3,.83,2.23,2.07,4.63s-.4,4.3.31,5.3,1.73,3.46.8,4.81-1.49-.46-2.07-.5-1.62,2-1.21,4.73.83,4.65-.19,7a6.13,6.13,0,0,0-.47,5.07A10.09,10.09,0,0,1,230.46,88c-2.24,2.75-3.7,4.51-4.15,6.92s-2,2.91-2.19,1.53-1-3.15-2.13-3.44.54,2.06-.3,3.81-2.23,2.52-2.45,4.31-4.53,6.07-6.92,7a8.47,8.47,0,0,1-6-.06c-.75-.51-.65,1.66,1.93,1.87s4.39-.59,4.81.09-1.13.6-1.52,1.33-.43,1.68-1.8,2.11-2.34.49-2.09,1.16,3.94,1.23,2.51,5.08-3.27,3.09-5.1,5.47-3.74,3.46-7.62,4.36-4.74.46-8,2-7-1.3-9.09-1.79-4.67-.5-5.65-1.82-1-3.12-1.93-3.31-.8,1.37-.68,2.6-2.4-.7-3.7,0-2.72,1-5,0-2.14.89-1.13,1.92-.59,2.76-4.55,1.47-6.09-2.6-11.71-2.78-4.54-4.17-8.63-5-8-2.46-9.67-6.45-4.35-1.83-6.27-5.14-2.13-4.13-3.36-4-1.66,3.07,1.52,5.27,3.64,3.88,3.61,7.56,3.12,3.86,4.46,6.19.74,4.64,4.17,5.78,5.18,1.39,6,3.24,3.36,2.55,6.87,2.53,5,3.46,8.26,4.12,4.93-.52,8.53,1.43,5.52,1.43,7.42.43a7.63,7.63,0,0,1,5-.48c1.24.19,1.54-1.74-2-2.6s-7.3.38-9.79-.62-4.38-1.54-6.6-.41-4.12,0-5.33-1.24-2-.67-3.18-1.22,1.06-2.43,2.91-1.53,1.95,1.52,4.21,1.17,2.88.81,4,1.19a6.14,6.14,0,0,0,2.73,0,4.11,4.11,0,0,1,3.42.85c1.2,1.09,2,.44,3.59-.1a4.35,4.35,0,0,1,4.11.95c1.24.9,2.56-.33,3.57-.26s.76,1.11,2.42,1.38,2.22-1,3.23-.11.29,2-1.92,2-1.66,2,1.1,1.36,5.95-2.25,10.5-1.4,3.76-1.37,6.07-2.19,5-.22,6.67-2.2,3-2.67,7.16-3.33,3.35-3.83,5.63-5.25,6-1.7,8.8-4,1.79-5.39,3.53-7.7,3.67-3.26,6.33-6.76,1.64-3.66-.47-3.1-3.06-.56-2.49-3.3.11-8.22,2.41-10.8,2.75-2.82,3.23-4.77,1.78.41,2.13,2.63,2.7.35,3.22-2.73S242.49,83,244.5,79.1s-.53-4.95.11-7.5,1.45-5.11.27-9.21-3.17-5.33-3.27-7.85-2.27-.64-1,1.72,3.32,3.27,3.92,7.47-1.33,6.75-1.69,8-2.37.23-1-3,2.37-5.92.15-8.59-3.56-2.59-3.22-6.35-3-3.43-3.22-4.92.35-4.6-1.7-5.52Zm-19.64,75.31a5.26,5.26,0,0,1,1.82-2.24,3.88,3.88,0,0,1,2.75-.72c.67.23.79,1,.08,1.59s-.2,1.46-1.28,1.88-1.57,1.14-2.43.77-1-.71-.94-1.28Zm-8.59,14.49c1.24,1-1.33,1.35-1.93.93s.19-1.13-.76-2.29.23-3,1.89-3.46,2-1.65,4.39-1.88,2.94,2.15,2.39,2.66-.5-.62-1.53-1.08-4.38.9-5.11,2.49a2.2,2.2,0,0,0,.66,2.63Zm-64.51-.91c.13-.74.72-1.21,1.32-1s1,1.51.78,2.43-1.17,1.55-1.7.61a3.36,3.36,0,0,1-.4-2.05Zm-15.45-11.53c.42-.21.56-.51,1,.3s4.1.63,5.27,2.56.15,5.07,2.34,5.32,3.76.14,5.61,2.23,0,4.39-.53,3.16-1.19-3.73-3.89-4-4.74-.93-5.74-3.58-2.57-3.11-3.74-4.27S125.72,120.72,125.72,120.72Z"/><path class="cls-4" d="M160.7,108.28c-.22-.32-6-3.23-12.5-2.63s-5,7-.32,10.36,13,4.16,15.55,1.53S164.6,110.69,160.7,108.28Z"/><path class="cls-4" d="M163.79,119.71s-.07-.89-1.17-.47-5.2,2.25-9.35,1.28-3.8-2.49-5.74-3.33a7.09,7.09,0,0,1-4-4.55c-.51-2-1.32.6-.31,3.09s4.05,2.26,4.66,4.09,3.82,2.65,7.69,1.92,3.94.49,6,.18S163.94,120.63,163.79,119.71Z"/><path class="cls-4" d="M177,121.3a17.81,17.81,0,0,1,11-5.68c6.71-.62,6.43-2.74,11.23-1.4s8.19,2,8.09,5.19-4.09,3.92-5.63,6-6.62,2.88-9.59,3-3.63,2.89-5.81,1.85-3.73-2.73-7-2.55S175,123.83,177,121.3Z"/><path class="cls-4" d="M205.09,103.28a14.6,14.6,0,0,1,5.1-6.28c2.58-1.62,5.82-2.63,7.7-2s2.2,2.76.23,4.45-.55,4.08-3.6,5.28-4.4,3.17-6.8,2.15S204.82,104.87,205.09,103.28Z"/><path class="cls-4" d="M206.45,92.88A9,9,0,0,1,209.61,89c1.6-1,3.61-1.64,4.77-1.24s1.37,1.71.15,2.76-.35,2.52-2.24,3.27-2.72,2-4.21,1.33S206.28,93.87,206.45,92.88Z"/><path class="cls-4" d="M224.52,70a10.77,10.77,0,0,0-3.78,5.32c-1,3.16,2.55,3.77,5.17,2.26s4.64-5.23,3.81-7S226.5,68.69,224.52,70Z"/><path class="cls-4" d="M231.17,71.42s-.46-.15-.46.44a7.65,7.65,0,0,1-1.19,4.64c-1.3,1.75-2,1.28-2.8,2a3.84,3.84,0,0,1-3.08.95c-1.1-.17,0,.74,1.5.77s1.93-1.43,3-1.34,2.09-1.25,2.48-3.21,1-1.74,1.25-2.76S231.66,71.53,231.17,71.42Z"/><path class="cls-4" d="M234.75,96.86a10.48,10.48,0,0,0-.64,6.44c.73,3.23,4.1,2.14,5.64-.4s1.44-6.76-.15-7.91S235.81,94.77,234.75,96.86Z"/><path class="cls-8" d="M98.92,75.53C37.81,96.36-2.92,117.85.16,129.63c4.19,16,87.81,8.06,186.77-17.81S362.71,52,358.52,36c-3.18-12.17-52.18-10.5-118.9,2.34.77,1.39,1.52,2.82,2.22,4.27C254,40.39,265,38.83,274.42,37.92c21.22-2,34.82-.6,36.5,4.82L311,43c1.51,6.1-12.29,15.56-35.84,25.91-23,10.13-55.52,21.39-92,31.37q-10.8,3-20.91,5.46c-31.63,7.85-60,13-80.83,15-21.21,2-34.81.6-36.49-4.82l-.06-.21c-1.52-6.1,12.29-15.56,35.84-25.92,5.65-2.48,11.86-5,18.56-7.61-.2-2.22-.31-4.44-.32-6.64ZM242.86,44.77c11.85-2.1,22.57-3.62,31.79-4.51,20.08-1.92,32.79-1,34,3.18l0,.09c1.2,4.82-12.07,13.33-34.49,23.19C251.26,76.8,218.88,88,182.51,98c-7,1.9-13.94,3.72-20.85,5.44-31.56,7.83-59.82,13-80.5,15-20.07,1.93-32.78,1-34-3.18l0-.08c-1.2-4.82,12.07-13.33,34.49-23.19,5.46-2.4,11.44-4.86,17.89-7.36.12.93.25,1.85.41,2.79C89.18,92.84,83.24,97.69,84.12,101c2.17,8.3,45.44,4.17,96.66-9.22s91-31,88.82-39.27c-1-3.76-10.4-5-25.16-3.92-.28-.73-.56-1.45-.86-2.17Z"/><path class="cls-9" d="M99.83,86.84c-17.14,7.64-27.19,14.36-26.14,18.39v0c1.11,4,13.11,4.87,31.71,3.08,19.1-1.83,45-6.62,73.13-13.92l2.86-.75c28.82-7.6,54.43-16.34,72.52-24.33C271.6,61.54,282,54.66,281,50.56l0,0c-1.11-4-13.11-4.87-31.72-3.08-1.62.15-3.3.33-5,.53-.2-.51-.4-1-.61-1.52l-.12-.29q2.86-.33,5.57-.59c19.51-1.88,32.23-.56,33.7,4.4l0,.13c1.31,5.13-9.52,12.76-28.09,21-18.18,8-43.88,16.81-72.8,24.43l-2.86.75c-28.27,7.33-54.23,12.13-73.42,14-19.51,1.87-32.22.55-33.7-4.4l0-.13C70.56,100.6,81.22,93,99.55,84.9,99.63,85.54,99.73,86.19,99.83,86.84Z"/><path class="cls-6" d="M240.38,39.7c.31.58.62,1.16.91,1.75,16.15-3,30.86-5.06,43.5-6.27C311.94,32.57,329.42,34,331,40v0c1.6,6.21-13.81,16.47-40,28-26.62,11.75-64.26,24.63-106.63,35.86l-6.55,1.71C137,116.13,99.55,123.05,71.94,125.71c-27.14,2.6-44.62,1.22-46.24-4.78v0c-1.61-6.21,13.8-16.47,40-28,9.74-4.31,21-8.76,33.35-13.23,0-.65-.07-1.31-.09-2-12.65,4.55-24.09,9.08-34,13.46-27.1,12-42.94,23-41.08,30.23l0,.12c2,7,20.18,8.79,48.23,6.1,27.71-2.67,65.23-9.6,106.21-20.17l6.55-1.71c42.46-11.25,80.2-24.16,106.9-35.95,27.11-12,42.95-23,41.09-30.23l0-.12c-2-7-20.18-8.79-48.23-6.1C271.77,34.54,256.81,36.69,240.38,39.7Z"/><path class="cls-9" d="M356.75,33.16C357,49.64,281.5,82.57,185,107.8,92.39,132,13.22,140.55,0,128.41a5.44,5.44,0,0,0,.16,1.22c4.19,16,87.81,8.06,186.77-17.81S362.71,52,358.52,36A5.73,5.73,0,0,0,356.75,33.16Z"/></g></g></svg>