<svg xmlns="http://www.w3.org/2000/svg" viewBox="0 0 95.99 140.62"><defs><style>.cls-1{isolation:isolate;}.cls-2{fill:#8eaac2;}.cls-3{fill:#44515c;}.cls-4{fill:#e3ebf2;}.cls-5{fill:#52284a;opacity:0.1;}.cls-5,.cls-8{mix-blend-mode:multiply;}.cls-6{fill:#fff9f2;opacity:0.15;}.cls-6,.cls-7{mix-blend-mode:overlay;}.cls-7{fill:#fff7f7;opacity:0.5;}.cls-8{fill:#492659;opacity:0.25;}.cls-9{fill:#382734;}</style></defs><title>rcoket</title><g class="cls-1"><g id="Layer_2" data-name="Layer 2"><g id="OBJECTS"><path class="cls-2" d="M71.27,120h0a.07.07,0,0,0,.07,0,14.89,14.89,0,0,0,1.2-2.08s0,0,0-.08l-.32-.57-.7-1.29L69.89,113a.06.06,0,0,0-.08,0,.08.08,0,0,0-.07.05,5,5,0,0,1-1,1.37l-.19.18,0,0a.08.08,0,0,0,0,.1l.43.85.84,1.69,1,1.93.42.79A.08.08,0,0,0,71.27,120Z"/><path class="cls-2" d="M59,127.35H59c.45-.26.84-.51,1.19-.74l.27-.2a3.21,3.21,0,0,1,.41-.27.09.09,0,0,0,0-.09l-1.2-7.51a.09.09,0,0,0-.06-.06.08.08,0,0,0-.08,0,8.22,8.22,0,0,1-1.69,1l-.07,0a.09.09,0,0,0-.05.09c.35,2.27.75,5,1.12,7.63A.08.08,0,0,0,59,127.35Z"/><path class="cls-2" d="M57.31,128.22h.07c.45-.22.82-.4,1.16-.59a.08.08,0,0,0,0-.09c-.36-2.29-.72-4.8-1.09-7.68a.05.05,0,0,0,0-.06,0,0,0,0,0-.07,0c-.41.19-.84.38-1.28.55a.08.08,0,0,0-.05.09c.36,2.11.82,4.89,1.21,7.72C57.27,128.18,57.28,128.21,57.31,128.22Z"/><path class="cls-2" d="M24.9,116.82c0,.08.05.16.07.24a15.09,15.09,0,0,0,.6,1.5.08.08,0,0,0,.07,0h0a.08.08,0,0,0,.08,0l.13-.3.69-1.53c.23-.52.45-1.06.67-1.58s.48-1.12.72-1.68a.1.1,0,0,0,0-.09l-.06-.07-.11-.13,0-.06a8.25,8.25,0,0,1-.94-1.37.08.08,0,0,0-.08,0,.08.08,0,0,0-.07,0l-1.07,2.55-.83,2a.11.11,0,0,0,0,.08A1.92,1.92,0,0,1,24.9,116.82Z"/><path class="cls-2" d="M35.06,126.4a9.43,9.43,0,0,1,1.52.82h.08a.07.07,0,0,0,0-.06c.16-1.16.34-2.34.52-3.48.07-.48.15-1,.22-1.45.13-.87.28-1.84.46-2.94a.08.08,0,0,0,0-.09,6.14,6.14,0,0,1-1.58-.93.08.08,0,0,0-.08,0,.08.08,0,0,0,0,.07c-.38,2.54-.75,5.15-1.13,8A.08.08,0,0,0,35.06,126.4Z"/><path class="cls-3" d="M65.7,104.64c-.08,1-.16,2-.25,2.94v0a.11.11,0,0,0,0,.07l0,0s0,0,0,0a9.92,9.92,0,0,0,1.37-.48l0,0a.43.43,0,0,1,.32-.16h0a6.21,6.21,0,0,0,1.8-1.28c1.41-1.45,2.12-3.62,2.74-5.53.14-.43.27-.83.41-1.22l.06-.18.09-.26a.08.08,0,0,0,0-.09.09.09,0,0,0-.1,0,25.08,25.08,0,0,1-6.4,3.26.08.08,0,0,0,0,.1,6,6,0,0,1,0,2.06C65.76,104.16,65.72,104.4,65.7,104.64Z"/><path class="cls-3" d="M60.29,104.86c0,.77,0,1.54,0,2.25l0,1.12c0,.1,0,.22,0,.34v.11a.07.07,0,0,0,0,.06l.05,0h0c.94-.15,1.79-.29,2.59-.45s1.19-.23,1.75-.36a.09.09,0,0,0,.06-.08l.06-.62.24-2.76c0-.22,0-.46,0-.71a7.26,7.26,0,0,1,.2-1.7.08.08,0,0,0-.1-.1c-.8.26-1.64.5-2.5.72s-1.53.36-2.37.52a.07.07,0,0,0-.06,0,.13.13,0,0,0,0,.06,3.85,3.85,0,0,1,.07,1.18C60.3,104.62,60.29,104.74,60.29,104.86Z"/><path class="cls-3" d="M59.6,103.35a50.35,50.35,0,0,1-5.15.63.08.08,0,0,0-.06,0,.06.06,0,0,0,0,.07,6.65,6.65,0,0,1,.16,2.15c0,.27,0,.53,0,.77l0,2v.38a.09.09,0,0,0,0,.06l.06,0h.18c1.48-.13,3-.31,4.54-.53a.08.08,0,0,0,.07-.08l0-1.29c0-.52,0-1,0-1.54,0-.22,0-.46,0-.71a6.35,6.35,0,0,1,.14-1.82.08.08,0,0,0,0-.08A.11.11,0,0,0,59.6,103.35Z"/><path class="cls-3" d="M53.89,104.06s0,0-.07,0c-1.7.1-3.46.13-5.24.09a.11.11,0,0,0-.07,0,.08.08,0,0,0,0,.08,6,6,0,0,1,.16,1.54c0,.21,0,.42,0,.58l.19,2.08,0,.26a1.94,1.94,0,0,1,0,.9.11.11,0,0,0,0,.08.09.09,0,0,0,.07,0h0c1.61,0,3.25-.08,4.87-.2a.08.08,0,0,0,.08-.08,2.53,2.53,0,0,1,0-.28V109h0l0-2c0-.25,0-.5,0-.77a7.06,7.06,0,0,1,.08-2.11A.09.09,0,0,0,53.89,104.06Z"/><path class="cls-3" d="M47.76,104.1c-1.8-.06-3.64-.2-5.62-.41a.09.09,0,0,0-.08,0,.08.08,0,0,0,0,.08,7.65,7.65,0,0,1,.49,1.91c.05.29.1.57.16.83.11.48.22,1,.34,1.44s.25,1,.36,1.51a.09.09,0,0,0,.07.06c1.57.1,3.18.14,4.79.14a.07.07,0,0,0,.07,0,.06.06,0,0,0,0-.08,1.81,1.81,0,0,1-.15-.76c0-.07,0-.16,0-.25,0-.32-.06-.64-.08-1s-.06-.64-.08-1L48,106c-.05-.47-.1-1-.11-1.42v-.13a2.61,2.61,0,0,1,0-.28A.09.09,0,0,0,47.76,104.1Z"/><path class="cls-3" d="M41.64,103.66a.09.09,0,0,0-.06,0,51.66,51.66,0,0,1-5.18-.83.08.08,0,0,0-.08,0,.1.1,0,0,0,0,.09,7.12,7.12,0,0,1,.57,2c.06.3.12.59.18.86l.36,1.3c.18.63.36,1.29.51,1.94A.1.1,0,0,0,38,109c.7.09,1.45.18,2.41.27.7.08,1.43.14,2.19.19h0a.09.09,0,0,0,.07,0,.06.06,0,0,0,0-.07c-.24-.93-.44-1.89-.63-2.82,0-.2-.08-.4-.13-.62a6.39,6.39,0,0,1-.26-2.23A.14.14,0,0,0,41.64,103.66Z"/><path class="cls-3" d="M35.86,102.68a35.13,35.13,0,0,1-4.45-1.32l-.27-.11a.09.09,0,0,0-.11.11,6.45,6.45,0,0,1,.22.75c0,.12.07.24.1.36.11.4.21.81.31,1.21s.13.56.21.84l.21.79c.11.38.21.76.31,1.14,0,.13.07.26.11.4a5.58,5.58,0,0,1,.2.88.08.08,0,0,0,0,.07,23.57,23.57,0,0,0,4.39,1.11h0a.09.09,0,0,0,.06,0,.11.11,0,0,0,0-.08c-.28-.84-.49-1.71-.69-2.56l-.12-.5c0-.21-.11-.43-.17-.65a6.1,6.1,0,0,1-.33-2.32A.1.1,0,0,0,35.86,102.68Z"/><path class="cls-3" d="M30.74,102.64c0-.13-.07-.26-.1-.4a4.31,4.31,0,0,1-.23-1.22.1.1,0,0,0-.05-.08,26.52,26.52,0,0,1-3.46-1.7,19.86,19.86,0,0,1-2.19-1.44.09.09,0,0,0-.1,0,.08.08,0,0,0,0,.09L24.94,99a14.13,14.13,0,0,0,3.35,6.06,12.21,12.21,0,0,0,3.48,2.31h0l.05,0a.07.07,0,0,0,0-.08v0c0-.12,0-.23-.06-.32l-.3-1.29-.21-.93c-.1-.41-.21-.83-.33-1.23S30.82,102.92,30.74,102.64Z"/><path class="cls-2" d="M26.73,128.81c1.63,1.38,4.09,3,6.61,3h.15s.08,0,.08-.08a.57.57,0,0,0,0-.13c.12-1.11.27-2.23.42-3.32.06-.41.12-.82.17-1.23l.15-1.12.1-.68a.14.14,0,0,0,0-.06.09.09,0,0,0-.06,0,11,11,0,0,1-6.8-2.83.06.06,0,0,0-.07,0,.07.07,0,0,0-.06,0c-.13.27-.28.53-.4.74a0,0,0,0,1,0,0l.33-.87a.08.08,0,0,0,0-.1,9.63,9.63,0,0,1-.7-.74.06.06,0,0,0-.07,0,.08.08,0,0,0-.07,0c-.27.6-.58,1.26-.95,2h0s0,0,0,0c.31-.9.59-1.63.85-2.29a.08.08,0,0,0,0-.08,10.52,10.52,0,0,1-.73-1.06.12.12,0,0,0-.08,0,.08.08,0,0,0-.07.05c-.6,1.29-1.07,2.26-1.54,3.16,0,0,0,0,0,0s0,0,0,0c.48-1.25,1-2.5,1.48-3.55a.09.09,0,0,0,0-.07l0,0c0-.06-.06-.11-.08-.16l-.09-.18a10.58,10.58,0,0,1-.71-1.6.09.09,0,0,0-.07-.06.08.08,0,0,0-.08,0l-.47,1.12-.24.55a6.39,6.39,0,0,0-.8,3.61C23.2,125.49,25.44,127.72,26.73,128.81Z"/><path class="cls-2" d="M27.78,121.54a.07.07,0,0,0,0,.09,10.53,10.53,0,0,0,6.65,2.8h0a.08.08,0,0,0,.08-.07c.34-2.45.63-4.48.91-6.38,0-.26.08-.52.11-.78a.07.07,0,0,0,0-.07l-.06,0a8.14,8.14,0,0,1-2.39-.4,10.83,10.83,0,0,1-4.73-2.84.06.06,0,0,0-.07,0,.07.07,0,0,0-.06,0c-.2.42-.39.83-.59,1.24l-.7,1.46-.75,1.65-.35.77a.11.11,0,0,0,0,.08c.2.36.44.73.69,1.09a.11.11,0,0,0,.08,0s.05,0,.07,0c.31-.71.61-1.32.92-1.89a0,0,0,0,1,0,0,0,0,0,0,1,0,0,21,21,0,0,1-.82,2.22.08.08,0,0,0,0,.08c.22.26.46.53.72.8a.06.06,0,0,0,.07,0,.07.07,0,0,0,.06,0,3,3,0,0,1,.18-.32s0,0,0,0,0,0,0,0A4.27,4.27,0,0,1,27.78,121.54Z"/><path class="cls-2" d="M28.57,113.14a.08.08,0,0,0,0,.09,9.82,9.82,0,0,0,1.95,1.66,9.39,9.39,0,0,0,2.71,1.22,8.29,8.29,0,0,0,1.55.23c.26,0,.53,0,.79.08h0l0,0a.05.05,0,0,0,0-.05l.07-.5a53.48,53.48,0,0,1,1-6,.15.15,0,0,0,0-.07.09.09,0,0,0-.06,0,27.78,27.78,0,0,1-3.41-.87,15.78,15.78,0,0,1-4.44-2.23.09.09,0,0,0-.07,0,.09.09,0,0,0-.06.06,19.94,19.94,0,0,1-1,2.51c-.17.38-.35.77-.51,1.15l-.22.53a.1.1,0,0,0,0,.09,6.79,6.79,0,0,1,.64,1,8.85,8.85,0,0,0,.5.79.08.08,0,0,0,.07,0,.13.13,0,0,0,.07,0,24.08,24.08,0,0,1,1.3-2.48.07.07,0,0,1,.08,0s.05,0,0,.06A23.88,23.88,0,0,1,28.57,113.14Z"/><path class="cls-2" d="M59.11,109.79s0,0,0,.06l1,6.39a.08.08,0,0,0,.08.07c.41,0,.84,0,1.24,0l.7,0c.24,0,.49,0,.73,0a10.15,10.15,0,0,0,2.89-.73,7.89,7.89,0,0,0,2.2-1.35s0-.06,0-.1c-.54-1.09-1.17-2.4-1.77-3.72a0,0,0,0,1,0,0s0,0,0,0c.71,1.29,1.37,2.58,1.87,3.56,0,0,0,0,.06,0a.09.09,0,0,0,.07,0A4.17,4.17,0,0,0,69,113c.06-.11.11-.22.16-.32a1.66,1.66,0,0,1,.26-.47.06.06,0,0,0,0-.09l-2.23-4a.07.07,0,0,0-.1,0,18.91,18.91,0,0,1-3.6,1c-1.4.27-2.84.51-4.3.71A.1.1,0,0,0,59.11,109.79Z"/><path class="cls-2" d="M69.21,119.58l.07.14c.28.52.57,1.06.85,1.6a.07.07,0,0,0,.06,0,.08.08,0,0,0,.07,0,11.37,11.37,0,0,0,.75-.88.08.08,0,0,0,0-.09l-.57-1.2c-.3-.64-.61-1.29-.92-1.93-.2-.39-.39-.77-.58-1.16s-.39-.78-.58-1.17a.07.07,0,0,0-.06,0,.09.09,0,0,0-.07,0,8.56,8.56,0,0,1-2,1.23c-1.68.75-4.11,1.31-5.88.66a.08.08,0,0,0-.08,0,.11.11,0,0,0,0,.08L61.53,125a.07.07,0,0,0,0,.06h.07a12.83,12.83,0,0,1,1.53-.24,9.88,9.88,0,0,0,1.78-.3,12,12,0,0,0,3.26-1.47.09.09,0,0,0,0-.11v0c-.1-.18-.19-.37-.28-.56,0,0,0,0,0,0l.29.54a.07.07,0,0,0,.06,0,.07.07,0,0,0,.06,0c.32-.22.63-.45.92-.69a.09.09,0,0,0,0-.11c-.2-.38-.37-.69-.53-1,0,0,0,0,0,0s0,0,0,0c.2.31.38.62.54.91a.08.08,0,0,0,.06,0,.06.06,0,0,0,.07,0l.5-.47a.09.09,0,0,0,0-.1c-.3-.66-.58-1.34-.83-1.94h0Z"/><path class="cls-2" d="M62.45,130.76a11.44,11.44,0,0,1,.25,1.94.06.06,0,0,0,0,.06.05.05,0,0,0,0,0h0a11,11,0,0,1,1.65-.56,10.71,10.71,0,0,0,1.32-.42,18.68,18.68,0,0,0,3.34-1.74,18.26,18.26,0,0,0,5.47-5.46,2.26,2.26,0,0,0,.36-2.38,12.47,12.47,0,0,0-.73-1.35l-.33-.58c-.17-.29-.33-.59-.5-.89l-.34-.61a.07.07,0,0,0-.14,0,11.85,11.85,0,0,1-1.25,2,.09.09,0,0,0,0,.09c.62,1.23,1,2.18,1.4,3.08,0,0,0,0,0,0a.07.07,0,0,1-.08,0c-.47-.76-.95-1.63-1.5-2.74a.08.08,0,0,0-.07,0,.06.06,0,0,0-.07,0c-.23.28-.49.55-.76.82a.09.09,0,0,0,0,.1,22.34,22.34,0,0,1,.88,2.08,0,0,0,0,1,0,0s0,0,0,0a19.9,19.9,0,0,1-1-1.87.07.07,0,0,0-.06,0,.06.06,0,0,0-.07,0l-.47.41a.08.08,0,0,0,0,.1,10.07,10.07,0,0,1,.45,1.12h0l-.18-.4c-.1-.21-.2-.42-.29-.63,0,0,0,0-.06,0a.06.06,0,0,0-.07,0c-.29.23-.59.45-.88.65,0,0,0,0,0,0a.08.08,0,0,0,0,.07l.21.4v0s0,0,0,0l-.14-.25-.07-.14-.06,0h-.06a12.16,12.16,0,0,1-3.39,1.52,8,8,0,0,1-3.39.36.11.11,0,0,0-.07,0,.08.08,0,0,0,0,.07l.71,4.41C62.37,130.32,62.41,130.54,62.45,130.76Z"/><path class="cls-2" d="M35.83,135.68a14.13,14.13,0,0,0,6.35,3.41,19.91,19.91,0,0,0,5.39.73,21.28,21.28,0,0,0,7.91-1.53,20,20,0,0,0,3-1.52,11.22,11.22,0,0,0,2.85-2.2c.84-1,.6-2.38.38-3.57l-.09-.51-.53-3.35a.13.13,0,0,0,0-.07.08.08,0,0,0-.08,0l-.2.13,0,0c-.51.36-1.07.7-1.65,1a.07.07,0,0,0,0,.08c.22,1.69.39,3,.53,4.23,0,0,0,0,0,0s-.06,0-.07,0c-.23-1.23-.47-2.54-.71-4a.12.12,0,0,0,0-.07.06.06,0,0,0-.07,0c-.36.18-.74.37-1.18.57a.12.12,0,0,0-.05.09c.12.88.21,1.64.29,2.35l0,0s0,0,0,0c-.12-.74-.24-1.49-.35-2.23,0,0,0-.05-.05-.06a.06.06,0,0,0-.07,0c-.5.23-1,.43-1.5.61a22.58,22.58,0,0,1-7.26,1.35A22.27,22.27,0,0,1,41,130.06c-.63-.21-1.28-.46-1.93-.74H39a.07.07,0,0,0,0,.06l-.06.47-.09.86a.05.05,0,0,1,0,0s0,0,0,0a12.93,12.93,0,0,1,.1-1.44.11.11,0,0,0,0-.09l-.64-.3H38a.08.08,0,0,0,0,.06c-.13,1-.26,1.83-.43,2.58,0,0,0,0,0,0s0,0,0,0c.05-.79.15-1.66.31-2.73a.07.07,0,0,0,0-.08l-.15-.08-.15-.08L37,128.3a.11.11,0,0,0-.08,0,.07.07,0,0,0,0,.06c-.2,1.38-.38,2.52-.58,3.59,0,0,0,0-.05,0s0,0,0,0c.09-1.14.22-2.38.4-3.8,0,0,0-.07,0-.08A8.24,8.24,0,0,1,35,127a.06.06,0,0,0-.08,0,.09.09,0,0,0-.06.06c0,.2,0,.41-.08.61,0,.39-.11.78-.16,1.18-.15,1-.3,2-.37,3A4.58,4.58,0,0,0,35.83,135.68Z"/><path class="cls-2" d="M39.07,128.52c.71.3,1.41.57,2.09.79a22.12,22.12,0,0,0,6.77,1.07h.46a21.85,21.85,0,0,0,7-1.34c.55-.2,1.09-.42,1.62-.67a.07.07,0,0,0,0-.08c-.23-1.54-.46-3.11-.68-4.62-.16-1.06-.31-2.11-.47-3.17a.07.07,0,0,0,0-.06h-.07c-.4.14-.77.26-1.13.36a.09.09,0,0,0,0,.1c.16.82.35,1.79.51,2.8a0,0,0,0,1,0,0h0c-.23-1-.43-2-.57-2.79a.07.07,0,0,0,0-.06h-.06l-1,.23a.08.08,0,0,0-.06.09,12.31,12.31,0,0,1,.17,1.47s0,0,0,0,0,0,0,0l-.09-.52c-.05-.31-.1-.62-.16-.93a.05.05,0,0,0,0,0,.07.07,0,0,0-.06,0,22.55,22.55,0,0,1-4.78.37,31,31,0,0,1-6.54-.93,22.54,22.54,0,0,1-3.48-1.15l-.18-.08a.06.06,0,0,0-.07,0,.07.07,0,0,0,0,.06l-.14.91-.27,1.82c-.16,1.09-.31,2.21-.46,3.29l-.27,2s0,.07,0,.08c.23.14.5.31.78.45a.09.09,0,0,0,.07,0,.09.09,0,0,0,.06-.06c0-.27.09-.55.13-.82l.21-1.25s0,0,0,0,0,0,0,0l-.15,1.34c0,.28-.06.57-.1.85a.11.11,0,0,0,0,.09l.66.3a.08.08,0,0,0,.08,0,.07.07,0,0,0,0-.06c.06-.35.13-.73.22-1.19a0,0,0,0,1,0,0s0,0,0,.06c-.07.38-.13.79-.19,1.25A.11.11,0,0,0,39.07,128.52Z"/><path class="cls-2" d="M37.47,109.85a.08.08,0,0,0-.07,0,.09.09,0,0,0,0,.06c-.14,1.87-.47,3.76-.78,5.59-.12.69-.24,1.4-.35,2.09a.09.09,0,0,0,.07.09,8.56,8.56,0,0,1,1.54.67l.09,0a.06.06,0,0,0,.07,0,.12.12,0,0,0,.05-.07c.34-2,.69-4.08,1-6,0,0,0,0,0,0s.06,0,.05.07c-.29,1.86-.6,3.87-.94,6.15a.08.08,0,0,0,0,.09l.55.25a26.1,26.1,0,0,0,3.25,1,30.16,30.16,0,0,0,6.19.88h.8a21.05,21.05,0,0,0,4-.36.05.05,0,0,0,.05,0,.09.09,0,0,0,0-.07c0-.23-.09-.43-.14-.62s0-.06,0-.06a0,0,0,0,1,.06,0c0,.21.11.42.16.63a.08.08,0,0,0,.1.07c.4-.09.71-.16,1-.24a.08.08,0,0,0,.06-.09l-.3-1.67a0,0,0,0,1,0,0,0,0,0,0,1,0,0c.11.55.22,1.11.34,1.66,0,0,0,0,0,.06a.06.06,0,0,0,.06,0q.6-.16,1.2-.39a.09.09,0,0,0,0-.09c-.12-.76-.23-1.52-.35-2.28v0s0,0,0,0l.38,2.24s0,.05,0,.06a.11.11,0,0,0,.08,0c.44-.17.84-.35,1.22-.54l.1-.06a.09.09,0,0,0,0-.08c-.25-2-.48-3.94-.71-5.86l-.09-.76s0,0,0,0,.05,0,.05,0c.28,1.91.57,3.86.86,5.74l.1.65a.06.06,0,0,0,0,.06.11.11,0,0,0,.08,0l.45-.31a5.84,5.84,0,0,1,1.3-.77.11.11,0,0,0,.06-.09l-1.22-7.55a.08.08,0,0,0-.09-.07,81.59,81.59,0,0,1-11,.66A62.85,62.85,0,0,1,37.47,109.85Z"/><path class="cls-2" d="M83.06,103.75l.52.38a5.35,5.35,0,0,0,2.76,1.37,1.61,1.61,0,0,0,.49-.07c1-.35,1.5-1.66,1.79-2.44.38-1,.72-2.06,1.13-3.3s.73-2.32,1.07-3.47a.1.1,0,0,0,0-.1.36.36,0,0,1-.12-.08c-1.7-1.34-3.34-2.84-4.92-4.29-.67-.62-1.37-1.26-2.07-1.88l-.26-.23-3.2-2.87-.75-.64a12.86,12.86,0,0,1-1.8-1.73.09.09,0,0,0-.08,0,.09.09,0,0,0-.06.07l0,.18-.12.46C76.23,89.27,75.14,93,74,96.33a.08.08,0,0,0,0,.08c1.85,1.76,3.75,3.41,5.66,4.9C80.78,102.13,81.9,103,83.06,103.75Z"/><path class="cls-2" d="M81.24,69.79a13.51,13.51,0,0,1,2.52,1.93l.64.57c1.09.93,2.14,1.86,3.38,3s2.31,2.1,3.44,3.15q.41.39.87.78A16.18,16.18,0,0,1,94,81.08a.09.09,0,0,0,.07,0h0a.09.09,0,0,0,.06-.07c.15-1,.28-1.93.39-2.78l0-.44a28.05,28.05,0,0,0,.3-6.41c-.29-2.56-1.7-4.52-3-6.42l-1.1-1.55-3.27-4.59-1.11-1.52c-.82-1.11-1.67-2.27-2.4-3.46a.11.11,0,0,0-.09,0,.1.1,0,0,0-.07.08,90.1,90.1,0,0,1-2.48,15.3l-.12.49A.08.08,0,0,0,81.24,69.79Z"/><path class="cls-2" d="M91,95.3h0a.09.09,0,0,0,.06-.06c.28-1,.49-1.79.68-2.52C92.7,89.16,93.45,85.54,94,82a.07.07,0,0,0,0-.06l-.06,0a.17.17,0,0,1-.1,0,14,14,0,0,1-2.28-2c-.33-.32-.66-.66-1-1-1.09-1-2.21-2-3.31-3l-2.74-2.47-.73-.65c-.22-.21-.46-.41-.7-.61a15.36,15.36,0,0,1-1.88-1.81.08.08,0,0,0-.09,0,.09.09,0,0,0-.06.06c-1.07,4.56-2.2,9.08-3.36,13.45a.1.1,0,0,0,0,.1,10.61,10.61,0,0,1,2.18,1.7c.24.22.46.43.69.62l3.5,3.08,2.17,1.87c1.57,1.34,3.19,2.73,4.68,4.18A.07.07,0,0,0,91,95.3Z"/><path class="cls-2" d="M6.65,102.13c0,.19.1.38.16.58a6.48,6.48,0,0,0,1.34,3,2,2,0,0,0,1.42.65,3.26,3.26,0,0,0,1.93-.86c3.64-2.88,7.41-6.09,11.53-9.81a.08.08,0,0,0,0-.08l-.25-.89c-.17-.58-.34-1.16-.5-1.74-.79-2.72-1.54-5.42-2.23-8-.24-.88-.47-1.77-.7-2.66l0,0s0,0-.06-.06a.07.07,0,0,0-.08,0,26.49,26.49,0,0,1-2.35,2.39c-.34.31-.69.64-1,1-1.34,1.31-2.57,2.49-3.75,3.61s-2.61,2.46-3.92,3.66l-.39.36c-.54.49-1.1,1-1.66,1.49l0,0A6,6,0,0,1,5,95.55a.08.08,0,0,0,0,.1C5.5,97.87,6.07,100.05,6.65,102.13Z"/><path class="cls-2" d="M1.26,75.93c.17,1.26.35,2.52.54,3.73,0,.17.05.35.08.52s.05.34.08.52c0,0,0,0,.06.06H2a.07.07,0,0,0,.06,0l.58-.56L3,79.84,4.93,78c1-1,2-2,3-2.92l.8-.78,3.8-3.68,1.9-1.85.3-.3a3.65,3.65,0,0,1,1.09-.88.09.09,0,0,0,0-.1,88.22,88.22,0,0,1-2-14.24.08.08,0,0,0-.06-.08.08.08,0,0,0-.09,0c-.82,1-1.71,2.07-2.57,3.06-.62.72-1.26,1.46-1.87,2.2C7.18,61,5.53,63.14,4.06,65.28l-.6.85C2.26,67.81.9,69.72.83,71.76a16.88,16.88,0,0,0,.28,3.16C1.17,75.26,1.22,75.6,1.26,75.93Z"/><path class="cls-2" d="M15.27,69l-.3.28-2.46,2.38L9.27,74.83l-1.1,1.06L5.45,78.51,3.54,80.34l-.36.36a6.85,6.85,0,0,1-1,.91.09.09,0,0,0,0,.09c.73,4.42,1.62,8.85,2.65,13.17,0,0,0,.06.06.06h0a.07.07,0,0,0,.06,0,9.37,9.37,0,0,1,.71-.7L6,93.82l1.73-1.61,3.79-3.57c1.31-1.26,2.61-2.51,3.85-3.73.37-.37.75-.76,1.11-1.14a22.35,22.35,0,0,1,2.56-2.41.14.14,0,0,0,0-.09C18,77.13,17.06,73,16.18,69l-.12-.53s0,0-.06-.06a.07.07,0,0,0-.08,0A5.62,5.62,0,0,1,15.27,69Z"/><path class="cls-2" d="M62.45,10.13a66.46,66.46,0,0,0-5-4.44,26.52,26.52,0,0,0-6.23-4.07C47.43.05,43.29,1.28,39,5.27a83.65,83.65,0,0,0-9.12,10.26,99.76,99.76,0,0,0-7.33,10.76l-1.06,1.82a.08.08,0,0,0,0,.1.05.05,0,0,0,.05,0l0,0a28.66,28.66,0,0,1,3.08-1.7l.14-.07a39.72,39.72,0,0,1,6-2.35A66.87,66.87,0,0,1,54,21.38a64.11,64.11,0,0,1,11.4,1.71c2,.47,3.88,1.05,5.74,1.7,1.13.4,2.29.81,3.42,1.3a.12.12,0,0,0,.1,0,.12.12,0,0,0,0-.1c-1.16-1.93-2.36-3.78-3.58-5.5A76.43,76.43,0,0,0,62.45,10.13Z"/><path class="cls-4" d="M15.5,60.92c.82,5.13,2,10.21,3.24,15.26s2.61,10.33,4.08,15.45c.48,1.67,1,3.35,1.47,5,1.23.76,2.4,1.63,3.69,2.31a30.64,30.64,0,0,0,5.27,2.18c6.44,2,13.43,2.36,20.13,2a45.41,45.41,0,0,0,10.1-1.57,31.49,31.49,0,0,0,9.15-4.42.31.31,0,0,1,.2-.07c.6-1.81,1.18-3.64,1.72-5.46,1.47-4.93,2.75-9.93,4-14.92,2.45-9.89,5.37-20.18,4.15-30.47A42,42,0,0,0,78,32c-.78-1.53-1.61-3.05-2.47-4.54C73.74,26.8,72,26,70.24,25.42A60,60,0,0,0,64,23.68,64.44,64.44,0,0,0,41,22.77,62.6,62.6,0,0,0,29.9,25.29a41,41,0,0,0-5.19,2.13c-1.45.73-2.77,1.74-4.2,2.51-2.36,4.18-4.44,8.42-5.27,13.27A54.33,54.33,0,0,0,15.5,60.92ZM59.3,84.15a13.3,13.3,0,0,1-15.77,3.5,13,13,0,0,1-7.19-11.13,13.06,13.06,0,0,1,24-8.13A13.4,13.4,0,0,1,59.3,84.15ZM45.07,32.21a13.24,13.24,0,0,1,14.77,5.43,13.43,13.43,0,0,1-1,15.77A13.3,13.3,0,0,1,43,56.91a13,13,0,0,1-7.2-11.13A13.21,13.21,0,0,1,45.07,32.21Z"/><path class="cls-2" d="M36.67,46.49v0a12,12,0,0,0,1.73,5.32A12.15,12.15,0,0,0,45.32,57a11.73,11.73,0,0,0,3.21.45,12.62,12.62,0,0,0,9.26-21.15A12.46,12.46,0,0,0,43.26,33.8a12.66,12.66,0,0,0-6.59,12.63Zm3.59-7.05A10.25,10.25,0,0,1,48.71,35a9.46,9.46,0,0,1,2.53.34,10,10,0,0,1,5.19,3.57A10.26,10.26,0,0,1,58,41.77a6.63,6.63,0,0,1,.29,1,10,10,0,0,1-17.55,8.39A10.2,10.2,0,0,1,40.26,39.44Z"/><path class="cls-3" d="M48.36,54.15h.16a9.37,9.37,0,0,0,5.94-2.23A9,9,0,0,0,57.21,48a9.38,9.38,0,0,0-3.12-10.32,9.25,9.25,0,0,0-14.32,10A9.38,9.38,0,0,0,48.36,54.15Z"/><path class="cls-2" d="M43.76,64.54a12.68,12.68,0,0,0-6.59,12.63v.09a12,12,0,0,0,1.73,5.32,12.21,12.21,0,0,0,6.92,5.19,11.78,11.78,0,0,0,3.21.44,12.62,12.62,0,0,0,9.26-21.15A12.46,12.46,0,0,0,43.76,64.54Zm8.93,20.53a10,10,0,1,1-3.31-19.33,9.46,9.46,0,0,1,2.53.34,10.06,10.06,0,0,1,5.19,3.57,10.18,10.18,0,0,1,1.57,2.87,8.46,8.46,0,0,1,.29,1A10.21,10.21,0,0,1,52.69,85.07Z"/><path class="cls-3" d="M54.76,68.41a9.26,9.26,0,0,0-14.33,10A9.41,9.41,0,0,0,49,84.89h.16a9.36,9.36,0,0,0,5.93-2.22,9,9,0,0,0,2.76-3.94A9.4,9.4,0,0,0,54.76,68.41Z"/><path class="cls-5" d="M60.54,136.39a5,5,0,0,0,2.1-2.52,2.73,2.73,0,0,0,.1-.48,6.89,6.89,0,0,0,2.53-.56,19,19,0,0,0,2.82-1.22,20.09,20.09,0,0,0,5.09-3.88,19.33,19.33,0,0,0,1.92-2.41,3.54,3.54,0,0,0,.85-2.79,14,14,0,0,0-1.64-3.25c-.68-1.25-1.37-2.49-2.06-3.74l-4.31-7.81a7.66,7.66,0,0,0,1.43-1c1.79-1.55,2.5-4,3.28-6.15.39-1.08.77-2.16,1.13-3.24q2.49,2.35,5.18,4.47c1,.74,1.92,1.47,2.9,2.17a22.06,22.06,0,0,0,3.15,2c2,.92,3.41-.33,4.18-2.09a57,57,0,0,0,2.41-7.21A113.41,113.41,0,0,0,95,81.2c.69-4.61,1.84-10-.73-14.21-1.56-2.55-3.48-4.93-5.23-7.37l-2.79-3.84a37.33,37.33,0,0,0-2.35-3.08,38.64,38.64,0,0,0-2.15-14.54,85.73,85.73,0,0,0-5-10.57A73.63,73.63,0,0,0,62.28,8.65c2.08,4.37,4.45,8.61,6.41,13a54.2,54.2,0,0,1,2.94,8.08,56.46,56.46,0,0,1,1.52,9.5c1.19,13.32-.79,26.6-3.5,39.62C68,87,67.1,95.48,63.47,103a18,18,0,0,1-3,4.58,8.22,8.22,0,0,1-2,1.62,15.9,15.9,0,0,1-3,1c-2.61.83-1.63,3.77-1,5.66a17,17,0,0,1,.84,5.8,33.86,33.86,0,0,1-2.67,13A21.41,21.41,0,0,1,49,140.57a22,22,0,0,0,5.23-1A21.14,21.14,0,0,0,60.54,136.39Z"/><path class="cls-6" d="M.81,78.61Q2,86.94,4,95.14q1,4.1,2.13,8.14c.5,1.76,1.48,4.1,3.7,3.94,1.29-.09,2.35-1.18,3.29-1.94q1.8-1.45,3.57-2.94c2.23-1.86,4.43-3.78,6.6-5.72.39,1.35.82,2.7,1.3,4a13,13,0,0,0,3.54,5.48h0a35.82,35.82,0,0,0-1.84,4.28L24.36,115c-.64,1.52-1.29,3-1.91,4.56a5.74,5.74,0,0,0-.36,4.07,13,13,0,0,0,4.45,6.09c1.92,1.52,4.4,3,6.93,2.92a4.74,4.74,0,0,0,.92,2.59,12.48,12.48,0,0,0,5.85,4.08c.55.2,1.11.39,1.67.54a19.74,19.74,0,0,1-2.76-8.79c-.32-4.51.53-9,1.09-13.47a23.89,23.89,0,0,0,.16-7.5,14.82,14.82,0,0,0-3.09-6.91c-.85-1-1.9-1.8-2.79-2.77a23.16,23.16,0,0,1-2.34-3,30.1,30.1,0,0,1-3.32-6.79,86.93,86.93,0,0,1-3.5-16.37A119.11,119.11,0,0,1,24.12,55a94,94,0,0,1,7-34.49,67.14,67.14,0,0,1,7.5-13.52A41.72,41.72,0,0,1,44.07.75C40,2.39,36.8,6,33.92,9.21A107.7,107.7,0,0,0,20.65,27.67c-.88,1.46-1.69,3-2.42,4.5-.11.2-.22.41-.32.62a34.29,34.29,0,0,0-3.27,8.94,46.56,46.56,0,0,0-.91,10.33c-1.81,1.8-3.42,3.85-5,5.81S5.4,62,3.88,64.11c-.77,1.09-1.53,2.21-2.24,3.35A10.24,10.24,0,0,0,.11,70.72a12.3,12.3,0,0,0,.16,3.92C.44,76,.62,77.29.81,78.61Z"/><path class="cls-7" d="M55,49.66c-2.2,3.07-6.06,4.18-9.68,3.91-.42,0-.43.55-.1.68,3.94,1.54,8.61-.42,11-3.73a10.07,10.07,0,0,0,1.88-6c0-2-.59-4.57-2.08-6-.27-.26-.83,0-.67.39a25.15,25.15,0,0,1,1,2.53A10.07,10.07,0,0,1,55,49.66Z"/><path class="cls-7" d="M36.71,41.23a14.9,14.9,0,0,0,.93,10.42c.16.35.75.11.62-.26-2-5.38-1.21-11.82,3.4-15.61a10.67,10.67,0,0,1,7.39-2.5,12.16,12.16,0,0,1,7.78,3.2,12.78,12.78,0,0,1,3.35,12.14c-.12.42.5.58.65.18a10.58,10.58,0,0,0,.54-4.66.42.42,0,0,0,.25-.34,8.48,8.48,0,0,0-1-4.07,14.21,14.21,0,0,0-2.38-3.61,13.06,13.06,0,0,0-8.11-4C44,31.29,38.43,35.44,36.71,41.23Z"/><path class="cls-7" d="M56.7,81.26a10.11,10.11,0,0,0,1.87-6c0-2-.59-4.57-2.08-6-.27-.26-.82,0-.67.39.32.86.78,1.64,1,2.53A10.25,10.25,0,0,1,57.18,75a9.65,9.65,0,0,1-1.72,5.41c-2.2,3.07-6.06,4.18-9.68,3.91-.42,0-.43.55-.1.68C49.62,86.53,54.3,84.57,56.7,81.26Z"/><path class="cls-7" d="M42.16,66.52A10.61,10.61,0,0,1,49.55,64a12.15,12.15,0,0,1,7.78,3.19,12.78,12.78,0,0,1,3.35,12.14c-.12.42.51.58.65.18a10.7,10.7,0,0,0,.55-4.66.43.43,0,0,0,.24-.34,8.41,8.41,0,0,0-1-4.06,14.27,14.27,0,0,0-2.38-3.62,13,13,0,0,0-8.11-4C44.48,62,38.93,66.18,37.21,72a14.92,14.92,0,0,0,.93,10.43c.16.34.75.1.62-.27C36.8,76.75,37.55,70.31,42.16,66.52Z"/><path class="cls-7" d="M92,63.81c-1.29-1.8-2.64-3.56-4-5.33-.67-.89-1.32-1.79-2-2.67s-1.24-1.8-2.28-2.1a.4.4,0,0,0-.5.38,4.56,4.56,0,0,0,1.18,2.55c.63.88,1.29,1.75,1.93,2.62,1.26,1.71,2.51,3.42,3.79,5.11a44.93,44.93,0,0,1,3.18,4.57,12.89,12.89,0,0,1,1.25,2.59,20,20,0,0,1,.52,2.67.38.38,0,0,0,.73,0A9.58,9.58,0,0,0,95,68.84,24.87,24.87,0,0,0,92,63.81Z"/><path class="cls-7" d="M41.92,103.8a12.82,12.82,0,0,0,.57,3,8.63,8.63,0,0,0,.82,3c.18.26.73.3.79-.11a8.21,8.21,0,0,0-.56-3,14.34,14.34,0,0,0-.9-3.12A.39.39,0,0,0,41.92,103.8Z"/><path class="cls-7" d="M36.77,112c-.26,1.61-.51,3.21-.73,4.82h0a13.73,13.73,0,0,0-.52,3.55l-.08,1c-.21,1.58-.4,3.17-.59,4.75-.47,3.8-1.64,8.73,2.1,11.34a.39.39,0,0,0,.56-.3,9.86,9.86,0,0,0,3.6,1.89c.37.11.63-.47.27-.64a11.41,11.41,0,0,1-4.13-3.07,7.45,7.45,0,0,1-1.3-5.41c.07-1,.16-2,.24-2.92A11.5,11.5,0,0,0,40,129.33a14.08,14.08,0,0,0,4,1.43.37.37,0,0,0,.33-.1,10.08,10.08,0,0,0,2.23.32.37.37,0,0,0,.1-.72,27.25,27.25,0,0,1-6-1.88,22.37,22.37,0,0,1-4.42-3.1c0-.6.1-1.2.16-1.8.09-1.15.19-2.29.29-3.44a19.07,19.07,0,0,0,.12-2.25,13.73,13.73,0,0,0,3.47,1.87,16.44,16.44,0,0,0,4.84,1.53c.43,0,.49-.61.1-.73-1.5-.46-3-1-4.45-1.55A27.55,27.55,0,0,1,37,116.83c.17-1.58.32-3.16.44-4.74C37.48,111.7,36.84,111.61,36.77,112Z"/><path class="cls-7" d="M1.6,79.54l.06.46a.48.48,0,0,0,.09.57c.48,3.21,1,6.41,1.67,9.6.78,4,1.52,8,2.63,12a.29.29,0,0,0,.26.24c.16.77.33,1.53.5,2.3.11.51.84.28.77-.21-.49-3.42-1-6.83-1.6-10.23.32-.25.62-.53.91-.76.87-.67,1.71-1.38,2.55-2.09A36.33,36.33,0,0,0,14.11,87c.26-.3-.08-.86-.46-.59-1.72,1.18-3.26,2.6-4.85,3.94l-2.41,2c-.19.16-.42.33-.65.5-.54-3.22-1.09-6.44-1.63-9.65-.2-1.18-.39-2.37-.56-3.56l1.11-1Q6,77.54,7.3,76.38c1.72-1.48,3.45-2.95,5-4.58.3-.31-.1-.89-.47-.62-1.79,1.29-3.44,2.75-5.1,4.19-.83.73-1.67,1.45-2.5,2.19l-.88.75A44.53,44.53,0,0,1,3,72.66,8.35,8.35,0,0,1,4.47,68c.9-1.39,1.91-2.72,2.89-4,2.28-3.11,4.66-6.1,7.17-9l0,.48c.12,1.57.45,3.07.66,4.62.42,3.12.87,6.24,1.45,9.34a.27.27,0,0,0,.08.16,103.66,103.66,0,0,0,2.68,12.2c.32,1.26.66,2.52,1,3.78a55,55,0,0,0,2.37,6.93c.37.85.11,1.69.5,2.55-.32-.11-.43.41-.31.72a3.5,3.5,0,0,0,1.05,1.47,1.47,1.47,0,0,1,.43.43,1.35,1.35,0,0,1,.11.57c.18,3.09,1.95,5.85,3.93,8.23A39.32,39.32,0,0,0,26,111.32a44,44,0,0,0-3,8.3,10.17,10.17,0,0,0-.1,5.25A6.24,6.24,0,0,0,25,128l.13.08c.18,0,.35-.14.35-.32a.93.93,0,0,0-.21-.5,9.37,9.37,0,0,1-.29-9.45,9.22,9.22,0,0,0,2.86,4.52c.17.15.39.29.59.2.36-.16.09-.71-.19-1a9.42,9.42,0,0,1-2.39-4,3.39,3.39,0,0,1-.17-1.48,4.74,4.74,0,0,1,.32-.94l1.4-3.26A8.48,8.48,0,0,0,29.68,115c.23.2.62.37.78.12s-.08-.51-.28-.68a8.15,8.15,0,0,1-2-2.7,1.71,1.71,0,0,1-.22-.75,2,2,0,0,1,.24-.86l1.32-3a5.27,5.27,0,0,0,1,.4,3.77,3.77,0,0,0,1.4.45.34.34,0,0,0,.33-.19l.18.47c.12.3.35.65.67.59a.45.45,0,0,0,.34-.38.36.36,0,0,0,.24-.45q-.8-3.13-1.55-6.27a.29.29,0,0,0-.39-.23l-.12-.3a42,42,0,0,0,4.65,1.5,19.86,19.86,0,0,0,1.17,6c.15.4.54.9.92.68h0a.37.37,0,0,0,.64-.31,58.81,58.81,0,0,0-1.58-6,.32.32,0,0,0-.47-.21l-.09-.33,2.13.65c.27.08.65.09.71-.17s-.22-.39-.43-.47C34.59,100.73,28.55,99.24,25.4,95a27.85,27.85,0,0,1-3.6-8.11,120.6,120.6,0,0,1-4.29-18.79c-.38-2.66-.66-5.34-.87-8,0-.24,0-.48-.05-.72-.05-2.1,0-4.2,0-6.29a46.91,46.91,0,0,1,2.15-15.7,17,17,0,0,1,5.78-8.67,13.71,13.71,0,0,1,1.47-1l.86-.6a20.39,20.39,0,0,1,5.56-2.69.38.38,0,0,0-.36-.55,6.45,6.45,0,0,0-.73.11c2.14-.59,4.28-1.15,6.46-1.53a36.8,36.8,0,0,1,4.33-.51c1.48-.08,3,.14,4.45,0a.37.37,0,0,0,.1-.72A12.39,12.39,0,0,0,43.19,21a34.12,34.12,0,0,0-3.5.26A79.35,79.35,0,0,0,31.35,23a8.84,8.84,0,0,1-2.65.56c-1.3-.14-1.07-1.58-.65-2.55,1.31-3,3.55-5.55,5.7-8,1.7-2,3.58-3.71,5.34-5.58,2.79-3,6-5.45,10.25-5.39a13.39,13.39,0,0,1,4.27,1A.43.43,0,0,0,54,2.26C52.14.68,49.37.5,46.92,1a.59.59,0,0,0-.7-.75A12.19,12.19,0,0,0,43,1.94c-1,.68-2.11,1.29-3.1,2a40.73,40.73,0,0,0-5.39,5,99.84,99.84,0,0,0-9.27,11.74,70.1,70.1,0,0,0-7.9,14,45,45,0,0,0-2.95,16c0,.78,0,1.55,0,2.33A1,1,0,0,0,14,53a.54.54,0,0,0-.65-.07,7.58,7.58,0,0,0-1.68,1.8L9.84,57.05c-1.06,1.36-2.14,2.69-3.18,4.07-1.16,1.54-2.34,3.08-3.54,4.6a12,12,0,0,0-2.24,3.6,12,12,0,0,0,0,5.06C1.11,76.1,1.35,77.82,1.6,79.54Zm29.13,21.31A23.78,23.78,0,0,0,32,107.14c-.73-.56-1.56-1-2.24-1.59a9.82,9.82,0,0,1-1.92-2.48,19.46,19.46,0,0,1-1.72-4.43A36.56,36.56,0,0,0,30.73,100.85Z"/><path class="cls-7" d="M29.36,22.61a.55.55,0,0,0,0-1.09A.55.55,0,0,0,29.36,22.61Z"/><path class="cls-7" d="M30.34,20.53a.52.52,0,0,0,.09-.32.39.39,0,0,0-.25-.37.41.41,0,0,0-.45.08.45.45,0,0,0-.1.4.41.41,0,0,0,.39.3A.52.52,0,0,0,30.34,20.53Z"/><path class="cls-7" d="M30.56,21.8a.33.33,0,0,0,.32.32.32.32,0,0,0,.32-.32.32.32,0,0,0-.32-.32A.32.32,0,0,0,30.56,21.8Z"/><path class="cls-7" d="M31.9,22a.48.48,0,0,0,.52.1.46.46,0,0,0,.29-.43.5.5,0,0,0-.23-.41.48.48,0,0,0-.58.07l0,0a.46.46,0,0,0,0,.64Z"/><path class="cls-7" d="M32.18,17.51a.47.47,0,1,0-.65-.64c0,.06-.05.12-.08.19a.44.44,0,0,0,.54.53A.77.77,0,0,0,32.18,17.51Z"/><path class="cls-7" d="M33,16.07A.55.55,0,0,0,33,15,.55.55,0,0,0,33,16.07Z"/><path class="cls-7" d="M33.33,17.14a.27.27,0,0,0,.25-.34l0-.09a.24.24,0,0,0-.45,0l0,.09A.27.27,0,0,0,33.33,17.14Z"/><path class="cls-7" d="M34.31,21.08a.61.61,0,0,0,0,.19.22.22,0,0,0,.44,0,.65.65,0,0,0,0-.19A.22.22,0,0,0,34.31,21.08Z"/><path class="cls-7" d="M43.11,5.44a.57.57,0,0,0-.38-.05.47.47,0,0,0-.3.3.43.43,0,0,0,.15.45.43.43,0,0,0,.68-.45A.41.41,0,0,0,43.11,5.44Z"/><path class="cls-7" d="M43.38,5.07a.34.34,0,0,0,.43-.32.35.35,0,0,0-.43-.33l-.09,0a.31.31,0,0,0-.21.29.3.3,0,0,0,.21.28Z"/><path class="cls-7" d="M21.49,33.36a1,1,0,0,0-.25.6.88.88,0,0,0,.25.6.9.9,0,0,0,.6.25.88.88,0,0,0,.6-.25.86.86,0,0,0,.25-.6.9.9,0,0,0-.25-.6.87.87,0,0,0-1.2,0Z"/><path class="cls-7" d="M22.67,31.43a.42.42,0,0,0,0,.83A.42.42,0,0,0,22.67,31.43Z"/><path class="cls-7" d="M24.07,32.31a.33.33,0,0,0,0-.66A.33.33,0,0,0,24.07,32.31Z"/><path class="cls-7" d="M24.07,30.69a.3.3,0,0,0,0-.6A.3.3,0,0,0,24.07,30.69Z"/><path class="cls-7" d="M20.22,36.37l0,0a.28.28,0,0,0,.09.1.31.31,0,0,0,.16.06h0a.31.31,0,0,0,.16-.06.28.28,0,0,0,.09-.1v0C21.22,35.78,19.78,35.78,20.22,36.37Z"/><path class="cls-7" d="M19.65,38.09a.32.32,0,0,0-.18.1.71.71,0,0,0-.1.14.25.25,0,0,0,.33.34l.15-.1a.64.64,0,0,0,.1-.18A.24.24,0,0,0,19.65,38.09Z"/><path class="cls-7" d="M17.4,52.05a.65.65,0,0,0,.64.64.64.64,0,0,0,.64-.64.64.64,0,0,0-.64-.64A.66.66,0,0,0,17.4,52.05Z"/><path class="cls-7" d="M18,49.84a.38.38,0,0,0,0,.76A.38.38,0,0,0,18,49.84Z"/><path class="cls-7" d="M26.88,93.32a.66.66,0,0,0-1.27.33.71.71,0,0,0,.18.3.64.64,0,0,0,.46.19A.66.66,0,0,0,26.88,93.32Z"/><path class="cls-7" d="M25.13,93a.28.28,0,0,0,0-.56A.28.28,0,0,0,25.13,93Z"/><path class="cls-7" d="M24.34,91.85a.3.3,0,0,0,.28-.38c0-.13-.12-.26-.28-.26a.32.32,0,0,0-.29.26A.3.3,0,0,0,24.34,91.85Z"/><path class="cls-7" d="M26.89,95.28a.39.39,0,0,0,.38-.38.39.39,0,0,0-.38-.38.38.38,0,0,0,0,.76Z"/><path class="cls-7" d="M28,94.18l0,0a.35.35,0,1,0-.61,0l0,0A.33.33,0,0,0,28,94.18Z"/><path class="cls-7" d="M27.77,96.59a.46.46,0,1,0-.45-.46A.47.47,0,0,0,27.77,96.59Z"/><path class="cls-7" d="M29.61,97a.32.32,0,1,0,0,.56l0,0a.29.29,0,0,0,0-.5Z"/><path class="cls-7" d="M36.64,101.06a.45.45,0,1,0-.44-.44A.45.45,0,0,0,36.64,101.06Z"/><path class="cls-7" d="M35.89,99.17a.19.19,0,0,0-.21,0,.24.24,0,0,0-.07.17v0h0a.22.22,0,0,0,.07.17.19.19,0,0,0,.21,0h0a.23.23,0,0,0,0-.43Z"/><path class="cls-7" d="M37.47,100.14a.22.22,0,0,0,0-.43A.22.22,0,0,0,37.47,100.14Z"/><path class="cls-7" d="M11.61,61.86a.53.53,0,0,0,.53-.53.53.53,0,1,0-.53.53Z"/><path class="cls-7" d="M11.82,60.12a.35.35,0,0,1,0-.08.39.39,0,0,0-.06-.46.38.38,0,0,0-.46-.06l-.08,0a.4.4,0,0,0-.08.63A.41.41,0,0,0,11.82,60.12Z"/><path class="cls-7" d="M12.62,59.28a.29.29,0,0,0,0,.57A.29.29,0,0,0,12.62,59.28Z"/><path class="cls-7" d="M12.88,57.94a.3.3,0,0,0,0,.6A.3.3,0,0,0,12.88,57.94Z"/><path class="cls-7" d="M10.33,61.27a.41.41,0,0,0-.41.41.43.43,0,0,0,.41.41h.05a.41.41,0,1,0,0-.81Z"/><path class="cls-7" d="M9,63a.24.24,0,0,0,0,.46.26.26,0,0,0,.21,0,.23.23,0,0,0,0-.43A.31.31,0,0,0,9,63Z"/><path class="cls-7" d="M6.3,91.43a.47.47,0,1,0,0-.82.57.57,0,0,0-.2.21.38.38,0,0,0,0,.41A.55.55,0,0,0,6.3,91.43Z"/><path class="cls-7" d="M6,90.3a.33.33,0,0,0,0-.66A.33.33,0,0,0,6,90.3Z"/><path class="cls-7" d="M7.59,90.35a.3.3,0,0,0,0-.59A.3.3,0,0,0,7.59,90.35Z"/><path class="cls-7" d="M8.65,89.83a.22.22,0,0,0,0-.44A.22.22,0,0,0,8.65,89.83Z"/><path class="cls-7" d="M5.94,88.56v-.09a.2.2,0,0,0-.39,0v.09C5.52,88.81,6,88.81,5.94,88.56Z"/><path class="cls-7" d="M8.05,98.83a.43.43,0,0,0,0-.45.45.45,0,0,0-.5-.21h0a.22.22,0,0,0-.11,0,.36.36,0,0,0-.2.25.53.53,0,0,0,0,.25A.45.45,0,0,0,8.05,98.83Z"/><path class="cls-7" d="M7.61,97.2l-.05-.06a.28.28,0,0,0-.47,0l0,.06a.32.32,0,1,0,.56,0Z"/><path class="cls-7" d="M8.39,97.84a.21.21,0,0,0,0-.41A.21.21,0,0,0,8.39,97.84Z"/><path class="cls-7" d="M28.07,102.22a.5.5,0,0,0,.63.48l.05,0a.49.49,0,0,0,.36-.46.51.51,0,0,0-.36-.47l-.05,0A.5.5,0,0,0,28.07,102.22Z"/><path class="cls-7" d="M28.22,101.34v0a.39.39,0,0,0-.1-.37.37.37,0,0,0-.27-.11.4.4,0,0,0-.27.11.38.38,0,0,0-.09.37v0a.36.36,0,0,0,.35.28A.38.38,0,0,0,28.22,101.34Z"/><path class="cls-7" d="M29,101.45h.09c.26,0,.26-.43,0-.41H29A.2.2,0,0,0,29,101.45Z"/><path class="cls-7" d="M33.86,105.63a.42.42,0,0,0,0-.84A.42.42,0,0,0,33.86,105.63Z"/><path class="cls-7" d="M33.73,104.23a.2.2,0,0,0,.06-.11.29.29,0,0,0-.08-.33s0,0,0,0l0,0h0a.25.25,0,0,0-.24,0h0l0,0,0,0a.31.31,0,0,0-.08.33.21.21,0,0,0,.07.11A.28.28,0,0,0,33.73,104.23Z"/><path class="cls-7" d="M39.1,105.85h0a.48.48,0,0,0,.41-.27A.45.45,0,0,0,39,105a.46.46,0,0,0-.32.43v0A.41.41,0,0,0,39.1,105.85Z"/><path class="cls-7" d="M38.94,104.52l.06-.07a.36.36,0,0,0-.06-.44.35.35,0,0,0-.44-.06l-.08,0a.39.39,0,0,0-.08.6.4.4,0,0,0,.27.11A.36.36,0,0,0,38.94,104.52Z"/><path class="cls-7" d="M39.85,104.56a.23.23,0,0,0,0-.46A.23.23,0,0,0,39.85,104.56Z"/><path class="cls-7" d="M39.32,107.25a.28.28,0,0,0,0-.55A.28.28,0,0,0,39.32,107.25Z"/><path class="cls-7" d="M44.17,105.79a.35.35,0,1,0,.69-.14.35.35,0,0,0-.69.14Z"/><path class="cls-7" d="M43.78,105.09l.1-.08c.2-.18-.12-.51-.3-.3l-.09.09A.21.21,0,0,0,43.78,105.09Z"/><path class="cls-7" d="M44.43,105a.18.18,0,0,0,0-.36A.18.18,0,0,0,44.43,105Z"/><path class="cls-7" d="M51.26,105.3a.4.4,0,1,0-.79,0,.4.4,0,0,0,.79,0Z"/><path class="cls-7" d="M50.91,106a.28.28,0,0,0-.41.24.27.27,0,0,0,.41.23l.07,0a.23.23,0,0,0,0-.4Z"/><path class="cls-7" d="M52.07,105.76l0-.08a.22.22,0,0,0-.42,0s0,.06,0,.08.09.31.23.31A.25.25,0,0,0,52.07,105.76Z"/><path class="cls-7" d="M40.09,117.15a.42.42,0,1,0,.42-.42A.42.42,0,0,0,40.09,117.15Z"/><path class="cls-7" d="M41.43,118.56a.43.43,0,0,0,0-.86A.43.43,0,0,0,41.43,118.56Z"/><path class="cls-7" d="M40.91,127.43a.42.42,0,0,0,0-.83A.42.42,0,0,0,40.91,127.43Z"/><path class="cls-7" d="M41.87,127.57a.38.38,0,0,0-.38.38.39.39,0,1,0,.38-.38Z"/><path class="cls-7" d="M42.23,126.4a.32.32,0,0,0,0,.63A.32.32,0,0,0,42.23,126.4Z"/><path class="cls-7" d="M30.78,112.43a.42.42,0,0,0-.69.18v0a.4.4,0,0,0,.49.49h0A.42.42,0,0,0,30.78,112.43Z"/><path class="cls-7" d="M29.54,113a.27.27,0,0,0,0-.53A.27.27,0,0,0,29.54,113Z"/><path class="cls-7" d="M29.45,108.86a.32.32,0,0,0,0,.63A.32.32,0,0,0,29.45,108.86Z"/><path class="cls-7" d="M27.28,118a.41.41,0,0,0,.41.4.4.4,0,0,0,.4-.4.41.41,0,0,0-.81,0Z"/><path class="cls-7" d="M28,117.18a.34.34,0,0,0,0-.28.25.25,0,0,0-.43,0,.34.34,0,0,0,0,.28A.27.27,0,0,0,28,117.18Z"/><path class="cls-7" d="M29,117.76l0-.09c0-.2-.37-.2-.39,0l0,.09a.22.22,0,1,0,.43,0Z"/><path class="cls-7" d="M25.31,125.45a.38.38,0,0,0,0-.76A.38.38,0,0,0,25.31,125.45Z"/><path class="cls-7" d="M25.17,124.1a.33.33,0,0,0-.32-.32.34.34,0,0,0-.32.32.33.33,0,0,0,.32.32A.32.32,0,0,0,25.17,124.1Z"/><path class="cls-7" d="M38.35,135a.44.44,0,0,0,0-.88A.44.44,0,0,0,38.35,135Z"/><path class="cls-7" d="M37.56,132.68a.47.47,0,0,0-.46.46.76.76,0,0,0,0,.21.45.45,0,0,0,.43.33.44.44,0,0,0,.42-.33.51.51,0,0,0,0-.21A.47.47,0,0,0,37.56,132.68Z"/><path class="cls-7" d="M39.07,133.84a.22.22,0,0,0,0-.41.29.29,0,0,0-.31,0,.23.23,0,0,0,0,.39A.34.34,0,0,0,39.07,133.84Z"/><path class="cls-7" d="M39.54,136.25a.24.24,0,0,0,0-.48A.24.24,0,0,0,39.54,136.25Z"/><path class="cls-7" d="M93,72.57a.76.76,0,0,0,0-1.52A.76.76,0,0,0,93,72.57Z"/><path class="cls-7" d="M91.86,69.66a.42.42,0,0,0,0,.83.43.43,0,0,0,.42-.42A.42.42,0,0,0,91.86,69.66Z"/><path class="cls-7" d="M91.14,68a.37.37,0,0,0,0,.73A.37.37,0,0,0,91.14,68Z"/><path class="cls-7" d="M93.51,74.39a.17.17,0,0,0-.05-.2v0a.23.23,0,0,0-.39,0v0a.19.19,0,0,0-.06.2c0,.14.14.18.26.16S93.51,74.53,93.51,74.39Z"/><path class="cls-7" d="M93.08,69.72a.24.24,0,0,0,0,.48A.24.24,0,0,0,93.08,69.72Z"/><path class="cls-7" d="M93.72,76.19a.45.45,0,0,0,0-.2.21.21,0,0,0-.4,0,.34.34,0,0,0,0,.2A.22.22,0,0,0,93.72,76.19Z"/><path class="cls-7" d="M89.71,83.71a.49.49,0,0,0,.84.34l0,0a.45.45,0,0,0,0-.63l0,0A.5.5,0,0,0,89.71,83.71Z"/><path class="cls-7" d="M89.52,82.07a.37.37,0,0,0,.08.57.35.35,0,0,0,.37,0,.27.27,0,0,0,.13-.13.37.37,0,0,0-.58-.44Z"/><path class="cls-7" d="M91.49,83.89a.27.27,0,0,0,0-.53A.27.27,0,0,0,91.49,83.89Z"/><path class="cls-7" d="M33.15,20.61a.36.36,0,0,0-.35-.36.36.36,0,0,0-.36.36.37.37,0,0,0,.36.36A.36.36,0,0,0,33.15,20.61Z"/><path class="cls-7" d="M35.64,21.42a.22.22,0,0,0,0-.43A.22.22,0,0,0,35.64,21.42Z"/><path class="cls-7" d="M33.76,14.59a.33.33,0,0,0,0-.65h0a.35.35,0,0,0-.33.33.33.33,0,0,0,.33.33Z"/><path class="cls-8" d="M27,128.71c-.73-.55-1.48-1.09-2.21-1.65-.32-.25-.74.3-.44.57.88.8,1.7,1.69,2.64,2.42a5,5,0,0,0,1.7.82.47.47,0,0,0,.22.3,2.37,2.37,0,0,0,1.42.31l.24.06a1.16,1.16,0,0,0,.71.18l.15,0a4.69,4.69,0,0,0,1.47.26c1-.1,1.13-1.49,1.07-2.26,0-.09,0-.17.05-.25a.69.69,0,0,0-.16-.64l0,0a5.36,5.36,0,0,0,.26-.54c0-.06,0-.11,0-.15a14.09,14.09,0,0,0,.57-2.37c.68-4.17,1.16-8.37,1.75-12.54.07-.45-.62-.66-.7-.19-.22,1.23-.44,2.46-.67,3.7-.65-.24-1.35-.39-2-.61-.84-.28-1.57-.74-2.38-1.05a.42.42,0,0,0-.47.6,5.23,5.23,0,0,0,2.43,1.66A5.83,5.83,0,0,0,35,118q-.53,2.81-1,5.62c-.07.35-.12.71-.18,1.07-.82-.32-1.73-.46-2.55-.79-.48-.19-.94-.39-1.4-.61s-.89-.57-1.36-.83-.77.2-.54.54a7.94,7.94,0,0,0,2.51,2.17,6.81,6.81,0,0,0,3.07,1,9.54,9.54,0,0,1-.46,1.58s0,0,0,0a4.9,4.9,0,0,1-1.45,1.68,3.48,3.48,0,0,1-2.56.26A4.56,4.56,0,0,1,27,128.71Z"/><path class="cls-8" d="M5.73,78.62c1.79-1.28,3.42-2.79,5.09-4.23s3.33-2.72,5-4.09c.6,4.11,1.39,8.18,2.32,12.23a12.46,12.46,0,0,0-1.65,1.6l-2.32,2.3C12.63,88,11,89.45,9.54,91c-.35.36.16.84.54.54,1.65-1.34,3.2-2.8,4.8-4.2l2.3-2.08c.4-.37.9-.74,1.33-1.14.71,2.74,1.72,5.5,1.6,8.36,0,.1,0,.2,0,.3a10,10,0,0,1-.76,1.92,16.75,16.75,0,0,1-2.79,3.65,49.12,49.12,0,0,1-4,3.78c-.72.61-1.47,1.18-2.23,1.74-.45.32-1.87,1.74-2.48,1.28-.29-.22-.71.21-.5.5a1.12,1.12,0,0,0,.64.47.53.53,0,0,0,.29.26,4.18,4.18,0,0,0,3.84-.73,35.79,35.79,0,0,0,3.58-2.79,22.6,22.6,0,0,0,3.44-3.61.32.32,0,0,0,.31-.12c.8-1,2.1-1.47,2.89-2.51a2.39,2.39,0,0,0,.25-2.85,8,8,0,0,0-1.15-4.33,31,31,0,0,0-.73-3.17c-.89-3.33-1.72-6.66-2.54-10-.93-3.81-1.66-7.68-2.35-11.54-.07-.39-.74-.3-.69.09q.2,1.92.45,3.81a.79.79,0,0,0-.6.23c-1.62,1.52-3.18,3.1-4.83,4.6s-3.36,2.93-4.85,4.57C5,78.34,5.37,78.87,5.73,78.62Z"/><path class="cls-8" d="M51.33,66.78l-.4,0a.74.74,0,0,0-.18-.39c-1.09-1.15-3.47-.51-4.73,0a9.77,9.77,0,0,0-4.08,3,10,10,0,0,0-1.29,10.12.37.37,0,0,0,.32.21,8.79,8.79,0,0,0,1.28,2.87c.29.44,1,0,.7-.41a9.29,9.29,0,0,1,1-10.74,10.68,10.68,0,0,1,4.37-3,10.93,10.93,0,0,1,2.7-.63,8.81,8.81,0,0,1,1.54,0,15.68,15.68,0,0,0,1.79.24c.32,0,.59-.46.29-.7A5,5,0,0,0,51.33,66.78Z"/><path class="cls-8" d="M53.64,36.62A4,4,0,0,0,51.16,36a.3.3,0,0,0,0-.1,1.16,1.16,0,0,0-.95-.48,4.78,4.78,0,0,0-.91-.1c-1.2-.63-3.15-.09-4.25.34a9.83,9.83,0,0,0-4.07,3,10,10,0,0,0-1.29,10.12A.37.37,0,0,0,40,49a9.17,9.17,0,0,0,1.27,2.87c.3.43,1,0,.71-.41a9.29,9.29,0,0,1,1-10.74,10.72,10.72,0,0,1,4.36-3A11,11,0,0,1,50,37.11a8.69,8.69,0,0,1,1.53,0,16.16,16.16,0,0,0,1.8.24C53.67,37.3,53.94,36.86,53.64,36.62Z"/><path class="cls-8" d="M62.59,74c-.09-.39-.78-.32-.72.1a14.13,14.13,0,0,1-.11,4.26.34.34,0,0,0-.31.22A33.61,33.61,0,0,1,60,81.94a11.73,11.73,0,0,1-2.27,2.84,17.77,17.77,0,0,1-7,3.72.36.36,0,0,0-.28.28,12.76,12.76,0,0,1-10.06-3.89c-.31-.33-.79.16-.5.49A13.2,13.2,0,0,0,52,89.74a13.39,13.39,0,0,0,10-8A12,12,0,0,0,62.59,74Z"/><path class="cls-8" d="M61,47.88a34.67,34.67,0,0,1-1.44,3.32A12.23,12.23,0,0,1,57.24,54a17.75,17.75,0,0,1-7,3.71A.39.39,0,0,0,50,58a12.77,12.77,0,0,1-10.06-3.9c-.31-.33-.8.17-.5.5A13.19,13.19,0,0,0,51.5,59a13.43,13.43,0,0,0,10-8,12.18,12.18,0,0,0,.56-7.68c-.1-.39-.78-.32-.73.1a13.81,13.81,0,0,1-.1,4.26A.33.33,0,0,0,61,47.88Z"/><path class="cls-8" d="M32.59,109.38a27.18,27.18,0,0,0,3.16,1.29,30.25,30.25,0,0,0,7.06,1.39,67.62,67.62,0,0,0,15.25-.22c.32,2.22.58,4.44.81,6.67a6.41,6.41,0,0,0-1.55.77,16.47,16.47,0,0,1-2.52,1,16.27,16.27,0,0,1-5.15.6c-.42,0-.54.7-.1.76a15.8,15.8,0,0,0,5.57-.18,14.92,14.92,0,0,0,2.76-.85,10,10,0,0,0,1.15-.5c.11,1.15.22,2.3.32,3.46.12,1.33.23,2.67.32,4a14.67,14.67,0,0,0-2.55,1.32,17.57,17.57,0,0,1-3.32,1.21,22.77,22.77,0,0,1-6.93.65c-.44,0-.55.7-.11.78a19.17,19.17,0,0,0,7.24-.17,23.53,23.53,0,0,0,3.56-1.08,12.89,12.89,0,0,0,2.21-1c0,.11,0,.23,0,.34a7.89,7.89,0,0,1-4.39,6.65,23.86,23.86,0,0,1-5.94,2.2,31.47,31.47,0,0,1-7.06.49.37.37,0,0,0-.1.73,16.41,16.41,0,0,0,4.75.49.4.4,0,0,0,.2.08,16.16,16.16,0,0,0,8.12-1.77,15.41,15.41,0,0,0,1.69-1,6.65,6.65,0,0,0,3.12-1.42,6.29,6.29,0,0,0,2.26-2.74,4.89,4.89,0,0,0,.19-.62,1.22,1.22,0,0,0,.4.24,1.09,1.09,0,0,0,1.38-.63,5.17,5.17,0,0,0,.89-.08,3.23,3.23,0,0,0,1.76-.59.56.56,0,0,0,.18-.42,11.76,11.76,0,0,0,4.37-2.3,14.65,14.65,0,0,0,2.61-2.61c.68-.86,1.79-2.14,1.73-3.29a.53.53,0,0,0-.53-.55,29.26,29.26,0,0,0-1.66-3.37c-.63-1.2-1.28-2.39-2-3.57a65,65,0,0,0-3.88-6.25,1.12,1.12,0,0,0-.48-1.39l.21-.1a.33.33,0,0,1,.19-.26l.26-.13a.31.31,0,0,1,.32-.34,1.06,1.06,0,0,0,.31,0A5.85,5.85,0,0,0,70,106c.21-.33.4-.68.57-1a.56.56,0,0,0,0-.12.49.49,0,0,0-.09-.51,13.67,13.67,0,0,0,1-2.1,18.76,18.76,0,0,0,.89-3.6.38.38,0,0,0-.74-.2A28.22,28.22,0,0,1,69,104a7,7,0,0,1-1.09,1.24l-.68.44a13.64,13.64,0,0,1-1.27.63c.12-.58.2-1.16.33-1.73a25.22,25.22,0,0,0,.73-3.43.47.47,0,0,0-.86-.24,13.46,13.46,0,0,0-1,3.52,15.9,15.9,0,0,0-.42,2.37l-.3.1a34.14,34.14,0,0,1-3.72,1c.09-.62.14-1.24.21-1.86a23.62,23.62,0,0,0,.27-3.14.36.36,0,0,0-.1-.26,22.79,22.79,0,0,0,5.74-2.43c.62-.23,1.22-.5,1.82-.77a10.1,10.1,0,0,0,2.23-.76,7.3,7.3,0,0,0,3.24-3.5A2.54,2.54,0,0,0,74,96.56c.14.66.73,1,1.24,1.4a7.42,7.42,0,0,0,1.06.78,3.29,3.29,0,0,0,1.82,1A5.15,5.15,0,0,0,80.86,102a12.39,12.39,0,0,0,1.54,1.1.16.16,0,0,0,.06.08,10.84,10.84,0,0,0,1.72,1.46c-.39.4.08,1.2.63,1a5.38,5.38,0,0,0,.64-.31l.13,0c1.13.37,2.29-.52,2.94-1.39a.35.35,0,0,0,0-.45,3.57,3.57,0,0,0,1.8-3.6.46.46,0,0,0-.57-.41.3.3,0,0,0,0-.21c.61-1.46,1.13-3,1.63-4.48a.35.35,0,0,0,.11-.33c.09-.26.18-.52.26-.77A64.12,64.12,0,0,0,95.19,77c0-.45-.66-.44-.7,0a73.67,73.67,0,0,1-3.82,15.81l-.21.64c-.37-.28-.76-.53-1.11-.79l-2.52-1.88c-1.68-1.26-3.38-2.48-5.07-3.72a.34.34,0,0,0-.5.16c-.48-.37-1-.74-1.41-1.13s-1-1-1.59-1.39c.12-.47.25-.94.37-1.41.86-3.43,1.65-6.86,2.4-10.31l.33-1.55c1.73,1.26,3.55,2.46,5.14,3.88.33.3.82-.18.49-.5a62.7,62.7,0,0,0-5.41-4.45q.33-1.56.63-3.12c.39-2,.66-4.08,1-6.13.07-.44-.55-.66-.7-.26.15-1.17.27-2.34.33-3.51.07-1.44.1-2.9.09-4.35,0-.09,0-.17,0-.26A56.71,56.71,0,0,0,83,45.59a.36.36,0,0,0-.45-.33A30.45,30.45,0,0,0,82,41.59a38.38,38.38,0,0,0-1.2-4.13,27.67,27.67,0,0,0-2.26-5.81A12.78,12.78,0,0,0,77,29.34a.81.81,0,0,0,0-.41,3.12,3.12,0,0,0-1.19-1.67.63.63,0,0,0-.18-.81l-.07,0a1,1,0,0,0,0-.6,13.74,13.74,0,0,0-2.28-3.94c-.43-.56-.87-1.13-1.35-1.65s-1.11-.88-1.62-1.36l0,0c0-.11-.11-.21-.16-.31a23,23,0,0,0-2.32-3.6c-.9-1.13-2-2.09-3-3.12a.45.45,0,0,0-.66,0,29.78,29.78,0,0,0-7-7.36c-.35-.25-.8.32-.47.6a45.55,45.55,0,0,1,6.4,7.05c1.4,1.78,2.75,3.6,4,5.51.6.94,3.21,4.15,1.79,5.17-.46.33-1.56.05-2.05,0-1.58-.29-3.12-.75-4.69-1.08a34.23,34.23,0,0,0-9.37-.49.45.45,0,0,0-.42.39,77.89,77.89,0,0,0-7.8.22,53.73,53.73,0,0,0-10,1.48c-.44.12-.37.85.11.82,2.9-.18,5.77-.57,8.67-.77s5.71-.27,8.56-.2a62.59,62.59,0,0,1,17.08,2.79,21.18,21.18,0,0,1,3.86,1.55,9.35,9.35,0,0,1,2.75,2.29,25,25,0,0,1,4.9,10.77,32.72,32.72,0,0,1,.86,8.07,95.53,95.53,0,0,1-1.85,15.72,153.43,153.43,0,0,1-3.62,15.39q-1.05,3.64-2.3,7.23a22.41,22.41,0,0,1-16.4,14.76,57.39,57.39,0,0,1-9.66,1.48c-.44,0-.45.7,0,.69l1.08,0a12.16,12.16,0,0,0-.17,2.56,19.08,19.08,0,0,0,0,2.83.55.55,0,0,0,.1.22c-1.85.09-3.7.15-5.55.22a.36.36,0,0,0-.21.65,36.51,36.51,0,0,1-4.39-.62,34.39,34.39,0,0,1-4.25-1.09,23.45,23.45,0,0,1-2.2-.88,20.26,20.26,0,0,0-1.89-.89.39.39,0,0,0-.38.64A10.21,10.21,0,0,0,32.59,109.38Zm44.73-21c.23-.87.45-1.73.68-2.59.44.41,1,.77,1.43,1.13.71.54,1.44,1.07,2.18,1.57a.34.34,0,0,0,.52-.17c1.37,1.08,2.74,2.18,4.13,3.25l2.36,1.82c.47.37,1,.83,1.48,1.18a50.9,50.9,0,0,1-1.92,5.13,14.17,14.17,0,0,1-1.6,2.81,3.93,3.93,0,0,1-.31.38h-.21a6.65,6.65,0,0,1-4.41-2c-2.22-2-4.34-4.48-4.88-7.47A11.77,11.77,0,0,1,77.32,88.33Zm-10,21.55h0c.71,1.23,1.47,2.43,2.21,3.65a5.77,5.77,0,0,0-.67.58,7.93,7.93,0,0,1-1.22.94,8.84,8.84,0,0,1-2.92,1.14.37.37,0,0,0,.09.73,10,10,0,0,0,3.28-.83,6.81,6.81,0,0,0,2.17-1.35c.26.44.51.88.76,1.32.54,1,1.06,2,1.58,3-.7.46-1.09,1.5-1.65,2.11a13.93,13.93,0,0,1-2.29,2,.38.38,0,0,0,.39.66A11.4,11.4,0,0,0,71.78,122a9.45,9.45,0,0,0,1.51-1.52,28.65,28.65,0,0,0,1.3,2.6c-.27.37-.45.82-.69,1.21a13.34,13.34,0,0,1-3.79,4,9,9,0,0,1-3.54,1.64,2.25,2.25,0,0,1-2.49-1.14c-.14-.56-.27-1.11-.4-1.66-.64-2.91-1.38-5.81-2.08-8.72-.34-1.4-.65-2.8-1-4.21-.15-.66-.28-1.34-.43-2l-.12-.64A61.69,61.69,0,0,0,67.29,109.88Zm-18-.52a21.7,21.7,0,0,0,.11-2.79,13.28,13.28,0,0,0-.05-2.75,54.49,54.49,0,0,0,8.82-1,.61.61,0,0,0,.74.39c.48-.1,1-.21,1.43-.33a23.15,23.15,0,0,0-.45,2.87c-.11.8-.25,1.61-.3,2.43l-2,.38c-.79.13-1.58.25-2.38.35a26.62,26.62,0,0,0,.13-5,.38.38,0,0,0-.76,0,38,38,0,0,0-.14,4.89.3.3,0,0,0,.05.16c-1.72.2-3.44.32-5.17.41C49.26,109.4,49.26,109.38,49.27,109.36Z"/><path class="cls-8" d="M53.72,134a.82.82,0,0,0,.58,1.39.84.84,0,0,0,.58-.24.87.87,0,0,0,.24-.57.83.83,0,0,0-.82-.82A.84.84,0,0,0,53.72,134Z"/><path class="cls-8" d="M55.38,132.61a.54.54,0,0,0-.92,0l0,0a.56.56,0,1,0,1,0Z"/><path class="cls-8" d="M55.51,134.41a.46.46,0,0,0,.53.07.49.49,0,0,0,.24-.31.44.44,0,0,0-.53-.54.47.47,0,0,0-.31.24A.45.45,0,0,0,55.51,134.41Z"/><path class="cls-8" d="M57.21,133.76a.39.39,0,0,0,.42-.23.36.36,0,0,0-.06-.36l0,0a.4.4,0,0,0-.69,0l0,0a.38.38,0,0,0-.05.36A.39.39,0,0,0,57.21,133.76Z"/><path class="cls-8" d="M52.94,136.7l.09-.07a.47.47,0,0,0,.23-.4.54.54,0,0,0-.13-.32.52.52,0,0,0-.33-.14.49.49,0,0,0-.39.23l-.08.1a.44.44,0,0,0,.07.53.56.56,0,0,0,.2.11A.45.45,0,0,0,52.94,136.7Z"/><path class="cls-8" d="M55.15,128.36a.55.55,0,0,0-.28-1.07A.55.55,0,0,0,55.15,128.36Z"/><path class="cls-8" d="M55.36,126.57a.47.47,0,0,0,0-.94A.47.47,0,0,0,55.36,126.57Z"/><path class="cls-8" d="M56.24,126.86a.39.39,0,0,0,0,.77A.39.39,0,0,0,56.24,126.86Z"/><path class="cls-8" d="M53.89,128.86a.42.42,0,0,0-.08-.65l-.1-.07a.39.39,0,0,0-.48.06.41.41,0,0,0-.06.48l.07.1A.42.42,0,0,0,53.89,128.86Z"/><path class="cls-8" d="M69.65,127.85a.71.71,0,0,0,.38-.26.67.67,0,0,0,.15-.44.77.77,0,0,0-.2-.52.81.81,0,0,0-.3-.17,1.66,1.66,0,0,0-.22,0l-.19,0-.18.07a.72.72,0,0,0-.29.35.73.73,0,0,0,.15.79A.75.75,0,0,0,69.65,127.85Z"/><path class="cls-8" d="M69.67,125.59a.43.43,0,0,0,.41.31.45.45,0,0,0,.4-.31l0,0a.44.44,0,1,0-.85,0Z"/><path class="cls-8" d="M71,126.76a.4.4,0,0,0,.38-.5l0-.09a.4.4,0,0,0-.36-.28.39.39,0,0,0-.37.28l0,.09A.41.41,0,0,0,71,126.76Z"/><path class="cls-8" d="M72.1,125.6h.09a.37.37,0,0,0,.28-.11.42.42,0,0,0,.12-.28c0-.2-.18-.43-.4-.4H72.1a.4.4,0,0,0-.27.11.37.37,0,0,0-.11.28.35.35,0,0,0,.11.27A.44.44,0,0,0,72.1,125.6Z"/><path class="cls-8" d="M67.71,128.68h.06a.44.44,0,0,0,.29-.3v-.05a.4.4,0,0,0-.48-.49h0a.47.47,0,0,0-.3.3.13.13,0,0,0,0,.06.39.39,0,0,0,.48.48Z"/><path class="cls-8" d="M63.82,122.93a.44.44,0,0,0,0,.88A.44.44,0,0,0,63.82,122.93Z"/><path class="cls-8" d="M63,121.6a.66.66,0,0,0,.09.31.44.44,0,0,0,.76,0,.8.8,0,0,0,.09-.31.47.47,0,0,0-.94,0Z"/><path class="cls-8" d="M64.34,122.07a.36.36,0,0,0-.06.36.51.51,0,0,0,.84,0,.38.38,0,0,0-.06-.36l0,0a.39.39,0,0,0-.68,0Z"/><path class="cls-8" d="M65.22,114.85a.41.41,0,0,0,0-.27.52.52,0,0,0-.07-.21.56.56,0,0,0,0-.08h0a.66.66,0,0,0-.19-.18.54.54,0,0,0-.35-.08.72.72,0,0,0-.38.19.62.62,0,0,0-.1.76A.64.64,0,0,0,65.22,114.85Z"/><path class="cls-8" d="M65.05,113.88a.39.39,0,0,0,0-.77A.39.39,0,0,0,65.05,113.88Z"/><path class="cls-8" d="M65.75,114.3a.38.38,0,0,0,.36.27.4.4,0,0,0,.36-.27l0-.08a.39.39,0,1,0-.76,0Z"/><path class="cls-8" d="M62.85,115.77a.34.34,0,0,0,0-.67A.34.34,0,0,0,62.85,115.77Z"/><path class="cls-8" d="M53.86,115a.55.55,0,0,0,0-1.1A.55.55,0,0,0,53.86,115Z"/><path class="cls-8" d="M53.19,113.45a.66.66,0,0,0-.14-.26.48.48,0,0,0-.34-.14.47.47,0,0,0-.33.14.55.55,0,0,0-.14.26.5.5,0,0,0,.47.63A.5.5,0,0,0,53.19,113.45Z"/><path class="cls-8" d="M54.21,113.52a.38.38,0,0,0,0-.76A.38.38,0,0,0,54.21,113.52Z"/><path class="cls-8" d="M55.36,113a.37.37,0,0,0,0,.74A.37.37,0,0,0,55.36,113Z"/><path class="cls-8" d="M50.69,113.94a.45.45,0,0,0,.42-.56v-.06a.43.43,0,0,0-.82,0l0,.06A.45.45,0,0,0,50.69,113.94Z"/><path class="cls-8" d="M29.41,128.44h0a.53.53,0,0,0,.08.65h0a.58.58,0,0,0,.61.12.54.54,0,0,0,.33-.58.56.56,0,0,0-.4-.47A.57.57,0,0,0,29.41,128.44Z"/><path class="cls-8" d="M30.42,127.84a.42.42,0,0,0,0-.84A.42.42,0,0,0,30.42,127.84Z"/><path class="cls-8" d="M31.21,127.91a.39.39,0,0,0,0,.78A.39.39,0,0,0,31.21,127.91Z"/><path class="cls-8" d="M32.27,127.87a.36.36,0,0,0,0-.72A.36.36,0,0,0,32.27,127.87Z"/><path class="cls-8" d="M32.45,123.31a.39.39,0,0,0,0-.77A.39.39,0,0,0,32.45,123.31Z"/><path class="cls-8" d="M33,121.41a.37.37,0,0,0,0,.74A.37.37,0,0,0,33,121.41Z"/><path class="cls-8" d="M33.41,123.39a.38.38,0,0,0,0-.75A.38.38,0,0,0,33.41,123.39Z"/><path class="cls-8" d="M34.3,115.89a.37.37,0,0,0,0-.73A.37.37,0,0,0,34.3,115.89Z"/><path class="cls-8" d="M34.43,114.66l0,0c.86.43.86-1.21,0-.79l0,0A.44.44,0,0,0,34.43,114.66Z"/><path class="cls-8" d="M79.08,96.79a.6.6,0,0,0,1,0l0-.08a.67.67,0,0,0-.23-.88h0a.62.62,0,0,0-.62,0h0a.66.66,0,0,0-.23.88Z"/><path class="cls-8" d="M77.91,95a.43.43,0,0,0,.47.19.4.4,0,0,0,.23-.17l.12-.08a.71.71,0,0,0,.1-.14.51.51,0,0,0-.44-.77.57.57,0,0,0-.58.43.59.59,0,0,0,.08.49S77.91,95,77.91,95Z"/><path class="cls-8" d="M80,95.17l.12,0a.39.39,0,0,0,0-.76l-.12,0a.44.44,0,0,0-.41.1.49.49,0,0,0-.12.3.43.43,0,0,0,.12.29A.45.45,0,0,0,80,95.17Z"/><path class="cls-8" d="M78.27,93.23a.44.44,0,0,0,0-.88A.44.44,0,0,0,78.27,93.23Z"/><path class="cls-8" d="M80.92,98.6a.4.4,0,0,0,.39-.39v-.14a.4.4,0,0,0-.39-.39.4.4,0,0,0-.4.39v.14A.4.4,0,0,0,80.92,98.6Z"/><path class="cls-8" d="M89.2,89.44a.62.62,0,1,0,.62.61A.63.63,0,0,0,89.2,89.44Z"/><path class="cls-8" d="M89.38,87.67a.49.49,0,0,0,0,1A.49.49,0,0,0,89.38,87.67Z"/><path class="cls-8" d="M90.79,88.51h-.1a.51.51,0,0,0-.46.12.47.47,0,0,0,.46.78h.1a.38.38,0,0,0,.23-.16.48.48,0,0,0,.1-.28.46.46,0,0,0-.06-.23A.51.51,0,0,0,90.79,88.51Z"/><path class="cls-8" d="M83.24,66.93a.57.57,0,0,0,.63.12.58.58,0,0,0,.34-.68v0a.52.52,0,0,0-.38-.38h0a.58.58,0,0,0-.65.26A.57.57,0,0,0,83.24,66.93Z"/><path class="cls-8" d="M83.56,65.12a.49.49,0,0,0,0-1A.49.49,0,0,0,83.56,65.12Z"/><path class="cls-8" d="M84.88,65.84a.42.42,0,0,0,0-.83A.42.42,0,0,0,84.88,65.84Z"/><path class="cls-8" d="M83.82,62.4a.38.38,0,0,0,0,.75A.38.38,0,0,0,83.82,62.4Z"/><path class="cls-8" d="M80.65,81.46a.58.58,0,0,0,0-1.15A.58.58,0,0,0,80.65,81.46Z"/><path class="cls-8" d="M80.65,79.48a.45.45,0,0,0,0-.89A.45.45,0,0,0,80.65,79.48Z"/><path class="cls-8" d="M81.76,79.89l-.11.15a.37.37,0,0,0,.51.51l.15-.11a.4.4,0,1,0-.55-.55Z"/><path class="cls-8" d="M16.17,95l0,0a.58.58,0,1,0,0-.82l0,0A.53.53,0,0,0,16.17,95Z"/><path class="cls-8" d="M16.86,93.13a.53.53,0,0,0,.21-.11.73.73,0,0,0,.17-.18l.05-.13a.41.41,0,0,0,0-.22.53.53,0,0,0-.15-.32.72.72,0,0,0-.24-.14.54.54,0,0,0-.43.06.69.69,0,0,0-.18.16,1.06,1.06,0,0,0-.11.21.52.52,0,0,0,.14.53A.52.52,0,0,0,16.86,93.13Z"/><path class="cls-8" d="M18.4,93.71v-.1a.68.68,0,0,0-.07-.23.39.39,0,0,0-.68,0,.6.6,0,0,0-.06.23.34.34,0,0,0,0,.1.41.41,0,0,0,.82,0Z"/><path class="cls-8" d="M19.05,92.13a.39.39,0,0,0,0,.78A.39.39,0,0,0,19.05,92.13Z"/><path class="cls-8" d="M16.16,96.62v.13a.37.37,0,0,0,.74,0v-.13a.38.38,0,0,0-.38-.38A.39.39,0,0,0,16.16,96.62Z"/><path class="cls-8" d="M10.61,101.86a.56.56,0,1,0,1-.5.58.58,0,0,0-.26-.23.46.46,0,0,0-.44,0A.57.57,0,0,0,10.61,101.86Z"/><path class="cls-8" d="M11.38,99.8a.39.39,0,0,0,0,.78A.39.39,0,0,0,11.38,99.8Z"/><path class="cls-8" d="M12.57,100.3a.42.42,0,0,0,0,.83A.42.42,0,0,0,12.57,100.3Z"/><path class="cls-8" d="M9.54,103.66a.44.44,0,0,0,.44-.11.45.45,0,0,0,.14-.32.43.43,0,0,0-.14-.32.54.54,0,0,0-.8.11.4.4,0,0,0,0,.42A.45.45,0,0,0,9.54,103.66Z"/><path class="cls-8" d="M14.31,80.51a.68.68,0,0,0-.14.23.55.55,0,0,0,0,.36.54.54,0,0,0,1,.06.5.5,0,0,0,.07-.34.6.6,0,0,0-.15-.31L15,80.43a.46.46,0,0,0-.65,0Z"/><path class="cls-8" d="M14,78.61a.47.47,0,0,0-.46.46v.1a.47.47,0,0,0,.47.46.47.47,0,0,0,.46-.46v-.1A.48.48,0,0,0,14,78.61Z"/><path class="cls-8" d="M15.25,79.78a.43.43,0,0,0,.73,0,.62.62,0,0,0,.09-.3.51.51,0,0,0-.15-.35.45.45,0,0,0-.61,0,.47.47,0,0,0-.15.35A.65.65,0,0,0,15.25,79.78Z"/><path class="cls-8" d="M15,73.33a.42.42,0,0,0,0,.84A.42.42,0,0,0,15,73.33Z"/><path class="cls-8" d="M13.1,68a.54.54,0,0,0,0-1.07A.54.54,0,0,0,13.1,68Z"/><path class="cls-8" d="M13,66a.4.4,0,0,0,0-.79A.4.4,0,0,0,13,66Z"/><path class="cls-8" d="M14.16,67a.36.36,0,0,0,0-.72A.36.36,0,0,0,14.16,67Z"/><path class="cls-8" d="M62.38,106.48a.45.45,0,0,0,.07-.3l0-.16a.43.43,0,0,0-.82,0,.88.88,0,0,0,0,.16.44.44,0,0,0,.06.3A.43.43,0,0,0,62.38,106.48Z"/><path class="cls-8" d="M61.88,104.25a.44.44,0,0,0,0,.87A.44.44,0,0,0,61.88,104.25Z"/><path class="cls-8" d="M62.56,105.48v.13a.38.38,0,0,0,.37.37.39.39,0,0,0,.37-.37v-.13a.4.4,0,0,0-.38-.39A.39.39,0,0,0,62.56,105.48Z"/><path class="cls-8" d="M67.43,104.73a.44.44,0,0,0,0-.88A.44.44,0,0,0,67.43,104.73Z"/><path class="cls-8" d="M55.85,107.82h0a.38.38,0,0,0,.39.13c.21,0,.3-.26.28-.5s-.07-.47-.28-.5a.39.39,0,0,0-.39.12h0A.43.43,0,0,0,55.85,107.82Z"/><path class="cls-8" d="M56.2,106.64a.37.37,0,0,0,.37-.37v-.13a.36.36,0,0,0-.36-.37.38.38,0,0,0-.37.37v.13A.37.37,0,0,0,56.2,106.64Z"/><path class="cls-8" d="M57.65,107.6a.41.41,0,0,0,0-.82A.41.41,0,0,0,57.65,107.6Z"/><path class="cls-8" d="M58.71,105.3a.36.36,0,0,0,0-.71A.36.36,0,0,0,58.71,105.3Z"/><path class="cls-8" d="M50.55,107.81a.43.43,0,0,0-.61,0,.5.5,0,0,0-.13.22s0,.07,0,.1a.47.47,0,0,0,.13.45.45.45,0,0,0,.33.14.47.47,0,0,0,.33-.14.49.49,0,0,0,.12-.45A.56.56,0,0,0,50.55,107.81Z"/><path class="cls-8" d="M51.57,108a.42.42,0,0,0,0,.83A.42.42,0,0,0,51.57,108Z"/><path class="cls-8" d="M46.45,107.67l.09,0a.48.48,0,0,0,.23-.17.42.42,0,0,0,.1-.28.49.49,0,0,0-.06-.23.51.51,0,0,0-.27-.21l-.09,0a.49.49,0,0,0-.49.12.52.52,0,0,0-.14.35.5.5,0,0,0,.14.35A.48.48,0,0,0,46.45,107.67Z"/><path class="cls-8" d="M45.62,108.25a.4.4,0,0,0,0,.8A.4.4,0,0,0,45.62,108.25Z"/><path class="cls-8" d="M46.78,109.07a.41.41,0,0,0,.29.13.43.43,0,0,0,.42-.42.65.65,0,0,0,0-.24.43.43,0,0,0-.41-.31.45.45,0,0,0-.4.31.65.65,0,0,0,0,.24A.45.45,0,0,0,46.78,109.07Z"/><path class="cls-8" d="M41,108.46a.48.48,0,0,0,0-.95A.48.48,0,0,0,41,108.46Z"/><path class="cls-8" d="M41.1,106.91a.39.39,0,0,0,.28-.38.41.41,0,0,0-.05-.19.37.37,0,0,0-.23-.18,2,2,0,0,0-.24,0,.41.41,0,0,0-.4.4.41.41,0,0,0,.4.4A1,1,0,0,0,41.1,106.91Z"/><path class="cls-8" d="M65.57,95.44a.75.75,0,0,0,1.08,0,.74.74,0,0,0,.23-.54.76.76,0,0,0-1.31-.54.74.74,0,0,0-.23.54A.76.76,0,0,0,65.57,95.44Z"/><path class="cls-8" d="M66,93h.1a.56.56,0,0,0,.37-.15.62.62,0,0,0,.16-.38.54.54,0,0,0-.53-.53H66a.56.56,0,0,0-.37.15.51.51,0,0,0-.15.37.5.5,0,0,0,.15.37A.56.56,0,0,0,66,93Z"/><path class="cls-8" d="M67.1,93.31l0,.13a.52.52,0,0,0,.63.63l.13,0a.59.59,0,1,0-.73-.73Z"/><path class="cls-8" d="M68.22,90.71a.49.49,0,0,0,0,1A.49.49,0,0,0,68.22,90.71Z"/><path class="cls-8" d="M64.55,97.25l.09,0a.54.54,0,1,0,0-1l-.09,0a.52.52,0,0,0,0,1Z"/><path class="cls-8" d="M62.41,97.81a.41.41,0,0,0-.28.11.45.45,0,0,0-.12.29.38.38,0,0,0,.12.28.46.46,0,0,0,.28.11l.13,0a.42.42,0,0,0,.3-.12.45.45,0,0,0,.12-.29.47.47,0,0,0-.12-.3.39.39,0,0,0-.3-.12Z"/><path class="cls-8" d="M70.74,90.56a.38.38,0,0,0,0,.75A.38.38,0,0,0,70.74,90.56Z"/><path class="cls-8" d="M72.93,81.76a.5.5,0,0,0-.73.54v0a.5.5,0,0,0,.83.21l0,0a.47.47,0,0,0-.1-.74Z"/><path class="cls-8" d="M73,79.37a.51.51,0,0,0-.36-.15.51.51,0,0,0-.37.15.65.65,0,0,0-.15.36v.1a.48.48,0,0,0,.15.37.51.51,0,0,0,.37.15.52.52,0,0,0,.52-.52v-.1A.53.53,0,0,0,73,79.37Z"/><path class="cls-8" d="M74,79.8a.43.43,0,0,0,0,.86A.43.43,0,0,0,74,79.8Z"/><path class="cls-8" d="M74.3,78.24a.39.39,0,0,0,0,.53l.13.14a.38.38,0,0,0,.54-.54l-.13-.13A.4.4,0,0,0,74.3,78.24Z"/><path class="cls-8" d="M75.23,76.15a.38.38,0,0,0,0,.75A.38.38,0,0,0,75.23,76.15Z"/><path class="cls-8" d="M73.64,84.2a.4.4,0,0,0,0-.8A.4.4,0,0,0,73.64,84.2Z"/><path class="cls-8" d="M51,100.94l-.09,0a.45.45,0,0,0-.32.42.44.44,0,0,0,.32.41l.09,0a.45.45,0,1,0,0-.88Z"/><path class="cls-8" d="M52.63,99.49a.44.44,0,0,0,0,.87A.44.44,0,0,0,52.63,99.49Z"/><path class="cls-8" d="M53,101.64a.4.4,0,0,0,0-.79A.4.4,0,0,0,53,101.64Z"/><path class="cls-8" d="M54.34,101.37a.39.39,0,0,0,0-.78A.39.39,0,0,0,54.34,101.37Z"/><path class="cls-8" d="M78.79,47.33c-.78.13-.47,1.39.3,1.18A.61.61,0,0,0,78.79,47.33Z"/><path class="cls-8" d="M78.55,45a.61.61,0,1,0,.56,1.08.62.62,0,0,0,.21-.83.59.59,0,0,0-.27-.25A.52.52,0,0,0,78.55,45Z"/><path class="cls-8" d="M80.29,46.53a.45.45,0,0,0-.43-.33.46.46,0,0,0-.44.33l0,.16a.51.51,0,0,0,.07.32.46.46,0,0,0,.79,0,.45.45,0,0,0,.07-.32A.41.41,0,0,0,80.29,46.53Z"/><path class="cls-8" d="M80.12,49.86a.44.44,0,0,0,0-.87A.44.44,0,0,0,80.12,49.86Z"/><path class="cls-8" d="M80.25,43.77a.41.41,0,0,0-.39-.3.41.41,0,0,0-.39.3l0,.12a.45.45,0,1,0,.86,0Z"/><path class="cls-8" d="M79.46,40.62a.35.35,0,0,0,0,.7A.35.35,0,0,0,79.46,40.62Z"/><path class="cls-8" d="M73.78,31.62a.57.57,0,0,0,0-1.14A.57.57,0,0,0,73.78,31.62Z"/><path class="cls-8" d="M72.66,29.25a.49.49,0,0,0-.94,0l0,.08c-.28.83,1.28.83,1,0Z"/><path class="cls-8" d="M73.78,29.92a.46.46,0,0,0,0-.91A.46.46,0,0,0,73.78,29.92Z"/><path class="cls-8" d="M65.05,19.9a.59.59,0,0,0-.4.16.57.57,0,0,0-.14.55l0,.06a.56.56,0,0,0,.52.4.58.58,0,0,0,.53-.4l0-.06a.56.56,0,0,0-.15-.55A.58.58,0,0,0,65.05,19.9Z"/><path class="cls-8" d="M65.13,18.53a.68.68,0,0,0-.07.48.61.61,0,0,0,.44.44.69.69,0,0,0,.49-.06.64.64,0,0,0,.12-1A.63.63,0,0,0,65.13,18.53Z"/><path class="cls-8" d="M66.11,20.73a.46.46,0,0,0,.88,0,.92.92,0,0,0,0-.33.45.45,0,0,0-.86,0A.92.92,0,0,0,66.11,20.73Z"/><path class="cls-8" d="M67.7,21.43a.42.42,0,0,0,0,.83A.42.42,0,0,0,67.7,21.43Z"/><path class="cls-8" d="M62.67,21.13A.61.61,0,0,0,63,21a.44.44,0,0,0,.14-.27.47.47,0,0,0-.12-.45.49.49,0,0,0-.33-.13.46.46,0,0,0-.32.13.53.53,0,0,0,0,.72A.48.48,0,0,0,62.67,21.13Z"/><path class="cls-8" d="M60.65,20a.37.37,0,0,0,0,.73A.37.37,0,0,0,60.65,20Z"/><path class="cls-8" d="M64.79,16.44a.38.38,0,0,0,0,.76A.38.38,0,0,0,64.79,16.44Z"/><path class="cls-8" d="M63.73,14.21a.41.41,0,0,0,0,.81A.41.41,0,0,0,63.73,14.21Z"/><path class="cls-8" d="M55.53,58.72a.67.67,0,0,0,0,1.33A.67.67,0,0,0,55.53,58.72Z"/><path class="cls-8" d="M56.68,57.55a.44.44,0,0,0-.41.31.8.8,0,0,0,0,.31.41.41,0,0,0,.4.31.42.42,0,0,0,.4-.31.8.8,0,0,0,0-.31A.44.44,0,0,0,56.68,57.55Z"/><path class="cls-8" d="M57.47,59.51a.39.39,0,0,0,0-.78A.39.39,0,0,0,57.47,59.51Z"/><path class="cls-8" d="M58.91,57.87a.41.41,0,0,0-.38-.29.42.42,0,0,0-.38.29V58a.41.41,0,0,0,.39.52.42.42,0,0,0,.4-.52Z"/><path class="cls-8" d="M60.09,55.7a.58.58,0,0,0,.06-.17.4.4,0,0,0-.39-.51.41.41,0,0,0-.39.51,1.22,1.22,0,0,0,.07.17A.38.38,0,0,0,60.09,55.7Z"/><path class="cls-8" d="M59.06,59.5a.41.41,0,0,0,0,.82A.41.41,0,0,0,59.06,59.5Z"/><path class="cls-8" d="M53,59.27A.38.38,0,0,0,53,60,.38.38,0,0,0,53,59.27Z"/><path class="cls-8" d="M58.22,88.58a.66.66,0,0,0-.81.81v0a.67.67,0,1,0,.83-.83Z"/><path class="cls-8" d="M58.8,87.16a.51.51,0,0,0,0,1A.51.51,0,0,0,58.8,87.16Z"/><path class="cls-8" d="M59.76,89a.39.39,0,0,0,0-.77A.39.39,0,0,0,59.76,89Z"/><path class="cls-8" d="M61,87.72a.41.41,0,0,0-.39.5l0,.08a.38.38,0,0,0,.37.28.38.38,0,0,0,.37-.28v-.08A.4.4,0,0,0,61,87.72Z"/><path class="cls-8" d="M59.76,87.26a.38.38,0,0,0,0-.75A.38.38,0,0,0,59.76,87.26Z"/><path class="cls-8" d="M56,89.72A.38.38,0,0,0,56,89,.38.38,0,0,0,56,89.72Z"/><path class="cls-8" d="M61.09,84.81a.4.4,0,0,0,0,.79A.4.4,0,0,0,61.09,84.81Z"/><path class="cls-8" d="M63.47,81.09a.38.38,0,0,0,0-.76A.38.38,0,0,0,63.47,81.09Z"/><path class="cls-8" d="M63.55,79.69a.39.39,0,0,0,0-.77A.39.39,0,0,0,63.55,79.69Z"/><path class="cls-8" d="M64.52,79.5a.33.33,0,0,0,0,.66A.33.33,0,0,0,64.52,79.5Z"/><path class="cls-9" d="M.81,78.61Q2,86.94,4,95.14q1,4.1,2.13,8.14c.5,1.76,1.48,4.1,3.7,3.94,1.29-.09,2.35-1.18,3.29-1.94q1.8-1.45,3.57-2.94c2.23-1.86,4.43-3.78,6.6-5.72.39,1.35.82,2.7,1.3,4a13,13,0,0,0,3.54,5.48h0a35.82,35.82,0,0,0-1.84,4.28L24.36,115c-.64,1.52-1.29,3-1.91,4.56a5.74,5.74,0,0,0-.36,4.07,13,13,0,0,0,4.45,6.09c1.92,1.52,4.4,3,6.93,2.92a4.74,4.74,0,0,0,.92,2.59,12.48,12.48,0,0,0,5.85,4.08,21.7,21.7,0,0,0,14,.29,21.14,21.14,0,0,0,6.31-3.21,5,5,0,0,0,2.1-2.52,2.73,2.73,0,0,0,.1-.48,6.89,6.89,0,0,0,2.53-.56,19,19,0,0,0,2.82-1.22,20.09,20.09,0,0,0,5.09-3.88,19.33,19.33,0,0,0,1.92-2.41,3.54,3.54,0,0,0,.85-2.79,14,14,0,0,0-1.64-3.25c-.68-1.25-1.37-2.49-2.06-3.74l-4.31-7.81a7.66,7.66,0,0,0,1.43-1c1.79-1.55,2.5-4,3.28-6.15.39-1.08.77-2.16,1.13-3.24q2.49,2.35,5.18,4.47c1,.74,1.92,1.47,2.9,2.17a22.06,22.06,0,0,0,3.15,2c2,.92,3.41-.33,4.18-2.09a57,57,0,0,0,2.41-7.21A113.41,113.41,0,0,0,95,81.2c.69-4.61,1.84-10-.73-14.21-1.56-2.55-3.48-4.93-5.23-7.37l-2.79-3.84a37.33,37.33,0,0,0-2.35-3.08,38.64,38.64,0,0,0-2.15-14.54,85.73,85.73,0,0,0-5-10.57A73.48,73.48,0,0,0,57,4.11,21.7,21.7,0,0,0,50.82.49a9.61,9.61,0,0,0-6.33.1C40.16,2.14,36.9,5.87,33.92,9.21A107.7,107.7,0,0,0,20.65,27.67c-.88,1.46-1.69,3-2.42,4.5-.11.2-.22.41-.32.62a34.29,34.29,0,0,0-3.27,8.94,46.56,46.56,0,0,0-.91,10.33c-1.81,1.8-3.42,3.85-5,5.81S5.4,62,3.88,64.11c-.77,1.09-1.53,2.21-2.24,3.35A10.24,10.24,0,0,0,.11,70.72a12.3,12.3,0,0,0,.16,3.92C.44,76,.62,77.29.81,78.61ZM2.2,81.68A11.31,11.31,0,0,0,3.6,80.4l1.91-1.83c1.28-1.22,2.54-2.45,3.81-3.68l3.81-3.68L15,69.37a10.45,10.45,0,0,0,1-.93l.12.53Q17.45,75.16,19,81.29a41.19,41.19,0,0,0-3.68,3.56c-1.27,1.25-2.56,2.49-3.85,3.73L7.72,92.15,5.69,94a10.79,10.79,0,0,0-.84.82C3.81,90.5,2.93,86.1,2.2,81.68Zm9.25,23.74c-1,.82-2.18,1.27-3.24.21-.9-.9-1.15-2.35-1.48-3.53C6.13,100,5.56,97.79,5,95.63a6.54,6.54,0,0,0,1.14-.88l2.05-1.86q2-1.81,3.92-3.66c1.26-1.19,2.5-2.4,3.74-3.61a44.78,44.78,0,0,0,3.38-3.37c.24.91.47,1.81.72,2.72q1.07,4,2.23,8L23,95.61C19.23,99,15.4,102.29,11.45,105.42ZM25,99l-.36-1.13a20.25,20.25,0,0,0,2.2,1.44A26,26,0,0,0,30.33,101a6.73,6.73,0,0,0,.33,1.64c.18.69.39,1.39.55,2.09s.35,1.48.52,2.21c0,.11.05.24.07.36A12,12,0,0,1,28.35,105,13.9,13.9,0,0,1,25,99Zm11.33,6.76c.25,1,.48,2.06.81,3.06a22.3,22.3,0,0,1-4.38-1.1,10.13,10.13,0,0,0-.31-1.29c-.16-.65-.35-1.29-.52-1.93s-.33-1.37-.52-2.06c-.1-.36-.19-.75-.32-1.11l.27.11a35.54,35.54,0,0,0,4.46,1.32A8.8,8.8,0,0,0,36.35,105.76Zm5.62.83c.19.94.38,1.9.63,2.83-.73,0-1.46-.11-2.18-.19s-1.6-.17-2.41-.28c-.24-1.09-.59-2.16-.86-3.24a13.92,13.92,0,0,0-.76-2.83c1.7.37,3.44.64,5.18.84A9.22,9.22,0,0,0,42,106.59Zm11.8.42,0,2v.44c-1.6.12-3.23.18-4.86.2a2.69,2.69,0,0,0,0-1.2l-.18-2.08a11.36,11.36,0,0,0-.19-2.14c1.74,0,3.5,0,5.24-.09A11.28,11.28,0,0,0,53.77,107Zm4.5,2.95q.61,3.77,1.21,7.54a9.5,9.5,0,0,0-1.77,1.09c-.32-2.13-.65-4.26-1-6.39,0-.15-.28-.12-.26,0q.39,3.3.79,6.62a.31.31,0,0,1-.1.05c-.39.2-.8.38-1.21.55l-.39-2.25c0-.13-.22-.07-.2,0l.36,2.28c-.39.15-.79.28-1.19.39-.11-.55-.23-1.1-.34-1.66,0-.13-.23-.07-.2.06l.3,1.67c-.33.09-.67.17-1,.24-.05-.22-.11-.43-.16-.64a.14.14,0,0,0-.27.07,6.23,6.23,0,0,1,.15.62,20.82,20.82,0,0,1-4.73.34,29.89,29.89,0,0,1-6.18-.87,25.65,25.65,0,0,1-3.23-1c-.18-.07-.37-.16-.55-.25.31-2.05.62-4.1.95-6.15,0-.16-.23-.23-.26-.07-.37,2-.72,4-1.06,6a8.44,8.44,0,0,0-1.64-.72c.4-2.54.93-5.11,1.12-7.68a61.65,61.65,0,0,0,9.79.68A82.89,82.89,0,0,0,58.27,110Zm1.2-4c0,.53,0,1.06,0,1.6l0,1a2.44,2.44,0,0,0,0,.27c-1.51.21-3,.39-4.53.52l-.18,0c0-.11,0-.24,0-.38,0-.66,0-1.32,0-2a10.77,10.77,0,0,0-.16-2.94c1.73-.13,3.45-.34,5.16-.64A11,11,0,0,0,59.47,106Zm9.62,13.64c.26.64.54,1.3.82,2l-.5.47c-.17-.31-.35-.62-.54-.91a.1.1,0,0,0-.18.1c.19.32.37.64.53,1a8.58,8.58,0,0,1-.9.69l-.3-.54c0-.11-.21,0-.16.09s.2.38.29.57a11.68,11.68,0,0,1-3.24,1.46c-1.07.31-2.23.28-3.3.54q-.66-4.09-1.31-8.19c1.82.68,4.26.09,5.94-.65a8.56,8.56,0,0,0,2.05-1.24c.39.78.78,1.55,1.16,2.33.51,1,1,2.08,1.5,3.13-.24.3-.49.6-.75.88-.3-.59-.61-1.17-.91-1.73C69.23,119.44,69,119.51,69.09,119.63Zm-8.23,6.43c-.23.13-.44.31-.69.48s-.78.5-1.18.74c-.35-2.55-.73-5.09-1.12-7.63a8.43,8.43,0,0,0,1.78-1.09Q60.27,122.31,60.86,126.06Zm-21.8,1.07c-.08.4-.15.8-.22,1.2l-.66-.31.24-2.19c0-.14-.21-.17-.23,0-.11.69-.23,1.38-.35,2.07h0a8.46,8.46,0,0,1-.77-.44c.24-1.75.46-3.5.72-5.25.14-.91.27-1.82.41-2.73l.18.07a22.32,22.32,0,0,0,3.49,1.16,30.88,30.88,0,0,0,6.56.93,22,22,0,0,0,4.79-.37c.09.49.16,1,.25,1.46,0,.12.21.09.21,0a10.48,10.48,0,0,0-.17-1.48c.32-.07.65-.14,1-.23.17.94.35,1.87.57,2.79,0,.15.23.08.21,0-.15-.94-.33-1.88-.51-2.81a11.47,11.47,0,0,0,1.13-.37c.39,2.6.76,5.2,1.15,7.79q-.8.36-1.62.66a21.76,21.76,0,0,1-14.23.27c-.7-.23-1.4-.5-2.08-.79.06-.41.12-.83.2-1.25C39.32,127,39.09,127,39.06,127.13ZM27.81,121a2,2,0,0,0-.18.32,10.55,10.55,0,0,1-.71-.79c.31-.74.59-1.48.82-2.23a.12.12,0,0,0-.22-.09c-.33.61-.64,1.25-.92,1.9a12.32,12.32,0,0,1-.69-1.08L27,116.63c.41-.89.86-1.79,1.28-2.7a10.72,10.72,0,0,0,1.8,1.49,10.91,10.91,0,0,0,3,1.37,8.29,8.29,0,0,0,2.42.4c0,.26-.07.52-.11.78-.32,2.13-.62,4.25-.91,6.38a10.57,10.57,0,0,1-6.61-2.78,4.28,4.28,0,0,0,.17-.46A.12.12,0,0,0,27.81,121Zm8.41-2.69a5.84,5.84,0,0,0,1.6,1c-.16,1-.31,2-.46,2.94-.25,1.64-.51,3.28-.74,4.93a9.9,9.9,0,0,0-1.53-.83C35.45,123.66,35.83,121,36.22,118.33Zm19.91,2.09c.44-.16.86-.35,1.28-.55.33,2.57.68,5.13,1.09,7.69-.38.21-.76.4-1.15.59C57,125.57,56.57,123,56.13,120.42ZM43.49,109.48c-.22-1-.48-2-.7-3a13.42,13.42,0,0,0-.66-2.75c1.86.19,3.74.34,5.62.4,0,.12,0,.26,0,.41,0,.69.11,1.39.16,2.07s.11,1.28.17,1.92a2.52,2.52,0,0,0,.18,1C46.68,109.62,45.08,109.57,43.49,109.48Zm-16.2.87a36.79,36.79,0,0,0,1.52-3.67,15.7,15.7,0,0,0,4.46,2.24,28.23,28.23,0,0,0,3.43.87,59.67,59.67,0,0,0-1.1,6.55,18.6,18.6,0,0,1-2.33-.31,9.52,9.52,0,0,1-2.68-1.21,9.86,9.86,0,0,1-1.94-1.64,24.41,24.41,0,0,0,1.12-2.9.14.14,0,0,0-.26-.11,26.57,26.57,0,0,0-1.31,2.48c-.39-.55-.7-1.25-1.13-1.77C27.14,110.71,27.22,110.53,27.29,110.35Zm-1.66,4,1.07-2.55a8.17,8.17,0,0,0,1,1.45l.16.21c-.47,1.08-.92,2.18-1.39,3.25-.27.61-.54,1.23-.82,1.84a14.89,14.89,0,0,1-.59-1.49,3.23,3.23,0,0,0-.26-.72ZM34.09,127c-.2,1.52-.43,3-.59,4.55,0,0,0,.09,0,.13-2.46.07-4.9-1.45-6.71-3a11.08,11.08,0,0,1-4-6c-.25-1.44.5-2.81,1-4.1.15-.38.31-.75.46-1.13a12.09,12.09,0,0,0,.8,1.79l.12.22c-.52,1.17-1,2.35-1.49,3.55a.12.12,0,0,0,.21.09c.55-1,1-2.1,1.55-3.16a11.06,11.06,0,0,0,.73,1.06c-.3.77-.59,1.54-.85,2.3-.05.12.15.21.21.09.33-.66.65-1.32,1-2a10,10,0,0,0,.71.75c-.12.29-.23.58-.34.87,0,.11.13.18.19.08l.39-.73a11,11,0,0,0,6.85,2.85C34.25,125.84,34.17,126.44,34.09,127Zm27.2,7.48a11,11,0,0,1-2.82,2.18A20.93,20.93,0,0,1,42.2,139a14.08,14.08,0,0,1-6.31-3.39,4.56,4.56,0,0,1-1.52-3.71c.11-1.41.35-2.82.53-4.22l.09-.61a7.32,7.32,0,0,0,1.5,1c-.17,1.26-.31,2.53-.4,3.8,0,.15.24.18.26,0,.22-1.2.41-2.4.58-3.6l.47.25.3.16c-.14.91-.25,1.82-.31,2.73,0,.14.22.17.25,0,.18-.84.31-1.71.42-2.58l.64.31c-.05.48-.09,1-.1,1.45,0,.16.22.15.24,0l.15-1.33c.63.28,1.28.53,1.94.75a22.54,22.54,0,0,0,14.75-.22c.51-.19,1-.39,1.5-.61l.36,2.24c0,.13.25.1.23,0-.08-.79-.18-1.57-.29-2.35.4-.18.8-.38,1.19-.58.22,1.34.45,2.68.71,4,0,.15.3.12.28,0-.16-1.41-.34-2.82-.53-4.23.57-.32,1.12-.66,1.66-1l.24-.16.54,3.35C61.78,131.82,62.23,133.37,61.29,134.52Zm12.54-14.2c.35.64.76,1.26,1,1.92a2.18,2.18,0,0,1-.35,2.3A18.13,18.13,0,0,1,69.08,130a19.09,19.09,0,0,1-3.32,1.74c-.93.37-2.06.54-3,1a17.31,17.31,0,0,0-.36-2.6c-.23-1.47-.47-2.94-.7-4.4a8.23,8.23,0,0,0,3.42-.37,12.17,12.17,0,0,0,3.41-1.53l.21.39a.1.1,0,0,0,.17-.1c-.07-.13-.13-.26-.2-.4h0c.31-.21.6-.43.89-.66l.48,1c.05.11.23,0,.19-.08a10.8,10.8,0,0,0-.46-1.11l.47-.42a20.72,20.72,0,0,0,1,1.87c.07.11.25,0,.21-.08a21.3,21.3,0,0,0-.89-2.1,10,10,0,0,0,.76-.83c.47.94,1,1.87,1.51,2.75.08.12.31,0,.25-.11-.41-1-.89-2.07-1.4-3.08a12,12,0,0,0,1.25-2ZM71.44,116c.35.62.69,1.24,1,1.86a14.13,14.13,0,0,1-1.2,2.07c-.47-.91-1-1.81-1.41-2.72s-.85-1.69-1.27-2.54c.07-.07.15-.14.22-.22a4.88,4.88,0,0,0,1-1.39Zm-2.12-3.84a4,4,0,0,0-.43.8,4.2,4.2,0,0,1-.71.91c-.6-1.19-1.22-2.38-1.87-3.56-.06-.12-.23,0-.17.11.56,1.25,1.16,2.49,1.76,3.72a7.68,7.68,0,0,1-2.17,1.33,9.77,9.77,0,0,1-2.86.72c-.9.09-1.79,0-2.67,0q-.51-3.19-1-6.38c1.44-.21,2.88-.44,4.3-.72a19.8,19.8,0,0,0,3.62-1Zm-9-8.87c.8-.15,1.59-.32,2.38-.52s1.67-.45,2.5-.72a13.54,13.54,0,0,0-.25,2.43l-.3,3.38c-.59.14-1.17.25-1.75.36q-1.29.24-2.58.45a3.49,3.49,0,0,1,0-.45l0-1.12c0-.75,0-1.5,0-2.25A5.79,5.79,0,0,0,60.31,103.3ZM72.18,99c-.78,2.23-1.44,5-3.13,6.72A6.26,6.26,0,0,1,67.28,107a.53.53,0,0,0-.39.18,11,11,0,0,1-1.36.48c.09-1,.18-2,.26-3a9.61,9.61,0,0,0,.12-2.83,25.11,25.11,0,0,0,6.42-3.28Zm17.49.69c-.36,1.1-.73,2.2-1.13,3.29-.32.86-.79,2.06-1.74,2.39-1.22.41-2.77-1-3.69-1.67-1.14-.78-2.25-1.59-3.34-2.44a73.06,73.06,0,0,1-5.65-4.89c1.22-3.71,2.3-7.48,3.31-11.26.06-.21.11-.43.17-.64a20.43,20.43,0,0,0,2.55,2.38l3.47,3.11c2.31,2,4.56,4.25,7,6.16a.61.61,0,0,0,.14.1C90.4,97.36,90,98.52,89.67,99.67Zm2-7c-.22.85-.45,1.69-.68,2.52-2.18-2.12-4.57-4-6.85-6.06l-3.5-3.07a16.81,16.81,0,0,0-2.89-2.34q1.77-6.69,3.36-13.45a22.89,22.89,0,0,0,2.6,2.43c1.15,1,2.32,2.07,3.46,3.12l3.32,3a25.82,25.82,0,0,0,3.27,3,.39.39,0,0,0,.14,0C93.36,85.56,92.61,89.15,91.7,92.69ZM87.4,58.9C88.85,61,90.31,63,91.77,65s2.75,3.88,3,6.38a29,29,0,0,1-.35,6.83c-.11.93-.24,1.85-.38,2.78a28.24,28.24,0,0,0-2.8-2.67q-1.69-1.59-3.44-3.15t-3.37-3a18.84,18.84,0,0,0-3.18-2.5l.12-.49a90.33,90.33,0,0,0,2.49-15.31C85,55.64,86.24,57.27,87.4,58.9ZM22.6,26.33a100.17,100.17,0,0,1,7.31-10.75A83,83,0,0,1,39,5.33c3.35-3.1,7.6-5.51,12.2-3.63a25.91,25.91,0,0,1,6.2,4.06,63.21,63.21,0,0,1,5,4.43,76.24,76.24,0,0,1,8.66,10.32c1.25,1.79,2.44,3.63,3.56,5.5-1.12-.48-2.28-.89-3.42-1.29A56.71,56.71,0,0,0,65.44,23,63.75,63.75,0,0,0,54,21.3,66.34,66.34,0,0,0,30.75,24a41.58,41.58,0,0,0-6,2.35,31.49,31.49,0,0,0-3.23,1.78C21.89,27.55,22.24,26.94,22.6,26.33ZM15.24,43.2c.83-4.85,2.91-9.09,5.27-13.27,1.43-.77,2.75-1.78,4.2-2.51a41,41,0,0,1,5.19-2.13A62.6,62.6,0,0,1,41,22.77,64.44,64.44,0,0,1,64,23.68a60,60,0,0,1,6.2,1.74c1.79.61,3.5,1.38,5.25,2.08.86,1.49,1.69,3,2.47,4.54a42,42,0,0,1,4.73,14.21c1.22,10.29-1.7,20.58-4.15,30.47-1.24,5-2.52,10-4,14.92-.54,1.82-1.12,3.65-1.72,5.46a.31.31,0,0,0-.2.07,31.49,31.49,0,0,1-9.15,4.42,45.41,45.41,0,0,1-10.1,1.57c-6.7.34-13.69,0-20.13-2A30.64,30.64,0,0,1,28,99c-1.29-.68-2.46-1.55-3.69-2.31-.51-1.67-1-3.35-1.47-5Q20.62,84,18.74,76.18c-1.23-5.05-2.42-10.13-3.24-15.26A54.33,54.33,0,0,1,15.24,43.2ZM.91,71.76C1,69.4,2.84,67.2,4.13,65.32,5.75,63,7.51,60.71,9.32,58.5c1.46-1.77,3-3.46,4.45-5.26a87.91,87.91,0,0,0,2,14.26,5.4,5.4,0,0,0-1.42,1.2l-1.9,1.85-3.8,3.68-3.79,3.7L3,79.78c-.3.3-.64.59-.94.9-.05-.34-.11-.69-.16-1-.19-1.24-.37-2.48-.53-3.73A24.27,24.27,0,0,1,.91,71.76Z"/><path class="cls-9" d="M52.05,54.41a10.25,10.25,0,0,0,6.32-11.67,7,7,0,0,0-.29-1,10.55,10.55,0,0,0-1.58-2.89,10.12,10.12,0,0,0-5.23-3.6A10.07,10.07,0,0,0,40.67,51.2,10.33,10.33,0,0,0,52.05,54.41Zm2-16.67A9.35,9.35,0,0,1,57.13,48a9,9,0,0,1-2.73,3.89,9,9,0,0,1-14.55-4.25C37.37,39.42,47.21,32.56,54,37.74Z"/><path class="cls-9" d="M51.93,66a10.07,10.07,0,1,0,.79,19.15A10.25,10.25,0,0,0,59,73.48a7,7,0,0,0-.29-1,10.55,10.55,0,0,0-1.58-2.89A10.11,10.11,0,0,0,51.93,66ZM57.8,78.71a9,9,0,0,1-2.73,3.89,9.24,9.24,0,0,1-6,2.21,9.35,9.35,0,0,1-8.52-6.46c-2.47-8.19,7.37-15,14.2-9.87A9.35,9.35,0,0,1,57.8,78.71Z"/><path class="cls-9" d="M43,56.91a13.3,13.3,0,0,0,15.77-3.5,13.43,13.43,0,0,0,1-15.77,13.07,13.07,0,0,0-24,8.14A13,13,0,0,0,43,56.91Zm.26-23a12.35,12.35,0,1,1,2.05,23.07,12,12,0,0,1-6.87-5.15,11.81,11.81,0,0,1-1.72-5.28.27.27,0,0,0,0-.09A12.68,12.68,0,0,1,43.29,33.87Z"/><path class="cls-9" d="M45.57,63a13.19,13.19,0,0,0-9.23,13.57,13,13,0,0,0,7.19,11.13,13.26,13.26,0,1,0,2-24.7ZM59.92,81.73a12.51,12.51,0,0,1-14.08,6A12.13,12.13,0,0,1,39,82.54a11.89,11.89,0,0,1-1.72-5.29.14.14,0,0,0,0-.09A12.67,12.67,0,0,1,43.8,64.61,12.26,12.26,0,0,1,59.92,81.73Z"/><path class="cls-9" d="M82.92,91.54a33.9,33.9,0,0,0-4-3.25.11.11,0,0,0-.14.17,42.42,42.42,0,0,0,4,3.72,38.11,38.11,0,0,0,3.94,3.37c.2.13.37-.14.24-.3A32.59,32.59,0,0,0,82.92,91.54Z"/><path class="cls-9" d="M82.2,93a23.55,23.55,0,0,0-2.49-2.09c-.13-.09-.25.1-.16.2a23.5,23.5,0,0,0,2.52,2.47,19.08,19.08,0,0,0,2.47,2.12c.17.11.3-.12.2-.25A22.62,22.62,0,0,0,82.2,93Z"/><path class="cls-9" d="M80.75,93.22c-.14-.12-.34.07-.2.2.76.7,1.51,1.44,2.33,2.07.12.08.25-.1.16-.2C82.33,94.54,81.52,93.89,80.75,93.22Z"/><path class="cls-9" d="M83.34,85.5c-1.37-1.12-2.71-2.29-4.17-3.28-.14-.09-.29.12-.18.23,1.32,1.3,2.81,2.44,4.24,3.62s2.73,2.25,4.16,3.3c.16.11.35-.15.21-.28C86.23,87.84,84.78,86.67,83.34,85.5Z"/><path class="cls-9" d="M87,77.9c-1.68-1.49-3.38-3-5.14-4.33-.13-.1-.32.07-.19.19,1.67,1.48,3.37,2.94,5,4.42s3.26,3.07,5,4.49a.15.15,0,0,0,.21-.21C90.42,80.83,88.7,79.37,87,77.9Z"/><path class="cls-9" d="M83.41,76.1c-.13-.11-.32.07-.19.19a40.94,40.94,0,0,0,4.92,4.39c.14.09.29-.12.17-.23C86.76,78.93,85,77.56,83.41,76.1Z"/><path class="cls-9" d="M86,80.12c.12.09.27-.1.16-.21-.75-.69-1.52-1.35-2.21-2.1-.09-.11-.23,0-.15.15A9.8,9.8,0,0,0,86,80.12Z"/><path class="cls-9" d="M87.27,72.68a39.76,39.76,0,0,0,4.42,3.48.16.16,0,0,0,.19-.25,42.06,42.06,0,0,0-4.51-3.79c-1.45-1.17-2.89-2.37-4.43-3.44-.11-.08-.25.1-.15.19C84.21,70.22,85.76,71.44,87.27,72.68Z"/><path class="cls-9" d="M86.59,70.53A14.56,14.56,0,0,0,88.44,72a.13.13,0,0,0,.16-.21,18.75,18.75,0,0,0-2-1.71c-.61-.51-1.19-1-1.83-1.5-.11-.07-.22.09-.14.18A24.69,24.69,0,0,0,86.59,70.53Z"/><path class="cls-9" d="M88.06,70.27a.12.12,0,0,0,.14-.19,15.32,15.32,0,0,0-1.92-1.48c-.13-.09-.29.12-.17.22A14.5,14.5,0,0,0,88.06,70.27Z"/><path class="cls-9" d="M14.85,89.11c.1-.13,0-.38-.21-.26a44.29,44.29,0,0,0-3.82,3.32A27.11,27.11,0,0,0,7.15,95.6c-.08.11.07.22.17.17a20.37,20.37,0,0,0,3.83-3A29.36,29.36,0,0,0,14.85,89.11Z"/><path class="cls-9" d="M13.73,91.92a53.78,53.78,0,0,0-4.67,3.7.14.14,0,0,0,.17.23,25.4,25.4,0,0,0,4.67-3.71C14,92,13.87,91.82,13.73,91.92Z"/><path class="cls-9" d="M13,94.14a8,8,0,0,0-2,1.45c-.11.11,0,.31.17.22.69-.44,1.34-1,2-1.49C13.3,94.24,13.16,94.08,13,94.14Z"/><path class="cls-9" d="M10.68,75.69c.11-.12,0-.34-.18-.23a40.6,40.6,0,0,0-3.46,3c-1.18,1.08-2.44,2.13-3.52,3.32-.1.11,0,.31.17.21,1.22-.9,2.33-2,3.46-3A42.51,42.51,0,0,0,10.68,75.69Z"/><path class="cls-9" d="M7.9,79.65c.09-.09,0-.26-.14-.18A17.66,17.66,0,0,0,4.92,82c-.09.09,0,.26.14.19A18.17,18.17,0,0,0,7.9,79.65Z"/><path class="cls-9" d="M7.35,81.17a12.6,12.6,0,0,0-1.46,1.37c-.1.11.06.26.17.17a13.07,13.07,0,0,0,1.45-1.33C7.6,81.27,7.48,81.07,7.35,81.17Z"/><path class="cls-9" d="M3.17,77.3c1.53-1.3,3-2.69,4.45-4.07A52,52,0,0,0,11.92,69c.13-.14,0-.42-.22-.28a53.11,53.11,0,0,0-4.34,4c-1.49,1.43-3,2.86-4.39,4.37C2.84,77.23,3,77.41,3.17,77.3Z"/><path class="cls-9" d="M3.42,75c1.32-1.18,2.71-2.33,3.94-3.6.12-.12,0-.35-.19-.24a28.33,28.33,0,0,0-4,3.62A.16.16,0,0,0,3.42,75Z"/><path class="cls-9" d="M3.5,73.17a14.57,14.57,0,0,0,1.61-1.33c.1-.1,0-.28-.15-.2A14.8,14.8,0,0,0,3.37,73C3.28,73.08,3.4,73.25,3.5,73.17Z"/><path class="cls-9" d="M10.19,87.62c-.09.1,0,.28.15.19,1.24-.89,2.37-2,3.53-3s2.52-2.08,3.64-3.25c.15-.16-.05-.45-.23-.31a45.51,45.51,0,0,0-3.5,3C12.58,85.4,11.3,86.44,10.19,87.62Z"/><path class="cls-9" d="M13.17,84.13a28.34,28.34,0,0,0,2.17-1.92c.1-.11,0-.3-.16-.21A27,27,0,0,0,13,84C12.87,84.06,13.05,84.23,13.17,84.13Z"/><path class="cls-9" d="M18.74,97.33c-2.16,1.41-4,3.33-6,5-.13.11.05.35.19.24a38,38,0,0,0,6-5C19,97.42,18.87,97.25,18.74,97.33Z"/><path class="cls-9" d="M75.84,95.62a.12.12,0,0,0-.18.17,41.71,41.71,0,0,0,7.2,5.92c.16.11.28-.13.14-.24C80.56,99.58,78.22,97.58,75.84,95.62Z"/><path class="cls-9" d="M27.76,82.8c1,5.06,2.11,10.13,3.54,15.09a.33.33,0,0,0,.64-.18C29.8,89,27.78,80.35,26.41,71.5q-1.05-6.81-1.73-13.68c-.43-4.42-.87-8.89-.86-13.34a41.83,41.83,0,0,1,2.7-14.56c.06-.17-.22-.29-.29-.13-3.7,8.27-3.17,17.31-2.38,26.1A259.53,259.53,0,0,0,27.76,82.8Z"/><path class="cls-9" d="M30.53,80.53c0,.15.29.13.27,0-.46-3.57-1.27-7.11-1.89-10.66S27.85,62.51,27,58.92c0-.13-.25-.1-.24,0a92.18,92.18,0,0,0,1.52,10.72A95.43,95.43,0,0,0,30.53,80.53Z"/><path class="cls-9" d="M30.77,73.07c-.14-1.31-.5-2.59-.74-3.89s-.47-2.78-.66-4.18c0-.15-.29-.12-.28,0a29,29,0,0,0,1.4,8.07C30.54,73.24,30.79,73.24,30.77,73.07Z"/><path class="cls-9" d="M30.81,67.27a14.92,14.92,0,0,0,.63,3.88.12.12,0,0,0,.23-.06c-.22-1.27-.48-2.53-.6-3.82C31.06,67.11,30.81,67.11,30.81,67.27Z"/><path class="cls-9" d="M73.47,52.62a140.31,140.31,0,0,1-1.21,14.17q-.87,7.09-1.75,14.2c-.66,5.38-1.49,10.77-1.88,16.18,0,.21.33.26.36,0,.83-4.77,1.29-9.61,1.89-14.42s1.21-9.8,1.81-14.7C73.82,59,75,49.59,73,40.48A31.22,31.22,0,0,0,67.43,28c-.11-.13-.33,0-.24.18C72.09,35.43,73.62,44,73.47,52.62Z"/><path class="cls-9" d="M69.77,77.22c.26-1.82.49-3.64.62-5.48A35,35,0,0,0,70.56,66c0-.13-.23-.19-.25,0-.26,1.8-.22,3.67-.35,5.49s-.27,3.85-.46,5.77C69.49,77.34,69.75,77.37,69.77,77.22Z"/><path class="cls-9" d="M69,74.28c.17-1.58.15-3.18.19-4.76,0-.17-.25-.16-.26,0-.07,1.58-.21,3.18-.15,4.76A.11.11,0,0,0,69,74.28Z"/><path class="cls-9" d="M74.57,42.52c.25,1.59.32,3.19.41,4.79a.13.13,0,0,0,.25,0A20,20,0,0,0,73.78,38c-.06-.13-.27-.09-.23.06A45.27,45.27,0,0,1,74.57,42.52Z"/><path class="cls-9" d="M75.92,44.28a.14.14,0,0,0,.27,0,7.45,7.45,0,0,0-.43-4.17c-.06-.15-.3-.09-.25.07A11.62,11.62,0,0,1,75.92,44.28Z"/><path class="cls-9" d="M76.83,43.21c0,.14.19.13.21,0A5.72,5.72,0,0,0,77,41.32c0-.14-.24-.08-.22.07A7.39,7.39,0,0,1,76.83,43.21Z"/><path class="cls-9" d="M22,48.1a49.63,49.63,0,0,1,.89-11.47c0-.17-.22-.24-.26-.07a28.64,28.64,0,0,0-.85,11.57C21.76,48.26,22,48.23,22,48.1Z"/><path class="cls-9" d="M20.5,45.2a22.66,22.66,0,0,1,.39-5.39.11.11,0,0,0-.22-.06,11.56,11.56,0,0,0-.5,5.5C20.2,45.43,20.5,45.39,20.5,45.2Z"/><path class="cls-9" d="M19.51,43.87a4.27,4.27,0,0,1-.1-2.35.12.12,0,0,0-.23-.06,3.43,3.43,0,0,0,.11,2.5C19.35,44.08,19.54,44,19.51,43.87Z"/><path class="cls-9" d="M20.49,75c-1.14-6.88-2.41-13.72-3.44-20.62,0-.13-.26-.1-.24,0,.92,6.9,2,13.86,3.45,20.65C20.29,75.26,20.51,75.19,20.49,75Z"/><path class="cls-9" d="M77.57,67a77.51,77.51,0,0,0,1.62-15.63.13.13,0,0,0-.26,0A114.48,114.48,0,0,1,77.31,67C77.28,67.14,77.54,67.21,77.57,67Z"/><path class="cls-9" d="M37.39,98.57c-.5-3.57-1.25-7.09-1.69-10.67,0-.18-.29-.18-.27,0a59.91,59.91,0,0,0,1.7,10.74C37.18,98.82,37.41,98.74,37.39,98.57Z"/><path class="cls-9" d="M37.44,92c.31,1.14.49,2.28.69,3.44,0,.11.21.08.2,0A17,17,0,0,0,37.69,92,.13.13,0,0,0,37.44,92Z"/><path class="cls-9" d="M31.18,39.25a32.89,32.89,0,0,1,1.26-11.63c.05-.15-.18-.21-.23-.06A26.36,26.36,0,0,0,31,39.25C31,39.38,31.18,39.39,31.18,39.25Z"/><path class="cls-9" d="M33.45,33.56a16.48,16.48,0,0,1,.49-4.07.11.11,0,0,0-.21-.06,12.07,12.07,0,0,0-.53,4.13A.13.13,0,0,0,33.45,33.56Z"/><path class="cls-9" d="M35.26,32.37c.07-.66.12-1.32.17-2,0-.14-.21-.14-.22,0-.06.66-.12,1.32-.16,2C35.05,32.51,35.25,32.5,35.26,32.37Z"/><path class="cls-9" d="M38,20.1a45.68,45.68,0,0,1,8.36-1.43c2.77-.18,5.49.16,8.25.24a.25.25,0,0,0,.07-.48,23.43,23.43,0,0,0-8.47-.51,30.23,30.23,0,0,0-8.3,1.83C37.68,19.83,37.76,20.17,38,20.1Z"/><path class="cls-9" d="M42.37,16.85a25.16,25.16,0,0,1,3.76-.7c1.2-.11,2.39,0,3.59-.1a.18.18,0,0,0,.05-.36,13.26,13.26,0,0,0-7.52.72A.23.23,0,0,0,42.37,16.85Z"/><path class="cls-9" d="M43.77,14.67c1.1-.12,2.26-.19,3.34-.4a.15.15,0,0,0,0-.29,7,7,0,0,0-3.38.4C43.58,14.43,43.59,14.69,43.77,14.67Z"/><path class="cls-9" d="M44.45,13.19a4.34,4.34,0,0,1,.87-.18c.28,0,.55,0,.83,0s.24-.23.08-.31a2.07,2.07,0,0,0-1.9.22A.16.16,0,0,0,44.45,13.19Z"/><path class="cls-9" d="M44.26,50.1c1.05-1.66,2-3.38,3-5.07a34.91,34.91,0,0,0,2.77-4.91c0-.13-.15-.24-.24-.14a26.83,26.83,0,0,0-3.06,4.74c-1,1.71-2,3.43-2.8,5.21C43.87,50.13,44.15,50.3,44.26,50.1Z"/><path class="cls-9" d="M49.58,43.36A21.68,21.68,0,0,0,47.89,46a9.86,9.86,0,0,0-1.43,2.77.11.11,0,0,0,.19.11,10.08,10.08,0,0,0,1.73-2.6,22,22,0,0,0,1.45-2.76C49.89,43.37,49.68,43.24,49.58,43.36Z"/><path class="cls-9" d="M48.91,47.69a13.08,13.08,0,0,0,1.43-2.31c.06-.12-.1-.27-.2-.15a13,13,0,0,0-1.49,2.26C48.57,47.65,48.79,47.85,48.91,47.69Z"/><path class="cls-9" d="M50.68,70.94a.27.27,0,0,0-.44-.26,36.65,36.65,0,0,0-2.9,4.76c-1,1.69-2,3.38-2.85,5.11-.16.23.22.46.38.22,1.07-1.63,2.07-3.3,3.07-5A38.77,38.77,0,0,0,50.68,70.94Z"/><path class="cls-9" d="M50,74.84a20.64,20.64,0,0,0-2.32,3.74c-.07.16.12.34.25.2A13.55,13.55,0,0,0,50.28,75,.19.19,0,0,0,50,74.84Z"/><path class="cls-9" d="M50.51,76.67a5.67,5.67,0,0,0-1.07,1.67.17.17,0,0,0,.29.17,5.65,5.65,0,0,0,1-1.71A.14.14,0,0,0,50.51,76.67Z"/></g></g></g></svg>